<svg width="131" height="124" viewBox="0 0 131 124" fill="none" xmlns="http://www.w3.org/2000/svg">
<g filter="url(#filter0_d_344_56)">
<path d="M57.4396 54.0143C57.2624 54.0142 57.0902 53.9648 56.9496 53.8737C56.809 53.7827 56.7078 53.655 56.6618 53.5105C56.5691 53.2177 47.2961 24.1398 45.66 14.9317C44.592 8.91324 46.7118 5.35254 48.6784 3.42581C49.7962 2.33062 51.1852 1.45624 52.7472 0.864478C54.3092 0.27272 56.006 -0.0219604 57.7176 0.00127463C64.8789 0.00127463 68.5421 5.4887 69.4771 8.389C70.2831 10.9149 71.6613 15.3096 71.6774 15.3538C71.7219 15.5258 71.6857 15.7057 71.5765 15.8557C71.4672 16.0057 71.2934 16.1141 71.0916 16.1581C70.8898 16.2022 70.6756 16.1785 70.494 16.092C70.3124 16.0055 70.1776 15.8629 70.1178 15.6942C70.1178 15.65 68.7356 11.2689 67.9215 8.73963C67.1075 6.21037 63.9036 1.36292 57.7176 1.36292C56.2384 1.34263 54.7718 1.59635 53.4211 2.10625C52.0704 2.61614 50.8683 3.36982 49.8995 4.31428C48.1545 6.01634 46.2725 9.22301 47.2558 14.7309C48.8678 23.8641 58.1368 52.8569 58.2214 53.1565C58.2768 53.3307 58.2481 53.5164 58.1416 53.6728C58.035 53.8292 57.8594 53.9434 57.6532 53.9905C57.5837 54.007 57.5117 54.015 57.4396 54.0143Z" fill="#263238"/>
<path d="M12.0179 86.6529C8.64884 86.6529 5.90846 85.6691 4.52618 82.8164C1.74953 77.1009 10.3898 73.3564 20.3922 69.0162C23.6161 67.6205 26.9449 66.1738 30.1205 64.5908C42.1661 58.5281 41.2956 54.4874 41.2835 54.4466C41.2391 54.2746 41.2752 54.0947 41.3845 53.9447C41.4937 53.7947 41.6675 53.6863 41.8693 53.6423C42.0711 53.5982 42.2853 53.6219 42.4669 53.7084C42.6485 53.7949 42.7833 53.9375 42.8431 54.1062C43.0003 54.61 43.9957 59.2124 30.9466 65.7653C27.7227 67.3856 24.3697 68.829 21.1296 70.2485C11.8325 74.2789 3.80079 77.7613 6.01727 82.3195C8.48361 87.4018 16.9183 84.9883 25.079 82.6599C30.1326 81.2165 34.9041 79.8515 37.8822 80.5357C40.5339 81.1484 41.078 82.7007 41.3681 83.5347C41.4084 83.6674 41.4609 83.7971 41.5253 83.9228C41.6642 84.0567 41.7355 84.2312 41.7239 84.4089C41.7123 84.5867 41.6187 84.7535 41.4633 84.8737C41.3078 84.9939 41.1028 85.0579 40.8922 85.0519C40.6816 85.046 40.4821 84.9706 40.3365 84.8419C40.0802 84.5738 39.9046 84.2573 39.8247 83.9194C39.5667 83.1807 39.2443 82.2616 37.4591 81.8497C34.9565 81.271 30.4107 82.5748 25.5948 83.95C20.9926 85.2402 16.0519 86.6529 12.0179 86.6529Z" fill="#263238"/>
<path d="M96.7075 73.2645C96.5667 73.2664 96.4278 73.237 96.3045 73.1794C96.2119 73.1361 96.1302 73.0778 96.0643 73.0078C95.9984 72.9378 95.9494 72.8575 95.9202 72.7715C95.891 72.6855 95.8822 72.5955 95.8942 72.5066C95.9062 72.4177 95.9388 72.3317 95.9902 72.2535C100.197 65.8606 107.782 63.9713 114.48 62.3067C116.816 61.7653 119.115 61.1153 121.367 60.3595C123.934 59.4438 125.397 57.1971 124.7 55.2534C123.511 51.931 116.434 49.3098 100.141 51.9173C92.8388 53.085 87.2452 52.5982 83.5094 50.4229C80.2854 48.5609 79.7252 46.1406 79.7011 46.0385C79.6666 45.8628 79.7149 45.6828 79.8356 45.5369C79.9563 45.391 80.1399 45.2909 80.347 45.2579C80.5541 45.225 80.7683 45.2619 80.9436 45.3607C81.1189 45.4595 81.2414 45.6124 81.2848 45.7865C81.3614 46.1065 83.2434 53.2347 99.8227 50.5795C121.649 47.0869 125.554 52.9624 126.227 54.8585C127.174 57.5069 125.348 60.414 121.979 61.6157C119.673 62.3955 117.316 63.0627 114.919 63.6139C108.205 65.2853 101.269 67.018 97.3846 72.9173C97.3166 73.0195 97.2186 73.1052 97.1 73.166C96.9814 73.2268 96.8462 73.2608 96.7075 73.2645Z" fill="#263238"/>
<path d="M71.7175 19.6702C71.3649 19.6697 71.0223 19.5715 70.742 19.3908C70.4618 19.21 70.2594 18.9566 70.166 18.6694L68.5177 13.5633C68.4619 13.3907 68.4469 13.2105 68.4735 13.0331C68.5 12.8556 68.5678 12.6843 68.6727 12.5289C68.7777 12.3736 68.9179 12.2372 69.0852 12.1276C69.2526 12.018 69.4439 11.9373 69.6481 11.8901C69.8524 11.843 70.0657 11.8303 70.2758 11.8527C70.4859 11.8752 70.6887 11.9324 70.8726 12.021C71.0566 12.1097 71.218 12.2281 71.3478 12.3695C71.4775 12.5109 71.573 12.6724 71.6289 12.845L73.2771 17.9512C73.3327 18.1237 73.3475 18.3038 73.3207 18.4812C73.2939 18.6586 73.2259 18.8298 73.1208 18.985C73.0156 19.1402 72.8753 19.2764 72.7078 19.3858C72.5404 19.4952 72.349 19.5756 72.1447 19.6226C72.0057 19.6553 71.8619 19.6714 71.7175 19.6702Z" fill="#263238"/>
<path d="M94.5353 72.3523C94.5353 72.3523 96.4576 69.5677 98.3799 70.7285C100.302 71.8893 96.1836 74.2075 97.8318 74.6705C99.4801 75.1334 102.773 73.9896 103.877 76.9921C104.981 79.9945 101.676 81.397 98.3839 80.7025C95.0914 80.0081 92.339 77.2235 94.5353 72.3523Z" fill="white"/>
<path d="M100.028 81.0463C99.456 81.0459 98.886 80.9853 98.3316 80.8659C97.4709 80.7009 96.6623 80.3814 95.9608 79.9291C95.2592 79.4769 94.6809 78.9024 94.2653 78.2448C93.278 76.6516 93.3102 74.5921 94.3459 72.291V72.2671C94.3943 72.1957 95.5267 70.5651 96.9815 70.3098C97.2405 70.2627 97.5084 70.2633 97.7671 70.3114C98.0258 70.3596 98.2691 70.4542 98.4807 70.5889C99.6897 71.314 98.8313 72.4305 98.2147 73.2475C97.8842 73.6867 97.5417 74.1394 97.6303 74.3539C97.6303 74.3777 97.6706 74.4526 97.8762 74.5105C98.4037 74.6168 98.9465 74.6592 99.4882 74.6364C101.14 74.6364 103.196 74.6364 104.03 76.941C104.594 78.4898 104.002 79.4498 103.401 79.9843C102.951 80.3421 102.421 80.6203 101.842 80.8027C101.262 80.9851 100.646 81.0679 100.028 81.0463ZM94.7167 72.4271C93.7253 74.6296 93.6931 76.587 94.62 78.0882C95.011 78.7022 95.5532 79.2384 96.2101 79.6606C96.867 80.0827 97.6234 80.3812 98.4283 80.5357C100.31 80.934 102.16 80.6242 103.143 79.7494C103.893 79.0685 104.078 78.1426 103.679 77.0261C102.93 74.9836 101.12 74.9836 99.5204 74.9632C98.9309 74.9873 98.3405 74.9391 97.7674 74.8202C97.6558 74.7964 97.5524 74.7507 97.4655 74.6868C97.3787 74.6229 97.3109 74.5427 97.2676 74.4526C97.1105 74.0815 97.4732 73.605 97.8923 73.0501C98.6257 72.0765 99.1013 71.348 98.263 70.8544C98.0978 70.7462 97.9063 70.6699 97.7023 70.6311C97.4982 70.5923 97.2865 70.5918 97.0823 70.6298C95.8733 70.8647 94.8174 72.2842 94.7167 72.4271Z" fill="#263238"/>
<path d="M102.474 80.5459C102.435 80.5457 102.396 80.5363 102.362 80.5186C102.317 80.4937 102.287 80.455 102.276 80.411C102.266 80.367 102.276 80.3213 102.305 80.2838C104.614 77.3086 100.887 75.0925 100.725 75.0006C100.682 74.9745 100.652 74.935 100.642 74.8904C100.632 74.8459 100.643 74.7999 100.673 74.7623C100.688 74.7437 100.706 74.7278 100.728 74.7155C100.75 74.7032 100.775 74.6947 100.801 74.6906C100.827 74.6865 100.854 74.6868 100.879 74.6915C100.905 74.6962 100.93 74.7052 100.951 74.718C100.991 74.7419 105.166 77.2167 102.636 80.4676C102.618 80.4908 102.595 80.5101 102.567 80.5238C102.539 80.5374 102.507 80.545 102.474 80.5459Z" fill="#263238"/>
<path d="M95.9822 109.808L55.8317 115.101C53.1558 115.441 50.4275 113.562 49.7424 110.873L28.8914 29.1541C27.6824 25.3006 31.7889 23.2479 34.4648 22.8939L72.6447 18.3528C75.3206 18.0124 78.0449 19.8915 78.734 22.5807L102.265 104.167C102.95 106.86 101.302 109.137 95.9822 109.808Z" fill="white"/>
<path d="M55.1868 115.315C52.6439 115.315 50.1977 113.457 49.5448 110.911L28.6938 29.1881C28.4663 28.5501 28.4061 27.8779 28.5175 27.2183C28.6289 26.5587 28.9091 25.9275 29.3386 25.3687C30.5959 23.7483 32.8688 22.9313 34.4365 22.7271L72.6164 18.1826C75.389 17.8184 78.2221 19.7757 78.9273 22.5467L102.458 104.13C102.64 104.704 102.675 105.304 102.563 105.891C102.45 106.477 102.192 107.037 101.805 107.534C100.774 108.793 98.8273 109.61 96.0103 109.968L55.8638 115.261C55.6402 115.295 55.4138 115.313 55.1868 115.315ZM73.2894 18.4788C73.0829 18.4788 72.8768 18.4925 72.6728 18.5196L34.4929 23.0641C33.0139 23.2581 30.866 24.0275 29.6771 25.5559C29.2776 26.076 29.0176 26.6636 28.9152 27.2775C28.8129 27.8914 28.8707 28.5168 29.0847 29.1098L49.9398 110.836C50.6047 113.436 53.2323 115.261 55.7993 114.921L95.9499 109.614C98.654 109.273 100.512 108.5 101.471 107.323C101.828 106.864 102.065 106.346 102.168 105.804C102.271 105.262 102.237 104.707 102.067 104.177L78.5364 22.6216C77.9279 20.2285 75.651 18.4788 73.2894 18.4788Z" fill="#263238"/>
<path d="M98.7265 108.882L58.584 114.175C55.9081 114.516 53.1839 112.633 52.4988 109.944L31.6356 28.2248C30.9505 25.5355 32.5625 23.0709 35.2384 22.7169L75.389 17.4235C78.0649 17.0831 80.7932 18.9656 81.4782 21.6548L102.329 103.374C103.018 106.063 101.402 108.528 98.7265 108.882Z" fill="#263238"/>
<path d="M57.9352 114.379C55.3882 114.379 52.942 112.521 52.2932 109.974L31.4381 28.2554C31.2428 27.5626 31.2153 26.8436 31.3573 26.1416C31.4992 25.4397 31.8078 24.7692 32.2643 24.1705C32.5978 23.7467 33.0312 23.3856 33.5373 23.1097C34.0435 22.8339 34.6116 22.6491 35.2062 22.5671L75.3567 17.2737C78.1334 16.9061 80.9664 18.8635 81.6757 21.6344L102.511 103.333C102.712 104.028 102.745 104.751 102.606 105.457C102.468 106.163 102.161 106.839 101.705 107.442C101.37 107.865 100.936 108.226 100.429 108.502C99.9222 108.778 99.3537 108.963 98.7587 109.045L58.6082 114.339C58.3855 114.368 58.1604 114.381 57.9352 114.379ZM76.0378 17.5461C75.8313 17.5461 75.6251 17.5598 75.4212 17.5869L35.2706 22.8803C34.7296 22.955 34.2127 23.1233 33.7522 23.3746C33.2918 23.6259 32.8977 23.9548 32.5947 24.3407C32.1674 24.9047 31.8796 25.536 31.7487 26.1965C31.6178 26.857 31.6465 27.533 31.8331 28.1839L52.6841 109.903C53.3491 112.5 55.9766 114.328 58.5477 113.988L98.6983 108.691C99.2387 108.616 99.7551 108.448 100.215 108.197C100.675 107.945 101.068 107.617 101.37 107.231C101.799 106.667 102.088 106.036 102.22 105.376C102.352 104.715 102.323 104.039 102.136 103.388L81.2808 21.6889C80.6722 19.306 78.3953 17.5529 76.0418 17.5529L76.0378 17.5461Z" fill="#263238"/>
<path d="M98.924 99.1732L53.5989 105.147L34.6218 30.7711L79.9428 24.7934L98.924 99.1732Z" fill="#92E3A9"/>
<path d="M53.5989 105.318C53.5535 105.318 53.5095 105.304 53.4742 105.28C53.439 105.256 53.4147 105.222 53.4054 105.185L34.4243 30.805C34.4134 30.7594 34.4235 30.7119 34.4525 30.6723C34.4685 30.6532 34.4888 30.637 34.5124 30.6247C34.5359 30.6125 34.5622 30.6043 34.5895 30.6008L79.9105 24.6266C79.9615 24.6203 80.0135 24.6305 80.056 24.6551C80.0986 24.6797 80.1286 24.7169 80.1402 24.7593L99.1214 99.1357C99.1273 99.1586 99.1275 99.1822 99.1219 99.205C99.1164 99.2279 99.1052 99.2495 99.0891 99.2685C99.0575 99.306 99.0098 99.3317 98.9561 99.34L53.6311 105.318H53.5989ZM34.8636 30.9106L53.748 104.957L98.674 99.0336L79.7856 24.9874L34.8636 30.9106Z" fill="#263238"/>
<path d="M60.3854 47.8494C60.8489 49.7251 60.5628 51.3488 59.7568 51.4748C58.9508 51.6007 57.9231 50.1812 57.4637 48.3056C57.0043 46.4299 57.2864 44.8061 58.0924 44.6802C58.8984 44.5542 59.926 45.9567 60.3854 47.8494Z" fill="#263238"/>
<path d="M70.3394 46.2768C70.7988 48.1524 70.5167 49.7762 69.7067 49.9055C68.8967 50.0349 67.8731 48.612 67.4137 46.7363C66.9543 44.8606 67.2364 43.2369 68.0423 43.1109C68.8483 42.985 69.8679 44.4011 70.3394 46.2768Z" fill="#263238"/>
<path d="M65.2496 62.9126C60.4861 62.9126 55.7912 60.4446 52.8695 56.2678C52.7873 56.1142 52.7755 55.9403 52.8364 55.7798C52.8972 55.6193 53.0264 55.4835 53.1989 55.3988C53.3714 55.3141 53.5749 55.2865 53.7702 55.3212C53.9654 55.356 54.1384 55.4507 54.2558 55.587C57.2622 59.883 62.2795 62.1739 67.055 61.425C71.7015 60.7 75.2479 57.1699 76.0821 52.4382C76.0977 52.3488 76.134 52.2628 76.1889 52.1853C76.2439 52.1077 76.3164 52.0401 76.4022 51.9862C76.4881 51.9323 76.5857 51.8932 76.6895 51.8712C76.7933 51.8491 76.9011 51.8446 77.007 51.8578C77.1128 51.871 77.2146 51.9016 77.3064 51.948C77.3982 51.9944 77.4783 52.0556 77.5421 52.1282C77.6059 52.2007 77.6521 52.2832 77.6782 52.3708C77.7043 52.4585 77.7097 52.5496 77.6941 52.639C76.7551 57.9562 72.701 61.9288 67.3653 62.7662C66.6668 62.8695 65.9586 62.9185 65.2496 62.9126Z" fill="#263238"/>
<path d="M45.7462 58.3005L43.6819 61.8662L44.0439 62.0157L46.1082 58.45L45.7462 58.3005Z" fill="white"/>
<path d="M63.0578 28.4204L47.6056 55.1109L47.9676 55.2604L63.4198 28.57L63.0578 28.4204Z" fill="white"/>
<path d="M58.2308 28.6621L51.7642 39.124L52.1214 39.2815L58.588 28.8197L58.2308 28.6621Z" fill="white"/>
<path d="M88.5715 87.894L81.3984 99.8786L81.7581 100.032L88.9312 88.0476L88.5715 87.894Z" fill="white"/>
<path d="M91.8968 82.3559L89.6676 86.0804L90.0272 86.234L92.2565 82.5095L91.8968 82.3559Z" fill="white"/>
<path d="M62.6745 23.5543L50.1534 25.1917C49.8871 25.2041 49.625 25.1316 49.419 24.9885C49.213 24.8453 49.0781 24.6421 49.0412 24.419C49.0011 24.3213 48.9842 24.2179 48.9915 24.1147C48.9988 24.0115 49.0301 23.9106 49.0836 23.8176C49.1372 23.7247 49.2119 23.6415 49.3035 23.573C49.3951 23.5044 49.5017 23.4518 49.6174 23.4181L49.698 23.3977L62.2111 21.7876C62.4774 21.7752 62.7395 21.8477 62.9455 21.9908C63.1515 22.1339 63.2864 22.3372 63.3234 22.5603C63.3964 22.7594 63.373 22.9748 63.2581 23.1593C63.1433 23.3438 62.9464 23.4822 62.7108 23.5441L62.6745 23.5543Z" fill="white"/>
<path d="M50.0365 25.3823C49.8056 25.3601 49.5851 25.289 49.3955 25.1755C49.2059 25.0621 49.0534 24.9099 48.9521 24.7333C48.8507 24.5567 48.8039 24.3613 48.8159 24.1653C48.828 23.9693 48.8985 23.779 49.0209 23.6122C49.0945 23.5208 49.1899 23.4433 49.3009 23.3847C49.4119 23.3261 49.5361 23.2876 49.6657 23.2718L62.211 21.6072C62.5274 21.5903 62.8399 21.6738 63.0874 21.8413C63.3348 22.0087 63.4994 22.2481 63.5489 22.5127C63.5902 22.6581 63.5961 22.8092 63.5663 22.9566C63.5366 23.104 63.4717 23.2448 63.3757 23.3705C63.3012 23.4621 63.2051 23.5396 63.0935 23.5982C62.9818 23.6568 62.857 23.6951 62.7268 23.7109L50.2017 25.3619C50.1473 25.3723 50.0921 25.3791 50.0365 25.3823ZM62.344 21.9408H62.2553L49.7181 23.5952C49.5643 23.6194 49.4281 23.6941 49.3393 23.8028C49.2735 23.8904 49.2295 23.9884 49.2101 24.0909C49.1907 24.1933 49.1963 24.298 49.2264 24.3986C49.2551 24.5781 49.3608 24.7425 49.5235 24.8605C49.6862 24.9784 49.8946 25.0418 50.109 25.0385L62.6341 23.3875C62.7104 23.376 62.7831 23.3513 62.8475 23.315C62.912 23.2787 62.967 23.2315 63.0089 23.1765C63.142 22.9891 63.1815 22.7648 63.1188 22.5529C63.056 22.3409 62.8962 22.1587 62.6744 22.0463C62.5686 21.9942 62.4526 21.9584 62.3319 21.9408H62.344Z" fill="#263238"/>
<path d="M78.734 105.287C78.5043 104.392 77.5975 103.759 76.719 103.878C75.8405 103.997 75.2924 104.817 75.51 105.713C75.7276 106.608 76.6464 107.241 77.525 107.122C78.4035 107.003 78.9596 106.182 78.734 105.287Z" fill="white"/>
<path d="M77.3153 107.306C76.4045 107.306 75.53 106.649 75.3003 105.75C75.2308 105.503 75.2214 105.246 75.2726 104.996C75.3239 104.745 75.4348 104.506 75.5985 104.293C75.7194 104.138 75.8771 104.007 76.0617 103.906C76.2463 103.806 76.4537 103.74 76.6705 103.711C77.6659 103.578 78.6855 104.269 78.9273 105.253C78.9975 105.499 79.0076 105.755 78.9571 106.005C78.9065 106.255 78.7963 106.494 78.6331 106.707C78.5106 106.861 78.3519 106.993 78.1668 107.093C77.9818 107.194 77.7743 107.262 77.5571 107.292C77.477 107.302 77.3962 107.306 77.3153 107.306ZM76.9123 104.034H76.7188C76.5561 104.057 76.4007 104.108 76.2621 104.184C76.1235 104.259 76.0046 104.358 75.9129 104.473C75.7811 104.649 75.6925 104.846 75.6523 105.051C75.6122 105.256 75.6213 105.466 75.6791 105.668C75.8847 106.475 76.6947 107.05 77.4805 106.945C77.6437 106.923 77.7997 106.873 77.9385 106.797C78.0773 106.722 78.1958 106.622 78.2865 106.506C78.4201 106.331 78.5098 106.136 78.55 105.931C78.5902 105.726 78.5801 105.516 78.5202 105.314C78.4564 104.981 78.2636 104.674 77.9721 104.443C77.6805 104.211 77.3065 104.068 76.9083 104.034H76.9123Z" fill="#263238"/>
<path d="M73.3418 78.2039L54.8362 80.8966C53.6272 81.0736 52.8212 81.9178 53.0146 82.7756L55.4004 92.4807L55.4648 92.7327L56.7101 97.8048L60.196 93.6586L76.5657 91.2757C77.7747 91.0987 78.5807 90.2545 78.3832 89.4L75.9129 79.4396C75.7154 78.5818 74.5588 78.0269 73.3418 78.2039Z" fill="white"/>
<path d="M56.6053 98.2234L52.8171 82.8096C52.7671 82.6015 52.7682 82.3868 52.8202 82.179C52.8722 81.9711 52.974 81.7745 53.1194 81.6012C53.3167 81.3687 53.567 81.1719 53.8555 81.0223C54.1441 80.8726 54.4652 80.7732 54.7999 80.7297L73.3095 78.0371C74.6273 77.8464 75.8927 78.4592 76.1305 79.3987L78.5766 89.3591C78.6261 89.5666 78.6252 89.7804 78.574 89.9875C78.5227 90.1947 78.4222 90.3909 78.2784 90.5642C78.0804 90.7971 77.8295 90.9944 77.5403 91.1446C77.251 91.2948 76.9294 91.3949 76.5939 91.4391L60.3088 93.8049L56.6053 98.2234ZM73.7971 78.3434C73.662 78.3434 73.5271 78.3536 73.3941 78.3741L54.8845 81.0667C54.6025 81.1022 54.3318 81.1849 54.0882 81.31C53.8446 81.4351 53.633 81.6001 53.4659 81.7952C53.3525 81.9305 53.2729 82.0838 53.232 82.246C53.1911 82.4081 53.1898 82.5756 53.2282 82.7381L56.831 97.3758L60.0872 93.4917L76.5375 91.1089C77.0967 91.0308 77.5966 90.7689 77.9278 90.3804C78.0417 90.2446 78.1218 90.0907 78.1634 89.9281C78.2049 89.7655 78.207 89.5974 78.1696 89.434L75.7194 79.477C75.5663 78.8064 74.7401 78.3434 73.7971 78.3434Z" fill="#263238"/>
<path d="M72.016 84.0351C72.0282 83.9004 72.0159 83.765 71.9797 83.6334V83.5585C71.6654 82.2718 69.9325 81.448 68.115 81.7101C66.6843 81.9178 65.6285 82.7313 65.3948 83.7083C64.9949 83.2678 64.4562 82.9313 63.8404 82.7374C63.2245 82.5436 62.5565 82.5002 61.9129 82.6122C60.0953 82.8777 58.8783 84.1338 59.1926 85.4172C59.1926 85.4172 59.1443 86.5167 62.2312 88.1132C64.7661 89.4272 66.906 90.4961 66.9463 90.4519C66.9987 90.4757 68.5381 88.886 70.3476 86.9354C71.0536 86.2366 71.5891 85.4268 71.9233 84.5525C71.9667 84.435 71.9964 84.3141 72.012 84.1917C72.0091 84.1395 72.0104 84.0872 72.016 84.0351Z" fill="#92E3A9"/>
<path d="M66.914 90.6187C66.8869 90.6172 66.8607 90.6102 66.8374 90.5983C66.4627 90.4927 65.4229 89.9855 62.1063 88.2664C59.1724 86.7448 58.983 85.6282 58.9709 85.4444C58.9036 85.1466 58.9077 84.8403 58.9832 84.5438C59.0587 84.2473 59.2039 83.9667 59.4102 83.7185C59.6997 83.3815 60.0651 83.0961 60.4856 82.8787C60.9061 82.6614 61.3734 82.5165 61.8604 82.4522C62.4755 82.3531 63.1099 82.3833 63.708 82.54C64.306 82.6967 64.8492 82.9752 65.2899 83.3509C65.5274 82.874 65.9074 82.4573 66.3927 82.1417C66.878 81.826 67.452 81.6222 68.0585 81.5501C69.9808 81.271 71.8185 82.1595 72.157 83.5313V83.5858C72.1979 83.7387 72.2128 83.8957 72.2013 84.0521C72.204 84.106 72.1972 84.1599 72.1812 84.2121C72.1643 84.3447 72.1333 84.4757 72.0885 84.6036C71.7437 85.4968 71.1962 86.3247 70.4765 87.041C68.127 89.5804 67.3613 90.3532 67.0591 90.5574C67.0457 90.5736 67.0275 90.5866 67.0062 90.595C66.985 90.6033 66.9615 90.6068 66.9382 90.6051L66.914 90.6187ZM62.5778 82.7211C62.3629 82.72 62.1483 82.7359 61.937 82.7688C61.5024 82.8228 61.085 82.9501 60.7098 83.143C60.3345 83.336 60.0091 83.5908 59.7528 83.8922C59.5759 84.1045 59.4515 84.3447 59.3871 84.5986C59.3227 84.8524 59.3196 85.1146 59.378 85.3695V85.4104C59.378 85.4104 59.4142 86.4486 62.3198 87.9567C64.6492 89.1617 66.4546 90.057 66.8898 90.2442C67.2203 89.9447 68.522 88.5966 70.1702 86.8163C70.8584 86.1332 71.3826 85.3435 71.7137 84.4913C71.7525 84.3801 71.7795 84.2661 71.7943 84.1509V84.0113C71.805 83.8973 71.7955 83.7825 71.7661 83.6709C71.7621 83.6529 71.7621 83.6344 71.7661 83.6164C71.4679 82.3943 69.8398 81.625 68.1391 81.8769C66.8334 82.0641 65.8058 82.813 65.5841 83.739C65.5789 83.7608 65.5685 83.7815 65.5536 83.7999C65.5388 83.8183 65.5197 83.8339 65.4975 83.846C65.4754 83.8581 65.4506 83.8662 65.4246 83.8701C65.3986 83.8739 65.372 83.8733 65.3464 83.8683C65.3212 83.8647 65.2971 83.8568 65.2756 83.8451C65.2542 83.8334 65.2357 83.8181 65.2214 83.8002C64.9152 83.4548 64.5152 83.1764 64.0552 82.9887C63.5952 82.8009 63.0885 82.7091 62.5778 82.7211Z" fill="#263238"/>
<path d="M43.4675 84.6683C43.4675 84.6683 42.3069 81.6046 40.1348 82.3773C37.9626 83.15 41.38 86.1763 39.6552 86.3261C37.9304 86.4759 35.0087 84.7398 33.1589 87.4801C31.3091 90.2204 34.1704 92.1845 37.5636 92.1131C40.9569 92.0416 44.3582 89.8255 43.4675 84.6683Z" fill="white"/>
<path d="M37.3824 92.2833C35.3674 92.2833 33.5983 91.6025 32.8164 90.4825C32.3691 89.8528 32.0346 88.8043 32.9857 87.3984C34.3881 85.3151 36.3991 85.6963 38.0111 85.9823C38.5361 86.104 39.0786 86.1636 39.6231 86.1593C39.8366 86.1389 39.885 86.0708 39.9011 86.0504C40.0462 85.8563 39.8286 85.3696 39.619 84.8623C39.216 83.9534 38.6881 82.7075 40.0422 82.2207C40.2833 82.1283 40.5451 82.0805 40.8099 82.0805C41.0747 82.0805 41.3365 82.1283 41.5776 82.2207C42.9276 82.745 43.6168 84.5389 43.649 84.6036V84.6309C44.0721 87.0682 43.5684 89.0834 42.1982 90.4587C41.6223 91.024 40.9095 91.4782 40.1079 91.7906C39.3062 92.103 38.4345 92.2664 37.5517 92.2697L37.3824 92.2833ZM36.1089 86.0912C35.1014 86.0912 34.1181 86.4044 33.3363 87.5652C32.6593 88.566 32.5988 89.5158 33.159 90.3089C33.8925 91.3301 35.6173 91.9837 37.5597 91.9429C38.386 91.9391 39.2017 91.7851 39.9513 91.4914C40.7009 91.1977 41.3669 90.7712 41.904 90.2408C43.1976 88.9473 43.6691 87.0308 43.2702 84.6989C43.2057 84.5389 42.5569 82.9628 41.4204 82.5237C41.231 82.4496 41.0247 82.4112 40.8159 82.4112C40.6072 82.4112 40.4009 82.4496 40.2114 82.5237C39.2805 82.8641 39.5425 83.6505 40.0099 84.7364C40.2759 85.3525 40.5056 85.887 40.2558 86.2206C40.1901 86.2999 40.1035 86.3651 40.0027 86.4112C39.902 86.4573 39.7899 86.483 39.6755 86.4861C39.0851 86.4994 38.4957 86.4386 37.9264 86.3057C37.3313 86.18 36.722 86.1082 36.1089 86.0912Z" fill="#263238"/>
<path d="M35.8631 87.5721C35.7462 87.9397 35.4601 88.1916 35.2022 88.1337C34.9443 88.0759 34.8435 87.7354 34.9644 87.3678C35.0853 87.0002 35.3674 86.7448 35.6253 86.8027C35.8833 86.8606 35.98 87.2044 35.8631 87.5721Z" fill="#263238"/>
<path d="M34.247 88.1677C34.1302 88.5354 33.8441 88.7873 33.5861 88.7328C33.3282 88.6783 33.2275 88.3311 33.3443 87.9635C33.4612 87.5958 33.7473 87.3439 34.0093 87.4018C34.2712 87.4597 34.3639 87.7899 34.247 88.1677Z" fill="#263238"/>
<path d="M35.2586 89.6621C35.1417 90.0298 34.8556 90.2851 34.5976 90.2272C34.3397 90.1693 34.243 89.8255 34.3599 89.4579C34.4768 89.0902 34.7629 88.8383 35.0208 88.8962C35.2787 88.9541 35.3754 89.2945 35.2586 89.6621Z" fill="#263238"/>
<path d="M35.4278 91.7591C35.3879 91.7594 35.3488 91.7494 35.3157 91.7306C35.2827 91.7118 35.2571 91.6849 35.2424 91.6535C35.2319 91.6335 35.2263 91.6118 35.2259 91.5899C35.2254 91.5679 35.2303 91.5461 35.2401 91.5258C35.2498 91.5055 35.2644 91.487 35.2828 91.4715C35.3012 91.456 35.3231 91.4439 35.3472 91.4357C35.6836 91.317 35.9931 91.15 36.262 90.9421C36.3021 90.9149 36.3529 90.9017 36.4041 90.9051C36.4553 90.9086 36.5031 90.9284 36.5375 90.9606C36.572 90.9927 36.5907 91.0348 36.5896 91.0782C36.5886 91.1216 36.568 91.163 36.532 91.194C36.2294 91.4296 35.8802 91.6185 35.5003 91.7523C35.4767 91.7575 35.4522 91.7598 35.4278 91.7591Z" fill="#263238"/>
<path d="M36.8989 90.7719C36.8551 90.7727 36.8124 90.7607 36.778 90.7379C36.7568 90.7245 36.739 90.7077 36.7255 90.6884C36.712 90.6692 36.7032 90.6479 36.6994 90.6258C36.6957 90.6036 36.6971 90.5811 36.7037 90.5595C36.7103 90.5378 36.7218 90.5175 36.7377 90.4996C37.046 90.1534 37.2793 89.7639 37.4268 89.349C37.6 88.9241 37.6678 88.4737 37.6262 88.0257C37.5846 87.5777 37.4345 87.1417 37.185 86.7448C37.1584 86.7055 37.1511 86.6588 37.1646 86.6149C37.1782 86.571 37.2115 86.5333 37.2576 86.51C37.3046 86.4891 37.3592 86.4839 37.4106 86.4952C37.462 86.5065 37.5066 86.5336 37.5356 86.5712C37.8108 87.0096 37.9774 87.4907 38.0252 87.9853C38.0731 88.4798 38.0011 88.9774 37.8137 89.4477C37.6529 89.9009 37.3977 90.3263 37.0601 90.7038C37.0409 90.7246 37.0165 90.7415 36.9886 90.7532C36.9607 90.765 36.9301 90.7714 36.8989 90.7719Z" fill="#263238"/>
</g>
<defs>
<filter id="filter0_d_344_56" x="0" y="0" width="130.476" height="123.316" filterUnits="userSpaceOnUse" color-interpolation-filters="sRGB">
<feFlood flood-opacity="0" result="BackgroundImageFix"/>
<feColorMatrix in="SourceAlpha" type="matrix" values="0 0 0 0 0 0 0 0 0 0 0 0 0 0 0 0 0 0 127 0" result="hardAlpha"/>
<feOffset dy="4"/>
<feGaussianBlur stdDeviation="2"/>
<feComposite in2="hardAlpha" operator="out"/>
<feColorMatrix type="matrix" values="0 0 0 0 0 0 0 0 0 0 0 0 0 0 0 0 0 0 0.25 0"/>
<feBlend mode="normal" in2="BackgroundImageFix" result="effect1_dropShadow_344_56"/>
<feBlend mode="normal" in="SourceGraphic" in2="effect1_dropShadow_344_56" result="shape"/>
</filter>
</defs>
</svg>
