<svg width="188" height="126" viewBox="0 0 188 126" fill="none" xmlns="http://www.w3.org/2000/svg">
<g filter="url(#filter0_d_344_1002)">
<path d="M7.05814 60.3353C7.05814 60.3353 14.0815 61.2483 17.6339 66.95C18.9126 64.9205 20.5191 63.2876 22.3376 62.169C24.1561 61.0504 26.1414 60.4739 28.1504 60.481C29.8004 57.8752 30.8514 54.7092 31.181 51.3516C31.5106 47.9939 31.1054 44.5827 30.0124 41.515C28.9194 38.4472 27.1836 35.8492 25.0071 34.0231C22.8306 32.197 20.3029 31.2181 17.7182 31.2003C15.1334 31.1824 12.5979 32.1264 10.4069 33.9223C8.21578 35.7182 6.4592 38.2922 5.34158 41.3446C4.22396 44.3971 3.79125 47.8025 4.09383 51.1645C4.39641 54.5265 5.42182 57.7068 7.05072 60.3353H7.05814Z" fill="#92E3A9"/>
<path opacity="0.2" d="M7.05814 60.3353C7.05814 60.3353 14.0815 61.2483 17.6339 66.95C18.9126 64.9205 20.5191 63.2876 22.3376 62.169C24.1561 61.0504 26.1414 60.4739 28.1504 60.481C29.8004 57.8752 30.8514 54.7092 31.181 51.3516C31.5106 47.9939 31.1054 44.5827 30.0124 41.515C28.9194 38.4472 27.1836 35.8492 25.0071 34.0231C22.8306 32.197 20.3029 31.2181 17.7182 31.2003C15.1334 31.1824 12.5979 32.1264 10.4069 33.9223C8.21578 35.7182 6.4592 38.2922 5.34158 41.3446C4.22396 44.3971 3.79125 47.8025 4.09383 51.1645C4.39641 54.5265 5.42182 57.7068 7.05072 60.3353H7.05814Z" fill="white"/>
<path d="M18.296 85.3273L17.2519 39.65L16.9964 85.8L18.296 85.3273Z" fill="#828282"/>
<path d="M17.7603 65C17.7603 65 20.0429 59.5161 24.1444 57.85C24.1444 57.85 19.8147 59.2114 17.6462 63.9337L17.7603 65Z" fill="#828282"/>
<path d="M17.6462 50.05C17.6462 50.05 20.0786 43.9933 24.1444 42.25C24.1444 42.25 19.8099 43.9036 17.6603 48.8446L17.6462 50.05Z" fill="#828282"/>
<path d="M17.6605 57.2C17.6605 57.2 20.0429 51.6358 24.1444 50.05C24.1444 50.05 19.8147 51.3761 17.6462 55.9759L17.6605 57.2Z" fill="#828282"/>
<path d="M17.5353 53.3C17.5353 53.3 15.251 47.8257 11.148 46.15C11.148 46.15 15.4801 47.521 17.6462 52.2337L17.5353 53.3Z" fill="#828282"/>
<path d="M17.5353 61.1C17.5353 61.1 15.251 55.6256 11.148 53.95C11.148 53.95 15.4801 55.321 17.6462 60.0337L17.5353 61.1Z" fill="#828282"/>
<path d="M159.045 42.2549C159.045 42.2549 165.901 43.1514 169.377 48.75C170.624 46.7579 172.191 45.155 173.965 44.0566C175.739 42.9582 177.675 42.3917 179.635 42.398C181.246 39.8382 182.271 36.7284 182.592 33.4307C182.913 30.1329 182.516 26.783 181.448 23.7708C180.38 20.7586 178.684 18.2082 176.558 16.4165C174.432 14.6247 171.964 13.6654 169.44 13.6502C166.916 13.635 164.441 14.5646 162.303 16.3306C160.165 18.0967 158.451 20.6266 157.362 23.6257C156.273 26.6249 155.853 29.97 156.151 33.2714C156.449 36.5729 157.453 39.6949 159.045 42.274V42.2549Z" fill="#92E3A9"/>
<path opacity="0.2" d="M159.045 42.2549C159.045 42.2549 165.901 43.1514 169.377 48.75C170.624 46.7579 172.191 45.155 173.965 44.0566C175.739 42.9582 177.675 42.3917 179.635 42.398C181.246 39.8382 182.271 36.7284 182.592 33.4307C182.913 30.1329 182.516 26.783 181.448 23.7708C180.38 20.7586 178.684 18.2082 176.558 16.4165C174.432 14.6247 171.964 13.6654 169.44 13.6502C166.916 13.635 164.441 14.5646 162.303 16.3306C160.165 18.0967 158.451 20.6266 157.362 23.6257C156.273 26.6249 155.853 29.97 156.151 33.2714C156.449 36.5729 157.453 39.6949 159.045 42.274V42.2549Z" fill="white"/>
<path d="M169.704 67.1273L169.182 21.45L169.054 67.6L169.704 67.1273Z" fill="#828282"/>
<path d="M169.782 47.45C169.782 47.45 172.065 41.478 176.202 39.65C176.202 39.65 171.872 41.1456 169.704 46.2868L169.782 47.45Z" fill="#828282"/>
<path d="M169.054 31.85C169.054 31.85 171.73 25.7933 176.202 24.05C176.202 24.05 171.434 25.7036 169.077 30.6446L169.054 31.85Z" fill="#828282"/>
<path d="M169.07 39.65C169.07 39.65 171.691 33.5799 176.202 31.85C176.202 31.85 171.439 33.3068 169.054 38.3146L169.07 39.65Z" fill="#828282"/>
<path d="M168.943 35.75C168.943 35.75 166.666 29.778 162.556 27.95C162.556 27.95 166.888 29.4456 169.054 34.5868L168.943 35.75Z" fill="#828282"/>
<path d="M168.943 42.9C168.943 42.9 166.666 37.4256 162.556 35.75C162.556 35.75 166.888 37.121 169.054 41.8432L168.943 42.9Z" fill="#828282"/>
<path d="M15.2277 39.731C15.2277 39.731 24.5897 40.9736 29.3359 48.75C31.0406 45.9816 33.1824 43.7542 35.6069 42.2282C38.0314 40.7022 40.6784 39.9157 43.3571 39.9251C45.5553 36.3684 46.9542 32.0483 47.3911 27.4677C47.828 22.8872 47.2849 18.2346 45.8249 14.0515C44.365 9.86846 42.0483 6.32702 39.1445 3.83943C36.2407 1.35185 32.8692 0.0204559 29.4226 0.000233832C25.976 -0.0199882 22.596 1.2718 19.6761 3.72521C16.7561 6.17862 14.4164 9.69275 12.9291 13.8585C11.4419 18.0243 10.8683 22.6703 11.2753 27.2558C11.6822 31.8414 13.0529 36.1777 15.2277 39.7601V39.731Z" fill="#92E3A9"/>
<path opacity="0.4" d="M15.2277 39.731C15.2277 39.731 24.5897 40.9736 29.3359 48.75C31.0406 45.9816 33.1824 43.7542 35.6069 42.2282C38.0314 40.7022 40.6784 39.9157 43.3571 39.9251C45.5553 36.3684 46.9542 32.0483 47.3911 27.4677C47.828 22.8872 47.2849 18.2346 45.8249 14.0515C44.365 9.86846 42.0483 6.32702 39.1445 3.83943C36.2407 1.35185 32.8692 0.0204559 29.4226 0.000233832C25.976 -0.0199882 22.596 1.2718 19.6761 3.72521C16.7561 6.17862 14.4164 9.69275 12.9291 13.8585C11.4419 18.0243 10.8683 22.6703 11.2753 27.2558C11.6822 31.8414 13.0529 36.1777 15.2277 39.7601V39.731Z" fill="white"/>
<path d="M29.9928 73.4624L28.9547 11.05L28.6931 74.1L29.9928 73.4624Z" fill="#828282"/>
<path d="M29.504 46.15C29.504 46.15 32.695 38.683 38.4404 36.4C38.4404 36.4 32.3803 38.3025 29.343 44.6947L29.504 46.15Z" fill="#828282"/>
<path d="M29.343 25.35C29.343 25.35 32.7454 17.2871 38.4404 14.95C38.4404 14.95 32.3754 17.1605 29.3647 23.7141L29.343 25.35Z" fill="#828282"/>
<path d="M29.3576 35.75C29.3576 35.75 32.695 27.7203 38.4404 25.35C38.4404 25.35 32.3803 27.3253 29.343 33.9623L29.3576 35.75Z" fill="#828282"/>
<path d="M29.1762 29.9C29.1762 29.9 25.9845 22.433 20.2455 20.15C20.2455 20.15 26.3105 22.0525 29.343 28.4447L29.1762 29.9Z" fill="#828282"/>
<path d="M29.1762 40.3C29.1762 40.3 25.9845 32.8329 20.2455 30.55C20.2455 30.55 26.3105 32.4524 29.343 38.8446L29.1762 40.3Z" fill="#828282"/>
<path d="M5.29965 117H184" stroke="#263238" stroke-width="0.983633" stroke-miterlimit="10"/>
<path d="M89.1263 83.2H16.3466V117H89.1263V83.2Z" fill="#92E3A9" stroke="#263238" stroke-width="0.983633" stroke-miterlimit="10"/>
<path d="M85.2274 83.2H20.2455V117H85.2274V83.2Z" fill="white" stroke="#263238" stroke-width="0.983633" stroke-miterlimit="10"/>
<path d="M33.2419 88.4V116.35" stroke="#263238" stroke-width="0.983633" stroke-miterlimit="10"/>
<path d="M58.5848 88.4V116.35" stroke="#263238" stroke-width="0.983633" stroke-miterlimit="10"/>
<path d="M68.3321 88.4V116.35" stroke="#263238" stroke-width="0.983633" stroke-miterlimit="10"/>
<path d="M77.4296 88.4V116.35" stroke="#263238" stroke-width="0.983633" stroke-miterlimit="10"/>
<path d="M20.2455 94.9H85.2274" stroke="#263238" stroke-width="0.983633" stroke-miterlimit="10"/>
<path d="M20.2455 102.7H85.2274" stroke="#263238" stroke-width="0.983633" stroke-miterlimit="10"/>
<path d="M20.2455 110.5H85.2274" stroke="#263238" stroke-width="0.983633" stroke-miterlimit="10"/>
<path d="M50.1372 83.2H45.5884V117H50.1372V83.2Z" fill="#92E3A9" stroke="#263238" stroke-width="0.983633" stroke-miterlimit="10"/>
<path d="M8.54874 87.75H91.7256V62.4H25.9158L8.54874 87.75Z" fill="#263238" stroke="#263238" stroke-width="0.983633" stroke-miterlimit="10"/>
<path d="M35.1913 61.75H92.3755V39.65H48.9208L35.1913 61.75Z" fill="white" stroke="#263238" stroke-width="0.983633" stroke-miterlimit="10"/>
<path d="M59.8845 48.75H35.8412V66.95H59.8845V48.75Z" fill="#92E3A9" stroke="#263238" stroke-width="0.983633" stroke-miterlimit="10"/>
<path d="M44.9386 56.55H37.7906V64.35H44.9386V56.55Z" fill="white" stroke="#263238" stroke-width="0.983633" stroke-miterlimit="10"/>
<path d="M55.3357 56.55H47.5379V64.35H55.3357V56.55Z" fill="white" stroke="#263238" stroke-width="0.983633" stroke-miterlimit="10"/>
<path d="M29.9928 54.6H93.0253V32.5H45.1323L29.9928 54.6Z" fill="#263238" stroke="#263238" stroke-width="0.983633" stroke-miterlimit="10"/>
<path d="M146.96 66.95H171.004V48.75H146.96V66.95Z" fill="#92E3A9" stroke="#263238" stroke-width="0.983633" stroke-miterlimit="10"/>
<path d="M161.256 64.35H169.054V56.55H161.256V64.35Z" fill="white" stroke="#263238" stroke-width="0.983633" stroke-miterlimit="10"/>
<path d="M151.509 64.35H159.307V56.55H151.509V64.35Z" fill="white" stroke="#263238" stroke-width="0.983633" stroke-miterlimit="10"/>
<path d="M176.852 54.6H113.819V32.5H161.72L176.852 54.6Z" fill="#263238" stroke="#263238" stroke-width="0.983633" stroke-miterlimit="10"/>
<path d="M91.0758 43.55L56.6354 61.6274V76.7H90.6108L91.0758 43.55Z" fill="#263238" stroke="#263238" stroke-width="0.983633" stroke-miterlimit="10"/>
<path d="M106.671 36.1823L54.0371 65L52.0866 60.6773L104.721 31.85L106.671 36.1823Z" fill="#525252" stroke="#263238" stroke-width="0.983633" stroke-miterlimit="10"/>
<path d="M174.253 67.3274L100.823 42.25V117H174.253V67.3274Z" fill="#92E3A9" stroke="#263238" stroke-width="0.983633" stroke-miterlimit="10"/>
<path d="M156.708 117H174.253V67.2703L156.708 61.1V117Z" fill="#263238" stroke="#263238" stroke-width="0.983633" stroke-miterlimit="10"/>
<path d="M179.422 70.2L134.614 54.7022L135.942 50.05L180.751 65.5477L179.422 70.2Z" fill="#525252" stroke="#263238" stroke-width="0.983633" stroke-miterlimit="10"/>
<path d="M89.1263 117H137.863V12.35L89.1263 37.9097V117Z" fill="white" stroke="#263238" stroke-width="0.983633" stroke-miterlimit="10"/>
<path d="M93.6751 81.25H137.863V12.35L93.6751 35.3262V81.25Z" fill="#263238" stroke="#263238" stroke-width="0.983633" stroke-miterlimit="10"/>
<path d="M89.1263 81.25H116.419V47.2714L89.1263 37.7V81.25Z" fill="white" stroke="#263238" stroke-width="0.983633" stroke-miterlimit="10"/>
<path d="M106.671 81.25H116.419V46.9948L106.671 43.55V81.25Z" fill="#92E3A9" stroke="#263238" stroke-width="0.983633" stroke-miterlimit="10"/>
<path d="M116.419 83.2H106.671V116.35H116.419V83.2Z" fill="#92E3A9" stroke="#263238" stroke-width="0.983633" stroke-miterlimit="10"/>
<path d="M143.061 79.3H83.9278V83.85H143.061V79.3Z" fill="#525252" stroke="#263238" stroke-width="0.983633" stroke-miterlimit="10"/>
<path d="M145.011 10.8323L92.3762 39.65L90.426 35.3177L143.061 6.5L145.011 10.8323Z" fill="#525252" stroke="#263238" stroke-width="0.983633" stroke-miterlimit="10"/>
<path d="M120.297 50.05L84.5776 37.1098L85.8976 32.5L121.617 45.4402L120.297 50.05Z" fill="#525252" stroke="#263238" stroke-width="0.983633" stroke-miterlimit="10"/>
<path d="M133.964 30.55H123.567V52.65H133.964V30.55Z" fill="white" stroke="#263238" stroke-width="0.983633" stroke-miterlimit="10"/>
<path d="M133.964 55.25H123.567V77.35H133.964V55.25Z" fill="white" stroke="#263238" stroke-width="0.983633" stroke-miterlimit="10"/>
<path d="M104.072 50.05H94.3249V75.4H104.072V50.05Z" fill="white" stroke="#263238" stroke-width="0.983633" stroke-miterlimit="10"/>
<path d="M104.072 85.8H94.3249V104.65H104.072V85.8Z" fill="white" stroke="#263238" stroke-width="0.983633" stroke-miterlimit="10"/>
<path d="M169.704 76.7H159.957V110.5H169.704V76.7Z" fill="white" stroke="#263238" stroke-width="0.983633" stroke-miterlimit="10"/>
<path d="M125.516 86.45H117.718V113.75H125.516V86.45Z" fill="white" stroke="#263238" stroke-width="0.983633" stroke-miterlimit="10"/>
<path d="M135.913 86.45H128.116V113.75H135.913V86.45Z" fill="#263238" stroke="#263238" stroke-width="0.983633" stroke-miterlimit="10"/>
<path d="M87.1769 63.7H60.5343V67.6H87.1769V63.7Z" fill="white" stroke="#263238" stroke-width="0.983633" stroke-miterlimit="10"/>
<path d="M134.614 87.75H128.765V92.95H134.614V87.75Z" fill="white" stroke="#263238" stroke-width="0.983633" stroke-miterlimit="10"/>
<path d="M134.614 93.6H128.765V99.45H134.614V93.6Z" fill="white" stroke="#263238" stroke-width="0.983633" stroke-miterlimit="10"/>
<path d="M134.614 100.1H128.765V105.3H134.614V100.1Z" fill="white" stroke="#263238" stroke-width="0.983633" stroke-miterlimit="10"/>
<path d="M134.614 105.95H128.765V111.8H134.614V105.95Z" fill="white" stroke="#263238" stroke-width="0.983633" stroke-miterlimit="10"/>
</g>
<defs>
<filter id="filter0_d_344_1002" x="0" y="0" width="188" height="125.492" filterUnits="userSpaceOnUse" color-interpolation-filters="sRGB">
<feFlood flood-opacity="0" result="BackgroundImageFix"/>
<feColorMatrix in="SourceAlpha" type="matrix" values="0 0 0 0 0 0 0 0 0 0 0 0 0 0 0 0 0 0 127 0" result="hardAlpha"/>
<feOffset dy="4"/>
<feGaussianBlur stdDeviation="2"/>
<feComposite in2="hardAlpha" operator="out"/>
<feColorMatrix type="matrix" values="0 0 0 0 0 0 0 0 0 0 0 0 0 0 0 0 0 0 0.25 0"/>
<feBlend mode="normal" in2="BackgroundImageFix" result="effect1_dropShadow_344_1002"/>
<feBlend mode="normal" in="SourceGraphic" in2="effect1_dropShadow_344_1002" result="shape"/>
</filter>
</defs>
</svg>
