<svg width="376" height="431" viewBox="0 0 376 431" fill="none" xmlns="http://www.w3.org/2000/svg">
<g filter="url(#filter0_d_344_1090)">
<g opacity="0.15">
<path d="M325.991 88.9334C325.748 89.0331 300.85 99.3419 268.094 116.388C237.886 132.106 195.687 155.849 161.121 184.852L159.039 185.127C178.242 169.037 212.651 143.826 267.612 115.23C300.481 98.1522 325.453 87.808 325.687 87.6747L325.991 88.9334Z" fill="black"/>
<path d="M191.882 181.457C191.761 170.613 193.275 163.227 194.505 159.053C189.956 162.058 179.967 170.644 173.793 190.847C164.008 222.858 202.984 251.93 212.508 258.462C202.818 237.718 192.193 208.846 191.882 181.457Z" fill="black"/>
<path d="M192.943 181.312C193.253 209.426 204.532 239.087 214.404 259.841L214.503 259.902C214.503 259.902 231.669 220.796 223.376 189.9C215.083 159.004 196.861 157.725 196.861 157.725C196.506 157.888 196.157 158.067 195.816 158.263C194.548 162.231 192.808 169.891 192.943 181.312Z" fill="black"/>
<path d="M193.754 142.779C202.888 145.531 209.512 146.24 213.334 146.365C209.68 148.957 199.969 154.155 181.365 153.708C151.884 152.992 136.876 117.379 133.686 108.805C148.831 120.957 170.658 135.833 193.754 142.779Z" fill="black"/>
<path d="M194.179 142.006C170.512 134.863 148.162 119.347 133.04 107.047L132.997 106.968C132.997 106.968 170.293 104.008 194.389 117.65C218.485 131.291 215.057 144.96 215.057 144.96C214.833 145.18 214.594 145.39 214.343 145.589C210.703 145.523 203.806 144.911 194.179 142.006Z" fill="black"/>
<path d="M277.641 126.359C280.171 116.95 283.075 110.81 284.989 107.404C280.91 109.232 271.485 114.956 262.055 131.401C247.119 157.468 268.75 189.301 274.172 196.602C272.109 176.982 271.237 150.148 277.641 126.359Z" fill="black"/>
<path d="M278.507 126.392C271.966 150.783 273.055 178.426 275.298 198.083L275.338 198.157C275.338 198.157 297.427 167.231 298.802 139.052C300.177 110.874 287.052 106.652 287.052 106.652C286.748 106.73 286.445 106.827 286.145 106.942C284.347 110.131 281.175 116.482 278.507 126.392Z" fill="black"/>
<path d="M240.724 110.642C250.605 115.463 258.037 117.34 262.389 118.074C257.651 120.778 245.44 125.88 224.24 122.538C190.639 117.256 180.95 70.1666 179.108 58.9117C193.886 76.4822 215.745 98.4502 240.724 110.642Z" fill="black"/>
<path d="M241.349 109.76C215.759 97.2346 193.438 74.3806 178.718 56.6412L178.667 56.5469C178.667 56.5469 221.974 58.3966 246.683 79.16C271.391 99.9233 264.603 116.609 264.603 116.609C264.299 116.853 263.98 117.083 263.65 117.297C259.542 116.67 251.762 114.856 241.349 109.76Z" fill="black"/>
<path d="M138.626 203.901C148.371 193.736 155.723 187.825 160.039 184.727C155.315 184.605 143.135 186.19 122.098 201.068C88.8004 224.599 79.8357 276.63 78.1599 288.805C92.5842 263.3 113.997 229.604 138.626 203.901Z" fill="black"/>
<path d="M139.325 204.475C114.086 230.84 92.2319 265.661 77.8729 291.291L77.8617 291.407C77.8617 291.407 120.851 265.984 145.072 231.937C169.294 197.89 162.349 185.021 162.349 185.021C162.042 184.945 161.723 184.89 161.392 184.855C157.281 187.744 149.591 193.749 139.325 204.475Z" fill="black"/>
</g>
<path d="M181.292 338.233C189.532 336.802 198.004 338.266 205.326 342.386C212.647 346.507 218.387 353.04 221.608 360.922C224.83 368.803 225.343 377.568 223.064 385.785C220.786 394.003 215.85 401.19 209.061 406.173" stroke="#263238" stroke-linecap="round" stroke-linejoin="round"/>
<path d="M165.878 344.823C169.309 342.292 173.141 340.384 177.206 339.184" stroke="#263238" stroke-linecap="round" stroke-linejoin="round"/>
<path d="M169.6 408.521C164.613 405.7 160.333 401.738 157.093 396.945C153.854 392.152 151.743 386.659 150.927 380.894C150.11 375.129 150.61 369.249 152.387 363.715C154.164 358.18 157.17 353.141 161.169 348.99" stroke="#263238" stroke-linecap="round" stroke-linejoin="round"/>
<path d="M167.812 420.444L165.611 422.428L169.042 410.414" stroke="#263238" stroke-linecap="round" stroke-linejoin="round"/>
<path d="M193.704 412.721C188.264 413.675 182.684 413.367 177.376 411.82L170.409 418.104" stroke="#263238" stroke-linecap="round" stroke-linejoin="round"/>
<path d="M202.184 410.158C200.803 410.766 199.387 411.288 197.944 411.721" stroke="#263238" stroke-linecap="round" stroke-linejoin="round"/>
<path d="M184.577 357.101C179.994 357.902 175.87 360.426 173.018 364.178C170.165 367.93 168.79 372.637 169.163 377.373C169.536 382.108 171.631 386.53 175.034 389.767C178.438 393.004 182.903 394.821 187.553 394.862C192.202 394.903 196.698 393.164 200.155 389.987C203.613 386.811 205.781 382.427 206.234 377.698C206.687 372.97 205.391 368.239 202.602 364.438C199.813 360.637 195.732 358.04 191.163 357.159" stroke="#263238" stroke-linecap="round" stroke-linejoin="round"/>
<path d="M191.163 396.615C196.552 395.677 201.356 392.59 204.518 388.033C207.681 383.476 208.942 377.822 208.025 372.315" stroke="#263238" stroke-linecap="round" stroke-linejoin="round"/>
<path d="M168.314 383.005C169.583 386.591 171.78 389.759 174.671 392.17C177.562 394.581 181.038 396.146 184.731 396.698" stroke="#263238" stroke-linecap="round" stroke-linejoin="round"/>
<path d="M206.44 367.056C204.351 362.415 200.682 358.707 196.117 356.623C191.552 354.539 186.402 354.222 181.625 355.73C176.847 357.238 172.769 360.468 170.15 364.819C167.53 369.171 166.547 374.347 167.383 379.384" stroke="#263238" stroke-linecap="round" stroke-linejoin="round"/>
<path d="M198.551 368.255L198.786 367.999" stroke="#263238" stroke-width="2" stroke-linecap="round" stroke-linejoin="round"/>
<path d="M195.25 371.893L196.892 370.082" stroke="#263238" stroke-width="2" stroke-linecap="round" stroke-linejoin="round"/>
<path d="M193.809 374.564L185.872 385.345L175.094 373.481" stroke="#263238" stroke-width="2" stroke-linecap="round" stroke-linejoin="round"/>
</g>
<defs>
<filter id="filter0_d_344_1090" x="0" y="0" width="375.011" height="430.928" filterUnits="userSpaceOnUse" color-interpolation-filters="sRGB">
<feFlood flood-opacity="0" result="BackgroundImageFix"/>
<feColorMatrix in="SourceAlpha" type="matrix" values="0 0 0 0 0 0 0 0 0 0 0 0 0 0 0 0 0 0 127 0" result="hardAlpha"/>
<feOffset dy="4"/>
<feGaussianBlur stdDeviation="2"/>
<feComposite in2="hardAlpha" operator="out"/>
<feColorMatrix type="matrix" values="0 0 0 0 0 0 0 0 0 0 0 0 0 0 0 0 0 0 0.25 0"/>
<feBlend mode="normal" in2="BackgroundImageFix" result="effect1_dropShadow_344_1090"/>
<feBlend mode="normal" in="SourceGraphic" in2="effect1_dropShadow_344_1090" result="shape"/>
</filter>
</defs>
</svg>
