<svg width="168" height="143" viewBox="0 0 168 143" fill="none" xmlns="http://www.w3.org/2000/svg">
<g filter="url(#filter0_d_344_901)">
<path d="M107.88 1.00003L40.862 8.45551L51.2297 101.588L118.247 94.1321L107.88 1.00003Z" fill="white" stroke="#263238" stroke-linecap="round" stroke-linejoin="round"/>
<path d="M107.879 1.00039L40.8618 8.45587L42.2962 21.3417L109.314 13.8862L107.879 1.00039Z" fill="#BFBFBF" stroke="#263238" stroke-linecap="round" stroke-linejoin="round"/>
<path d="M89.2591 6.93768L60.328 10.155C60.1936 10.1617 60.0619 10.1957 59.9411 10.255C59.8203 10.3142 59.7128 10.3975 59.6252 10.4997C59.5376 10.6019 59.4718 10.7209 59.4318 10.8494C59.3918 10.9778 59.3784 11.1131 59.3925 11.2469C59.4065 11.3808 59.4477 11.5103 59.5135 11.6277C59.5793 11.7451 59.6684 11.8478 59.7752 11.9296C59.8821 12.0114 60.0045 12.0706 60.1351 12.1035C60.2656 12.1364 60.4014 12.1424 60.5343 12.1211L89.4654 8.9038C89.7185 8.86553 89.947 8.73075 90.1029 8.52774C90.2588 8.32472 90.3299 8.06925 90.3015 7.81492C90.273 7.56059 90.1471 7.32716 89.9502 7.1636C89.7533 7.00005 89.5007 6.91908 89.2453 6.93768H89.2591Z" fill="white"/>
<path d="M82.475 11.7774L68.0129 13.386C67.9484 13.3924 67.8857 13.4116 67.8286 13.4425C67.7716 13.4734 67.7212 13.5154 67.6806 13.5659C67.6399 13.6165 67.6097 13.6747 67.5918 13.737C67.5739 13.7994 67.5686 13.8647 67.5763 13.9291C67.5901 14.0594 67.6551 14.1789 67.7569 14.2613C67.8588 14.3438 67.9892 14.3826 68.1195 14.3691L82.5851 12.7604C82.7116 12.7413 82.8259 12.6739 82.9038 12.5724C82.9817 12.4709 83.0173 12.3432 83.0031 12.216C82.9889 12.0888 82.9259 11.9721 82.8275 11.8903C82.729 11.8086 82.6027 11.7681 82.475 11.7774Z" fill="white"/>
<path opacity="0.3" d="M93.2855 22.921L55.3767 27.1351C55.2795 27.1461 55.1907 27.1951 55.1298 27.2715C55.0689 27.3479 55.0408 27.4453 55.0517 27.5424C55.0627 27.6395 55.1117 27.7283 55.1882 27.7892C55.2646 27.8501 55.3621 27.8782 55.4592 27.8673L93.3577 23.6532C93.4548 23.6422 93.5436 23.5932 93.6046 23.5168C93.6655 23.4404 93.6936 23.3429 93.6827 23.2458C93.6717 23.1488 93.6226 23.06 93.5462 22.9991C93.4698 22.9382 93.3723 22.9101 93.2752 22.921H93.2855Z" fill="black"/>
<path opacity="0.3" d="M93.5778 25.5505L49.992 30.3971C49.8949 30.408 49.8061 30.4571 49.7452 30.5335C49.6843 30.6098 49.6562 30.7073 49.6671 30.8044C49.6781 30.9015 49.7271 30.9902 49.8035 31.0512C49.88 31.1121 49.9774 31.1401 50.0746 31.1292L93.6603 26.2826C93.7099 26.2797 93.7584 26.2667 93.8029 26.2444C93.8473 26.2222 93.8868 26.1912 93.9189 26.1533C93.9511 26.1154 93.9752 26.0714 93.9898 26.0239C94.0045 25.9764 94.0093 25.9265 94.0041 25.8771C93.9987 25.8272 93.9832 25.7789 93.9586 25.7352C93.9339 25.6914 93.9007 25.6531 93.8608 25.6226C93.821 25.5921 93.7753 25.57 93.7267 25.5576C93.678 25.5452 93.6274 25.5428 93.5778 25.5505Z" fill="black"/>
<path opacity="0.3" d="M82.4957 29.445L50.2843 33.0266C50.1872 33.0375 50.0984 33.0866 50.0375 33.163C49.9765 33.2394 49.9484 33.3368 49.9594 33.4339C49.9703 33.531 50.0194 33.6198 50.0958 33.6807C50.1722 33.7416 50.2697 33.7697 50.3668 33.7587L82.5748 30.1771C82.6244 30.1741 82.6729 30.1611 82.7173 30.1389C82.7618 30.1167 82.8012 30.0857 82.8334 30.0478C82.8655 30.0099 82.8896 29.9658 82.9043 29.9183C82.9189 29.8709 82.9238 29.8209 82.9186 29.7715C82.9131 29.7219 82.8977 29.674 82.8733 29.6305C82.8489 29.5871 82.816 29.5489 82.7765 29.5185C82.737 29.488 82.6918 29.4658 82.6436 29.4532C82.5953 29.4405 82.545 29.4377 82.4957 29.445Z" fill="black"/>
<path opacity="0.3" d="M102.897 21.5244L99.0525 21.952C98.5354 22.0096 98.1628 22.4753 98.2204 22.9922L98.6482 26.8355C98.7058 27.3524 99.1716 27.7249 99.6888 27.6673L103.533 27.2396C104.05 27.1821 104.423 26.7164 104.365 26.1994L103.938 22.3562C103.88 21.8393 103.414 21.4668 102.897 21.5244Z" stroke="#263238" stroke-linecap="round" stroke-linejoin="round"/>
<path d="M99.736 24.4781L101.001 25.6708L102.666 23.1238" stroke="#92E3A9" stroke-width="3" stroke-linecap="round" stroke-linejoin="round"/>
<path opacity="0.3" d="M94.6712 35.3777L56.7727 39.5918C56.6755 39.6027 56.5867 39.6518 56.5258 39.7282C56.4649 39.8046 56.4368 39.902 56.4477 39.9991C56.4587 40.0962 56.5077 40.1849 56.5842 40.2459C56.6606 40.3068 56.7581 40.3349 56.8552 40.3239L94.7537 36.1098C94.8018 36.1044 94.8484 36.0896 94.8907 36.0662C94.9331 36.0428 94.9704 36.0113 95.0006 35.9734C95.0307 35.9356 95.0532 35.8922 95.0666 35.8457C95.08 35.7992 95.0841 35.7506 95.0786 35.7025C95.0732 35.6544 95.0584 35.6079 95.035 35.5656C95.0116 35.5232 94.98 35.4859 94.9422 35.4557C94.9044 35.4256 94.861 35.4032 94.8145 35.3898C94.768 35.3764 94.7193 35.3723 94.6712 35.3777Z" fill="black"/>
<path opacity="0.3" d="M94.9635 38.0072L51.3777 42.8538C51.3296 42.8592 51.2831 42.874 51.2407 42.8974C51.1984 42.9208 51.161 42.9523 51.1309 42.9901C51.1007 43.028 51.0783 43.0714 51.0649 43.1178C51.0515 43.1643 51.0474 43.213 51.0528 43.2611C51.0582 43.3091 51.073 43.3557 51.0965 43.398C51.1199 43.4404 51.1514 43.4777 51.1892 43.5078C51.2271 43.538 51.2705 43.5604 51.317 43.5738C51.3635 43.5872 51.4122 43.5913 51.4602 43.5859L95.046 38.7393C95.1431 38.7284 95.2319 38.6793 95.2928 38.603C95.3538 38.5266 95.3819 38.4291 95.3709 38.332C95.36 38.2349 95.3109 38.1462 95.2345 38.0853C95.1581 38.0243 95.0606 37.9963 94.9635 38.0072Z" fill="black"/>
<path opacity="0.3" d="M83.8814 41.9016L51.67 45.4833C51.5729 45.4942 51.4841 45.5433 51.4232 45.6197C51.3622 45.696 51.3341 45.7935 51.3451 45.8906C51.356 45.9877 51.4051 46.0764 51.4815 46.1374C51.5579 46.1983 51.6554 46.2263 51.7526 46.2154L83.9605 42.6338C84.0101 42.6308 84.0586 42.6178 84.103 42.5956C84.1475 42.5733 84.187 42.5423 84.2191 42.5044C84.2512 42.4665 84.2753 42.4225 84.29 42.375C84.3046 42.3275 84.3095 42.2776 84.3043 42.2282C84.2988 42.1786 84.2834 42.1307 84.259 42.0872C84.2346 42.0437 84.2017 42.0056 84.1622 41.9751C84.1227 41.9447 84.0775 41.9224 84.0293 41.9098C83.981 41.8972 83.9307 41.8944 83.8814 41.9016Z" fill="black"/>
<path opacity="0.3" d="M104.284 33.9783L100.439 34.406C99.9223 34.4635 99.5497 34.9292 99.6073 35.4462L100.035 39.2894C100.093 39.8063 100.559 40.1788 101.076 40.1212L104.92 39.6936C105.437 39.636 105.81 39.1703 105.752 38.6534L105.324 34.8101C105.267 34.2932 104.801 33.9207 104.284 33.9783Z" stroke="#263238" stroke-linecap="round" stroke-linejoin="round"/>
<path d="M101.125 36.9348L102.387 38.1275L104.051 35.5805" stroke="#92E3A9" stroke-width="3" stroke-linecap="round" stroke-linejoin="round"/>
<path opacity="0.3" d="M96.0569 47.8343L58.1584 52.0484C58.0674 52.066 57.9864 52.1172 57.9315 52.1918C57.8767 52.2664 57.852 52.3589 57.8624 52.451C57.8728 52.543 57.9176 52.6277 57.9878 52.6881C58.0579 52.7486 58.1483 52.7804 58.2409 52.7771L96.1394 48.5562C96.1875 48.5508 96.2341 48.5359 96.2764 48.5125C96.3188 48.4891 96.3561 48.4576 96.3863 48.4198C96.4164 48.382 96.4389 48.3386 96.4523 48.2921C96.4657 48.2456 96.4698 48.1969 96.4643 48.1489C96.4589 48.1008 96.4441 48.0542 96.4207 48.0119C96.3973 47.9696 96.3657 47.9322 96.3279 47.9021C96.2901 47.8719 96.2467 47.8495 96.2002 47.8361C96.1537 47.8227 96.105 47.8186 96.0569 47.824V47.8343Z" fill="black"/>
<path opacity="0.3" d="M96.3526 50.4639L52.7634 55.3104C52.7153 55.3151 52.6685 55.3294 52.626 55.3525C52.5835 55.3756 52.546 55.407 52.5159 55.4448C52.4857 55.4826 52.4635 55.5261 52.4505 55.5727C52.4375 55.6193 52.434 55.6681 52.4402 55.716C52.4454 55.7641 52.4599 55.8107 52.4831 55.8532C52.5063 55.8956 52.5376 55.9331 52.5753 55.9634C52.613 55.9938 52.6563 56.0164 52.7028 56.03C52.7492 56.0435 52.7979 56.0478 52.846 56.0426L96.4317 51.196C96.4814 51.1926 96.53 51.1792 96.5745 51.1566C96.6189 51.134 96.6584 51.1027 96.6905 51.0645C96.7226 51.0263 96.7466 50.9821 96.7613 50.9344C96.7759 50.8867 96.7807 50.8366 96.7755 50.787C96.7701 50.7375 96.7547 50.6897 96.7302 50.6464C96.7057 50.6031 96.6727 50.5652 96.6332 50.535C96.5937 50.5048 96.5484 50.4829 96.5002 50.4707C96.452 50.4585 96.4018 50.4562 96.3526 50.4639Z" fill="black"/>
<path opacity="0.3" d="M85.2671 54.3584L53.0557 57.94C52.9586 57.9509 52.8698 58 52.8089 58.0764C52.7479 58.1528 52.7198 58.2502 52.7308 58.3473C52.7417 58.4444 52.7908 58.5332 52.8672 58.5941C52.9436 58.655 53.0411 58.6831 53.1382 58.6721L85.3461 55.0871C85.4433 55.0766 85.5322 55.0279 85.5935 54.9519C85.6548 54.8758 85.6833 54.7785 85.6728 54.6815C85.6623 54.5844 85.6137 54.4954 85.5376 54.4342C85.4615 54.3729 85.3642 54.3444 85.2671 54.3549V54.3584Z" fill="black"/>
<path opacity="0.3" d="M105.67 46.4322L101.826 46.8599C101.309 46.9174 100.936 47.3831 100.994 47.9001L101.422 51.7433C101.479 52.2602 101.945 52.6327 102.462 52.5752L106.307 52.1475C106.824 52.0899 107.196 51.6242 107.139 51.1073L106.711 47.2641C106.653 46.7471 106.188 46.3747 105.67 46.4322Z" stroke="#263238" stroke-linecap="round" stroke-linejoin="round"/>
<path d="M102.511 49.3915L103.773 50.5842L105.44 48.0338" stroke="#92E3A9" stroke-width="3" stroke-linecap="round" stroke-linejoin="round"/>
<path opacity="0.3" d="M97.4426 60.2911L59.5441 64.5052C59.4531 64.5227 59.3721 64.5739 59.3172 64.6485C59.2624 64.7231 59.2377 64.8157 59.2481 64.9077C59.2585 64.9997 59.3033 65.0844 59.3735 65.1449C59.4436 65.2053 59.534 65.2371 59.6266 65.2339L97.5251 61.0198C97.5758 61.018 97.6256 61.0058 97.6713 60.9838C97.7171 60.9619 97.7578 60.9308 97.7909 60.8924C97.824 60.854 97.8488 60.8091 97.8638 60.7607C97.8787 60.7122 97.8835 60.6612 97.8778 60.6108C97.8721 60.5605 97.856 60.5118 97.8306 60.4679C97.8052 60.424 97.771 60.3859 97.7301 60.3559C97.6893 60.3258 97.6426 60.3046 97.5931 60.2934C97.5437 60.2823 97.4924 60.2815 97.4426 60.2911Z" fill="black"/>
<path opacity="0.3" d="M97.7383 62.9205L54.1491 67.7671C54.101 67.7718 54.0542 67.7861 54.0117 67.8092C53.9692 67.8322 53.9317 67.8636 53.9016 67.9015C53.8714 67.9393 53.8492 67.9828 53.8362 68.0294C53.8232 68.076 53.8197 68.1247 53.8259 68.1727C53.8311 68.2208 53.8456 68.2674 53.8688 68.3099C53.892 68.3523 53.9233 68.3898 53.961 68.4201C53.9987 68.4504 54.042 68.473 54.0885 68.4866C54.1349 68.5002 54.1836 68.5045 54.2317 68.4992L97.8174 63.6527C97.9148 63.6415 98.0039 63.5921 98.0651 63.5155C98.1263 63.4389 98.1547 63.3411 98.144 63.2437C98.1328 63.1471 98.0838 63.059 98.0078 62.9985C97.9318 62.9379 97.8349 62.9099 97.7383 62.9205Z" fill="black"/>
<path opacity="0.3" d="M86.6665 66.815L54.4551 70.3967C54.407 70.4014 54.3602 70.4156 54.3177 70.4387C54.2752 70.4618 54.2377 70.4932 54.2076 70.531C54.1774 70.5689 54.1552 70.6124 54.1422 70.659C54.1292 70.7056 54.1257 70.7543 54.1319 70.8023C54.1371 70.8504 54.1516 70.897 54.1748 70.9394C54.198 70.9819 54.2293 71.0193 54.267 71.0497C54.3047 71.08 54.348 71.1026 54.3945 71.1162C54.4409 71.1298 54.4896 71.1341 54.5377 71.1288L86.7456 67.5472C86.7937 67.542 86.8403 67.5275 86.8828 67.5043C86.9253 67.4811 86.9627 67.4498 86.9931 67.4121C87.0234 67.3744 87.046 67.3312 87.0596 67.2847C87.0732 67.2383 87.0775 67.1897 87.0722 67.1416C87.0675 67.0933 87.0532 67.0465 87.0302 67.0038C87.0072 66.9611 86.9758 66.9235 86.938 66.893C86.9002 66.8626 86.8568 66.8401 86.8101 66.8267C86.7635 66.8133 86.7147 66.8093 86.6665 66.815Z" fill="black"/>
<path opacity="0.3" d="M107.057 58.8895L103.213 59.3172C102.696 59.3748 102.323 59.8405 102.381 60.3574L102.808 64.2006C102.866 64.7176 103.332 65.09 103.849 65.0325L107.694 64.6048C108.211 64.5473 108.583 64.0816 108.526 63.5646L108.098 59.7214C108.04 59.2044 107.574 58.832 107.057 58.8895Z" stroke="#263238" stroke-linecap="round" stroke-linejoin="round"/>
<path d="M103.897 61.8447L105.158 63.0374L106.826 60.4904" stroke="#92E3A9" stroke-width="3" stroke-linecap="round" stroke-linejoin="round"/>
<path opacity="0.3" d="M98.8317 72.7443L60.9332 76.9584C60.8851 76.9636 60.8385 76.9782 60.7961 77.0014C60.7536 77.0246 60.7162 77.0559 60.6858 77.0936C60.6555 77.1313 60.6329 77.1745 60.6193 77.2209C60.6057 77.2673 60.6013 77.316 60.6065 77.364C60.6117 77.4121 60.6263 77.4587 60.6495 77.5011C60.6727 77.5435 60.7041 77.581 60.7417 77.6113C60.7794 77.6416 60.8227 77.6642 60.8691 77.6778C60.9155 77.6914 60.9642 77.6958 61.0123 77.6906L98.9108 73.4765C98.9589 73.4713 99.0055 73.4568 99.048 73.4336C99.0905 73.4104 99.128 73.3791 99.1583 73.3414C99.1886 73.3037 99.2112 73.2604 99.2248 73.214C99.2384 73.1676 99.2427 73.119 99.2375 73.0709C99.2262 72.9741 99.1774 72.8857 99.1015 72.8246C99.0256 72.7635 98.9287 72.7347 98.8317 72.7443Z" fill="black"/>
<path opacity="0.3" d="M99.124 75.3669L55.5348 80.2135C55.4841 80.2153 55.4343 80.2275 55.3886 80.2494C55.3429 80.2713 55.3022 80.3025 55.269 80.3409C55.2359 80.3793 55.2111 80.4241 55.1961 80.4726C55.1812 80.521 55.1764 80.572 55.1821 80.6224C55.1878 80.6728 55.2039 80.7215 55.2293 80.7653C55.2547 80.8092 55.2889 80.8474 55.3298 80.8774C55.3707 80.9074 55.4173 80.9287 55.4668 80.9398C55.5163 80.951 55.5675 80.9518 55.6173 80.9422L99.2031 76.0956C99.254 76.0944 99.3041 76.0826 99.3502 76.0611C99.3963 76.0395 99.4374 76.0086 99.471 75.9703C99.5045 75.932 99.5298 75.8872 99.5451 75.8386C99.5604 75.7901 99.5655 75.7389 99.56 75.6883C99.5545 75.6377 99.5386 75.5888 99.5132 75.5446C99.4878 75.5005 99.4535 75.4621 99.4126 75.4319C99.3716 75.4017 99.3248 75.3803 99.2751 75.3692C99.2254 75.358 99.174 75.3572 99.124 75.3669Z" fill="black"/>
<path opacity="0.3" d="M88.0419 79.2717L55.8305 82.8533C55.7334 82.8643 55.6446 82.9133 55.5837 82.9897C55.5228 83.0661 55.4947 83.1636 55.5056 83.2606C55.5166 83.3577 55.5656 83.4465 55.642 83.5074C55.7185 83.5683 55.8159 83.5964 55.9131 83.5855L88.1244 80.0038C88.2212 79.9918 88.3094 79.9421 88.3699 79.8656C88.4304 79.789 88.4583 79.6917 88.4476 79.5948C88.4425 79.5468 88.4279 79.5004 88.4047 79.4581C88.3815 79.4158 88.3501 79.3785 88.3123 79.3485C88.2746 79.3184 88.2312 79.2962 88.1848 79.283C88.1384 79.2698 88.0898 79.266 88.0419 79.2717Z" fill="black"/>
<path opacity="0.3" d="M108.444 71.3469L104.6 71.7746C104.083 71.8321 103.71 72.2978 103.768 72.8148L104.195 76.658C104.253 77.1749 104.719 77.5474 105.236 77.4898L109.08 77.0621C109.598 77.0046 109.97 76.5389 109.913 76.0219L109.485 72.1787C109.427 71.6618 108.961 71.2893 108.444 71.3469Z" stroke="#263238" stroke-linecap="round" stroke-linejoin="round"/>
<path d="M105.282 74.3014L106.544 75.4941L108.212 72.9471" stroke="#92E3A9" stroke-width="3" stroke-linecap="round" stroke-linejoin="round"/>
<path opacity="0.3" d="M99.8873 82.2415L61.9888 86.4625C61.8917 86.4735 61.8029 86.5225 61.7419 86.5989C61.681 86.6753 61.6529 86.7727 61.6638 86.8698C61.6748 86.9669 61.7239 87.0557 61.8003 87.1166C61.8767 87.1775 61.9742 87.2056 62.0713 87.1947L99.9698 82.9806C100.018 82.9759 100.065 82.9616 100.107 82.9385C100.15 82.9154 100.187 82.884 100.217 82.8462C100.248 82.8084 100.27 82.7649 100.283 82.7183C100.296 82.6717 100.299 82.6229 100.293 82.575C100.289 82.5263 100.275 82.4789 100.252 82.4357C100.229 82.3924 100.198 82.3542 100.16 82.3231C100.122 82.2921 100.079 82.2689 100.032 82.2549C99.9851 82.2409 99.9359 82.2363 99.8873 82.2415Z" fill="black"/>
<path opacity="0.3" d="M100.18 84.8813L56.5939 89.7279C56.543 89.7291 56.4929 89.7409 56.4467 89.7625C56.4006 89.784 56.3595 89.8149 56.3259 89.8532C56.2924 89.8915 56.2671 89.9364 56.2518 89.9849C56.2365 90.0334 56.2314 90.0846 56.2369 90.1352C56.2424 90.1858 56.2583 90.2348 56.2837 90.2789C56.3091 90.323 56.3434 90.3614 56.3844 90.3916C56.4253 90.4218 56.4722 90.4432 56.5218 90.4544C56.5715 90.4656 56.623 90.4663 56.6729 90.4566L100.262 85.61C100.353 85.5925 100.434 85.5413 100.489 85.4667C100.544 85.3921 100.568 85.2995 100.558 85.2075C100.548 85.1155 100.503 85.0308 100.433 84.9703C100.363 84.9099 100.272 84.8781 100.18 84.8813Z" fill="black"/>
<path opacity="0.3" d="M89.094 88.7723L56.8861 92.3539C56.838 92.3591 56.7914 92.3736 56.7489 92.3968C56.7065 92.42 56.669 92.4513 56.6386 92.489C56.6083 92.5266 56.5857 92.5699 56.5721 92.6164C56.5585 92.6628 56.5542 92.7114 56.5595 92.7595C56.5707 92.8569 56.62 92.946 56.6967 93.0071C56.7734 93.0683 56.8711 93.0967 56.9687 93.086L89.1766 89.5044C89.2247 89.499 89.2712 89.4842 89.3136 89.4608C89.3559 89.4374 89.3932 89.4059 89.4234 89.368C89.4536 89.3302 89.476 89.2868 89.4894 89.2403C89.5028 89.1938 89.5069 89.1452 89.5015 89.0971C89.4961 89.049 89.4812 89.0025 89.4578 88.9601C89.4344 88.9178 89.4029 88.8805 89.3651 88.8503C89.3272 88.8202 89.2838 88.7978 89.2373 88.7844C89.1908 88.771 89.1421 88.7669 89.094 88.7723Z" fill="black"/>
<path opacity="0.3" d="M109.503 80.8474L105.658 81.2751C105.141 81.3326 104.769 81.7983 104.826 82.3153L105.254 86.1585C105.312 86.6755 105.778 87.0479 106.295 86.9904L110.139 86.5627C110.656 86.5052 111.029 86.0394 110.971 85.5225L110.544 81.6793C110.486 81.1623 110.02 80.7899 109.503 80.8474Z" stroke="#263238" stroke-linecap="round" stroke-linejoin="round"/>
<path d="M106.338 83.8055L107.6 84.9982L109.267 82.4512" stroke="#92E3A9" stroke-width="3" stroke-linecap="round" stroke-linejoin="round"/>
<path opacity="0.3" d="M53.8225 49.5118C55.9199 51.0517 57.6735 58.4487 57.8317 65.2304C57.9899 72.0122 61.2702 83.448 61.6621 85.3213C62.0541 87.1946 61.9097 89.8963 64.3441 86.1359C66.7785 82.3756 73.8996 75.8482 76.8669 78.0171C79.8343 80.186 74.8383 87.4765 72.1322 91.4018C69.4261 95.3272 69.1511 102.24 65.9086 106.567C62.6662 110.895 59.7366 117.429 56.5595 117.329C53.3824 117.23 32.3391 132.835 32.3391 132.835L32.7517 111.476L51.6631 80.54L53.8225 49.5118Z" fill="black" fill-opacity="0.7"/>
<path d="M78.593 79.0655C78.4864 79.7357 74.7832 84.6407 72.6067 88.3117C70.4302 91.9827 68.3912 98.3726 67.8444 99.311C67.2977 100.249 60.6237 106.11 58.7945 108.561C56.9652 111.011 53.6987 112.094 50.4356 114.404C48.3382 115.889 41.8017 123.551 37.397 128.841C34.9489 131.78 33.1574 133.997 33.1574 133.997L5 126.658C5 126.658 7.33126 124.737 10.3984 122.145H10.419L10.4499 122.121C15.4907 117.841 22.5154 111.802 24.4547 109.523C27.5803 105.852 31.9333 101.49 31.9333 101.49C31.6686 96.3928 32.2084 91.5634 31.7305 89.7279C31.4829 88.7689 31.0428 83.3139 30.6989 81.6365C29.8634 77.3503 26.229 72.9093 25.8198 71.1597C25.4106 69.4102 20.614 61.9616 22.9556 60.5867C23.3813 60.3188 23.8873 60.2082 24.386 60.2739C27.5493 60.7104 30.1557 68.348 31.9505 70.2935C32.7196 71.2145 33.4163 72.1937 34.0342 73.2221C35.4509 75.4666 36.84 77.9896 36.84 77.9896C37.3833 75.8138 33.4394 68.0628 32.3494 60.7207C31.2594 53.3787 28.1339 49.4362 32.3494 48.9825C32.6958 48.9436 33.0464 48.974 33.3809 49.0718C36.3483 49.938 37.6343 56.101 39.4085 62.0819C39.5736 62.6319 40.9249 66.5813 41.977 69.6267C42.6647 71.6203 43.2149 73.2255 43.2149 73.2255C43.349 69.4858 42.1833 66.0073 41.9908 62.6181C41.9083 61.2604 42.3346 55.8192 41.7982 50.3814C41.3375 45.7927 41.5472 43.9331 43.3421 43.5722C43.7266 43.503 44.1184 43.4845 44.5077 43.5172C47.6195 43.7131 48.7233 51.9798 48.7233 55.2039C48.7233 57.0772 49.043 60.7345 49.3112 63.4774C49.5072 65.4607 49.6757 66.9663 49.6757 66.9663C49.6757 66.9663 50.219 62.4119 49.8132 52.5881C49.7204 50.4364 49.8614 48.8965 50.7072 48.2744C51.1714 47.9306 51.8419 47.8722 52.8047 48.1334C55.5245 48.869 56.4082 58.9437 56.4082 62.7522C56.4082 66.5607 58.5847 73.0846 58.9939 78.2199C59.4031 83.3552 61.1842 89.666 61.1842 89.666C61.1842 89.666 62.1916 90.0751 62.869 89.941C63.5464 89.8069 68.2433 82.8705 68.2433 82.8705C70.4302 78.1237 74.6869 76.6834 77.0045 77.2162C78.0704 77.4603 78.7581 78.1168 78.593 79.0655Z" fill="white"/>
<path opacity="0.4" d="M78.593 79.0655C78.4865 79.7358 74.7832 84.6408 72.6067 88.3118C70.4302 91.9828 68.3912 98.3727 67.8445 99.311C67.2977 100.249 60.6237 106.11 58.7945 108.561C56.9652 111.012 53.6987 112.094 50.4356 114.404C48.3382 115.889 41.8017 123.551 37.397 128.841C37.8819 126.923 38.9684 124.472 41.8086 122.117C46.7393 118.024 47.035 114.813 49.686 112.094C52.3371 109.375 57.0065 110.19 58.6844 106.938C60.3624 103.687 66.2146 100.683 67.4387 97.8261C68.6628 94.9698 66.2146 94.3648 68.3912 90.9275C70.5677 87.4903 72.6789 86.655 72.3695 85.3076C72.06 83.9602 71.1454 81.9184 73.0331 80.217C74.2125 79.1583 75.5982 77.8281 77.0148 77.2162C78.0704 77.4603 78.7581 78.1168 78.593 79.0655Z" fill="#92E3A9"/>
<path opacity="0.4" d="M43.3146 95.2C42.4103 94.7463 43.1358 93.8423 42.4997 93.0895C41.8636 92.3368 40.4126 97.1971 40.0928 97.2143C39.773 97.2314 38.7999 94.7429 38.4148 94.4954C38.0297 94.2479 37.8028 95.2894 37.2561 97.2143C36.7094 99.1391 34.7013 100.115 33.5357 101.49C32.37 102.865 25.359 110.341 23.6364 113.149C21.9137 115.958 11.2752 121.516 10.45 122.114C15.4907 117.841 22.5155 111.802 24.4547 109.523C27.5803 105.852 31.9334 101.49 31.9334 101.49C31.6686 96.3928 32.2084 91.5634 31.7305 89.7279C31.4829 88.7689 31.0428 83.3139 30.699 81.6365C29.8634 77.3502 26.229 72.9093 25.8198 71.1597C25.4106 69.4102 20.614 61.9616 22.9556 60.5867C23.3813 60.3188 23.8873 60.2081 24.386 60.2739C23.853 60.652 23.3338 61.1951 23.8186 61.9925C24.6817 63.388 25.6307 64.8558 25.6307 66.3991C25.6307 67.9424 28.2611 70.1148 29.2823 71.555C30.3035 72.9952 29.3511 72.4865 30.0319 74.4595C30.7127 76.4325 31.5276 76.02 31.9334 78.0137C32.3391 80.0073 34.6085 81.2791 34.2474 83.7642C33.8864 86.2494 35.334 89.7073 35.334 89.7073C35.334 89.7073 36.5134 86.3559 36.0836 84.5513C35.6538 82.7468 36.1523 80.4713 35.7397 79.8595C35.3959 79.3095 34.4537 75.5766 34.0205 73.2565C35.4371 75.501 36.8263 78.024 36.8263 78.024C37.3695 75.8482 33.4256 68.0971 32.3357 60.7551C31.2457 53.4131 28.1201 49.4705 32.3357 49.0168C32.682 48.978 33.0327 49.0084 33.3672 49.1062C35.1655 52.4644 33.9139 54.9495 33.515 56.4069C33.0784 57.995 35.6778 62.0716 36.0629 64.8798C36.4068 67.5025 37.1151 67.2309 37.2079 67.1828C37.1288 67.255 36.4583 67.939 36.8641 69.8845C37.287 71.9469 40.3025 76.845 40.3025 78.213C40.3025 79.581 40.055 81.8325 40.055 82.4993C40.055 83.1661 42.4619 87.6277 42.7507 88.7964C43.0395 89.9651 42.6372 86.545 43.294 85.3591C43.9507 84.1732 44.298 80.0348 44.384 80.2582C45.5152 83.1318 44.2224 95.6469 43.3146 95.2Z" fill="#92E3A9"/>
<path opacity="0.4" d="M45.2642 64.4846C44.494 65.6498 44.5146 74.7448 43.2011 74.7758C42.565 74.7758 42.2555 72.49 41.9977 69.6198C42.6854 71.6135 43.2355 73.2187 43.2355 73.2187C43.3696 69.4789 42.204 66.0004 42.0114 62.6112C41.9289 61.2535 42.3553 55.8123 41.8189 50.3745C41.3581 45.7858 41.5679 43.9262 43.3627 43.5653C43.741 44.789 44.6693 46.2326 44.9066 47.5732C45.2298 49.4224 44.5971 50.952 44.0539 51.1823C43.5106 51.4126 43.4177 52.6053 44.0986 52.7806C44.7794 52.9559 44.0986 61.6351 44.4149 62.7487C44.7312 63.8624 46.0378 63.3365 45.2642 64.4846Z" fill="#92E3A9"/>
<path opacity="0.4" d="M52.3302 54.3034C50.917 54.9255 50.8413 56.0392 50.4184 57.6375C49.9955 59.2358 51.0236 61.5697 50.4184 65.2373C49.8132 68.9049 52.0207 71.2697 50.4184 75.3738C48.8161 79.4779 49.5691 71.9366 49.3009 68.4993C49.2085 66.8253 49.2154 65.1472 49.3216 63.474C49.5175 65.4573 49.686 66.9628 49.686 66.9628C49.686 66.9628 50.2293 62.4084 49.8236 52.5847C49.7307 50.433 49.8717 48.8931 50.7176 48.2709C52.1686 49.5874 53.5336 53.774 52.3302 54.3034Z" fill="#92E3A9"/>
<path d="M33.1574 134C33.1574 134 47.1691 116.731 50.4356 114.407C53.7021 112.084 56.9687 111.008 58.7945 108.564C60.6203 106.12 67.3012 100.267 67.8445 99.3144C68.3877 98.3623 70.4302 91.9724 72.6067 88.3151C74.7832 84.6579 78.4864 79.722 78.593 79.0689C79.0675 76.075 71.4514 75.941 68.2536 82.8774C68.2536 82.8774 63.5602 89.8104 62.8793 89.9479C62.1985 90.0853 61.1945 89.6729 61.1945 89.6729C61.1945 89.6729 59.4134 83.3655 59.0042 78.2267C58.595 73.088 56.4185 66.5572 56.4185 62.759C56.4185 58.9608 55.5348 48.8759 52.815 48.1403C50.0952 47.4047 49.6826 49.2677 49.8236 52.6087C50.2293 62.4325 49.686 66.9869 49.686 66.9869C49.686 66.9869 48.7336 58.4521 48.7336 55.2245C48.7336 51.9969 47.6298 43.7303 44.518 43.5378C41.6607 43.3556 41.2618 44.9608 41.8086 50.4123C42.3553 55.8638 41.9186 61.2913 42.0011 62.649C42.204 66.0485 43.3765 69.5236 43.2252 73.2564C43.2252 73.2564 39.687 63.0168 39.4154 62.1059C37.4452 55.4307 36.0801 48.5562 32.3391 48.9687C28.1235 49.4224 31.2525 53.3649 32.3391 60.707C33.4256 68.049 37.373 75.8 36.8297 77.9758C36.8297 77.9758 33.5666 72.0534 31.9402 70.2798C29.8772 68.049 26.7619 58.3284 22.9521 60.5729C20.6105 61.9478 25.4209 69.4205 25.8267 71.17C26.2324 72.9196 29.8703 77.3571 30.7058 81.6468C31.0497 83.3242 31.4795 88.7792 31.7374 89.7382C32.2153 91.5737 31.6755 96.403 31.9402 101.501C31.9402 101.501 27.5871 105.852 24.4616 109.523C21.3361 113.194 5.00688 126.658 5.00688 126.658" stroke="#263238" stroke-linecap="round" stroke-linejoin="round"/>
<path d="M61.1945 89.6694C61.8221 91.2181 61.8221 92.9501 61.1945 94.4988" stroke="#263238" stroke-linecap="round" stroke-linejoin="round"/>
<path d="M62.3395 89.9582C62.7298 90.2448 63.0191 90.6478 63.1655 91.1093C63.312 91.5707 63.3081 92.0667 63.1544 92.5258" stroke="#263238" stroke-linecap="round" stroke-linejoin="round"/>
<path d="M49.686 66.9628C49.686 66.9628 50.776 74.6451 50.2981 76.0716" stroke="#263238" stroke-linecap="round" stroke-linejoin="round"/>
<path d="M43.2252 73.2187C43.3419 73.9612 43.3419 74.7173 43.2252 75.4598" stroke="#263238" stroke-linecap="round" stroke-linejoin="round"/>
<path d="M36.8331 77.9759C36.8331 77.9759 37.036 79.1343 36.8331 79.4058" stroke="#263238" stroke-linecap="round" stroke-linejoin="round"/>
<path d="M71.3138 84.5032C71.3138 84.5032 72.5448 85.1701 72.9471 86.1359" stroke="#263238" stroke-linecap="round" stroke-linejoin="round"/>
<path d="M43.2699 52.5847C43.6689 52.6805 44.0856 52.6743 44.4816 52.5668C44.8776 52.4593 45.2401 52.2538 45.5358 51.9694" stroke="#263238" stroke-linecap="round" stroke-linejoin="round"/>
<path d="M43.6859 63.6321C43.6859 63.6321 46.1341 64.4468 47.0212 63.6321" stroke="#263238" stroke-linecap="round" stroke-linejoin="round"/>
<path d="M51.6597 66.0107C51.6597 66.0107 53.2895 65.3989 54.3795 65.7392" stroke="#263238" stroke-linecap="round" stroke-linejoin="round"/>
<path d="M36.0836 68.1865C36.0836 68.1865 37.3764 66.485 38.3976 66.9628" stroke="#263238" stroke-linecap="round" stroke-linejoin="round"/>
<path d="M30.778 73.2187C30.778 73.2187 29.6227 73.7618 29.2823 74.3392" stroke="#263238" stroke-linecap="round" stroke-linejoin="round"/>
<path d="M31.9333 101.49C32.2168 101.172 32.4679 100.827 32.6829 100.459C32.8858 100.05 32.6141 95.6984 32.6829 92.897" stroke="#263238" stroke-linecap="round" stroke-linejoin="round"/>
<path d="M46.2029 118.622C44.6006 120.416 39.687 123.668 37.7168 125.637" stroke="#263238" stroke-linecap="round" stroke-linejoin="round"/>
<path d="M52.6775 77.9759C51.8626 80.2892 52.7463 83.2109 52.6775 84.5067C52.6087 85.8026 52.3336 91.725 52.3336 91.725" stroke="#263238" stroke-linecap="round" stroke-linejoin="round"/>
<path d="M45.2642 77.9759C44.1776 79.8114 44.5181 82.2587 44.8585 83.4755C45.1989 84.6923 44.8963 89.6626 44.8963 89.6626" stroke="#263238" stroke-linecap="round" stroke-linejoin="round"/>
<path d="M33.5666 83.8226C33.4765 85.0197 33.7143 86.2186 34.2543 87.2908" stroke="#263238" stroke-linecap="round" stroke-linejoin="round"/>
<path d="M40.2991 80.2203C39.687 82.4649 40.5054 83.4823 40.5742 83.8226" stroke="#263238" stroke-linecap="round" stroke-linejoin="round"/>
<path opacity="0.3" d="M95.5446 65.3989L94.3858 58.6756C94.3347 58.3769 94.3445 58.071 94.4146 57.7761C94.4847 57.4813 94.6138 57.2037 94.7939 56.96C94.9741 56.7163 95.2017 56.5116 95.4631 56.3581C95.7244 56.2045 96.0141 56.1054 96.3148 56.0667L98.9108 55.723C98.9108 55.723 98.0443 53.9665 100.833 48.8484C103.621 43.7303 117.028 30.1359 127.192 52.9731C137.356 75.8104 146.643 122.348 146.643 122.348C146.643 122.348 119.208 90.4085 118.335 88.7724C117.461 87.1362 109.109 88.1158 107.18 83.7264C105.251 79.337 101.201 66.8116 101.201 66.8116L98.065 67.2413C97.4881 67.3193 96.9034 67.171 96.4336 66.8275C95.9637 66.4841 95.6451 65.9721 95.5446 65.3989Z" fill="black" fill-opacity="0.7"/>
<path d="M119.724 49.9723L114.459 50.9279L107.142 52.2581L97.5595 54.0008C97.3757 54.0345 97.187 54.0316 97.0044 53.9923C96.8217 53.953 96.6485 53.878 96.4949 53.7717C96.3412 53.6654 96.2101 53.5298 96.109 53.3727C96.0079 53.2155 95.9388 53.04 95.9056 52.8562L93.8013 41.2898C93.7351 40.9189 93.8183 40.5369 94.0328 40.2271C94.2473 39.9174 94.5757 39.705 94.9463 39.6364L100.52 38.6052L108.628 37.1341L117.111 35.5908C117.294 35.557 117.483 35.5599 117.666 35.5992C117.848 35.6385 118.021 35.7135 118.175 35.8199C118.329 35.9262 118.46 36.0618 118.561 36.2189C118.662 36.376 118.731 36.5515 118.764 36.7354L120.869 48.3018C120.905 48.4868 120.904 48.6771 120.866 48.8618C120.828 49.0464 120.753 49.2215 120.647 49.377C120.54 49.5325 120.404 49.6653 120.245 49.7675C120.087 49.8697 119.909 49.9393 119.724 49.9723Z" fill="#92E3A9"/>
<mask id="mask0_344_901" style="mask-type:luminance" maskUnits="userSpaceOnUse" x="93" y="35" width="28" height="20">
<path d="M119.724 49.9723L114.459 50.9279L107.142 52.2581L97.5595 54.0008C97.3757 54.0345 97.187 54.0316 97.0044 53.9923C96.8217 53.953 96.6485 53.878 96.4949 53.7717C96.3412 53.6654 96.2101 53.5298 96.109 53.3727C96.0079 53.2155 95.9388 53.04 95.9056 52.8562L93.8013 41.2898C93.7351 40.9189 93.8183 40.5369 94.0328 40.2271C94.2473 39.9174 94.5757 39.705 94.9463 39.6364L100.52 38.6052L108.628 37.1341L117.111 35.5908C117.294 35.557 117.483 35.5599 117.666 35.5992C117.848 35.6385 118.021 35.7135 118.175 35.8199C118.329 35.9262 118.46 36.0618 118.561 36.2189C118.662 36.376 118.731 36.5515 118.764 36.7354L120.869 48.3018C120.905 48.4868 120.904 48.6771 120.866 48.8618C120.828 49.0464 120.753 49.2215 120.647 49.377C120.54 49.5325 120.404 49.6653 120.245 49.7675C120.087 49.8697 119.909 49.9393 119.724 49.9723Z" fill="white"/>
</mask>
<g mask="url(#mask0_344_901)">
<path opacity="0.3" d="M116 42.2935L114.459 50.9279L107.142 52.2582C105.024 51.3267 101.531 49.7043 100.833 48.8209C100.001 47.7897 100.118 41.7126 100.52 38.6053L108.628 37.1342C111.485 39.1037 116 42.2935 116 42.2935Z" fill="black" fill-opacity="0.7"/>
<path opacity="0.3" d="M99.014 53.7361L97.5595 54.0008C97.3757 54.0345 97.187 54.0316 97.0044 53.9923C96.8217 53.953 96.6485 53.878 96.4949 53.7717C96.3412 53.6654 96.2101 53.5298 96.109 53.3727C96.0079 53.2156 95.9388 53.04 95.9056 52.8562L93.8013 41.2898C93.7351 40.9189 93.8183 40.5369 94.0328 40.2271C94.2473 39.9174 94.5757 39.705 94.9463 39.6364L96.3973 39.3718C96.0269 39.4403 95.6988 39.6528 95.4849 39.9627C95.2709 40.2726 95.1885 40.6546 95.2558 41.0251L97.3601 52.5915C97.3932 52.7754 97.4623 52.9509 97.5634 53.108C97.6646 53.2651 97.7957 53.4007 97.9494 53.507C98.103 53.6134 98.2761 53.6883 98.4588 53.7277C98.6415 53.767 98.8302 53.7699 99.014 53.7361Z" fill="black" fill-opacity="0.7"/>
</g>
<path d="M119.724 49.9723L114.459 50.9279L107.142 52.2581L97.5595 54.0008C97.3757 54.0345 97.187 54.0316 97.0044 53.9923C96.8217 53.953 96.6485 53.878 96.4949 53.7717C96.3412 53.6654 96.2101 53.5298 96.109 53.3727C96.0079 53.2155 95.9388 53.04 95.9056 52.8562L93.8013 41.2898C93.7351 40.9189 93.8183 40.5369 94.0328 40.2271C94.2473 39.9174 94.5757 39.705 94.9463 39.6364L100.52 38.6052L108.628 37.1341L117.111 35.5908C117.294 35.557 117.483 35.5599 117.666 35.5992C117.848 35.6385 118.021 35.7135 118.175 35.8199C118.329 35.9262 118.46 36.0618 118.561 36.2189C118.662 36.376 118.731 36.5515 118.764 36.7354L120.869 48.3018C120.905 48.4868 120.904 48.6771 120.866 48.8618C120.828 49.0464 120.753 49.2215 120.647 49.377C120.54 49.5325 120.404 49.6653 120.245 49.7675C120.087 49.8697 119.909 49.9393 119.724 49.9723Z" stroke="#263238" stroke-linecap="round" stroke-linejoin="round"/>
<path d="M118.16 34.9797L96.0854 39.0329C95.3149 39.1743 94.8051 39.9134 94.9466 40.6836L97.0627 52.2006C97.2042 52.9708 97.9435 53.4805 98.7139 53.339L120.789 49.2858C121.559 49.1444 122.069 48.4053 121.927 47.6351L119.811 36.1181C119.67 35.3479 118.931 34.8382 118.16 34.9797Z" stroke="#263238" stroke-width="0.996394" stroke-linecap="round" stroke-linejoin="round"/>
<path d="M117.543 36.3707L96.7403 40.1498C96.3666 40.2177 96.1188 40.5755 96.1867 40.9491L98.2586 52.346C98.3265 52.7196 98.6844 52.9674 99.0581 52.8995L119.86 49.1204C120.234 49.0525 120.482 48.6946 120.414 48.3211L118.342 36.9241C118.274 36.5506 117.916 36.3028 117.543 36.3707Z" stroke="#263238" stroke-linecap="round" stroke-linejoin="round"/>
<path d="M121.178 49.7077L119.734 49.9689C120.103 49.8996 120.429 49.6872 120.642 49.378C120.855 49.0688 120.936 48.6881 120.869 48.319L118.764 36.7526C118.731 36.5687 118.662 36.3932 118.561 36.2361C118.46 36.079 118.329 35.9434 118.175 35.8371C118.022 35.7307 117.848 35.6558 117.666 35.6165C117.483 35.5771 117.294 35.5743 117.111 35.608L118.565 35.3433C118.936 35.2771 119.318 35.3603 119.628 35.5747C119.938 35.7892 120.15 36.1175 120.219 36.4879L122.323 48.0544C122.389 48.4252 122.306 48.8072 122.092 49.117C121.877 49.4268 121.549 49.6391 121.178 49.7077Z" stroke="#263238" stroke-linecap="round" stroke-linejoin="round"/>
<path d="M163 86.7581L148.761 124.939C148.761 124.939 142.806 113.596 137.304 103.099C132.91 94.705 128.805 86.8337 128.251 85.6753C127.01 83.0664 122.77 77.6012 122.77 77.6012C122.77 77.6012 118.421 75.1126 116.43 70.7782C114.439 66.4438 112.249 50.9382 112.249 50.9382C112.249 50.9382 106.53 48.7865 105.165 47.8447C103.8 46.9029 102.556 38.1997 102.556 37.2063C102.556 36.2129 103.931 34.2228 103.931 34.2228C103.931 34.2228 103.625 32.7654 105.372 31.2942C105.943 30.8257 106.576 30.4382 107.252 30.1427H107.287C107.287 30.1427 107.06 26.8532 108.772 25.8942C108.854 25.848 108.939 25.8078 109.027 25.7739C110.553 25.1862 115.56 24.4265 115.56 24.4265C116.268 23.8049 117.091 23.3294 117.984 23.0276C118.871 22.7835 123.74 23.9144 126.46 24.5846C127.553 24.8527 128.299 25.0452 128.299 25.0452C128.299 25.0452 132.9 25.2549 133.77 25.7739C134.377 26.1716 134.931 26.644 135.42 27.1798L135.506 27.2795C135.506 27.2795 139.608 28.1319 140.478 29.634C141.348 31.1361 141.719 38.5881 141.101 43.4312C140.482 48.2743 141.592 56.4929 141.592 56.4929C141.592 56.4929 142.875 62.8415 143.868 65.251C144.862 67.6606 163 86.7581 163 86.7581Z" fill="white"/>
<path opacity="0.4" d="M137.304 103.099C132.91 94.7051 128.805 86.8337 128.251 85.6754C127.01 83.0665 122.77 77.6012 122.77 77.6012C122.77 77.6012 118.421 75.1126 116.43 70.7782C114.439 66.4438 112.249 50.9383 112.249 50.9383C112.249 50.9383 106.53 48.7865 105.165 47.8447C103.8 46.9029 102.556 38.1997 102.556 37.2064C102.556 36.213 103.931 34.2228 103.931 34.2228C103.931 34.2228 103.625 32.7654 105.372 31.2942C105.372 31.6861 105.372 32.346 105.372 33.3841C105.33 35.3537 107.651 47.2294 108.226 46.8685C108.8 46.5076 109.687 45.638 109.453 44.8715C109.453 44.8715 108.329 40.2621 107.266 30.1428H107.301C107.301 30.1428 107.074 26.8533 108.786 25.8943C108.491 26.6066 108.303 27.3581 108.226 28.1251C108.188 29.7268 110.093 43.4519 110.839 43.799C111.585 44.1462 113.476 42.3176 113.476 42.3176C113.476 42.3176 112.83 38.4232 113.06 36.7629C113.06 36.7629 118.813 40.269 118.984 44.2493C119.002 44.6859 120.105 50.9245 120.105 50.9245C120.105 50.9245 115.157 60.3427 120.209 68.9358C120.209 68.9358 117.64 67.3959 117.028 64.9486C117.028 64.9486 116.282 72.1462 121.587 75.9479C121.587 75.9479 125.394 72.2116 129.152 71.7372C129.152 71.7372 129.221 71.9847 126.704 73.968C124.187 75.9513 123.846 76.8347 123.846 76.8347C123.846 76.8347 126.57 74.0849 128.746 73.968C128.746 73.968 126.501 76.5631 126.57 77.1062C126.638 77.6493 132.989 88.5042 135.3 96.0766C136.242 99.2388 136.885 101.521 137.304 103.099Z" fill="#92E3A9"/>
<path opacity="0.4" d="M119.473 31.0605C119.473 31.0605 121.305 32.4354 121.849 31.0605C122.161 30.3248 122.359 29.5459 122.437 28.7506C122.437 28.7506 123.142 28.4275 123.812 30.1255C124.483 31.8235 131.205 32.2566 132.779 33.1263C134.354 33.9959 134.98 33.1263 134.98 33.1263C135.347 33.4276 135.599 33.8462 135.692 34.3115C135.786 34.7767 135.717 35.2602 135.496 35.6802C134.733 37.2579 136.895 37.3988 137.734 36.237C138.573 35.0752 137.923 39.5609 135.85 40.018C135.85 40.018 135.908 41.9773 134.574 43.3212H135.706C135.706 43.3212 132.694 45.7101 131.892 45.8408C131.091 45.9714 134.874 47.3085 134.172 47.5903C133.471 47.8722 131.483 47.8481 131.483 47.8481C131.483 47.8481 132.769 48.7384 132.779 49.3261C132.79 49.9139 132.171 50.3573 131.892 49.8658C131.614 49.3743 129.393 42.3347 128.285 39.7327C127.178 37.1307 122.605 35.0718 119.473 31.0605Z" fill="#92E3A9"/>
<path opacity="0.4" d="M135.417 27.1558C131.559 26.1005 126.384 24.5984 126.384 24.5984L126.456 24.5606C127.55 24.8287 128.296 25.0212 128.296 25.0212C128.296 25.0212 132.896 25.2309 133.766 25.7499C134.373 26.1476 134.928 26.6199 135.417 27.1558Z" fill="#92E3A9"/>
<path d="M129.991 33.2226C126.635 32.5351 124.238 35.4018 124.238 35.4018C124.238 35.4018 127.574 38.4197 128.313 39.7156C129.052 41.0114 130.28 45.3802 130.28 45.3802C131.686 45.607 134.279 44.1565 134.901 40.3068C135.523 36.457 133.33 33.9066 129.991 33.2226Z" fill="#92E3A9"/>
<path d="M148.761 124.939C148.761 124.939 129.506 88.2842 128.251 85.6753C126.996 83.0664 122.77 77.6012 122.77 77.6012C122.77 77.6012 118.421 75.1126 116.43 70.7782C114.439 66.4438 112.249 50.9382 112.249 50.9382C112.249 50.9382 106.53 48.7865 105.165 47.8447C103.8 46.9029 102.556 38.1997 102.556 37.2063C102.556 36.213 103.931 34.2228 103.931 34.2228C103.931 34.2228 103.436 31.8682 107.287 30.1255C107.287 30.1255 107.039 26.5198 109.027 25.7568C110.553 25.169 115.56 24.4094 115.56 24.4094C116.268 23.7877 117.091 23.3122 117.984 23.0104C119.225 22.6667 128.299 25.0281 128.299 25.0281C128.299 25.0281 132.9 25.2377 133.77 25.7568C134.406 26.1763 134.985 26.6766 135.492 27.2451C135.492 27.2451 139.594 28.0976 140.464 29.5996C141.334 31.1017 141.706 38.5537 141.087 43.3969C140.468 48.24 141.578 56.4585 141.578 56.4585C141.578 56.4585 142.861 62.8071 143.855 65.2167C144.848 67.6262 163 86.7581 163 86.7581" stroke="#263238" stroke-linecap="round" stroke-linejoin="round"/>
<path d="M132.46 50.433C132.46 50.433 131.59 50.2474 130.472 46.1467C129.355 42.046 129.059 40.128 126.742 37.6979C125.098 35.9792 121.336 33.171 119.473 31.0605C117.609 28.95 115.549 27.2451 113.94 28.5513C112.654 29.5825 111.815 32.2601 112.947 36.3917C114.401 41.6988 118.988 44.2252 118.988 44.2252L120.109 50.9004C120.109 50.9004 115.243 60.6417 120.728 69.8364" stroke="#263238" stroke-linecap="round" stroke-linejoin="round"/>
<path d="M124.221 35.4018C124.221 35.4018 126.628 32.5385 129.974 33.2225C133.319 33.9065 135.492 36.4536 134.884 40.3068C134.275 44.1599 131.669 45.607 130.263 45.3802" stroke="#263238" stroke-linecap="round" stroke-linejoin="round"/>
<path d="M115.549 24.4025C115.047 25.6653 114.66 26.9711 114.394 28.3038" stroke="#263238" stroke-linecap="round" stroke-linejoin="round"/>
<path d="M113.514 37.8629C113.514 37.8629 113.803 42.1079 114.401 43.4106C114.999 44.7133 115.993 45.772 116.426 47.4494C116.859 49.1268 116.925 51.7357 117.049 52.1104C117.172 52.485 117.891 52.5813 117.891 52.5813C118.923 52.6053 119.339 52.0691 119.933 51.251" stroke="#263238" stroke-linecap="round" stroke-linejoin="round"/>
<path d="M107.297 30.1187C107.297 30.1187 108.229 39.1862 108.975 43.0394C109.721 46.8925 111.038 47.4494 113.201 48.6937C115.364 49.938 116.557 52.4747 116.746 52.8562C116.935 53.2378 117.643 53.279 117.643 53.279C118.06 53.2444 118.461 53.1065 118.81 52.8778C119.16 52.6491 119.446 52.3369 119.645 51.9694" stroke="#263238" stroke-linecap="round" stroke-linejoin="round"/>
<path d="M103.934 34.2159C103.701 34.5769 105.695 43.7853 106.733 46.4561C107.772 49.1268 107.889 49.5496 110.636 50.3058C113.383 51.062 115.47 52.3201 116.213 51.8767" stroke="#263238" stroke-linecap="round" stroke-linejoin="round"/>
<path d="M123.014 29.1219C123.014 29.1219 124.441 32.5385 123.499 34.7865" stroke="#263238" stroke-linecap="round" stroke-linejoin="round"/>
<path d="M128.296 25.0212C130.634 25.9454 133.04 26.6888 135.492 27.2451" stroke="#263238" stroke-linecap="round" stroke-linejoin="round"/>
<path d="M137.745 36.8282C137.745 36.8282 136.651 38.8253 134.994 39.255" stroke="#263238" stroke-linecap="round" stroke-linejoin="round"/>
<path d="M134.99 34.6525C134.99 34.6525 134.598 35.6836 134.182 35.9689" stroke="#263238" stroke-linecap="round" stroke-linejoin="round"/>
<path d="M136.366 42.8538C136.366 42.8538 133.88 44.734 131.494 45.2221" stroke="#263238" stroke-linecap="round" stroke-linejoin="round"/>
<path d="M130.472 46.1501C130.472 46.1501 131.504 47.4528 134.182 47.5766" stroke="#263238" stroke-linecap="round" stroke-linejoin="round"/>
<path d="M122.426 40.4477C122.426 40.4477 124.861 38.1103 126.25 38.4334" stroke="#263238" stroke-linecap="round" stroke-linejoin="round"/>
<path d="M127.192 40.922C127.192 40.922 125.349 42.2969 125.012 42.2969" stroke="#263238" stroke-linecap="round" stroke-linejoin="round"/>
<path d="M108.215 48.2124C108.215 48.2124 108.827 48.3259 109.305 47.5869" stroke="#263238" stroke-linecap="round" stroke-linejoin="round"/>
<path d="M110.392 44.8646C110.392 44.8646 111.87 43.9503 112.837 43.775" stroke="#263238" stroke-linecap="round" stroke-linejoin="round"/>
<path d="M123.417 75.8688C123.723 75.5972 126.58 73.2874 128.347 72.4693" stroke="#263238" stroke-linecap="round" stroke-linejoin="round"/>
<path d="M127.123 74.7757C126.92 74.7138 125.297 76.4118 124.441 77.0924" stroke="#263238" stroke-linecap="round" stroke-linejoin="round"/>
<path d="M127.928 79.8113C127.928 79.8113 133.371 90.1232 134.595 94.2479" stroke="#263238" stroke-linecap="round" stroke-linejoin="round"/>
<path d="M143.868 65.2304C144.329 67.7637 145.825 69.6301 146.643 70.6407" stroke="#263238" stroke-linecap="round" stroke-linejoin="round"/>
<path opacity="0.4" d="M126.711 34.2159C125.92 34.704 126.752 36.2989 127.192 37.1135C127.632 37.9281 129.599 39.224 130.008 40.4477C130.417 41.6713 133.003 41.637 133.79 40.4477C134.578 39.2584 134.478 36.8832 132.333 35.0752C130.187 33.2672 127.835 33.5284 126.711 34.2159Z" fill="white"/>
</g>
<defs>
<filter id="filter0_d_344_901" x="0.506866" y="0.5" width="166.993" height="142" filterUnits="userSpaceOnUse" color-interpolation-filters="sRGB">
<feFlood flood-opacity="0" result="BackgroundImageFix"/>
<feColorMatrix in="SourceAlpha" type="matrix" values="0 0 0 0 0 0 0 0 0 0 0 0 0 0 0 0 0 0 127 0" result="hardAlpha"/>
<feOffset dy="4"/>
<feGaussianBlur stdDeviation="2"/>
<feComposite in2="hardAlpha" operator="out"/>
<feColorMatrix type="matrix" values="0 0 0 0 0 0 0 0 0 0 0 0 0 0 0 0 0 0 0.25 0"/>
<feBlend mode="normal" in2="BackgroundImageFix" result="effect1_dropShadow_344_901"/>
<feBlend mode="normal" in="SourceGraphic" in2="effect1_dropShadow_344_901" result="shape"/>
</filter>
</defs>
</svg>
