<svg width="553" height="588" viewBox="0 0 553 588" fill="none" xmlns="http://www.w3.org/2000/svg">
<g opacity="0.15" filter="url(#filter0_d_344_1119)">
<path d="M181.325 499.009C181.434 498.642 192.718 461.058 214.17 412.405C233.949 367.538 264.967 305.267 308.49 256.441L308.321 253.165C284.183 280.294 247.798 329.734 211.815 411.368C190.34 460.194 179.013 497.889 178.837 498.234L181.325 499.009Z" fill="black"/>
<path d="M311.612 304.167C291.368 301.539 278.1 302.275 270.724 303.284C274.836 296.758 287.57 282.874 323.197 277.64C379.645 269.344 446.555 337.581 461.839 354.127C420.019 334.125 362.748 310.814 311.612 304.167Z" fill="black"/>
<path d="M311.51 306.046C363.988 312.853 422.931 337.368 464.82 357.655L464.965 357.825C464.965 357.825 397.722 376.206 337.454 356.139C277.186 336.072 268.849 306.946 268.849 306.946C269.036 306.421 269.256 305.908 269.509 305.413C276.488 304.299 290.188 303.266 311.51 306.046Z" fill="black"/>
<path d="M240.641 299.616C248.77 314.734 252.263 325.408 253.748 331.503C257.39 326.287 263.911 312.044 256.984 282.414C245.991 235.457 174.6 203.612 157.551 196.617C185.195 223.395 220.111 261.391 240.641 299.616Z" fill="black"/>
<path d="M239.319 300.184C218.228 260.996 181.938 222.015 154.02 195.233L153.858 195.147C153.858 195.147 160.55 253.696 193.914 295.029C227.277 336.361 251.674 333.999 251.674 333.999C252.01 333.692 252.324 333.361 252.613 333.007C251.297 327.212 247.897 316.124 239.319 300.184Z" fill="black"/>
<path d="M235.638 429.362C218.904 431.258 208.394 434.485 202.665 436.756C204.74 430.694 212.336 417.022 239.946 405.759C283.708 387.923 350.212 429.429 365.616 439.68C328.319 431.986 277.944 424.556 235.638 429.362Z" fill="black"/>
<path d="M235.919 430.773C279.314 425.883 331.28 433.842 368.714 441.832L368.867 441.913C368.867 441.913 318.365 470.016 266.206 465.849C214.047 461.683 201.865 439.892 201.865 439.892C201.911 439.428 201.993 438.968 202.11 438.517C207.475 436.382 218.293 432.777 235.919 430.773Z" fill="black"/>
<path d="M195.393 367.783C207.615 384.527 213.545 396.726 216.338 403.789C219.829 396.889 225.348 378.685 212.181 344.336C191.341 289.898 100.374 263.952 78.7867 258.501C116.381 285.873 164.491 325.455 195.393 367.783Z" fill="black"/>
<path d="M193.853 368.726C162.127 325.352 112.212 284.836 74.3202 257.516L74.1277 257.414C74.1277 257.414 91.7438 326.464 138.542 370.295C185.34 414.126 214.232 407.122 214.232 407.122C214.587 406.694 214.911 406.241 215.202 405.765C212.689 399.114 206.761 386.376 193.853 368.726Z" fill="black"/>
<path d="M336.891 223.901C321.015 237.154 312.338 247.551 307.944 253.74C306.158 246.17 305.123 227.085 326.128 196.874C359.343 149.05 454.084 146.532 476.392 146.616C433.255 163.862 377.041 190.41 336.891 223.901Z" fill="black"/>
<path d="M338.075 225.088C379.29 190.758 437.507 163.751 480.927 146.631L481.142 146.639C481.142 146.639 447.545 209.532 391.561 240.494C335.578 271.457 309.113 257.447 309.113 257.447C308.869 256.94 308.659 256.417 308.485 255.881C312.558 249.97 321.307 239.051 338.075 225.088Z" fill="black"/>
</g>
<defs>
<filter id="filter0_d_344_1119" x="70.1277" y="146.614" width="415.015" height="360.395" filterUnits="userSpaceOnUse" color-interpolation-filters="sRGB">
<feFlood flood-opacity="0" result="BackgroundImageFix"/>
<feColorMatrix in="SourceAlpha" type="matrix" values="0 0 0 0 0 0 0 0 0 0 0 0 0 0 0 0 0 0 127 0" result="hardAlpha"/>
<feOffset dy="4"/>
<feGaussianBlur stdDeviation="2"/>
<feComposite in2="hardAlpha" operator="out"/>
<feColorMatrix type="matrix" values="0 0 0 0 0 0 0 0 0 0 0 0 0 0 0 0 0 0 0.25 0"/>
<feBlend mode="normal" in2="BackgroundImageFix" result="effect1_dropShadow_344_1119"/>
<feBlend mode="normal" in="SourceGraphic" in2="effect1_dropShadow_344_1119" result="shape"/>
</filter>
</defs>
</svg>
