<svg width="209" height="98" viewBox="0 0 209 98" fill="none" xmlns="http://www.w3.org/2000/svg">
<g filter="url(#filter0_d_344_838)">
<path opacity="0.2" d="M103.65 59.3546C103.65 59.3546 131.479 61.5363 138.23 58.3802C144.98 55.2241 191.104 53.6429 196.905 55.0586C196.905 55.0586 199.606 44.8977 195.768 40.8774C191.931 36.8572 195.626 30.6736 191.893 20.4882C188.159 10.3028 105.284 17.6508 105.284 17.6508L75.1356 17.3382L59.3604 34.1362L103.65 59.3546Z" fill="black" fill-opacity="0.7"/>
<path d="M117.035 45.8109C117.234 45.8743 117.416 45.9766 117.571 46.1112C119.735 48.2806 122.138 57.5407 123.869 65.4953C125.31 72.0834 126.285 77.7522 126.285 77.7522C126.285 77.7522 88.0619 82.1156 84.0438 82.1156C80.0258 82.1156 14.9742 89.151 14.9742 89.151L14.2054 72.2856L13.1848 49.9108C13.1848 49.9108 14.9225 49.776 17.9587 49.5492C37.2997 48.0723 109.406 42.9979 117.035 45.8109Z" fill="#92E3A9"/>
<mask id="mask0_344_838" style="mask-type:luminance" maskUnits="userSpaceOnUse" x="13" y="44" width="114" height="46">
<path d="M117.035 45.8109C117.234 45.8743 117.416 45.9766 117.571 46.1112C119.735 48.2806 122.138 57.5407 123.869 65.4953C125.31 72.0834 126.285 77.7522 126.285 77.7522C126.285 77.7522 88.0619 82.1156 84.0438 82.1156C80.0258 82.1156 14.9742 89.151 14.9742 89.151L14.2054 72.2856L13.1848 49.9108C13.1848 49.9108 14.9225 49.776 17.9587 49.5492C37.2997 48.0723 109.406 42.9979 117.035 45.8109Z" fill="white"/>
</mask>
<g mask="url(#mask0_344_838)">
<path opacity="0.2" d="M117.035 45.8108L121.279 65.4952L122.887 72.929C120.801 74.9453 120.762 76.4835 120.762 76.4835L114.916 77.0963L105.349 78.0585L21.1756 86.528C19.8384 84.6894 16.912 83.7824 16.912 83.7824L16.4792 72.4449L15.7234 52.8033L17.9327 49.5614C37.2996 48.0722 109.405 42.9979 117.035 45.8108Z" fill="black" fill-opacity="0.7"/>
<path d="M117.035 45.8108L121.279 65.4952L122.887 72.929C120.801 74.9453 120.762 76.4835 120.762 76.4835L114.916 77.0963L105.349 78.0585L21.1756 86.528C19.8384 84.6894 16.912 83.7824 16.912 83.7824L16.4792 72.4449L15.7234 52.8033L17.9327 49.5614C37.2996 48.0722 109.405 42.9979 117.035 45.8108Z" stroke="#263238" stroke-linecap="round" stroke-linejoin="round"/>
<path d="M92.2543 75.4418L92.2414 68.8721L94.4055 68.866L95.0902 70.6923L95.5747 74.9025L92.2543 75.4418Z" fill="#92E3A9" stroke="#263238" stroke-linecap="round" stroke-linejoin="round"/>
<path d="M96.7117 75.0373L96.5373 70.2081L97.1574 68.9702L100.032 69.0315L100.097 74.6696L96.7117 75.0373Z" fill="#92E3A9" stroke="#263238" stroke-linecap="round" stroke-linejoin="round"/>
<path d="M101.305 74.2651L100.885 68.7495L103.062 68.8108L104.057 71.4766L103.889 74.2957L101.305 74.2651Z" fill="#92E3A9" stroke="#263238" stroke-linecap="round" stroke-linejoin="round"/>
<path d="M104.974 73.9342L105.213 69.4788L106.414 69.0743L107.739 69.7239L108.01 73.7074L105.962 74.3938L104.974 73.9342Z" fill="#92E3A9" stroke="#263238" stroke-linecap="round" stroke-linejoin="round"/>
<path d="M109.179 68.7986L111.059 68.1857C111.259 68.0879 111.48 68.0369 111.705 68.0369C111.93 68.0369 112.152 68.0879 112.351 68.1857C112.489 68.2997 112.593 68.4452 112.654 68.6083C112.715 68.7714 112.731 68.9466 112.7 69.1172C112.668 69.4604 112.545 69.7975 112.526 70.1407C112.48 71.1764 113.378 72.1263 113.172 73.1436C112.009 73.5419 110.303 74.547 109.78 73.1865C109.696 72.9352 109.606 68.6515 109.179 68.7986Z" fill="#92E3A9" stroke="#263238" stroke-linecap="round" stroke-linejoin="round"/>
<path d="M114.47 68.817C114.917 68.7198 115.37 68.6502 115.827 68.6086C116.115 68.5464 116.416 68.5555 116.7 68.6349C116.984 68.7143 117.241 68.8614 117.448 69.0621C117.599 69.3235 117.681 69.6158 117.687 69.914L118.023 73.4562C117.318 73.5079 116.61 73.5181 115.904 73.4868C115.064 73.2785 115.135 73.4256 114.793 72.6718C114.257 71.4767 115.11 70.0427 114.47 68.817Z" fill="#92E3A9" stroke="#263238" stroke-linecap="round" stroke-linejoin="round"/>
<path d="M23.0877 81.6989C23.0877 81.6989 36.6988 80.3629 39.3926 80.3016" stroke="#263238" stroke-linecap="round" stroke-linejoin="round"/>
<path d="M23.2363 78.8185L30.7363 78.1934" stroke="#263238" stroke-linecap="round" stroke-linejoin="round"/>
<path d="M20.4004 68.8353L29.1924 68.0264L29.3086 66.8926L20.4844 67.2603L20.4004 68.8353Z" fill="#92E3A9" stroke="#263238" stroke-linecap="round" stroke-linejoin="round"/>
<path opacity="0.2" d="M117.035 45.8109C117.234 45.8743 117.416 45.9766 117.571 46.1112C119.735 48.2807 122.138 57.5407 123.869 65.4954H118.055L114.929 77.0719L114.457 78.8185L105.362 78.0341L70.6071 75.0373L16.5051 72.4205L14.2053 72.3102L13.1847 49.9108C13.1847 49.9108 14.9224 49.776 17.9586 49.5492C37.2996 48.0723 109.405 42.998 117.035 45.8109Z" fill="black" fill-opacity="0.7"/>
</g>
<path d="M117.035 45.8109C117.234 45.8743 117.416 45.9766 117.571 46.1112C119.735 48.2806 122.138 57.5407 123.869 65.4953C125.31 72.0834 126.285 77.7522 126.285 77.7522C126.285 77.7522 88.0619 82.1156 84.0438 82.1156C80.0258 82.1156 14.9742 89.151 14.9742 89.151L14.2054 72.2856L13.1848 49.9108C13.1848 49.9108 14.9225 49.776 17.9587 49.5492C37.2997 48.0723 109.406 42.9979 117.035 45.8109Z" stroke="#263238" stroke-linecap="round" stroke-linejoin="round"/>
<path d="M203.772 33.9402C202.409 33.7992 182.855 35.8339 180.73 35.8706C174.916 35.9687 167.287 37.5314 167.287 37.5314C161.408 39.7131 147.862 41.4107 139.173 47.2327C130.484 53.0547 120.265 53.0486 111.589 54.0169C102.913 54.9851 103.663 54.7461 95.9624 54.501C90.1782 54.3242 84.3883 54.568 78.6433 55.2303C73.527 55.7144 64.5284 56.6827 60.3359 55.2303C56.1433 53.7778 55.1679 49.9782 59.3669 45.817C63.5658 41.6558 80.7816 39.9583 82.9069 39.9583C85.0322 39.9583 91.673 39.9583 94.2312 38.4997C94.2312 38.4997 89.7867 30.257 88.5593 30.257C87.3319 30.257 76.4857 30.5021 75.9043 29.2887L59.3669 34.1363L55.9237 24.9437C57.5597 23.2133 59.453 21.7186 61.5439 20.5067C63.2751 19.4691 65.1126 18.6006 67.0283 17.9144C77.8746 14.0351 85.4392 7.80251 88.5593 6.51554C91.6795 5.22858 116.46 6.51554 121.066 6.51554C125.672 6.51554 146.906 9.33462 150.478 9.26108C153.062 9.20592 162.674 7.55124 170.045 5.9027C172.887 5.28986 193.482 1.56991 195.116 0.999973L203.772 33.9402Z" fill="white"/>
<path opacity="0.4" d="M74.8126 26.6841C76.2015 26.7454 87.2738 25.1704 87.2738 25.1704C90.0322 24.0796 99.4379 30.0364 99.4379 30.0364C100.2 31.3233 104.929 31.8749 104.929 31.8749C103.986 35.9074 94.1988 45.1429 94.1988 45.1429C94.1988 45.1429 98.2105 46.2338 108.139 47.4594C118.068 48.6851 141.654 40.9143 157.939 37.605C174.225 34.2956 180.71 35.8706 180.71 35.8706C174.896 35.9687 167.267 37.5314 167.267 37.5314C161.389 39.7131 147.842 41.4107 139.154 47.2327C130.465 53.0547 120.265 53.0486 111.589 54.0169C102.913 54.9851 103.663 54.7461 95.9624 54.501C90.1782 54.3242 84.3883 54.568 78.6433 55.2303C73.527 55.7144 64.5284 56.6827 60.3359 55.2303C56.1433 53.7778 55.1679 49.9782 59.3669 45.817C63.5658 41.6558 80.7816 39.9583 82.9069 39.9583C85.0322 39.9583 91.673 39.9583 94.2312 38.4997C94.2312 38.4997 89.7867 30.257 88.5593 30.257C87.3319 30.257 76.4857 30.5021 75.9043 29.2887L59.3669 34.1363L55.9237 24.9437C57.5597 23.2133 59.453 21.7186 61.5439 20.5067C67.81 23.479 73.9469 26.6229 74.8126 26.6841Z" fill="#92E3A9"/>
<path opacity="0.4" d="M152.19 11.2283C148.314 10.8238 139.102 9.61651 133.353 8.85046C137.842 9.7881 140.116 11.3018 140.116 11.3018C140.116 11.3018 107.17 8.69112 105.161 8.43373C103.152 8.17633 94.1213 5.54111 88.527 6.5094C91.6407 5.22243 116.428 6.5094 121.033 6.5094C125.639 6.5094 146.873 9.32847 150.446 9.25493C153.03 9.19978 169.496 6.57068 176.867 4.92214C171.44 8.46436 156.085 11.6328 152.19 11.2283Z" fill="#92E3A9"/>
<path d="M195.084 1.01216C189.205 2.94874 153.998 9.16909 150.446 9.24263C146.893 9.31617 125.633 6.49709 121.033 6.49709C116.434 6.49709 91.6407 5.21013 88.527 6.49709C85.4133 7.78406 77.8422 14.0167 66.996 17.8959C62.7548 19.3622 58.9466 21.7729 55.8914 24.9252L59.3345 34.1178L75.872 29.2703C76.4533 30.4959 87.2996 30.2385 88.527 30.2385C89.7544 30.2385 94.1988 38.4813 94.1988 38.4813C91.6148 39.9398 84.9998 39.9398 82.8745 39.9398C80.7492 39.9398 63.527 41.6374 59.3345 45.7986C55.142 49.9598 56.1045 53.7655 60.3035 55.2118C64.5025 56.6581 73.4947 55.696 78.611 55.2118C84.3623 54.5486 90.1588 54.3048 95.9495 54.4825C103.65 54.7277 102.887 54.9728 111.576 53.9984C120.265 53.024 130.484 53.0301 139.173 47.2142C147.862 41.3984 161.408 39.6947 167.287 37.513C167.287 37.513 198.663 33.3947 203.772 33.9217" stroke="#263238" stroke-linecap="round" stroke-linejoin="round"/>
<path d="M94.1989 38.4997C94.1989 38.4997 101.35 37.0473 104.929 33.7747" stroke="#263238" stroke-linecap="round" stroke-linejoin="round"/>
<path d="M97.4611 37.6172C97.4611 37.6172 99.4379 31.4888 99.5606 28.9272" stroke="#263238" stroke-linecap="round" stroke-linejoin="round"/>
<path d="M88.5271 30.257C88.5271 30.257 86.4017 25.8936 87.6808 23.1052" stroke="#263238" stroke-linecap="round" stroke-linejoin="round"/>
<path d="M75.872 29.2887C75.872 29.2887 75.5425 25.8936 73.7531 25.1704" stroke="#263238" stroke-linecap="round" stroke-linejoin="round"/>
<path d="M140.995 46.1111C140.995 46.1111 149.528 39.5905 153.869 37.6539" stroke="#263238" stroke-linecap="round" stroke-linejoin="round"/>
<path d="M103.65 8.1947C110.426 9.28556 128.953 10.7441 132.274 11.2283" stroke="#263238" stroke-linecap="round" stroke-linejoin="round"/>
<path d="M90.872 6.11105C97.0089 5.9272 100.2 7.33673 100.2 7.33673" stroke="#263238" stroke-linecap="round" stroke-linejoin="round"/>
<path d="M5 56.2353L17.4935 11.3018C17.4935 11.3018 68.0167 27.0947 74.2829 30.2998L118.327 35.6561C118.327 35.6561 116.996 64.3615 112.791 77.5621C112.791 77.5621 66.925 69.2152 60.8074 68.7679C54.6899 68.3205 5 56.2353 5 56.2353Z" fill="#92E3A9"/>
<mask id="mask1_344_838" style="mask-type:luminance" maskUnits="userSpaceOnUse" x="5" y="11" width="114" height="67">
<path d="M5 56.2353L17.4935 11.3018C17.4935 11.3018 68.0167 27.0947 74.2829 30.2998L118.327 35.6561C118.327 35.6561 116.996 64.3615 112.791 77.5621C112.791 77.5621 66.925 69.2152 60.8074 68.7679C54.6899 68.3205 5 56.2353 5 56.2353Z" fill="white"/>
</mask>
<g mask="url(#mask1_344_838)">
<path opacity="0.2" d="M58.0943 65.8998L13.4625 55.9963C13.4625 55.9963 11.2339 51.7371 9.19897 50.0885L18.8501 17.896C18.8501 17.896 22.177 17.7979 24.3088 15.9533L73.6563 32.1997L110.032 36.1403C110.032 36.1403 110.471 41.38 114.554 41.8826C114.554 41.8826 115.523 58.8705 112.358 70.2632C112.358 70.2632 107.946 71.6054 105.155 73.6584L58.0943 65.8998Z" fill="black" fill-opacity="0.7"/>
<path d="M58.0943 65.8998L13.4625 55.9963C13.4625 55.9963 11.2339 51.7371 9.19897 50.0885L18.8501 17.896C18.8501 17.896 22.177 17.7979 24.3088 15.9533L73.6563 32.1997L110.032 36.1403C110.032 36.1403 110.471 41.38 114.554 41.8826C114.554 41.8826 115.523 58.8705 112.358 70.2632C112.358 70.2632 107.946 71.6054 105.155 73.6584L58.0943 65.8998Z" stroke="#263238" stroke-linecap="round" stroke-linejoin="round"/>
<path d="M60.4133 57.6571C60.4133 57.6571 48.7855 54.7339 50.872 44.4381C52.9586 34.1424 67.2867 39.9583 67.2867 39.9583C67.2867 39.9583 78.85 39.897 77.2544 48.25C75.872 55.4938 71.6795 59.3547 60.4133 57.6571Z" fill="#92E3A9" stroke="#263238" stroke-linecap="round" stroke-linejoin="round"/>
<path d="M17.7067 52.0803C17.7067 52.0803 30.9948 55.1935 33.5529 55.9963" stroke="#263238" stroke-linecap="round" stroke-linejoin="round"/>
<path d="M18.8566 49.4144L26.1434 51.2284" stroke="#263238" stroke-linecap="round" stroke-linejoin="round"/>
<path d="M23.9664 26.6842L26.2662 20.4884L28.314 21.1686V23.1052L27.2933 27.2296L23.9664 26.6842Z" fill="#92E3A9" stroke="#263238" stroke-linecap="round" stroke-linejoin="round"/>
<path d="M28.3139 27.7137L29.8449 23.1052L30.8656 22.1369L33.5529 23.1052L31.6343 28.443L28.3139 27.7137Z" fill="#92E3A9" stroke="#263238" stroke-linecap="round" stroke-linejoin="round"/>
<path d="M32.9134 28.443L34.4638 23.1052L36.4922 23.859V26.6842L35.3423 29.2888L32.9134 28.443Z" fill="#92E3A9" stroke="#263238" stroke-linecap="round" stroke-linejoin="round"/>
<path d="M36.4922 29.2888L38.2816 25.1705H39.5542L40.5814 26.2L39.4315 30.0364H37.2545L36.4922 29.2888Z" fill="#92E3A9" stroke="#263238" stroke-linecap="round" stroke-linejoin="round"/>
<path d="M42.2609 25.7771H44.2506C44.4697 25.7453 44.6937 25.7625 44.9046 25.8274C45.1155 25.8923 45.3074 26.0031 45.4651 26.151C45.5527 26.3032 45.5986 26.4739 45.5986 26.6474C45.5986 26.8208 45.5527 26.9915 45.4651 27.1438C45.31 27.4563 45.0775 27.7566 44.9418 28.0508C44.5348 29.0129 45.0452 30.1957 44.5025 31.115C43.2687 31.115 41.3113 31.5256 41.2726 30.0793C41.2919 29.8403 42.7131 25.7771 42.2609 25.7771Z" fill="#92E3A9" stroke="#263238" stroke-linecap="round" stroke-linejoin="round"/>
<path d="M47.2416 27.4748C47.697 27.521 48.1482 27.5988 48.5917 27.7076C49.1666 27.8424 49.8062 28.106 49.9612 28.6514C50.0126 28.9451 49.986 29.2463 49.8837 29.5278L48.9276 32.9719C48.2479 32.8054 47.5792 32.6007 46.925 32.3591C46.208 31.8933 46.2209 32.0527 46.1627 31.2376C46.1046 29.9139 47.416 28.8353 47.2416 27.4748Z" fill="#92E3A9" stroke="#263238" stroke-linecap="round" stroke-linejoin="round"/>
<path d="M19.7545 39.1064L28.3139 41.1717L28.8243 40.1421L20.3876 37.654L19.7545 39.1064Z" fill="#92E3A9" stroke="#263238" stroke-linecap="round" stroke-linejoin="round"/>
<path d="M77.2351 64.9867L78.9728 58.6255L81.0659 59.1402L81.2467 61.0707L80.5943 65.2625L77.2351 64.9867Z" fill="#92E3A9" stroke="#263238" stroke-linecap="round" stroke-linejoin="round"/>
<path d="M81.6601 65.6608L82.7712 60.9481L83.7014 59.894L86.4663 60.6417L85.0322 66.1143L81.6601 65.6608Z" fill="#92E3A9" stroke="#263238" stroke-linecap="round" stroke-linejoin="round"/>
<path d="M86.3113 66.0102L87.3707 60.5682L89.4573 61.1565L89.7157 63.9694L88.8048 66.6598L86.3113 66.0102Z" fill="#92E3A9" stroke="#263238" stroke-linecap="round" stroke-linejoin="round"/>
<path d="M89.9483 66.5678L91.363 62.3147L92.6356 62.2106L93.7467 63.1543L92.9457 67.0704L90.7816 67.2481L89.9483 66.5678Z" fill="#92E3A9" stroke="#263238" stroke-linecap="round" stroke-linejoin="round"/>
<path d="M95.381 62.6028L97.3642 62.4373C97.5803 62.3871 97.8057 62.3859 98.0224 62.4338C98.239 62.4817 98.4407 62.5774 98.611 62.7131C98.7118 62.8574 98.7724 63.0236 98.7871 63.1962C98.8018 63.3687 98.7701 63.542 98.695 63.6998C98.5722 64.0246 98.3655 64.3126 98.2621 64.6497C97.9391 65.6363 98.5528 66.7762 98.0942 67.7139C96.8668 67.8242 94.9547 68.3819 94.8061 66.9478C94.7932 66.7272 95.8332 62.566 95.381 62.6028Z" fill="#92E3A9" stroke="#263238" stroke-linecap="round" stroke-linejoin="round"/>
<path d="M100.497 63.8836C100.967 63.8923 101.436 63.9333 101.899 64.0062C102.48 64.0981 103.146 64.3065 103.346 64.8336C103.424 65.1231 103.424 65.4265 103.346 65.716L102.7 69.2215C102.006 69.1035 101.32 68.9459 100.646 68.7496C99.8901 68.3451 99.9159 68.5045 99.7867 67.6955C99.5864 66.4085 100.794 65.2319 100.497 63.8836Z" fill="#92E3A9" stroke="#263238" stroke-linecap="round" stroke-linejoin="round"/>
<path d="M106.77 38.4998C106.77 38.4998 89.6253 37.0412 87.9005 37.0412" stroke="#263238" stroke-linecap="round" stroke-linejoin="round"/>
<path d="M106.001 41.4107C106.001 41.4107 97.0865 40.7979 95.5361 40.6876" stroke="#263238" stroke-linecap="round" stroke-linejoin="round"/>
<path d="M99.5606 52.7789L109.709 54.7462V52.7789L99.5606 51.351V52.7789Z" fill="#92E3A9" stroke="#263238" stroke-linecap="round" stroke-linejoin="round"/>
<path opacity="0.2" d="M74.0309 30.1958C73.0942 34.4489 71.7183 38.2424 69.7351 41.0492C69.7351 41.0492 75.8979 39.0146 86.4017 31.8014L118.327 35.6807C118.327 35.6807 117.461 54.4153 114.909 68.5719C101.99 64.2207 77.5064 56.3151 72.655 57.2527C65.9948 58.5213 58.133 54.0414 58.133 54.0414C55.4457 39.8787 44.1602 26.1449 34.6188 16.7194C49.5736 21.518 69.5994 28.0692 74.0309 30.1958Z" fill="black" fill-opacity="0.7"/>
</g>
<path d="M5 56.2353L17.4935 11.3018C17.4935 11.3018 68.0167 27.0947 74.2829 30.2998L118.327 35.6561C118.327 35.6561 116.996 64.3615 112.791 77.5621C112.791 77.5621 66.925 69.2152 60.8074 68.7679C54.6899 68.3205 5 56.2353 5 56.2353Z" stroke="#263238" stroke-linecap="round" stroke-linejoin="round"/>
<path d="M105.575 31.3234L153.869 37.654C150.71 39.0635 145.323 42.906 142.629 44.8916C141.621 45.6271 140.995 46.1173 140.995 46.1173L139.173 47.2388C130.484 53.0547 120.265 53.0547 111.576 54.023C102.887 54.9913 103.65 54.7523 95.9495 54.5071C90.1697 54.3289 84.3841 54.5706 78.6433 55.2303C73.527 55.7144 64.5283 56.6827 60.3358 55.2303C58.2816 54.5194 57.0025 53.2385 56.7312 51.6329C56.4599 50.0273 57.235 47.9559 59.3668 45.817C63.5593 41.6559 80.7815 39.9583 82.9069 39.9583C85.0322 39.9583 91.673 39.9583 94.2311 38.4997C94.1988 38.4997 101.996 34.5898 105.575 31.3234Z" fill="white"/>
<path opacity="0.4" d="M135.73 47.7169C137.513 46.3931 140.084 45.4922 142.629 44.8916C141.621 45.6271 140.995 46.1173 140.995 46.1173L139.173 47.2388C130.484 53.0547 120.265 53.0547 111.576 54.023C102.888 54.9913 103.65 54.7523 95.9495 54.5071C90.1698 54.3289 84.3842 54.5706 78.6433 55.2303C73.5271 55.7144 64.5284 56.6827 60.3359 55.2303C58.2816 54.5194 57.0025 53.2385 56.7312 51.6329C57.6485 48.5687 60.9366 45.5045 66.5632 44.4381C76.0077 42.5996 68.3785 50.8914 76.3824 52.8096C84.3862 54.7278 86.5438 51.9393 88.5593 50.7933C90.5749 49.6473 95.0193 51.112 100.988 52.8096C106.957 54.5071 130.827 51.351 135.73 47.7169Z" fill="#92E3A9"/>
<path d="M105.575 31.3233C101.996 34.5958 94.1988 38.4996 94.1988 38.4996C91.6148 39.9582 84.9999 39.9582 82.8746 39.9582C80.7492 39.9582 63.527 41.6558 59.3345 45.817C55.142 49.9781 56.1046 53.7839 60.3035 55.2302C64.5025 56.6765 73.4947 55.7143 78.611 55.2302C84.3623 54.5669 90.1588 54.3231 95.9495 54.5009C103.65 54.746 102.887 54.9912 111.576 54.0168C120.265 53.0424 130.484 53.0485 139.173 47.2326L140.995 46.1111C140.995 46.1111 149.528 39.5905 153.869 37.6539" stroke="#263238" stroke-linecap="round" stroke-linejoin="round"/>
<path d="M85.1356 52.7789C85.1356 52.7789 82.1059 47.2204 82.3643 44.4381" stroke="#263238" stroke-linecap="round" stroke-linejoin="round"/>
</g>
<defs>
<filter id="filter0_d_344_838" x="0.499999" y="0.512024" width="207.772" height="97.139" filterUnits="userSpaceOnUse" color-interpolation-filters="sRGB">
<feFlood flood-opacity="0" result="BackgroundImageFix"/>
<feColorMatrix in="SourceAlpha" type="matrix" values="0 0 0 0 0 0 0 0 0 0 0 0 0 0 0 0 0 0 127 0" result="hardAlpha"/>
<feOffset dy="4"/>
<feGaussianBlur stdDeviation="2"/>
<feComposite in2="hardAlpha" operator="out"/>
<feColorMatrix type="matrix" values="0 0 0 0 0 0 0 0 0 0 0 0 0 0 0 0 0 0 0.25 0"/>
<feBlend mode="normal" in2="BackgroundImageFix" result="effect1_dropShadow_344_838"/>
<feBlend mode="normal" in="SourceGraphic" in2="effect1_dropShadow_344_838" result="shape"/>
</filter>
</defs>
</svg>
