<svg width="170" height="162" viewBox="0 0 170 162" fill="none" xmlns="http://www.w3.org/2000/svg">
<g filter="url(#filter0_d_344_669)">
<path d="M10.1818 86.6873H29.934V153.108" stroke="#263238" stroke-linecap="round" stroke-linejoin="round"/>
<path d="M57.3993 116.425H35.291V119.315H38.1764V153.148H57.3993V116.425Z" fill="#999999"/>
<path d="M32.4772 96.5216C32.4772 96.5216 33.0344 93.8431 32.4772 92.2471C32.6779 92.2033 32.8856 92.2033 33.0862 92.2471C33.3886 92.3188 33.5916 94.1456 33.5916 94.1456C33.5916 94.1456 35.0124 92.6809 35.3149 92.8043C35.6246 92.9795 35.8585 93.263 35.9716 93.6003C36.0233 93.8232 36.3696 94.1455 36.481 94.3127C36.5925 94.4799 36.7318 95.1087 36.879 95.443C37.0263 95.7773 36.1706 97.4329 34.0931 97.9265L32.4772 96.5216Z" fill="white" stroke="#263238" stroke-linecap="round" stroke-linejoin="round"/>
<path d="M21.0709 93.6163C20.7143 93.6701 20.3773 93.8139 20.0918 94.0342C19.7535 94.2411 19.3715 94.4998 18.9973 94.7665C18.1337 95.3834 17.3377 96.0162 17.3377 96.0162L14.9498 93.2302L16.1159 90.7428C16.1159 90.7428 21.644 93.7357 21.0709 93.6163Z" fill="white" stroke="#263238" stroke-linecap="round" stroke-linejoin="round"/>
<path d="M20.0918 94.0342C19.7535 94.2412 19.3714 94.4999 18.9973 94.7665C18.4399 94.4463 17.9639 94.0017 17.6063 93.4674C17.2487 92.9331 17.0192 92.3235 16.9357 91.6861C16.9357 91.6861 18.858 92.9835 20.0918 94.0342Z" fill="#263238"/>
<path d="M14.2811 93.6561L14.9099 92.2472C14.9099 92.2472 18.2888 93.2422 19.0291 95.4669L16.072 96.5216L14.2811 93.6561Z" fill="#92E3A9" stroke="#263238" stroke-linecap="round" stroke-linejoin="round"/>
<path d="M16.7566 84.2356C18.1376 82.3173 22.5752 84.0605 23.2478 86.2932C23.9204 88.526 23.3751 93.6083 21.7991 94.1456C17.7555 95.5226 13.4174 88.8523 16.7566 84.2356Z" fill="white" stroke="#263238" stroke-linecap="round" stroke-linejoin="round"/>
<path d="M19.1445 86.7112C19.1445 86.7112 20.0241 85.9153 22.3284 86.1063L21.6439 86.8744C21.6439 86.8744 23.5502 87.2087 23.996 86.17C24.4417 85.1312 21.7195 80.7135 16.5297 83.3323C12.9478 85.1312 15.5865 91.6901 15.5865 91.6901L16.5138 91.2205L17.1545 90.5319C17.1545 90.5319 15.877 89.2942 16.7924 88.2992C17.7077 87.3042 18.5077 88.7967 18.5077 88.7967C18.5077 88.7967 19.4748 87.6545 19.1445 86.7112Z" fill="#263238"/>
<path d="M19.642 88.0604C20.0513 87.973 20.4745 87.973 20.8838 88.0604" stroke="#263238" stroke-linecap="round" stroke-linejoin="round"/>
<path d="M22.5632 88.0245C22.7807 87.934 23.0124 87.8828 23.2478 87.8733" stroke="#263238" stroke-linecap="round" stroke-linejoin="round"/>
<path d="M20.5057 89.2225C20.5057 89.4732 20.3982 89.6722 20.2629 89.6722C20.1276 89.6722 20.0162 89.4732 20.0162 89.2225C20.0162 88.9718 20.1276 88.7728 20.2629 88.7728C20.3982 88.7728 20.5057 88.9757 20.5057 89.2225Z" fill="#263238"/>
<path d="M22.81 89.2225C22.81 89.4732 22.6986 89.6722 22.5633 89.6722C22.428 89.6722 22.3165 89.4732 22.3165 89.2225C22.3165 88.9718 22.428 88.7728 22.5633 88.7728C22.6986 88.7728 22.81 88.9757 22.81 89.2225Z" fill="#263238"/>
<path d="M22.1255 89.2224C22.2383 89.7734 22.3845 90.317 22.5633 90.8502L22.1255 91.2482" fill="white"/>
<path d="M22.1255 89.2224C22.2383 89.7734 22.3845 90.317 22.5633 90.8502L22.1255 91.2482" stroke="#263238" stroke-linecap="round" stroke-linejoin="round"/>
<path d="M22.1255 91.6861C21.4251 91.7738 20.7166 91.7738 20.0162 91.6861C20.0384 91.9619 20.1557 92.2215 20.3481 92.4204C20.5404 92.6193 20.7959 92.7452 21.0708 92.7766C22.0857 92.9278 21.7434 91.9408 21.7434 91.9408" fill="white"/>
<path d="M22.1255 91.6861C21.4251 91.7738 20.7166 91.7738 20.0162 91.6861C20.0384 91.9619 20.1557 92.2215 20.3481 92.4204C20.5404 92.6193 20.7959 92.7452 21.0708 92.7766C22.0857 92.9278 21.7434 91.9408 21.7434 91.9408" stroke="#263238" stroke-linecap="round" stroke-linejoin="round"/>
<path d="M10.1818 97.3852C10.1818 97.3852 13.0155 93.5009 14.6472 93.6203C16.279 93.7396 21.0708 96.6251 21.0708 96.6251L26.1491 104.497L31.4822 97.9743L32.5846 96.0559L34.6741 97.9743L33.9139 98.7225C33.6655 100.393 33.2193 102.029 32.5846 103.594C31.6334 105.739 29.6196 110.26 27.363 110.809C25.1064 111.359 20.2788 106.284 20.2788 106.284C20.2788 106.284 17.8113 113.428 17.8113 116.115L10.1818 116.656V97.3852Z" fill="#92E3A9" stroke="#263238" stroke-linecap="round" stroke-linejoin="round"/>
<path d="M18.0222 100.553C18.1536 99.9271 18.317 99.308 18.5118 98.6986" stroke="#263238" stroke-linecap="round" stroke-linejoin="round"/>
<path d="M20.2629 106.284C18.9097 104.903 17.5924 103.638 17.8471 101.596" stroke="#263238" stroke-linecap="round" stroke-linejoin="round"/>
<path d="M17.7954 116.115L18.0222 118.296C18.0222 118.296 22.4758 127.33 23.9722 131.21C26.9492 138.916 23.9722 153.1 23.9722 153.1H20.2709C20.2709 153.1 19.451 137.901 19.0491 137.495C18.6471 137.089 12.5777 127.644 12.5777 127.644L10.1898 135.007V116.656L17.7954 116.115Z" fill="#263238"/>
<path d="M47.8595 124.727C47.8595 124.727 45.8377 129.654 46.2675 132.197C46.6973 134.741 51.1349 153.108 51.1349 153.108H53.2841C53.2841 153.108 53.2323 141.264 52.5717 138.382C51.911 135.501 50.8404 132.524 50.9319 131.752C51.0235 130.98 53.8771 124.723 53.8771 124.723L47.8595 124.727Z" fill="white" stroke="#263238" stroke-linecap="round" stroke-linejoin="round"/>
<path d="M40.636 74.2939C40.636 74.2939 39.9515 74.9665 39.5416 80.8647L37.3248 80.1165C37.3248 80.1165 38.67 75.4083 38.5983 73.4223" fill="white"/>
<path d="M40.636 74.2939C40.636 74.2939 39.9515 74.9665 39.5416 80.8647L37.3248 80.1165C37.3248 80.1165 38.67 75.4083 38.5983 73.4223" stroke="#263238" stroke-linecap="round" stroke-linejoin="round"/>
<path d="M40.2101 74.3256C40.3874 74.3385 40.5654 74.3162 40.7341 74.2603C40.9028 74.2043 41.0588 74.1156 41.1931 73.9993C41.3711 73.8674 41.5304 73.7121 41.6668 73.5376C41.7857 73.3798 41.919 73.2333 42.0647 73.0998C42.1642 73.0083 42.2637 72.9247 42.3632 72.8451C42.5663 72.6826 42.7789 72.5324 43 72.3954C43 72.3954 42.9801 71.9735 42.602 72.069C42.4964 72.099 42.3957 72.1446 42.3035 72.2044C42.1443 72.2999 41.9891 72.4233 41.8618 72.5148C41.7905 72.5734 41.7057 72.6131 41.615 72.6302C41.5793 72.6344 41.5433 72.6344 41.5076 72.6302H41.4678C41.3938 72.6074 41.3267 72.5663 41.2728 72.5108C41.248 72.4853 41.2278 72.4556 41.213 72.4233V72.3994C41.2113 72.3755 41.2113 72.3516 41.213 72.3277C41.1935 72.1958 41.1935 72.0617 41.213 71.9297C41.2367 71.7292 41.2767 71.5309 41.3324 71.3367C41.3324 71.2651 41.3722 71.1895 41.3961 71.1218C41.448 70.9457 41.5105 70.773 41.5832 70.6044C41.6349 70.485 41.6906 70.3537 41.7384 70.2064C41.7862 70.0592 41.826 69.9517 41.8618 69.8323C41.9573 69.4821 41.9613 69.1956 41.7225 69.1916C41.4837 69.1876 41.4558 69.315 41.3444 69.6134C41.3006 69.7169 41.2528 69.8403 41.1892 69.9876C41.0752 70.2414 40.9421 70.4862 40.7912 70.7199L40.7315 70.8114L40.5922 70.7756C40.5922 70.7955 40.5922 70.7437 40.5922 70.6363C40.6165 70.3539 40.6591 70.0734 40.7195 69.7965C40.7474 69.6692 40.7792 69.5378 40.8111 69.3985C40.8429 69.2592 40.8787 69.1597 40.9146 69.0443C41.0976 68.4633 40.6439 68.5229 40.4927 68.6702C40.3764 68.8498 40.2991 69.0518 40.2658 69.2632C40.23 69.3906 40.1942 69.5299 40.1584 69.6612C40.1584 69.7249 40.1226 69.7886 40.1027 69.8443C40.027 70.0871 39.9474 70.3418 39.8957 70.5169L39.8718 70.5845L39.6848 70.6084V70.5169C39.6495 70.2531 39.6388 69.9866 39.6529 69.7209C39.6529 69.5418 39.6808 69.4025 39.6887 69.2911C39.6887 69.0841 39.6887 68.9806 39.5574 68.913C39.4261 68.8453 39.2629 69.0244 39.1594 69.2791C39.0934 69.481 39.0585 69.6917 39.0559 69.904C39.0537 69.9411 39.0537 69.9783 39.0559 70.0154C39.0671 70.2085 39.055 70.4023 39.0201 70.5925C39.0112 70.6305 39.0046 70.6691 39.0002 70.7079L38.8729 70.7955C38.8551 70.7433 38.8405 70.6902 38.8291 70.6363C38.7839 70.4688 38.7494 70.2987 38.7256 70.1269C38.7116 69.9931 38.6903 69.8603 38.6619 69.7289C38.6341 69.6254 38.5903 69.5657 38.4988 69.5458C38.4072 69.5259 38.2838 69.6811 38.256 69.896C38.2393 70.0282 38.2393 70.1619 38.256 70.294C38.261 70.3917 38.2798 70.4881 38.3117 70.5806C38.3552 70.7578 38.3792 70.9393 38.3833 71.1218C38.3833 71.1974 38.3833 71.2731 38.3833 71.3447C38.3833 71.6153 38.3833 71.8661 38.3833 71.9536V71.9855C38.3435 72.1805 38.3157 72.3476 38.2958 72.4949C38.2366 72.847 38.2598 73.2079 38.3634 73.5496C38.4776 73.7723 38.6749 73.941 38.9127 74.0192" fill="white"/>
<path d="M40.2101 74.3256C40.3874 74.3385 40.5654 74.3162 40.7341 74.2603C40.9028 74.2043 41.0588 74.1156 41.1931 73.9993C41.3711 73.8674 41.5304 73.7121 41.6668 73.5376C41.7857 73.3798 41.919 73.2333 42.0647 73.0998C42.1642 73.0083 42.2637 72.9247 42.3632 72.8451C42.5663 72.6826 42.7789 72.5324 43 72.3954C43 72.3954 42.9801 71.9735 42.602 72.069C42.4964 72.099 42.3957 72.1446 42.3035 72.2044C42.1443 72.2999 41.9891 72.4233 41.8618 72.5148C41.7905 72.5734 41.7057 72.6131 41.615 72.6302C41.5793 72.6344 41.5433 72.6344 41.5076 72.6302H41.4678C41.3938 72.6074 41.3267 72.5663 41.2728 72.5108C41.248 72.4853 41.2278 72.4556 41.213 72.4233V72.3994C41.2113 72.3755 41.2113 72.3516 41.213 72.3277C41.1935 72.1958 41.1935 72.0617 41.213 71.9297C41.2367 71.7292 41.2767 71.5309 41.3324 71.3367C41.3324 71.2651 41.3722 71.1895 41.3961 71.1218C41.448 70.9457 41.5105 70.773 41.5832 70.6044C41.6349 70.485 41.6906 70.3537 41.7384 70.2064C41.7862 70.0592 41.826 69.9517 41.8618 69.8323C41.9573 69.4821 41.9613 69.1956 41.7225 69.1916C41.4837 69.1876 41.4558 69.315 41.3444 69.6134C41.3006 69.7169 41.2528 69.8403 41.1892 69.9876C41.0752 70.2414 40.9421 70.4862 40.7912 70.7199L40.7315 70.8114L40.5922 70.7756C40.5922 70.7955 40.5922 70.7437 40.5922 70.6363C40.6165 70.3539 40.6591 70.0734 40.7195 69.7965C40.7474 69.6692 40.7792 69.5378 40.8111 69.3985C40.8429 69.2592 40.8787 69.1597 40.9146 69.0443C41.0976 68.4633 40.6439 68.5229 40.4927 68.6702C40.3764 68.8498 40.2991 69.0518 40.2658 69.2632C40.23 69.3906 40.1942 69.5299 40.1584 69.6612C40.1584 69.7249 40.1226 69.7886 40.1027 69.8443C40.027 70.0871 39.9474 70.3418 39.8957 70.5169L39.8718 70.5845L39.6848 70.6084V70.5169C39.6495 70.2531 39.6388 69.9866 39.6529 69.7209C39.6529 69.5418 39.6808 69.4025 39.6887 69.2911C39.6887 69.0841 39.6887 68.9806 39.5574 68.913C39.4261 68.8453 39.2629 69.0244 39.1594 69.2791C39.0934 69.481 39.0585 69.6917 39.0559 69.904C39.0537 69.9411 39.0537 69.9783 39.0559 70.0154C39.0671 70.2085 39.055 70.4023 39.0201 70.5925C39.0112 70.6305 39.0046 70.6691 39.0002 70.7079L38.8729 70.7955C38.8551 70.7433 38.8405 70.6902 38.8291 70.6363C38.7839 70.4688 38.7494 70.2987 38.7256 70.1269C38.7116 69.9931 38.6903 69.8603 38.6619 69.7289C38.6341 69.6254 38.5903 69.5657 38.4988 69.5458C38.4072 69.5259 38.2838 69.6811 38.256 69.896C38.2393 70.0282 38.2393 70.1619 38.256 70.294C38.261 70.3917 38.2798 70.4881 38.3117 70.5806C38.3552 70.7578 38.3792 70.9393 38.3833 71.1218C38.3833 71.1974 38.3833 71.2731 38.3833 71.3447C38.3833 71.6153 38.3833 71.8661 38.3833 71.9536V71.9855C38.3435 72.1805 38.3157 72.3476 38.2958 72.4949C38.2366 72.847 38.2598 73.2079 38.3634 73.5496C38.4776 73.7723 38.6749 73.941 38.9127 74.0192" stroke="#263238" stroke-linecap="round" stroke-linejoin="round"/>
<path d="M41.1892 72.3677C40.9641 72.2964 40.7225 72.2964 40.4974 72.3676C40.2723 72.4389 40.0746 72.5779 39.9315 72.7657" stroke="#263238" stroke-linecap="round" stroke-linejoin="round"/>
<path d="M48.6436 75.1496C48.6436 75.1496 49.4396 78.6837 48.6436 80.8408C47.8476 82.9979 47.4815 88.6772 52.2255 90.2095C56.9695 91.7418 57.2879 91.0413 57.2879 91.0413L57.1805 75.4918L51.1589 71.8661L48.6436 75.1496Z" fill="#263238"/>
<path d="M52.5756 83.5511L47.8515 83.7342L39.5693 86.3131L40.2897 76.1127L40.62 75.1495L38.2997 74.5366L38.0729 75.6231C38.0729 75.6231 34.5387 88.1917 35.4223 90.1816C36.3058 92.1716 47.1988 89.4652 47.1988 89.4652C47.1988 89.4652 47.5968 94.9376 49.133 96.8718C50.6693 98.806 52.0622 102.842 52.0622 102.842H57.2719V82.6039L52.5756 83.5511Z" fill="#92E3A9" stroke="#263238" stroke-linecap="round" stroke-linejoin="round"/>
<path d="M56.7307 83.0536C56.7307 83.0536 53.6065 85.7122 53.6303 84.8247C53.6612 83.8283 53.5499 82.8326 53.3 81.8676C53.1733 81.3487 53.0029 80.8415 52.7906 80.3513C52.6871 80.1284 52.6274 80.009 52.6274 80.009L56.2332 74.9108L56.7307 83.0536Z" fill="white" stroke="#263238" stroke-linecap="round" stroke-linejoin="round"/>
<path d="M56.8938 81.0955L53.702 84.57L53.1647 82.0626L50.9439 85.2346L52.6274 84.4904L53.4313 87.2246L54.4263 84.8207L56.8938 85.9828L57.3993 81.6169L56.8938 81.0955Z" fill="#92E3A9" stroke="#263238" stroke-linecap="round" stroke-linejoin="round"/>
<path d="M52.0703 102.846C52.0703 102.846 51.1509 108.943 51.147 110.288C51.147 110.288 47.6088 121.798 46.9442 126.415C46.9442 126.415 50.944 128.428 57.2919 127.644V102.846H52.0703Z" fill="#263238"/>
<path d="M47.2068 89.4653C47.2068 89.4653 46.4546 85.8595 47.2068 85.2028" stroke="#263238" stroke-linecap="round" stroke-linejoin="round"/>
<path d="M53.4313 88.6932C53.4313 88.6932 53.4075 93.8233 53.889 95.5983" stroke="#263238" stroke-linecap="round" stroke-linejoin="round"/>
<path d="M55.5327 78.632C55.5327 78.632 55.1069 81.0836 53.3 81.8677C53.1733 81.3488 53.0029 80.8415 52.7906 80.3513C53.9925 79.4877 55.5327 78.632 55.5327 78.632Z" fill="#263238"/>
<path d="M53.6184 68.9608C48.1898 68.6901 48.751 74.4371 49.5271 78.6836C50.0763 81.6686 52.5836 82.5441 55.6083 79.2249C57.1167 77.5733 58.1475 69.1876 53.6184 68.9608Z" fill="white" stroke="#263238" stroke-linecap="round" stroke-linejoin="round"/>
<path d="M53.7697 71.0025C53.7697 71.0025 53.9846 74.9266 55.9785 76.638C57.9725 78.3494 57.2561 81.6686 57.2561 81.6686L57.3834 68.6424C57.3834 68.6424 54.1557 67.7947 51.9469 68.3479C51.9469 68.3479 48.2973 68.6225 47.9113 71.2771C47.5252 73.9317 48.9262 76.638 48.9262 76.638C48.9262 76.638 49.1968 71.0542 53.7697 71.0025Z" fill="#263238"/>
<path d="M53.4313 75.6231C53.4313 75.8938 53.3119 76.1127 53.1647 76.1127C53.0174 76.1127 52.894 75.8938 52.894 75.6231C52.894 75.3525 53.0134 75.1296 53.1647 75.1296C53.3159 75.1296 53.4313 75.3485 53.4313 75.6231Z" fill="#263238"/>
<path d="M50.6096 75.6231C50.6096 75.8938 50.4902 76.1127 50.343 76.1127C50.1957 76.1127 50.0763 75.8938 50.0763 75.6231C50.0763 75.3525 50.1957 75.1296 50.343 75.1296C50.4902 75.1296 50.6096 75.3485 50.6096 75.6231Z" fill="#263238"/>
<path d="M52.6155 74.0909C52.8042 74.0444 53.0009 74.041 53.191 74.0809C53.3812 74.1209 53.5599 74.2032 53.7139 74.3217" stroke="#263238" stroke-linecap="round" stroke-linejoin="round"/>
<path d="M50.2435 74.3655C50.0036 74.3088 49.7536 74.3107 49.5147 74.371C49.2757 74.4312 49.0547 74.5481 48.8704 74.7117" stroke="#263238" stroke-linecap="round" stroke-linejoin="round"/>
<path d="M50.9439 76.3873L50.2793 77.1833C50.2793 77.1833 50.6096 77.7644 50.9439 77.8917" stroke="#263238" stroke-linecap="round" stroke-linejoin="round"/>
<path d="M50.6096 78.6399C51.2961 78.6802 51.9814 78.5431 52.5996 78.2419C52.5996 78.2419 52.5996 79.615 51.6126 79.611C51.0394 79.611 50.9996 78.9464 50.9996 78.9464" stroke="#263238" stroke-linecap="round" stroke-linejoin="round"/>
<path d="M43.3861 41.6826V50.908" stroke="#263238" stroke-linecap="round" stroke-linejoin="round"/>
<path d="M54.9437 52.703H31.725L32.5647 50.9081H54.1079L54.9437 52.703Z" stroke="#263238" stroke-linecap="round" stroke-linejoin="round"/>
<path d="M23.809 41.6826V65.0327" stroke="#263238" stroke-linecap="round" stroke-linejoin="round"/>
<path d="M32.5807 66.3977H14.9577L15.5945 65.0326H31.9439L32.5807 66.3977Z" stroke="#263238" stroke-linecap="round" stroke-linejoin="round"/>
<path d="M75.3447 153.108V38.6897H10.1818V153.108" stroke="#263238" stroke-linecap="round" stroke-linejoin="round"/>
<path d="M72.2961 41.6826L57.3993 53.6223V153.108H72.2961" fill="white"/>
<path d="M72.2961 41.6826L57.3993 53.6223V153.108H72.2961" stroke="#263238" stroke-linecap="round" stroke-linejoin="round"/>
<path d="M58.848 114.157H54.1318V93.5248H58.848V95.0133H55.8472V112.628H58.848V114.157Z" fill="#BFBFBF" stroke="#263238" stroke-miterlimit="10"/>
<path d="M72.2961 153.108V41.6826H10.1818V153.108" stroke="#263238" stroke-linecap="round" stroke-linejoin="round"/>
<path d="M49.7938 27.4027H35.8801V35.3346H49.7938V27.4027Z" fill="#92E3A9" stroke="#263238" stroke-linecap="round" stroke-linejoin="round"/>
<path d="M60.9494 63.4128V81.1592L67.2496 78.6519V59.6558L60.9494 63.4128Z" fill="white" stroke="#263238" stroke-linecap="round" stroke-linejoin="round"/>
<path d="M61.6897 80.8647V64.0695L66.4775 61.4109" fill="white"/>
<path d="M61.6897 80.8647V64.0695L66.4775 61.4109" stroke="#263238" stroke-linecap="round" stroke-linejoin="round"/>
<path d="M39.5774 30.9329H40.5206V31.5578H39.5774V32.8393H40.7714V33.4761H38.9008V29.0982H40.7714V29.7231H39.5774V30.9329Z" fill="#263238"/>
<path d="M43.4816 29.0982L42.7613 31.2195L43.5294 33.4681H42.805L42.2518 31.7369L41.6747 33.4761H41.034L41.8021 31.2275L41.0817 29.0982H41.7941L42.3075 30.6902L42.8329 29.0982H43.4816Z" fill="#263238"/>
<path d="M43.8716 29.0982H44.5602V33.4761H43.8716V29.0982Z" fill="#263238"/>
<path d="M44.8587 29.0982H46.98V29.7231H46.2636V33.4761H45.579V29.731H44.8587V29.0982Z" fill="#263238"/>
<path d="M85.9789 12.3148V153.148" stroke="#263238" stroke-linecap="round" stroke-linejoin="round"/>
<path d="M85.9789 5.12711V10.6552" stroke="#263238" stroke-linecap="round" stroke-linejoin="round"/>
<path d="M85.979 1V2.36511" stroke="#263238" stroke-linecap="round" stroke-linejoin="round"/>
<path d="M146.537 40.0389H95.2123V117.265H146.537V40.0389Z" stroke="#263238" stroke-linecap="round" stroke-linejoin="round"/>
<path d="M120.875 40.0389V117.269" stroke="#263238" stroke-linecap="round" stroke-linejoin="round"/>
<path d="M145.152 41.8776H122.26V115.144" stroke="#263238" stroke-linecap="round" stroke-linejoin="round"/>
<path d="M119.283 41.8776H96.7167V115.144" stroke="#263238" stroke-linecap="round" stroke-linejoin="round"/>
<path d="M5 153.108H158.258" stroke="#263238" stroke-width="0.979097" stroke-linecap="round" stroke-linejoin="round"/>
<path d="M130.725 60.8259C135.656 63.4486 154.799 76.431 158.584 80.4866C162.369 84.5421 156.762 116.286 156.762 116.286H147.261L149.486 85.6604L127.935 77.1833L130.725 60.8259Z" fill="#92E3A9"/>
<mask id="mask0_344_669" style="mask-type:luminance" maskUnits="userSpaceOnUse" x="127" y="60" width="33" height="57">
<path d="M130.725 60.8259C135.656 63.4486 154.799 76.431 158.584 80.4866C162.369 84.5421 156.762 116.286 156.762 116.286H147.261L149.486 85.6604L127.935 77.1833L130.725 60.8259Z" fill="white"/>
</mask>
<g mask="url(#mask0_344_669)">
<path opacity="0.3" d="M157.183 113.794C152.909 113.743 149.462 113.683 149.462 113.683L147.453 113.631L149.482 85.6604L128.735 77.4976L128.592 75.7425C128.592 75.7425 131.716 75.7186 133.985 73.7247C134.183 74.1094 134.286 74.5358 134.286 74.9684C134.286 75.401 134.183 75.8274 133.985 76.2121C133.985 76.2121 151.791 84.2475 155.448 81.386C156.214 80.798 156.796 80.0043 157.128 79.0975C157.637 79.5302 158.125 79.9885 158.588 80.4706C161.732 83.8455 158.413 106.232 157.183 113.794Z" fill="black" fill-opacity="0.7"/>
</g>
<path d="M130.725 60.8259C135.656 63.4486 154.799 76.431 158.584 80.4866C162.369 84.5421 156.762 116.286 156.762 116.286H147.261L149.486 85.6604L127.935 77.1833L130.725 60.8259Z" stroke="#263238" stroke-linecap="round" stroke-linejoin="round"/>
<path d="M124.445 102.897L121.89 90.683L129.682 88.5737L133.981 99.403L124.445 102.897Z" fill="#757575" stroke="#263238" stroke-linecap="round" stroke-linejoin="round"/>
<path d="M127.398 103.769V84.5579L131.696 83.0416L142.848 89.3378L143.552 106.79L127.398 103.769Z" fill="#757575"/>
<mask id="mask1_344_669" style="mask-type:luminance" maskUnits="userSpaceOnUse" x="127" y="83" width="17" height="24">
<path d="M127.398 103.769V84.5579L131.696 83.0416L142.848 89.3378L143.552 106.79L127.398 103.769Z" fill="white"/>
</mask>
<g mask="url(#mask1_344_669)">
<path opacity="0.3" d="M127.398 84.5579L131.696 83.0416L131.664 100.748H127.398V84.5579Z" fill="black" fill-opacity="0.7"/>
</g>
<path d="M127.398 103.769V84.5579L131.696 83.0416L142.848 89.3378L143.552 106.79L127.398 103.769Z" stroke="#263238" stroke-linecap="round" stroke-linejoin="round"/>
<path d="M136.098 102.058L133.981 85.3301L137.71 82.1541L151.21 86.7429L153.124 103.769L136.098 102.058Z" fill="#92E3A9"/>
<mask id="mask2_344_669" style="mask-type:luminance" maskUnits="userSpaceOnUse" x="133" y="82" width="21" height="22">
<path d="M136.098 102.058L133.981 85.3301L137.71 82.1541L151.21 86.7429L153.124 103.769L136.098 102.058Z" fill="white"/>
</mask>
<g mask="url(#mask2_344_669)">
<path opacity="0.3" d="M133.981 85.3301L135.477 97.4608L139.326 95.7335L137.71 82.1541L133.981 85.3301Z" fill="black" fill-opacity="0.7"/>
</g>
<path d="M136.098 102.058L133.981 85.3301L137.71 82.1541L151.21 86.7429L153.124 103.769L136.098 102.058Z" stroke="#263238" stroke-linecap="round" stroke-linejoin="round"/>
<path d="M138.709 91.5785L138.816 92.5934" stroke="#263238" stroke-linecap="round" stroke-linejoin="round"/>
<path d="M137.71 82.1541L138.454 89.1667" stroke="#263238" stroke-linecap="round" stroke-linejoin="round"/>
<path d="M131.664 88.5737V95.3435" stroke="#263238" stroke-linecap="round" stroke-linejoin="round"/>
<path d="M131.664 84.5579V85.6603" stroke="#263238" stroke-linecap="round" stroke-linejoin="round"/>
<path d="M150.808 90.0661L142.243 87.71L142.752 92.0879L151.21 94.0978L150.808 90.0661Z" fill="white" stroke="#263238" stroke-linecap="round" stroke-linejoin="round"/>
<path d="M149.029 100.88C149.029 100.88 148.233 82.7949 151.58 78.3374C154.927 73.8799 152.921 88.5219 152.921 88.5219C152.921 88.5219 157.892 71.9974 161.788 72.5347C165.684 73.072 156.013 90.1338 156.013 90.1338C156.013 90.1338 162.461 83.161 164.339 84.0286C166.218 84.8962 156.642 94.0978 156.642 94.0978C156.642 94.0978 158.966 91.881 160.578 93.6281C162.19 95.3753 153.593 99.9403 153.191 102.897L149.029 100.88Z" fill="#263238"/>
<path opacity="0.2" d="M157.677 94.6907C157.647 94.6726 157.614 94.6607 157.579 94.6555C157.544 94.6503 157.509 94.652 157.475 94.6605C157.441 94.669 157.409 94.6842 157.381 94.7051C157.353 94.7259 157.329 94.7522 157.311 94.7822C156.098 96.6999 154.437 98.2938 152.471 99.4268C152.626 98.6825 152.949 97.2259 153.391 95.4469C154.644 93.4171 157.681 91.1406 157.713 91.1167C157.768 91.0741 157.805 91.0115 157.814 90.9423C157.824 90.873 157.806 90.8028 157.764 90.7466C157.744 90.7184 157.718 90.6946 157.688 90.6765C157.659 90.6584 157.625 90.6465 157.591 90.6413C157.557 90.6361 157.521 90.6378 157.488 90.6463C157.454 90.6548 157.422 90.67 157.394 90.6909C156.068 91.6945 154.846 92.8278 153.745 94.0738C154.736 90.2929 156.172 85.6205 157.78 83.0097C157.813 82.9497 157.821 82.8797 157.803 82.814C157.785 82.7483 157.743 82.6919 157.685 82.6563C157.627 82.6207 157.558 82.6086 157.491 82.6225C157.424 82.6364 157.366 82.6753 157.327 82.7311C154.979 86.5399 153.04 94.3683 152.232 97.9502C150.987 92.4739 151.468 85.1907 151.472 85.1111C151.475 85.0766 151.471 85.0419 151.46 85.0089C151.449 84.976 151.432 84.9456 151.41 84.9193C151.387 84.893 151.359 84.8715 151.329 84.8559C151.298 84.8403 151.264 84.831 151.229 84.8285C151.195 84.8258 151.16 84.8301 151.126 84.8411C151.093 84.8521 151.063 84.8696 151.036 84.8925C151.01 84.9155 150.989 84.9435 150.973 84.9749C150.958 85.0063 150.949 85.0404 150.947 85.0753C150.947 85.1588 150.39 93.4768 151.978 99.1084C151.894 99.5064 151.838 99.773 151.826 99.8407C151.818 99.8884 151.822 99.9376 151.839 99.9831C151.856 100.029 151.884 100.069 151.922 100.099C151.969 100.135 152.026 100.154 152.085 100.155C152.125 100.155 152.164 100.147 152.201 100.131C155.695 98.5034 157.685 95.1762 157.772 95.0369C157.803 94.9779 157.811 94.9093 157.793 94.8449C157.775 94.7806 157.734 94.7255 157.677 94.6907Z" fill="white"/>
<path d="M119.589 96.9195L141.236 94.0978L160.578 98.3563L159.774 120.09L142.243 122.86L118.073 120.695L119.589 96.9195Z" fill="#999999"/>
<mask id="mask3_344_669" style="mask-type:luminance" maskUnits="userSpaceOnUse" x="118" y="94" width="43" height="29">
<path d="M119.589 96.9195L141.236 94.0978L160.578 98.3563L159.774 120.09L142.243 122.86L118.073 120.695L119.589 96.9195Z" fill="white"/>
</mask>
<g mask="url(#mask3_344_669)">
<path opacity="0.3" d="M160.578 98.3563L160.284 106.292L145.304 106.79L142.247 102.674V122.861L118.077 120.691L119.593 96.9235L141.236 94.0938L160.578 98.3563Z" fill="black" fill-opacity="0.7"/>
</g>
<path d="M119.589 96.9195L141.236 94.0978L160.578 98.3563L159.774 120.09L142.243 122.86L118.073 120.695L119.589 96.9195Z" stroke="#263238" stroke-linecap="round" stroke-linejoin="round"/>
<path d="M141.236 94.0978L147.95 104.963L164.586 105.715L160.578 98.3563L141.236 94.0978Z" fill="#BFBFBF" stroke="#263238" stroke-linecap="round" stroke-linejoin="round"/>
<path d="M141.236 94.0978L138.144 104.963L117.054 105.715L119.589 96.9195L141.236 94.0978Z" fill="#999999" stroke="#263238" stroke-linecap="round" stroke-linejoin="round"/>
<path d="M142.243 99.9084V98.3284" stroke="#263238" stroke-linecap="round" stroke-linejoin="round"/>
<path d="M142.243 107.9V102.897" stroke="#263238" stroke-linecap="round" stroke-linejoin="round"/>
<path d="M142.243 122.86V109.715" stroke="#263238" stroke-linecap="round" stroke-linejoin="round"/>
<path d="M82.7474 153.144H113.102C116.537 141.565 118.747 129.659 119.697 117.619L83.9095 112.704L82.8628 117.786C82.8628 117.786 79.4639 124.019 80.5146 140.173C80.8474 144.557 81.595 148.9 82.7474 153.144Z" fill="#263238"/>
<path d="M84.4149 117.205C90.7827 122.033 111.876 124.174 118.734 120.059L118.937 115.589L85.0437 113.201L84.4149 117.205Z" fill="#757575" stroke="#263238" stroke-linecap="round" stroke-linejoin="round"/>
<path d="M103.069 117.714V122.228C103.069 122.228 106.925 122.753 108.597 122.2L108.875 117.707L103.069 117.714Z" fill="#BFBFBF" stroke="#263238" stroke-miterlimit="10"/>
<path d="M94.6075 116.692C94.6075 116.692 94.2493 119.907 94.0105 121.304H92.5101C92.5101 121.304 92.9319 117.671 93.2822 116.692H94.6075Z" fill="#263238"/>
<path d="M114.029 122.494C114.029 122.494 114.029 119.259 114.141 117.842L115.629 117.683C115.629 117.683 115.593 121.344 115.351 122.355L114.029 122.494Z" fill="#263238"/>
<path d="M101.978 53.3755C104.764 51.7318 114.606 52.9775 115.908 54.2152C117.209 55.453 112.238 72.0491 112.238 72.0491L104.056 73.1277L101.978 53.3755Z" fill="#92E3A9" stroke="#263238" stroke-linecap="round" stroke-linejoin="round"/>
<path d="M130.088 74.445C129.278 79.7589 127.875 84.9652 125.905 89.9666C119.613 105.914 125.766 115.438 120.915 117.993C117.687 119.689 85.8238 118.614 83.2966 114.105C79.9017 108.047 83.5792 60.6547 87.4038 58.7841C95.9726 54.5495 116.879 55.3495 130.725 60.8576C130.725 60.8576 130.797 61.5263 130.84 62.7481" fill="#92E3A9"/>
<mask id="mask4_344_669" style="mask-type:luminance" maskUnits="userSpaceOnUse" x="81" y="56" width="50" height="63">
<path d="M130.088 74.445C129.278 79.7589 127.875 84.9652 125.905 89.9666C119.613 105.914 125.766 115.438 120.915 117.993C117.687 119.689 85.8238 118.614 83.2966 114.105C79.9017 108.047 83.5792 60.6547 87.4038 58.7841C95.9726 54.5495 116.879 55.3495 130.725 60.8576C130.725 60.8576 130.797 61.5263 130.84 62.7481" fill="white"/>
</mask>
<g mask="url(#mask4_344_669)">
<path opacity="0.3" d="M106.734 75.7426C106.734 75.7426 105.616 84.6297 99.3793 87.2047C93.1428 89.7797 91.9767 91.5826 92.0046 94.2332C92.0046 94.2332 88.8207 98.822 88.3869 102.897C88.0963 105.739 86.1024 109.703 82.5006 111.227C81.5096 104.951 81.9593 91.296 83.1055 79.4877L84.4149 78.5683C84.4149 78.5683 89.6087 72.6622 90.2614 68.4753C90.2956 68.2565 90.3169 68.0359 90.3251 67.8146C90.4683 63.6158 94.8661 73.3865 92.315 79.1255C89.7639 84.8645 106.734 75.7426 106.734 75.7426Z" fill="black" fill-opacity="0.7"/>
<path opacity="0.3" d="M118.001 66.7998L113.834 62.5771L110.65 65.8526L106.567 64.1771L101.962 68.4992C99.061 65.5979 98.7147 59.4569 98.7784 56.2133C105.348 55.808 111.943 56.209 118.415 57.4072C119.904 63.2975 118.001 66.7998 118.001 66.7998Z" fill="black" fill-opacity="0.7"/>
</g>
<path d="M130.088 74.445C129.278 79.7589 127.875 84.9652 125.905 89.9666C119.613 105.914 125.766 115.438 120.915 117.993C117.687 119.689 85.8238 118.614 83.2966 114.105C79.9017 108.047 83.5792 60.6547 87.4038 58.7841C95.9726 54.5495 116.879 55.3495 130.725 60.8576C130.725 60.8576 130.797 61.5263 130.84 62.7481" stroke="#263238" stroke-linecap="round" stroke-linejoin="round"/>
<path d="M116.254 57.3951C116.254 57.3951 111.502 64.9172 110.658 64.9172C109.512 64.9172 101.978 57.6817 101.978 57.6817C102.797 56.9082 103.354 55.8979 103.57 54.7923C103.812 53.5115 103.812 52.1967 103.57 50.9159C103.506 50.5537 103.451 50.3428 103.451 50.3428L101.97 34.1884L118.093 37.0419C113.695 48.9219 113.834 55.9982 116.254 57.3951Z" fill="white" stroke="#263238" stroke-linecap="round" stroke-linejoin="round"/>
<path d="M100.709 56.7384C100.709 56.7384 101.927 63.3251 106.157 67.5359L109.273 68.5826C109.273 68.5826 114.845 62.5769 116.266 57.3991L118.105 58.7244C118.105 58.7244 113.516 67.9816 110.042 69.4343L106.304 73.852C106.304 73.852 107.017 79.5512 101.974 81.4138C96.9317 83.2764 83.0817 93.1266 85.8039 101.93L80.7654 104.223L78.4451 98.9612C78.4451 98.9612 80.3435 91.8371 85.792 86.1897C91.2405 80.5422 102.977 82.6873 104.872 73.852V68.499C104.872 68.499 97.672 60.1412 100.709 56.7384Z" fill="#263238"/>
<path d="M115.458 60.5075L119.661 64.5988C120.218 56.9415 115.916 54.2152 115.916 54.2152C116.441 56.9415 113.85 58.617 113.85 58.617C113.144 60.7561 111.864 62.6601 110.149 64.1212C108.686 62.6878 107.354 61.1268 106.169 59.4568C103.781 58.4101 101.99 53.3755 101.99 53.3755C100.943 54.2414 100.063 55.2906 99.3913 56.4718C99.3913 56.4718 99.7614 63.4446 102.575 66.3818C103.653 64.8887 104.851 63.4858 106.157 62.187L110.658 65.8565L115.458 60.5075Z" fill="#92E3A9" stroke="#263238" stroke-linecap="round" stroke-linejoin="round"/>
<path d="M90.3848 71.2014C90.1807 72.6639 89.841 74.1042 89.3699 75.5037L63.819 91.3517C63.819 91.3517 59.8152 89.5607 62.625 79.2806C65.4348 69.0006 87.3959 58.7523 87.3959 58.7523C87.7954 59.2255 88.1486 59.7359 88.4506 60.2766" fill="#92E3A9"/>
<mask id="mask5_344_669" style="mask-type:luminance" maskUnits="userSpaceOnUse" x="61" y="58" width="30" height="34">
<path d="M90.3848 71.2014C90.1807 72.6639 89.841 74.1042 89.3699 75.5037L63.819 91.3517C63.819 91.3517 59.8152 89.5607 62.625 79.2806C65.4348 69.0006 87.3959 58.7523 87.3959 58.7523C87.7954 59.2255 88.1486 59.7359 88.4506 60.2766" fill="white"/>
</mask>
<g mask="url(#mask5_344_669)">
<path opacity="0.3" d="M90.3849 71.1975C90.1827 72.662 89.8416 74.1039 89.366 75.5037L79.7545 81.4736C75.1617 81.4736 70.2784 81.1313 69.0884 79.9055C66.7005 77.4499 70.0595 75.838 70.0595 75.838C72.2883 74.0709 79.858 73.4103 83.2171 72.5307C86.5761 71.6512 89.9272 69.3468 89.9272 69.3468L90.0943 69.5538L90.3849 71.1975Z" fill="black" fill-opacity="0.7"/>
</g>
<path d="M90.3848 71.2014C90.1807 72.6639 89.841 74.1042 89.3699 75.5037L63.819 91.3517C63.819 91.3517 59.8152 89.5607 62.625 79.2806C65.4348 69.0006 87.3959 58.7523 87.3959 58.7523C87.7954 59.2255 88.1486 59.7359 88.4506 60.2766" stroke="#263238" stroke-linecap="round" stroke-linejoin="round"/>
<path d="M95.9566 72.7774C95.9566 72.7774 99.9724 69.1079 100.693 68.2682C101.413 67.4284 106.917 66.0673 107.677 66.3817C108.438 66.6961 108.02 67.7428 108.02 67.7428C108.02 67.7428 109.548 67.7428 109.257 68.5826C108.967 69.4224 106.273 70.5725 106.273 70.5725C106.273 70.5725 108.382 72.1446 108.724 72.7734C109.066 73.4023 107.677 74.4529 107.677 74.4529C107.677 74.4529 108.075 75.4997 107.677 75.818C107.279 76.1364 105.23 77.7045 105.23 77.7045C105.23 77.7045 104.474 77.3901 105.301 76.025L104.131 75.9693C104.131 75.9693 100.677 78.1224 98.265 77.7045L95.9566 72.7774Z" fill="white" stroke="#263238" stroke-linecap="round" stroke-linejoin="round"/>
<path d="M67.9501 78.4489C75.5119 75.058 90.7668 71.6552 92.4066 73.7048L95.9885 72.0333C95.9885 72.0333 99.0291 75.4878 98.2968 78.8468L95.4154 79.4757C95.4154 79.4757 92.319 85.9788 76.3755 92.2711C67.4088 95.8132 63.9145 93.067 62.9513 89.2782" fill="#92E3A9"/>
<path d="M67.9501 78.4489C75.5119 75.058 90.7668 71.6552 92.4066 73.7048L95.9885 72.0333C95.9885 72.0333 99.0291 75.4878 98.2968 78.8468L95.4154 79.4757C95.4154 79.4757 92.319 85.9788 76.3755 92.2711C67.4088 95.8132 63.9145 93.067 62.9513 89.2782" stroke="#263238" stroke-linecap="round" stroke-linejoin="round"/>
<path d="M118.125 87.1011C119.958 87.2653 121.805 87.2226 123.629 86.9737L124.93 81.2029" stroke="#263238" stroke-linecap="round" stroke-linejoin="round"/>
<path d="M114.817 85.1072L114.61 86.4126" stroke="#263238" stroke-linecap="round" stroke-linejoin="round"/>
<path d="M125.348 79.3442L125.866 77.0439C125.866 77.0439 119.151 76.9444 116.214 76.2041L115.06 83.5988" stroke="#263238" stroke-linecap="round" stroke-linejoin="round"/>
<path d="M105.234 110.411C105.234 111.175 105.262 111.94 105.317 112.704" stroke="#263238" stroke-linecap="round" stroke-linejoin="round"/>
<path d="M105.906 100.219C105.473 103.118 105.243 106.044 105.218 108.975" stroke="#263238" stroke-linecap="round" stroke-linejoin="round"/>
<path d="M109.058 81.3979C108.366 87.2524 107.021 92.9994 106.117 98.8219" stroke="#263238" stroke-linecap="round" stroke-linejoin="round"/>
<path d="M110.042 72.5226C109.783 74.8867 109.532 77.2547 109.265 79.6188" stroke="#263238" stroke-linecap="round" stroke-linejoin="round"/>
<path d="M94.5796 133.34C93.9219 133.002 93.2275 132.742 92.5101 132.563" stroke="white" stroke-linecap="round" stroke-linejoin="round"/>
<path d="M107.896 151.946C107.498 148.893 107.1 145.709 105.906 142.525C103.916 138.545 99.1405 137.351 96.1755 134.219" stroke="white" stroke-linecap="round" stroke-linejoin="round"/>
<path d="M106.575 128.05C106.328 131.381 107.168 135.652 105.222 138.577" stroke="white" stroke-linecap="round" stroke-linejoin="round"/>
<path d="M106.985 123.752C106.889 124.548 106.81 125.368 106.734 126.18" stroke="white" stroke-linecap="round" stroke-linejoin="round"/>
<path d="M108.095 141.443C108.72 141.878 109.37 142.277 110.041 142.637" stroke="white" stroke-linecap="round" stroke-linejoin="round"/>
<path d="M97.1983 129.626C99.7168 133.598 102.831 137.159 106.432 140.185" stroke="white" stroke-linecap="round" stroke-linejoin="round"/>
<path d="M86.2895 120.09C86.2895 120.09 86.4328 125.571 81.9554 127.652" stroke="white" stroke-linecap="round" stroke-linejoin="round"/>
<path d="M118.073 122.463C118.073 122.463 117.655 125.4 118.105 126.689" stroke="white" stroke-linecap="round" stroke-linejoin="round"/>
<path d="M83.221 149.203C83.8658 150.119 84.541 151.012 85.2468 151.882" stroke="white" stroke-linecap="round" stroke-linejoin="round"/>
<path d="M115.856 78.4488C115.856 78.4488 120.755 79.5433 124.114 78.9144" stroke="#263238" stroke-linecap="round" stroke-linejoin="round"/>
<path d="M72.8732 76.5942C72.8732 76.5942 71.0265 75.1773 67.2297 76.1962" stroke="#263238" stroke-linecap="round" stroke-linejoin="round"/>
<path d="M92.4066 73.7207C93.4869 74.8183 94.1847 76.2349 94.3965 77.7603" stroke="#263238" stroke-linecap="round" stroke-linejoin="round"/>
<path d="M133.312 75.0539C132.921 75.7668 132.375 76.3831 131.714 76.8576C131.054 77.3321 130.296 77.6528 129.495 77.796" stroke="#263238" stroke-linecap="round" stroke-linejoin="round"/>
<path d="M111.411 104.828C110.822 105.194 110.193 105.492 109.536 105.715" stroke="#263238" stroke-linecap="round" stroke-linejoin="round"/>
<path d="M120.461 94.9176C118.415 98.1851 115.92 101.397 112.899 103.797" stroke="#263238" stroke-linecap="round" stroke-linejoin="round"/>
<path d="M92.8722 97.011C95.288 104.242 99.4509 112.732 107.092 115.573" stroke="#263238" stroke-linecap="round" stroke-linejoin="round"/>
<path d="M91.6783 93.0828C91.8852 93.831 92.1028 94.5779 92.331 95.3235" stroke="#263238" stroke-linecap="round" stroke-linejoin="round"/>
<path d="M90.337 87.2046C90.5599 88.5299 90.8544 89.8433 91.1728 91.1487" stroke="#263238" stroke-linecap="round" stroke-linejoin="round"/>
<path d="M110.631 50.7009C110.631 50.7009 107.697 55.7912 103.558 54.7843C103.8 53.5035 103.8 52.1887 103.558 50.9079C103.809 50.7726 103.976 50.7009 103.976 50.7009H110.631Z" fill="#263238"/>
<path d="M116.346 43.6247C116.346 43.6247 118.16 41.4954 118.117 37.5155C118.041 31.092 115.259 25.0744 105.727 26.6823C101.727 27.3588 99.0012 30.1129 98.1416 34.3873C97.7436 36.3773 98.0859 38.7294 98.3167 40.9024C98.5674 43.2904 98.5714 45.3241 99.1565 47.4772C100.171 51.2303 102.225 53.7058 104.848 53.3396C107.669 52.9416 112.306 50.1119 112.41 48.5001" fill="white"/>
<path d="M116.346 43.6247C116.346 43.6247 118.16 41.4954 118.117 37.5155C118.041 31.092 115.259 25.0744 105.727 26.6823C101.727 27.3588 99.0012 30.1129 98.1416 34.3873C97.7436 36.3773 98.0859 38.7294 98.3167 40.9024C98.5674 43.2904 98.5714 45.3241 99.1565 47.4772C100.171 51.2303 102.225 53.7058 104.848 53.3396C107.669 52.9416 112.306 50.1119 112.41 48.5001" stroke="#263238" stroke-linecap="round" stroke-linejoin="round"/>
<path d="M104.883 37.3642C104.883 37.3642 106.714 36.6837 107.693 38.8328" stroke="#263238" stroke-linecap="round" stroke-linejoin="round"/>
<path d="M98.8461 36.3495C98.8461 36.3495 100.681 35.6689 101.66 37.818" stroke="#263238" stroke-linecap="round" stroke-linejoin="round"/>
<path d="M105.246 40.4208C105.246 40.8745 105.449 41.2407 105.699 41.2407C105.95 41.2407 106.157 40.8745 106.157 40.4208C106.157 39.9671 105.954 39.597 105.699 39.597C105.445 39.597 105.246 39.9631 105.246 40.4208Z" fill="#263238"/>
<path d="M99.7973 39.8955C99.7973 40.3492 100.004 40.7193 100.255 40.7193C100.506 40.7193 100.709 40.3492 100.709 39.8955C100.709 39.4418 100.506 39.0756 100.255 39.0756C100.004 39.0756 99.7973 39.4458 99.7973 39.8955Z" fill="#263238"/>
<path d="M105.317 46.5341C105.317 46.5341 103.327 47.6405 101.453 47.1549" stroke="#263238" stroke-linecap="round" stroke-linejoin="round"/>
<path d="M104.955 46.9042C104.955 46.9042 104.74 48.3489 103.387 48.4961C103.213 48.5208 103.036 48.5087 102.867 48.4605C102.699 48.4124 102.542 48.3294 102.407 48.2169C102.272 48.1043 102.163 47.9647 102.086 47.8072C102.008 47.6496 101.965 47.4776 101.958 47.3022" stroke="#263238" stroke-linecap="round" stroke-linejoin="round"/>
<path d="M101.978 39.5891C101.978 40.2856 99.1923 43.7839 99.455 44.2018C99.7177 44.6197 101.978 44.763 101.978 44.763" fill="white"/>
<path d="M101.978 39.5891C101.978 40.2856 99.1923 43.7839 99.455 44.2018C99.7177 44.6197 101.978 44.763 101.978 44.763" stroke="#263238" stroke-linecap="round" stroke-linejoin="round"/>
<path d="M111.876 42.1761H110.722C111.144 39.8956 110.324 36.5564 108.975 35.1237L110.965 32.1865C110.965 32.1865 106.141 29.6354 99.4231 30.9129C99.4231 30.9129 97.3058 29.0424 97.9426 25.162C98.964 25.908 100.178 26.3446 101.441 26.4196C101.441 26.4196 100.502 25.2655 100.697 24.0078C102.657 24.9138 104.825 25.2754 106.973 25.0545C110.75 24.7401 115.076 25.2655 118.117 29.6712C120.767 33.5238 120.027 42.4666 115.474 45.6306L114.718 44.763C114.718 44.763 116.202 39.1712 113.978 39.8956C112.374 40.4209 111.876 42.1761 111.876 42.1761Z" fill="#263238"/>
<path d="M112.23 41.2408C112.23 41.2408 113.07 39.4259 114.746 39.8956C116.421 40.3652 114.853 47.7121 112.23 46.0326" fill="white"/>
<path d="M112.23 41.2408C112.23 41.2408 113.07 39.4259 114.746 39.8956C116.421 40.3652 114.853 47.7121 112.23 46.0326" stroke="#263238" stroke-linecap="round" stroke-linejoin="round"/>
</g>
<defs>
<filter id="filter0_d_344_669" x="0.510452" y="0.5" width="168.576" height="161.148" filterUnits="userSpaceOnUse" color-interpolation-filters="sRGB">
<feFlood flood-opacity="0" result="BackgroundImageFix"/>
<feColorMatrix in="SourceAlpha" type="matrix" values="0 0 0 0 0 0 0 0 0 0 0 0 0 0 0 0 0 0 127 0" result="hardAlpha"/>
<feOffset dy="4"/>
<feGaussianBlur stdDeviation="2"/>
<feComposite in2="hardAlpha" operator="out"/>
<feColorMatrix type="matrix" values="0 0 0 0 0 0 0 0 0 0 0 0 0 0 0 0 0 0 0.25 0"/>
<feBlend mode="normal" in2="BackgroundImageFix" result="effect1_dropShadow_344_669"/>
<feBlend mode="normal" in="SourceGraphic" in2="effect1_dropShadow_344_669" result="shape"/>
</filter>
</defs>
</svg>
