<svg width="118" height="165" viewBox="0 0 118 165" fill="none" xmlns="http://www.w3.org/2000/svg">
<g filter="url(#filter0_d_344_122)">
<path opacity="0.2" d="M60.0017 96.1705C60.0017 96.1705 62.6346 108.399 56.9321 117.292C51.2296 126.185 46.8373 128.56 44.8699 131.213C42.9026 133.867 35.1703 148.703 35.1703 148.703L26.1445 121.971L35.1703 88.9L60.0017 96.1705Z" fill="black" fill-opacity="0.7"/>
<path d="M113.2 86.8244L57.2315 110.379L51.4625 112.808L40.5899 86.9741L15.3425 26.9836L77.08 1L113.2 86.8244Z" fill="white"/>
<mask id="mask0_344_122" style="mask-type:luminance" maskUnits="userSpaceOnUse" x="15" y="1" width="99" height="112">
<path d="M113.2 86.8244L57.2315 110.379L51.4625 112.808L40.5899 86.9741L15.3425 26.9836L77.08 1L113.2 86.8244Z" fill="white"/>
</mask>
<g mask="url(#mask0_344_122)">
<path d="M61.129 12.1679L34.4799 23.3982C34.2394 23.4991 34.0489 23.6915 33.9502 23.9329C33.8515 24.1743 33.8528 24.445 33.9537 24.6855C34.0547 24.926 34.247 25.1165 34.4884 25.2152C34.7298 25.3139 35.0006 25.3126 35.2411 25.2117L61.886 13.9772C62.007 13.9288 62.1172 13.8568 62.2101 13.7653C62.303 13.6738 62.3768 13.5648 62.4271 13.4445C62.4773 13.3242 62.5032 13.1951 62.503 13.0647C62.5029 12.9344 62.4768 12.8053 62.4262 12.6852C62.3757 12.565 62.3017 12.4561 62.2086 12.3648C62.1155 12.2736 62.0051 12.2018 61.884 12.1536C61.7628 12.1055 61.6333 12.0819 61.503 12.0844C61.3726 12.0868 61.2441 12.1152 61.1248 12.1679H61.129Z" fill="#263238"/>
<path d="M56.0337 18.694L42.7237 24.3009C42.6035 24.3516 42.5083 24.448 42.4592 24.5689C42.41 24.6898 42.4109 24.8253 42.4617 24.9456C42.5124 25.0658 42.6089 25.161 42.7298 25.2101C42.8507 25.2592 42.9862 25.2583 43.1064 25.2076L56.4164 19.5966C56.4789 19.5738 56.5361 19.5385 56.5845 19.4928C56.633 19.4472 56.6716 19.3922 56.6981 19.3311C56.7246 19.2701 56.7384 19.2043 56.7387 19.1378C56.739 19.0712 56.7258 19.0053 56.6998 18.944C56.6738 18.8828 56.6357 18.8274 56.5876 18.7814C56.5396 18.7353 56.4827 18.6995 56.4204 18.6761C56.3581 18.6527 56.2917 18.6423 56.2252 18.6453C56.1587 18.6484 56.0936 18.665 56.0337 18.694Z" fill="#263238"/>
<path d="M77.9578 52.8673C77.9578 52.8673 78.5193 57.2804 76.8764 57.9708C75.3748 58.603 73.3991 56.2364 71.673 56.9601C69.9469 57.6838 71.307 63.9478 69.6432 64.6466C67.9795 65.3454 65.9747 62.7749 64.5355 63.3988C63.0964 64.0227 63.9698 67.2254 62.4891 67.8493C61.2663 68.3609 59.5193 65.8029 58.1218 65.2414C57.9931 65.1787 57.8531 65.1427 57.7101 65.1355C57.5671 65.1284 57.4242 65.1502 57.2899 65.1998C55.8258 65.8154 56.5537 72.5411 55.2892 73.0693C54.9356 73.2217 54.5502 73.2859 54.1662 73.2565C53.6958 73.1678 53.2183 73.1218 52.7395 73.1192C52.5562 73.1379 52.3767 73.1842 52.2072 73.2565C51.1299 73.7099 51.2755 77.2495 50.2897 77.6654C49.3039 78.0814 48.3306 77.5656 47.2783 78.0065C46.226 78.4474 46.2426 80.29 44.6704 80.9513L45.3359 82.5277L83.6478 66.406" fill="#BFBFBF"/>
<path d="M77.9578 52.8673C77.9578 52.8673 78.5193 57.2804 76.8764 57.9708C75.3748 58.603 73.3991 56.2364 71.673 56.9601C69.9469 57.6838 71.307 63.9478 69.6432 64.6466C67.9795 65.3454 65.9747 62.7749 64.5355 63.3988C63.0964 64.0227 63.9698 67.2254 62.4891 67.8493C61.2663 68.3609 59.5193 65.8029 58.1218 65.2414C57.9931 65.1787 57.8531 65.1427 57.7101 65.1355C57.5671 65.1284 57.4242 65.1502 57.2899 65.1998C55.8258 65.8154 56.5537 72.5411 55.2892 73.0693C54.9356 73.2217 54.5502 73.2859 54.1662 73.2565C53.6958 73.1678 53.2183 73.1218 52.7395 73.1192C52.5562 73.1379 52.3767 73.1842 52.2072 73.2565C51.1299 73.7099 51.2755 77.2495 50.2897 77.6654C49.3039 78.0814 48.3306 77.5656 47.2783 78.0065C46.226 78.4474 46.2426 80.29 44.6704 80.9513L45.3359 82.5277L83.6478 66.406" stroke="#263238" stroke-miterlimit="10"/>
<path d="M37.5786 64.0643L45.3359 82.4945L85.4488 65.6158" stroke="#263238" stroke-linecap="round" stroke-linejoin="round"/>
<path d="M81.0399 60.1795C81.0399 60.1795 80.8486 59.9466 80.5657 59.6679C80.0708 59.1896 79.2846 58.5823 78.6857 58.836C78.0867 59.0898 78.0493 60.0506 78.0618 61.0904C78.0618 62.3382 78.1866 63.7108 77.5502 63.977C77.0095 64.2058 76.527 63.8647 76.0278 63.4904C75.458 63.0744 74.8757 62.6003 74.1728 62.8956C72.9915 63.3947 73.3409 64.9337 72.925 66.2522C72.812 66.6315 72.6122 66.9794 72.3415 67.2682C72.0707 67.5569 71.7365 67.7787 71.3652 67.9159C70.3461 68.3319 69.3105 67.9159 68.333 67.2588C66.6693 66.1357 65.2052 64.3139 64.2485 64.7174C62.722 65.3621 64.4024 69.4882 62.7636 70.1786C61.8486 70.5654 59.9519 67.683 58.1093 65.1874C56.6535 63.22 55.231 61.5063 54.3659 61.8599C52.3902 62.6918 55.647 72.5619 54.212 73.1651L54.1662 73.1859C53.9353 73.2811 53.6845 73.3184 53.4358 73.2945C53.1871 73.2706 52.9481 73.1862 52.7395 73.0486C52.2238 72.7574 51.7995 72.3373 51.2297 72.5786C50.1691 73.0278 50.7888 76.896 49.6242 77.3868C48.4596 77.8776 47.7566 77.1664 46.4423 77.7196C45.3317 78.1896 44.6704 80.8807 44.6704 80.8807L45.3359 82.4571L83.6478 66.3354" fill="#757575"/>
<path d="M81.0399 60.1795C81.0399 60.1795 80.8486 59.9466 80.5657 59.6679C80.0708 59.1896 79.2846 58.5823 78.6857 58.836C78.0867 59.0898 78.0493 60.0506 78.0618 61.0904C78.0618 62.3382 78.1866 63.7108 77.5502 63.977C77.0095 64.2058 76.527 63.8647 76.0278 63.4904C75.458 63.0744 74.8757 62.6003 74.1728 62.8956C72.9915 63.3947 73.3409 64.9337 72.925 66.2522C72.812 66.6315 72.6122 66.9794 72.3415 67.2682C72.0707 67.5569 71.7365 67.7787 71.3652 67.9159C70.3461 68.3319 69.3105 67.9159 68.333 67.2588C66.6693 66.1357 65.2052 64.3139 64.2485 64.7174C62.722 65.3621 64.4024 69.4882 62.7636 70.1786C61.8486 70.5654 59.9519 67.683 58.1093 65.1874C56.6535 63.22 55.231 61.5063 54.3659 61.8599C52.3902 62.6918 55.647 72.5619 54.212 73.1651L54.1662 73.1859C53.9353 73.2811 53.6845 73.3184 53.4358 73.2945C53.1871 73.2706 52.9481 73.1862 52.7395 73.0486C52.2238 72.7574 51.7995 72.3373 51.2297 72.5786C50.1691 73.0278 50.7888 76.896 49.6242 77.3868C48.4596 77.8776 47.7566 77.1664 46.4423 77.7196C45.3317 78.1896 44.6704 80.8807 44.6704 80.8807L45.3359 82.4571L83.6478 66.3354" stroke="#263238" stroke-linecap="round" stroke-linejoin="round"/>
<path d="M72.9292 73.3355L59.6192 78.9423C59.4989 78.9931 59.4038 79.0895 59.3546 79.2104C59.3055 79.3313 59.3064 79.4668 59.3571 79.587C59.4079 79.7073 59.5043 79.8024 59.6252 79.8516C59.7461 79.9007 59.8816 79.8998 60.0018 79.8491L73.3118 74.2422C73.4321 74.1915 73.5272 74.0951 73.5764 73.9742C73.6255 73.8533 73.6246 73.7178 73.5739 73.5975C73.5231 73.4773 73.4267 73.3821 73.3058 73.333C73.1849 73.2839 73.0494 73.2848 72.9292 73.3355Z" fill="#263238"/>
<path d="M83.4814 51.2622L82.1971 51.8026C82.0637 51.8588 82.001 52.0124 82.0572 52.1458L82.5976 53.4301C82.6537 53.5635 82.8073 53.6261 82.9407 53.57L84.2251 53.0296C84.3584 52.9735 84.4211 52.8199 84.365 52.6865L83.8245 51.4021C83.7684 51.2687 83.6148 51.2061 83.4814 51.2622Z" fill="#BFBFBF" stroke="#263238" stroke-miterlimit="10"/>
<path d="M90.4483 49.0823L85.1243 51.3242C85.0696 51.3452 85.0089 51.3445 84.9547 51.322C84.9005 51.2996 84.857 51.2572 84.8332 51.2036C84.811 51.15 84.8107 51.0899 84.8325 51.0362C84.8543 50.9825 84.8964 50.9395 84.9496 50.9166L90.2778 48.6747C90.3313 48.6525 90.3915 48.6522 90.4452 48.674C90.4989 48.6958 90.5419 48.7379 90.5648 48.7911C90.5764 48.8179 90.5827 48.8467 90.5831 48.8758C90.5835 48.905 90.5782 48.934 90.5674 48.961C90.5565 48.9881 90.5404 49.0128 90.52 49.0336C90.4996 49.0544 90.4752 49.071 90.4483 49.0823Z" fill="#263238"/>
<path d="M89.1964 50.6503L85.4945 52.2059C85.441 52.2281 85.3808 52.2284 85.3271 52.2066C85.2734 52.1848 85.2304 52.1427 85.2075 52.0895C85.1959 52.0627 85.1896 52.0339 85.1892 52.0048C85.1888 51.9756 85.1941 51.9466 85.2049 51.9196C85.2158 51.8925 85.2319 51.8678 85.2523 51.847C85.2727 51.8262 85.2971 51.8096 85.324 51.7983L89.0258 50.2427C89.0794 50.2205 89.1395 50.2202 89.1932 50.242C89.2469 50.2638 89.2899 50.3059 89.3128 50.3592C89.3352 50.4133 89.3356 50.474 89.3138 50.5284C89.292 50.5828 89.2499 50.6266 89.1964 50.6503Z" fill="#263238"/>
<path d="M85.1487 55.2219L83.8644 55.7623C83.731 55.8184 83.6684 55.972 83.7245 56.1054L84.2649 57.3897C84.321 57.5231 84.4747 57.5858 84.6081 57.5296L85.8924 56.9892C86.0258 56.9331 86.0884 56.7795 86.0323 56.6461L85.4919 55.3618C85.4357 55.2284 85.2821 55.1657 85.1487 55.2219Z" fill="#757575" stroke="#263238" stroke-linecap="round" stroke-linejoin="round"/>
<path d="M92.1121 53.042L86.7881 55.2798C86.7608 55.291 86.7315 55.2967 86.702 55.2966C86.6725 55.2965 86.6433 55.2905 86.6161 55.2791C86.5888 55.2678 86.5641 55.2511 86.5433 55.2302C86.5225 55.2092 86.5061 55.1844 86.4949 55.1571C86.4837 55.1298 86.478 55.1005 86.4781 55.071C86.4782 55.0415 86.4841 55.0123 86.4955 54.985C86.5069 54.9578 86.5235 54.9331 86.5445 54.9123C86.5654 54.8915 86.5903 54.875 86.6176 54.8638L91.9416 52.6219C91.9689 52.6107 91.9981 52.605 92.0276 52.6051C92.0571 52.6052 92.0864 52.6112 92.1136 52.6225C92.1408 52.6339 92.1655 52.6506 92.1863 52.6715C92.2071 52.6925 92.2236 52.7173 92.2348 52.7446C92.246 52.7719 92.2517 52.8012 92.2516 52.8307C92.2515 52.8602 92.2456 52.8894 92.2342 52.9167C92.2228 52.9439 92.2061 52.9686 92.1852 52.9894C92.1642 53.0102 92.1394 53.0267 92.1121 53.0379V53.042Z" fill="#263238"/>
<path d="M90.8601 54.6059L87.1625 56.1657C87.1073 56.1888 87.0452 56.1892 86.9898 56.1665C86.9344 56.1439 86.8903 56.1002 86.8671 56.0451C86.844 55.9899 86.8437 55.9278 86.8663 55.8724C86.8889 55.817 86.9326 55.7729 86.9878 55.7497L90.6896 54.1941C90.7169 54.1829 90.7462 54.1772 90.7757 54.1773C90.8052 54.1774 90.8344 54.1834 90.8616 54.1948C90.8889 54.2061 90.9136 54.2228 90.9344 54.2437C90.9552 54.2647 90.9716 54.2895 90.9828 54.3168C90.994 54.3442 90.9997 54.3734 90.9996 54.4029C90.9995 54.4324 90.9936 54.4616 90.9822 54.4889C90.9708 54.5161 90.9542 54.5408 90.9332 54.5616C90.9123 54.5824 90.8875 54.5989 90.8601 54.6101V54.6059Z" fill="#263238"/>
<path d="M99.1165 69.3634L55.8591 87.5648C55.7389 87.6155 55.6437 87.7119 55.5946 87.8328C55.5454 87.9537 55.5463 88.0892 55.5971 88.2095C55.6478 88.3297 55.7442 88.4249 55.8651 88.474C55.9861 88.5231 56.1215 88.5222 56.2418 88.4715L99.4992 70.266C99.5617 70.2431 99.6189 70.2078 99.6673 70.1622C99.7158 70.1165 99.7544 70.0615 99.7809 70.0005C99.8074 69.9394 99.8213 69.8737 99.8216 69.8071C99.8218 69.7406 99.8086 69.6746 99.7826 69.6134C99.7566 69.5521 99.7185 69.4968 99.6705 69.4507C99.6224 69.4046 99.5655 69.3688 99.5032 69.3454C99.4409 69.3221 99.3745 69.3116 99.308 69.3147C99.2416 69.3178 99.1764 69.3343 99.1165 69.3634Z" fill="#263238"/>
<path d="M100.489 72.6201L50.1898 93.7872C50.1273 93.81 50.0701 93.8453 50.0217 93.8909C49.9733 93.9366 49.9346 93.9916 49.9081 94.0526C49.8816 94.1137 49.8678 94.1795 49.8675 94.246C49.8672 94.3126 49.8804 94.3785 49.9064 94.4397C49.9324 94.501 49.9705 94.5563 50.0186 94.6024C50.0666 94.6485 50.1235 94.6843 50.1858 94.7077C50.2481 94.731 50.3145 94.7415 50.381 94.7384C50.4475 94.7354 50.5126 94.7188 50.5725 94.6897L100.868 73.5227C100.932 73.5014 100.991 73.4671 101.041 73.4219C101.091 73.3767 101.132 73.3216 101.16 73.26C101.188 73.1984 101.203 73.1318 101.204 73.0642C101.205 72.9965 101.192 72.9295 101.166 72.8671C101.139 72.8047 101.101 72.7485 101.052 72.7018C101.003 72.6551 100.945 72.6191 100.881 72.5959C100.818 72.5727 100.75 72.5629 100.683 72.567C100.615 72.5712 100.549 72.5893 100.489 72.6201Z" fill="#263238"/>
<path d="M101.857 75.877L51.5624 97.044C51.4999 97.0668 51.4427 97.1022 51.3943 97.1478C51.3458 97.1934 51.3072 97.2484 51.2807 97.3095C51.2542 97.3705 51.2403 97.4363 51.2401 97.5028C51.2398 97.5694 51.253 97.6353 51.279 97.6966C51.305 97.7578 51.3431 97.8132 51.3912 97.8593C51.4392 97.9053 51.4961 97.9411 51.5584 97.9645C51.6207 97.9879 51.6871 97.9984 51.7536 97.9953C51.8201 97.9922 51.8852 97.9756 51.9451 97.9466L102.232 76.7796C102.294 76.7567 102.352 76.7214 102.4 76.6758C102.448 76.6301 102.487 76.5751 102.514 76.5141C102.54 76.4531 102.554 76.3873 102.554 76.3207C102.554 76.2542 102.541 76.1883 102.515 76.127C102.489 76.0657 102.451 76.0104 102.403 75.9643C102.355 75.9183 102.298 75.8824 102.236 75.8591C102.174 75.8357 102.107 75.8252 102.041 75.8283C101.974 75.8314 101.909 75.8479 101.849 75.877H101.857Z" fill="#263238"/>
<path d="M103.23 79.1338L52.9351 100.284C52.8709 100.305 52.8118 100.34 52.7615 100.385C52.7112 100.43 52.6708 100.485 52.6429 100.547C52.6149 100.608 52.5999 100.675 52.5989 100.743C52.5979 100.81 52.6109 100.877 52.6371 100.94C52.6632 101.002 52.702 101.058 52.7509 101.105C52.7998 101.152 52.8579 101.188 52.9214 101.211C52.9849 101.234 53.0525 101.244 53.12 101.24C53.1875 101.236 53.2534 101.218 53.3136 101.187L103.609 80.0197C103.673 79.9984 103.732 79.9641 103.782 79.9189C103.832 79.8737 103.873 79.8186 103.901 79.757C103.929 79.6954 103.944 79.6288 103.945 79.5612C103.946 79.4936 103.933 79.4265 103.907 79.3641C103.88 79.3018 103.842 79.2455 103.793 79.1988C103.744 79.1521 103.686 79.1161 103.622 79.0929C103.559 79.0697 103.491 79.0599 103.424 79.064C103.356 79.0682 103.29 79.0863 103.23 79.1171V79.1338Z" fill="#263238"/>
<path d="M83.473 91.2791L54.3034 103.558C54.2409 103.58 54.1837 103.616 54.1352 103.661C54.0868 103.707 54.0482 103.762 54.0216 103.823C53.9951 103.884 53.9813 103.95 53.981 104.016C53.9807 104.083 53.994 104.149 54.02 104.21C54.0459 104.271 54.0841 104.327 54.1321 104.373C54.1802 104.419 54.2371 104.455 54.2994 104.478C54.3617 104.501 54.4281 104.512 54.4945 104.509C54.561 104.506 54.6262 104.489 54.6861 104.46L83.8557 92.1858C83.9152 92.1607 83.9692 92.1241 84.0146 92.0781C84.06 92.0321 84.0959 91.9776 84.1202 91.9177C84.1446 91.8579 84.1569 91.7938 84.1564 91.7292C84.156 91.6646 84.1429 91.6007 84.1177 91.5411C84.0926 91.4816 84.056 91.4276 84.01 91.3822C83.964 91.3368 83.9095 91.3009 83.8497 91.2766C83.7898 91.2522 83.7257 91.2399 83.6611 91.2404C83.5965 91.2408 83.5326 91.254 83.473 91.2791Z" fill="#263238"/>
<path d="M67.4096 27.7863C67.4096 27.7863 67.9711 32.2036 66.3281 32.894C64.8266 33.5263 62.8468 31.1596 61.1248 31.8833C59.4028 32.6071 60.7587 38.8669 59.095 39.5698C57.4313 40.2728 55.4223 37.6981 53.9873 38.3012C52.5523 38.9043 53.4216 42.1278 51.9409 42.7476C50.718 43.2633 48.9711 40.7053 47.5736 40.1438C47.4449 40.0811 47.3048 40.0451 47.1619 40.038C47.0189 40.0308 46.876 40.0527 46.7417 40.1022C45.2776 40.7178 46.0055 47.4394 44.741 47.9718C44.3877 48.125 44.0017 48.1879 43.618 48.1548C43.1471 48.0698 42.6698 48.0253 42.1913 48.0217C42.0079 48.0398 41.8283 48.0861 41.6589 48.1589C40.5817 48.6123 40.7272 52.1519 39.7415 52.5637C38.7557 52.9755 37.7824 52.468 36.7301 52.9089C35.6778 53.3498 35.6944 55.1924 34.1222 55.8537L34.7877 57.4302L73.1162 41.3085" fill="#BFBFBF"/>
<path d="M67.4096 27.7863C67.4096 27.7863 67.9711 32.2036 66.3281 32.894C64.8266 33.5263 62.8468 31.1596 61.1248 31.8833C59.4028 32.6071 60.7587 38.8669 59.095 39.5698C57.4313 40.2728 55.4223 37.6981 53.9873 38.3012C52.5523 38.9043 53.4216 42.1278 51.9409 42.7476C50.718 43.2633 48.9711 40.7053 47.5736 40.1438C47.4449 40.0811 47.3048 40.0451 47.1619 40.038C47.0189 40.0308 46.876 40.0527 46.7417 40.1022C45.2776 40.7178 46.0055 47.4394 44.741 47.9718C44.3877 48.125 44.0017 48.1879 43.618 48.1548C43.1471 48.0698 42.6698 48.0253 42.1913 48.0217C42.0079 48.0398 41.8283 48.0861 41.6589 48.1589C40.5817 48.6123 40.7272 52.1519 39.7415 52.5637C38.7557 52.9755 37.7824 52.468 36.7301 52.9089C35.6778 53.3498 35.6944 55.1924 34.1222 55.8537L34.7877 57.4302L73.1162 41.3085" stroke="#263238" stroke-miterlimit="10"/>
<path d="M69.8845 33.6718C69.8845 33.6718 70.2339 35.8097 69.3895 36.1674C68.6866 36.4627 68.254 36.0509 67.5137 36.026C67.1521 36.015 66.7927 36.0846 66.4614 36.2298C65.7834 36.5126 65.6295 37.4277 65.5005 38.4093C65.3508 39.6197 65.2759 40.934 64.39 41.3209C63.7702 41.5829 63.1006 41.429 62.4101 41.1878C61.3079 40.8051 60.1516 40.1978 59.0327 40.6678C58.492 40.8966 58.1135 41.4997 57.8182 42.211C57.1236 43.9288 56.9073 46.4161 56.1544 46.7322C55.0855 47.1856 53.1264 45.3471 52.1781 45.7464C51.2298 46.1457 51.6166 47.7928 50.8471 48.1173C50.0776 48.4417 49.6367 47.485 48.2808 48.0549C46.9248 48.6247 47.5861 50.6295 45.6728 51.4364C43.7595 52.2434 42.9193 50.7585 41.0726 51.5363C39.2258 52.3141 39.5586 53.7199 38.2525 54.269C36.9465 54.818 36.3974 53.853 35.4658 54.269C34.5341 54.6849 34.3094 56.1365 34.297 56.228L34.8086 57.4426L73.1163 41.3084" fill="#92E3A9"/>
<path d="M69.8845 33.6718C69.8845 33.6718 70.2339 35.8097 69.3895 36.1674C68.6866 36.4627 68.254 36.0509 67.5137 36.026C67.1521 36.015 66.7927 36.0846 66.4614 36.2298C65.7834 36.5126 65.6295 37.4277 65.5005 38.4093C65.3508 39.6197 65.2759 40.934 64.39 41.3209C63.7702 41.5829 63.1006 41.429 62.4101 41.1878C61.3079 40.8051 60.1516 40.1978 59.0327 40.6678C58.492 40.8966 58.1135 41.4997 57.8182 42.211C57.1236 43.9288 56.9073 46.4161 56.1544 46.7322C55.0855 47.1856 53.1264 45.3471 52.1781 45.7464C51.2298 46.1457 51.6166 47.7928 50.8471 48.1173C50.0776 48.4417 49.6367 47.485 48.2808 48.0549C46.9248 48.6247 47.5861 50.6295 45.6728 51.4364C43.7595 52.2434 42.9193 50.7585 41.0726 51.5363C39.2258 52.3141 39.5586 53.7199 38.2525 54.269C36.9465 54.818 36.3974 53.853 35.4658 54.269C34.5341 54.6849 34.3094 56.1365 34.297 56.228L34.8086 57.4426L73.1163 41.3084" stroke="#263238" stroke-miterlimit="10"/>
<path d="M27.0305 39L34.7877 57.4302L74.8965 40.5473" stroke="#263238" stroke-linecap="round" stroke-linejoin="round"/>
<path d="M62.2603 47.9842L48.9503 53.591C48.8301 53.6412 48.7347 53.7371 48.6852 53.8576C48.6357 53.9781 48.636 54.1134 48.6862 54.2336C48.7364 54.3539 48.8323 54.4493 48.9528 54.4988C49.0734 54.5483 49.2086 54.5479 49.3288 54.4978L62.6388 48.8909C62.6984 48.8658 62.7524 48.8292 62.7978 48.7832C62.8431 48.7372 62.879 48.6827 62.9034 48.6228C62.9277 48.563 62.94 48.4989 62.9396 48.4343C62.9391 48.3697 62.926 48.3058 62.9009 48.2462C62.8757 48.1867 62.8391 48.1327 62.7931 48.0873C62.7471 48.0419 62.6926 48.006 62.6328 47.9817C62.5729 47.9574 62.5088 47.945 62.4442 47.9455C62.3796 47.9459 62.3157 47.9591 62.2562 47.9842H62.2603Z" fill="#263238"/>
<path d="M72.2585 24.5974L70.9742 25.1378C70.8408 25.1939 70.7781 25.3475 70.8343 25.4809L71.3747 26.7653C71.4308 26.8987 71.5844 26.9613 71.7178 26.9052L73.0022 26.3648C73.1355 26.3086 73.1982 26.155 73.1421 26.0216L72.6016 24.7373C72.5455 24.6039 72.3919 24.5412 72.2585 24.5974Z" fill="#BFBFBF" stroke="#263238" stroke-miterlimit="10"/>
<path d="M79.2264 22.4166L73.9024 24.6585C73.8477 24.6796 73.787 24.6788 73.7328 24.6563C73.6786 24.6339 73.6351 24.5915 73.6113 24.5379C73.5893 24.4838 73.5897 24.4233 73.6123 24.3695C73.6349 24.3157 73.6779 24.273 73.7319 24.2509L79.0559 22.009C79.11 21.987 79.1705 21.9874 79.2243 22.01C79.2781 22.0326 79.3208 22.0756 79.3429 22.1296C79.3545 22.1561 79.3606 22.1846 79.361 22.2134C79.3614 22.2423 79.356 22.2709 79.3452 22.2977C79.3343 22.3244 79.3182 22.3487 79.2978 22.3691C79.2774 22.3896 79.2532 22.4057 79.2264 22.4166Z" fill="#263238"/>
<path d="M77.9744 23.9846L74.2725 25.5402C74.2174 25.5628 74.1555 25.5626 74.1005 25.5396C74.0455 25.5166 74.0019 25.4727 73.9793 25.4175C73.9567 25.3624 73.9569 25.3005 73.9799 25.2455C74.0029 25.1905 74.0468 25.1469 74.102 25.1243L77.8038 23.5645C77.8574 23.5423 77.9175 23.5421 77.9712 23.5639C78.0249 23.5857 78.0679 23.6277 78.0908 23.681C78.1039 23.7085 78.1112 23.7383 78.1124 23.7687C78.1135 23.7991 78.1085 23.8294 78.0976 23.8577C78.0867 23.8861 78.0702 23.912 78.049 23.9338C78.0278 23.9556 78.0024 23.9729 77.9744 23.9846Z" fill="#263238"/>
<path d="M73.9299 28.5569L72.6456 29.0973C72.5122 29.1534 72.4495 29.3071 72.5057 29.4405L73.0461 30.7248C73.1022 30.8582 73.2558 30.9208 73.3892 30.8647L74.6735 30.3243C74.8069 30.2682 74.8696 30.1145 74.8134 29.9811L74.273 28.6968C74.2169 28.5634 74.0633 28.5008 73.9299 28.5569Z" fill="#92E3A9" stroke="#263238" stroke-miterlimit="10"/>
<path d="M80.8901 26.3763L75.5661 28.6182C75.512 28.6402 75.4515 28.6398 75.3977 28.6172C75.3439 28.5946 75.3012 28.5516 75.2791 28.4976C75.2675 28.4711 75.2614 28.4426 75.261 28.4138C75.2606 28.3849 75.266 28.3563 75.2768 28.3295C75.2877 28.3028 75.3038 28.2785 75.3242 28.258C75.3446 28.2376 75.3688 28.2215 75.3956 28.2106L80.7196 25.9687C80.7469 25.9575 80.7761 25.9518 80.8056 25.9519C80.8352 25.952 80.8644 25.9579 80.8916 25.9693C80.9188 25.9807 80.9435 25.9973 80.9643 26.0183C80.9851 26.0392 81.0016 26.0641 81.0128 26.0914C81.024 26.1187 81.0297 26.1479 81.0296 26.1775C81.0295 26.207 81.0236 26.2362 81.0122 26.2634C81.0008 26.2906 80.9841 26.3154 80.9632 26.3361C80.9422 26.3569 80.9174 26.3734 80.8901 26.3846V26.3763Z" fill="#263238"/>
<path d="M79.6382 27.9444L75.9405 29.5C75.8853 29.5232 75.8232 29.5235 75.7678 29.5009C75.7125 29.4783 75.6683 29.4346 75.6452 29.3794C75.622 29.3242 75.6217 29.2622 75.6443 29.2068C75.6669 29.1514 75.7106 29.1073 75.7658 29.0841L79.4676 27.5285C79.4949 27.5173 79.5242 27.5116 79.5537 27.5117C79.5832 27.5118 79.6124 27.5177 79.6396 27.5291C79.6669 27.5405 79.6916 27.5571 79.7124 27.5781C79.7332 27.599 79.7497 27.6239 79.7609 27.6512C79.7721 27.6785 79.7778 27.7077 79.7777 27.7373C79.7776 27.7668 79.7716 27.796 79.7602 27.8232C79.7488 27.8504 79.7322 27.8752 79.7113 27.896C79.6903 27.9168 79.6655 27.9332 79.6382 27.9444Z" fill="#263238"/>
<path opacity="0.2" d="M57.2317 110.379L51.4626 112.808L40.59 86.9741C41.5612 86.0106 42.1982 84.7614 42.4077 83.4095C43.0565 79.9489 42.599 68.8226 51.263 67.6746C59.9269 66.5266 52.6189 86.0091 53.0182 89.7193C53.3842 93.105 58.3214 102.934 57.2317 110.379Z" fill="black" fill-opacity="0.7"/>
</g>
<path d="M113.2 86.8244L57.2315 110.379L51.4625 112.808L40.5899 86.9741L15.3425 26.9836L77.08 1L113.2 86.8244Z" stroke="#263238" stroke-linecap="round" stroke-linejoin="round"/>
<path d="M53.746 91.1335C54.7193 87.806 58.5127 77.1497 58.0135 72.4371C57.9729 72.0449 57.8835 71.6592 57.7473 71.2891C56.4163 67.7703 50.9759 68.1114 48.8837 71.0271C46.5919 74.234 44.7244 80.0072 44.558 83.5052C44.4109 85.26 43.84 86.9528 42.8942 88.4382C42.5675 88.987 42.199 89.5099 41.792 90.0021L29.3888 60.5746C28.1357 61.618 27.0414 62.8384 26.1403 64.1974C25.6337 64.9554 25.3065 65.8188 25.1837 66.7222C24.9299 69.6254 21.644 81.5669 20.2922 86.5582C20.2631 86.6663 20.234 86.7703 20.2091 86.8701C18.8947 91.7033 22.3636 109.655 21.3695 114.871C20.3754 120.087 19.764 119.966 19.6184 123.672C19.5144 126.376 15.6462 134.595 11.2997 143.034C8.80407 147.871 6.17535 152.771 4 156.76L35.7443 155.441C36.2933 151.586 36.859 147.514 37.3748 143.571C37.5989 141.931 37.9156 140.304 38.3231 138.7C39.0219 135.872 39.8745 133.314 40.4028 131.816C41.0773 129.617 41.6327 127.383 42.0665 125.124C45.76 121.214 50.6016 115.071 52.0033 110.911V110.882C52.3465 110.028 52.4557 109.097 52.3194 108.187C52.1647 107.439 52.0798 106.679 52.0656 105.916C51.9034 101.399 52.9308 93.8995 53.746 91.1335Z" fill="white"/>
<path opacity="0.4" d="M42.9025 88.4674C41.9167 90.4431 40.7313 92.3605 39.9909 94.5733C39.2506 96.7861 38.4229 97.1022 36.2018 98.8367C33.9807 100.571 32.3585 97.7137 32.3585 97.7137C32.3585 97.7137 35.2992 94.6607 34.3217 92.9595C33.3443 91.2583 29.684 87.0282 29.9003 84.6948C30.1166 82.3614 27.6834 77.129 27.6834 77.129C27.6834 77.129 33.2278 73.8722 32.1505 70.058C31.5641 67.9783 28.6608 65.7614 26.1569 64.185C27.058 62.826 28.1523 61.6056 29.4054 60.5622L41.8169 90.0188C42.2176 89.53 42.5806 89.0113 42.9025 88.4674Z" fill="#92E3A9"/>
<path opacity="0.4" d="M22.7879 106.523C22.8627 106.773 24.6679 112.733 23.1456 115.216C21.6233 117.699 20.0593 120.994 20.8039 124.367C21.3945 127.062 16.4033 136.795 11.3163 143.042C15.6504 134.603 19.5186 126.384 19.6351 123.681C19.7807 119.975 20.3921 120.087 21.3862 114.879C22.3803 109.672 18.8906 91.7117 20.2257 86.8785C20.2507 86.7787 20.2798 86.6747 20.3089 86.5665C21.278 92.0444 23.5324 102.954 24.1522 106.461C24.9133 110.936 22.8544 106.71 22.7879 106.523Z" fill="#92E3A9"/>
<path opacity="0.4" d="M34.2011 142.502C37.8905 126.617 50.3062 114.438 51.9866 110.911C50.5849 115.071 45.7475 121.214 42.0499 125.124C41.616 127.383 41.0607 129.617 40.3861 131.816C39.8662 133.314 39.0135 135.872 38.3064 138.7C34.7169 142.955 34.2011 142.502 34.2011 142.502Z" fill="#92E3A9"/>
<path opacity="0.4" d="M53.7461 91.1335C52.9142 93.8995 51.9035 101.399 52.0615 105.903C51.4085 103.075 50.1524 99.4813 49.9444 94.4776C49.5909 85.9925 54.3991 89.0538 52.7353 84.857C51.0716 80.6602 46.28 86.0341 48.6342 77.1871C50.352 70.7276 55.2476 70.7859 57.7599 71.2891C57.896 71.6592 57.9855 72.0449 58.0261 72.4371C58.5127 77.1497 54.7194 87.806 53.7461 91.1335Z" fill="#92E3A9"/>
<path d="M8.82907 148.004C12.8054 140.73 16.6778 133.247 19.4604 125.178C19.7932 124.017 19.3481 122.503 19.685 121.343C23.4534 110.865 19.1776 99.9554 19.8805 89.2201C20.4753 84.99 21.8271 80.735 23.2038 76.4633C23.8402 73.3812 24.0773 69.929 25.0964 66.8261C26.1445 64.4885 27.176 61.7725 29.4096 60.587C33.6522 70.3075 37.8781 80.0737 41.8212 90.0437C43.6055 89.0121 43.9009 86.7162 44.192 84.7821C45.1487 80.1527 46.1178 75.9101 47.8689 72.0128C49.6491 68.8808 54.1828 67.5457 56.9654 70.1037C57.7633 70.9033 58.2196 71.9814 58.2382 73.1109C57.6975 78.4848 56.0088 83.9252 54.3076 88.9498C53.6379 91.2707 52.9558 93.2131 52.6688 95.5174C52.6979 96.2827 52.7146 96.6612 52.7478 97.4265C51.7621 101.291 52.6688 104.693 52.4442 108.528C51.5832 115.445 46.0471 120.261 42.0458 125.398C41.0558 129.262 40.0701 133.126 38.7183 137.007C37.0545 142.83 36.5221 148.57 35.9523 154.164" stroke="#263238" stroke-linecap="round" stroke-linejoin="round"/>
<path d="M41.8045 90.0312C41.0515 91.4837 40.4387 93.0046 39.9743 94.5733C39.4544 96.6114 36.8215 96.3202 35.4614 97.5847" stroke="#263238" stroke-linecap="round" stroke-linejoin="round"/>
<path d="M31.8719 86.4417C31.8719 86.4417 35.4531 87.6895 37.5411 89.3325C39.6291 90.9754 41.1681 91.3581 41.1681 91.3581" stroke="#263238" stroke-linecap="round" stroke-linejoin="round"/>
<path d="M29.5884 77.5614C29.5884 77.5614 32.5 78.3725 34.6213 77.3535C34.7181 76.3156 34.9003 75.2876 35.1662 74.2797" stroke="#263238" stroke-linecap="round" stroke-linejoin="round"/>
<path d="M35.3117 77.7736C35.3117 77.7736 35.3408 78.1895 36.8132 78.1895" stroke="#263238" stroke-linecap="round" stroke-linejoin="round"/>
<path d="M42.0499 125.124C40.0318 127.161 38.4818 129.614 37.5079 132.311" stroke="#263238" stroke-linecap="round" stroke-linejoin="round"/>
<path d="M20.026 87.7727C19.8929 90.2684 22.8211 99.1195 23.7071 103.52C24.593 107.921 24.9299 111.032 24.9299 111.032" stroke="#263238" stroke-linecap="round" stroke-linejoin="round"/>
</g>
<defs>
<filter id="filter0_d_344_122" x="0" y="0.5" width="117.7" height="164.26" filterUnits="userSpaceOnUse" color-interpolation-filters="sRGB">
<feFlood flood-opacity="0" result="BackgroundImageFix"/>
<feColorMatrix in="SourceAlpha" type="matrix" values="0 0 0 0 0 0 0 0 0 0 0 0 0 0 0 0 0 0 127 0" result="hardAlpha"/>
<feOffset dy="4"/>
<feGaussianBlur stdDeviation="2"/>
<feComposite in2="hardAlpha" operator="out"/>
<feColorMatrix type="matrix" values="0 0 0 0 0 0 0 0 0 0 0 0 0 0 0 0 0 0 0.25 0"/>
<feBlend mode="normal" in2="BackgroundImageFix" result="effect1_dropShadow_344_122"/>
<feBlend mode="normal" in="SourceGraphic" in2="effect1_dropShadow_344_122" result="shape"/>
</filter>
</defs>
</svg>
