<svg width="145" height="112" viewBox="0 0 145 112" fill="none" xmlns="http://www.w3.org/2000/svg">
<g filter="url(#filter0_d_344_10)">
<path d="M124.261 70.9182V4.03938C124.261 2.96807 123.835 1.94064 123.075 1.18311C122.316 0.425577 121.286 0 120.212 0H24.7924C23.718 -6.01312e-07 22.6876 0.425438 21.9275 1.18285C21.1674 1.94025 20.7398 2.96767 20.7386 4.03938V70.9182H124.261Z" fill="#263238"/>
<path d="M20.5067 70.9182L5.35645 101.884H139.644L124.03 70.9182H20.5067Z" fill="white" stroke="#263238" stroke-width="1.05102" stroke-miterlimit="10"/>
<path d="M140 101.884H5V103.777H140V101.884Z" fill="#263238"/>
<path d="M117.635 6.06104H27.1328V64.3719H117.635V6.06104Z" fill="#DBDBDB"/>
<path d="M33.6945 72.6L32.3504 75.793H39.1783L40.4108 72.6H33.6945ZM25.3679 76.2418L23.6888 80.0203H30.0959L31.6805 76.2418H25.3679ZM23.487 80.4691L21.8079 84.2434H28.3223L29.9069 80.4691H23.487ZM45.564 80.4691L44.4346 84.2434H49.957L50.7858 80.4691H45.564ZM57.588 76.2418L57.0856 80.0203H62.3203L62.6639 76.2418H57.588ZM51.2711 80.4691L50.4122 84.2434H56.055L56.5574 80.4691H51.2711ZM57.0298 80.4691L56.5316 84.2434H61.9296L62.2774 80.4691H57.0298ZM63.1234 76.2418L62.7755 80.0203H67.8986L68.0876 76.2418H63.1234ZM63.454 72.6L63.162 75.793H68.1091L68.2722 72.6H63.454ZM73.6144 76.2418H68.5385L68.3495 80.0203H73.653L73.6144 76.2418ZM62.7283 80.4691L62.3848 84.2434H67.6882L67.8729 80.4691H62.7283ZM73.6616 80.4691H68.3281L68.1348 84.2434H73.6916L73.6616 80.4691ZM79.1111 80.4691H74.1082L74.1426 84.2434H79.3172L79.1111 80.4691ZM84.0237 72.6H79.1583L79.3301 75.793H84.3544L84.0237 72.6ZM84.4059 76.2418H79.3387L79.5405 80.0203H84.8096L84.4059 76.2418ZM89.2971 72.6H84.4704L84.8096 75.793H89.7824L89.2971 72.6ZM89.8554 76.2418H84.8568L85.2562 80.0203H90.4308L89.8554 76.2418ZM84.8526 80.4691H79.5877L79.7896 84.2434H85.2734L84.8526 80.4691ZM90.5039 80.4691H85.3077L85.7071 84.2434H91.0879L90.5039 80.4691ZM117.077 76.2418H112.078L113.405 80.0203H118.559L117.077 76.2418ZM103.507 84.6922H97.5937L98.3238 88.5904H104.495L103.507 84.6922ZM113.083 80.4691H108.892L110.086 84.2434H114.415L113.083 80.4691ZM118.713 80.4691H113.56L114.883 84.2434H120.186L118.713 80.4691ZM28.6187 84.6922L26.9825 88.5904H34.2313L35.7386 84.6922H28.6187ZM127.555 89.0392H122.531L124.36 93.7154H123.875L122.05 89.0392H19.6693L17.5909 93.7154H129.561L127.555 89.0392ZM21.6146 84.6922L19.8969 88.5904H26.5273L28.1592 84.6922H21.6146ZM120.384 84.6922H115.046L116.411 88.5904H121.887L120.384 84.6922ZM125.709 84.6922H120.847L122.376 88.5904H127.366L125.709 84.6922ZM123.905 80.4691H119.203L120.676 84.2434H125.502L123.905 80.4691ZM114.586 84.6922H110.249L111.482 88.5904H115.956L114.586 84.6922ZM109.772 84.6922H103.966L104.976 88.5904H110.988L109.772 84.6922ZM97.1557 84.6922H91.6118L92.213 88.5904H97.8643L97.1557 84.6922ZM91.1695 84.6922H85.7543L86.1623 88.5904H91.7449L91.1695 84.6922ZM85.3163 84.6922H79.7939L80.0043 88.5904H85.7114L85.3163 84.6922ZM79.3558 84.6922H74.1468L74.1898 88.5904H79.5491L79.3558 84.6922ZM73.7131 84.6922H68.1305L67.9373 88.5904H73.7561L73.7131 84.6922ZM62.3547 84.6922L61.9983 88.5904H67.4821L67.6796 84.6922H62.3547ZM56.4844 84.6922L55.9691 88.5904H61.5517L61.9124 84.6922H56.4844ZM50.3521 84.6922L49.4933 88.5904H55.5053L56.0163 84.6922H50.3521ZM44.3401 84.6922L43.1763 88.5904H49.0509L49.9098 84.6922H44.3401ZM36.2625 84.6922L34.7552 88.5904H42.6567L43.8248 84.6922H36.2625ZM108.454 80.4691H102.914L103.885 84.2434H109.648L108.454 80.4691ZM122.11 76.2418H117.554L119.031 80.0203H123.69L122.11 76.2418ZM120.607 72.7368L120.551 72.6H116.132L117.378 75.793H121.882L120.607 72.7368ZM115.66 72.6H110.803L111.92 75.793H116.897L115.66 72.6ZM110.331 72.6H106.414L107.423 75.793H111.451L110.331 72.6ZM111.619 76.2418H107.574L108.772 80.0203H112.946L111.619 76.2418ZM107.101 76.2418H101.794L102.768 80.0203H108.278L107.101 76.2418ZM105.95 72.6H100.857L101.682 75.793H106.938L105.95 72.6ZM102.438 80.4691H96.8122L97.5121 84.2434H103.391L102.438 80.4691ZM96.3699 80.4691H90.9548L91.5388 84.2434H97.0527L96.3699 80.4691ZM101.351 76.2418H96.022L96.7263 80.0203H102.309L101.351 76.2418ZM100.411 72.6H95.3435L95.9404 75.793H101.214L100.411 72.6ZM95.5797 76.2418H90.3235L90.9075 80.0203H96.284L95.5797 76.2418ZM94.9055 72.6H89.7524L90.2419 75.793H95.4767L94.9055 72.6ZM78.8964 76.2418H74.061L74.1039 80.0203H79.0853L78.8964 76.2418ZM78.7031 72.6H74.0266L74.0567 75.793H78.8577L78.7031 72.6ZM73.5929 72.6H68.7189L68.56 75.793H73.6058L73.5929 72.6ZM58.0862 72.6L57.6567 75.793H62.7197L63.0117 72.6H58.0862ZM53.0146 72.6L52.3103 75.793H57.2101L57.6396 72.6H53.0146ZM52.2116 76.2418L51.3828 80.0203H56.6476L57.1457 76.2418H52.2116ZM47.9173 72.6L46.951 75.793H51.8251L52.525 72.6H47.9173ZM46.8265 76.2418L45.7057 80.0203H50.9018L51.7349 76.2418H46.8265ZM40.9004 72.6L39.6507 75.793H46.4744L47.4234 72.6H40.9004ZM39.4961 76.2418L38.0361 80.0203H45.2333L46.3627 76.2418H39.4961ZM37.86 80.4691L36.4042 84.2434H43.9708L45.1002 80.4691H37.86ZM30.4008 80.4691L28.8162 84.2434H35.9147L37.3747 80.4691H30.4008ZM32.1743 76.2418L30.5897 80.0203H37.5465L39.0066 76.2418H32.1743ZM26.9911 72.6L25.5697 75.793H31.8737L33.2136 72.6H26.9911ZM111.589 76.2418H107.544L108.742 80.0203H112.916L111.589 76.2418Z" fill="#263238"/>
<path d="M34.5448 89.0393L34.4589 89.2663L34.0381 89.1035L34.0595 89.0393H34.5448Z" fill="#263238"/>
<path d="M26.7979 89.0393L26.7549 89.1463L26.493 89.0393H26.7979Z" fill="#263238"/>
<path d="M65.5292 13.352L58.0242 18.9536L66.4972 17.9524L71.3389 19.3588L70.7337 13.4712L65.5292 13.352Z" fill="#92E3A9"/>
<mask id="mask0_344_10" style="mask-type:luminance" maskUnits="userSpaceOnUse" x="58" y="13" width="14" height="7">
<path d="M65.5292 13.352L58.0242 18.9536L66.4972 17.9524L71.3389 19.3588L70.7337 13.4712L65.5292 13.352Z" fill="white"/>
</mask>
<g mask="url(#mask0_344_10)">
<path d="M66.8346 17.6512L59.8381 18.4782L66.3768 13.597L69.6165 13.6711L70.1251 18.6067L66.8346 17.6512Z" fill="#5DA850"/>
<path opacity="0.3" d="M70.8727 14.8179L70.7337 13.4718L65.5326 13.3519L63.9272 14.5501C64.5002 14.7775 64.8935 15.0796 65.8988 15.144C67.255 15.2301 69.0605 14.8102 70.5557 14.8102C70.6624 14.8108 70.7685 14.8134 70.8727 14.8179Z" fill="black"/>
</g>
<path d="M75.8721 13.3947L87.8323 18.6874L79.934 17.9016L75.0194 19.507L70.832 13.6764L75.8721 13.3947Z" fill="#92E3A9"/>
<mask id="mask1_344_10" style="mask-type:luminance" maskUnits="userSpaceOnUse" x="70" y="13" width="18" height="7">
<path d="M75.8721 13.3947L87.8323 18.6874L79.934 17.9016L75.0194 19.507L70.832 13.6764L75.8721 13.3947Z" fill="white"/>
</mask>
<g mask="url(#mask1_344_10)">
<path d="M72.0967 13.8384L75.2347 13.6631L85.4946 18.204L79.5051 17.6078L75.6975 18.852L72.0967 13.8384Z" fill="#5DA850"/>
<path opacity="0.3" d="M75.8739 13.3947L70.8338 13.6764L71.6357 14.7895H71.7103C73.2055 14.7895 75.0195 15.2078 76.3689 15.1216C77.403 15.0549 77.7895 14.7367 78.3914 14.5074L75.8739 13.3947Z" fill="black"/>
</g>
<path d="M86.7762 11.9361C86.7762 12.2306 84.1773 12.4406 83.7382 12.706C83.2856 12.9814 84.7452 13.4514 83.8976 13.6808C83.0499 13.9102 80.3155 13.7833 79.1406 13.9515C77.9658 14.1198 77.7624 14.67 76.3638 14.7591C75.0075 14.8456 73.2004 14.4253 71.7051 14.4253C70.2099 14.4253 68.3976 14.8439 67.0482 14.7591C65.6496 14.67 65.4343 14.1185 64.2713 13.9515C63.1083 13.7846 60.3721 13.9122 59.5126 13.6808C58.6531 13.4494 60.1263 12.9814 59.672 12.7063C59.2346 12.4392 56.6357 12.2306 56.6357 11.9361C56.6357 11.6417 59.2346 11.4317 59.672 11.1663C60.1263 10.8909 58.6667 10.4208 59.5126 10.1915C60.3586 9.9621 63.0948 10.089 64.2713 9.9207C65.4478 9.75245 65.6496 9.20227 67.0482 9.11313C68.4044 9.02667 70.2099 9.44531 71.7051 9.44531C73.2004 9.44531 75.0143 9.02667 76.3638 9.11313C77.7607 9.20227 77.976 9.75378 79.1406 9.9207C80.3053 10.0876 83.0398 9.9601 83.8976 10.1915C84.7554 10.4228 83.2856 10.8925 83.7382 11.1659C84.1807 11.4304 86.7762 11.6403 86.7762 11.9361Z" fill="#5DA850"/>
<path opacity="0.6" d="M85.1318 11.9362C85.1318 12.1986 82.816 12.3855 82.4194 12.6222C82.0142 12.8676 83.3145 13.2862 82.5601 13.4902C81.8057 13.6942 79.3695 13.5817 78.3219 13.7316C77.2742 13.8815 77.0945 14.3716 75.8484 14.4514C74.6465 14.5281 73.0309 14.1552 71.6984 14.1552C70.3659 14.1552 68.7537 14.5268 67.5568 14.45C66.3108 14.3702 66.1192 13.8791 65.0817 13.7302C64.0442 13.5814 61.6064 13.6952 60.8435 13.4889C60.0806 13.2826 61.3894 12.8663 60.9859 12.6209C60.5943 12.3842 58.2734 12.1972 58.2734 11.9348C58.2734 11.6724 60.5875 11.4855 60.9859 11.2488C61.3894 11.0034 60.0891 10.5848 60.8435 10.3808C61.5979 10.1768 64.0357 10.2893 65.0817 10.1394C66.1277 9.98952 66.3108 9.49943 67.5568 9.41964C68.7571 9.34286 70.3744 9.71576 71.7052 9.71576C73.036 9.71576 74.6533 9.34286 75.8552 9.41964C77.1013 9.49943 77.2928 9.99052 78.3286 10.1394C79.3645 10.2883 81.8057 10.1728 82.5668 10.3808C83.328 10.5888 82.021 11.0034 82.4261 11.2488C82.8245 11.4855 85.1318 11.6724 85.1318 11.9362Z" fill="white"/>
<path d="M71.7052 14.1395C77.8884 14.1395 82.9008 13.1524 82.9008 11.9348C82.9008 10.7172 77.8884 9.73007 71.7052 9.73007C65.522 9.73007 60.5095 10.7172 60.5095 11.9348C60.5095 13.1524 65.522 14.1395 71.7052 14.1395Z" fill="white"/>
</g>
<defs>
<filter id="filter0_d_344_10" x="0.514282" y="0" width="143.983" height="111.777" filterUnits="userSpaceOnUse" color-interpolation-filters="sRGB">
<feFlood flood-opacity="0" result="BackgroundImageFix"/>
<feColorMatrix in="SourceAlpha" type="matrix" values="0 0 0 0 0 0 0 0 0 0 0 0 0 0 0 0 0 0 127 0" result="hardAlpha"/>
<feOffset dy="4"/>
<feGaussianBlur stdDeviation="2"/>
<feComposite in2="hardAlpha" operator="out"/>
<feColorMatrix type="matrix" values="0 0 0 0 0 0 0 0 0 0 0 0 0 0 0 0 0 0 0.25 0"/>
<feBlend mode="normal" in2="BackgroundImageFix" result="effect1_dropShadow_344_10"/>
<feBlend mode="normal" in="SourceGraphic" in2="effect1_dropShadow_344_10" result="shape"/>
</filter>
</defs>
</svg>
