<svg width="160" height="104" viewBox="0 0 160 104" fill="none" xmlns="http://www.w3.org/2000/svg">
<g filter="url(#filter0_d_344_37)">
<path d="M107.331 1.0203C98.1791 1.29233 89.3133 4.2721 81.8549 9.5828C74.3965 14.8935 68.6804 22.2966 65.4294 30.856C62.1784 39.4153 61.5385 48.7465 63.5907 57.6695C65.6429 66.5925 70.295 74.7066 76.9586 80.9857C83.6223 87.2647 91.9983 91.4268 101.027 92.9456C110.057 94.4643 119.333 93.2716 127.684 89.5181C136.036 85.7646 143.086 79.619 147.945 71.8584C152.803 64.0978 155.251 55.0708 154.98 45.9189C154.614 33.6469 149.388 22.0227 140.453 13.6028C131.517 5.183 119.603 0.65702 107.331 1.0203ZM109.83 85.2038C102.333 85.4257 94.9391 83.4196 88.5822 79.4392C82.2253 75.4588 77.1914 69.6828 74.117 62.8417C71.0426 56.0005 70.0657 48.4014 71.31 41.0051C72.5542 33.6087 75.9635 26.7474 81.107 21.2887C86.2505 15.83 92.8971 12.0189 100.206 10.3374C107.516 8.65598 115.16 9.1796 122.171 11.8421C129.183 14.5046 135.248 19.1864 139.599 25.2956C143.95 31.4047 146.392 38.6669 146.616 46.1637C146.912 56.2163 143.202 65.9748 136.304 73.2928C129.406 80.6108 119.883 84.8891 109.83 85.1867V85.2038Z" fill="#92E3A9"/>
<mask id="mask0_344_37" style="mask-type:luminance" maskUnits="userSpaceOnUse" x="62" y="1" width="93" height="93">
<path d="M107.331 1.0203C98.1791 1.29233 89.3133 4.2721 81.8549 9.5828C74.3965 14.8935 68.6804 22.2966 65.4294 30.856C62.1784 39.4153 61.5385 48.7465 63.5907 57.6695C65.6429 66.5925 70.295 74.7066 76.9586 80.9857C83.6223 87.2647 91.9983 91.4268 101.027 92.9456C110.057 94.4643 119.333 93.2716 127.684 89.5181C136.036 85.7646 143.086 79.619 147.945 71.8584C152.803 64.0978 155.251 55.0708 154.98 45.9189C154.614 33.6469 149.388 22.0227 140.453 13.6028C131.517 5.183 119.603 0.65702 107.331 1.0203ZM109.83 85.2038C102.333 85.4257 94.9391 83.4196 88.5822 79.4392C82.2253 75.4588 77.1914 69.6828 74.117 62.8417C71.0426 56.0005 70.0657 48.4014 71.31 41.0051C72.5542 33.6087 75.9635 26.7474 81.107 21.2887C86.2505 15.83 92.8971 12.0189 100.206 10.3374C107.516 8.65598 115.16 9.1796 122.171 11.8421C129.183 14.5046 135.248 19.1864 139.599 25.2956C143.95 31.4047 146.392 38.6669 146.616 46.1637C146.912 56.2163 143.202 65.9748 136.304 73.2928C129.406 80.6108 119.883 84.8891 109.83 85.1867V85.2038Z" fill="white"/>
</mask>
<g mask="url(#mask0_344_37)">
<path opacity="0.3" d="M120.42 87.9424C128.158 85.2184 134.914 80.2608 139.834 73.6967C144.754 67.1326 147.617 59.2568 148.06 51.0656C148.503 42.8743 146.508 34.7355 142.325 27.6788C138.142 20.622 131.96 14.9642 124.562 11.421C117.163 7.87785 108.88 6.60848 100.76 7.77348C92.6399 8.93847 85.0477 12.4855 78.9437 17.9659C72.8397 23.4463 68.4981 30.6138 66.4682 38.5619C64.4382 46.51 64.811 54.8817 67.5395 62.6179C71.1976 72.9856 78.8224 81.4768 88.7382 86.2255C98.654 90.9741 110.049 91.5917 120.42 87.9424ZM107.576 9.37261C115.073 9.14958 122.468 11.1548 128.826 15.1347C135.184 19.1146 140.219 24.8904 143.294 31.7318C146.369 38.5732 147.346 46.1728 146.102 53.5696C144.859 60.9665 141.449 67.8283 136.305 73.2874C131.161 78.7465 124.514 82.5578 117.204 84.2391C109.895 85.9204 102.25 85.3964 95.2384 82.7332C88.2264 80.07 82.1615 75.3873 77.8109 69.2773C73.4602 63.1673 71.019 55.9044 70.7961 48.407C70.4972 38.3529 74.2041 28.5917 81.1015 21.2705C87.9989 13.9492 97.5218 9.66746 107.576 9.36692V9.37261Z" fill="black"/>
<path d="M148.575 29.647C145.042 22.1819 139.505 15.8448 132.582 11.3425" stroke="white" stroke-width="3" stroke-linecap="round" stroke-linejoin="round"/>
<path d="M128.738 9.11071C126.963 8.19378 125.128 7.39866 123.244 6.73085" stroke="white" stroke-width="3" stroke-linecap="round" stroke-linejoin="round"/>
</g>
<path d="M107.331 1.0203C98.1791 1.29233 89.3133 4.2721 81.8549 9.5828C74.3965 14.8935 68.6804 22.2966 65.4294 30.856C62.1784 39.4153 61.5385 48.7465 63.5907 57.6695C65.6429 66.5925 70.295 74.7066 76.9586 80.9857C83.6223 87.2647 91.9983 91.4268 101.027 92.9456C110.057 94.4643 119.333 93.2716 127.684 89.5181C136.036 85.7646 143.086 79.619 147.945 71.8584C152.803 64.0978 155.251 55.0708 154.98 45.9189C154.614 33.6469 149.388 22.0227 140.453 13.6028C131.517 5.183 119.603 0.65702 107.331 1.0203ZM109.83 85.2038C102.333 85.4257 94.9391 83.4196 88.5822 79.4392C82.2253 75.4588 77.1914 69.6828 74.117 62.8417C71.0426 56.0005 70.0657 48.4014 71.31 41.0051C72.5542 33.6087 75.9635 26.7474 81.107 21.2887C86.2505 15.83 92.8971 12.0189 100.206 10.3374C107.516 8.65598 115.16 9.1796 122.171 11.8421C129.183 14.5046 135.248 19.1864 139.599 25.2956C143.95 31.4047 146.392 38.6669 146.616 46.1637C146.912 56.2163 143.202 65.9748 136.304 73.2928C129.406 80.6108 119.883 84.8891 109.83 85.1867V85.2038Z" stroke="#263238" stroke-linecap="round" stroke-linejoin="round"/>
<path d="M97.5667 47.2398C97.8782 57.7268 94.6182 68.0087 88.321 76.4003C82.0237 84.792 73.0628 90.7957 62.9066 93.4276C52.7504 96.0595 42.0014 95.1634 32.4211 90.8863C22.8409 86.6092 14.9976 79.2047 10.1767 69.8862C5.35579 60.5677 3.84316 49.888 5.88671 39.5973C7.93026 29.3066 13.4088 20.0152 21.4244 13.2459C29.4401 6.47653 39.5175 2.63072 50.0051 2.3387C60.4927 2.04668 70.7684 5.32577 79.1484 11.6386C76.972 13.4487 74.9653 15.4535 73.1532 17.6281C67.4138 13.5778 60.6622 11.2011 53.6513 10.7631C46.6403 10.3251 39.6454 11.843 33.4466 15.1475C27.2477 18.4519 22.0884 23.4132 18.544 29.4781C14.9996 35.5429 13.2093 42.473 13.3727 49.4958C13.5361 56.5185 15.6469 63.3579 19.4696 69.2513C23.2923 75.1447 28.6767 79.8606 35.0226 82.8731C41.3685 85.8857 48.4264 87.0765 55.4094 86.3129C62.3924 85.5492 69.0261 82.8611 74.5708 78.5482C76.7816 76.8255 78.7959 74.8646 80.5774 72.701C86.3664 65.6835 89.437 56.8172 89.2279 47.7225C89.0188 38.6277 85.5441 29.9119 79.4387 23.1679C81.217 21.0013 83.2317 19.0401 85.4453 17.3207C92.9583 25.5077 97.2627 36.1321 97.5667 47.2398Z" fill="#92E3A9"/>
<mask id="mask1_344_37" style="mask-type:luminance" maskUnits="userSpaceOnUse" x="5" y="2" width="93" height="93">
<path d="M97.5667 47.2398C97.8782 57.7268 94.6182 68.0087 88.321 76.4003C82.0237 84.792 73.0628 90.7957 62.9066 93.4276C52.7504 96.0595 42.0014 95.1634 32.4211 90.8863C22.8409 86.6092 14.9976 79.2047 10.1767 69.8862C5.35579 60.5677 3.84316 49.888 5.88671 39.5973C7.93026 29.3066 13.4088 20.0152 21.4244 13.2459C29.4401 6.47653 39.5175 2.63072 50.0051 2.3387C60.4927 2.04668 70.7684 5.32577 79.1484 11.6386C76.972 13.4487 74.9653 15.4535 73.1532 17.6281C67.4138 13.5778 60.6622 11.2011 53.6513 10.7631C46.6403 10.3251 39.6454 11.843 33.4466 15.1475C27.2477 18.4519 22.0884 23.4132 18.544 29.4781C14.9996 35.5429 13.2093 42.473 13.3727 49.4958C13.5361 56.5185 15.6469 63.3579 19.4696 69.2513C23.2923 75.1447 28.6767 79.8606 35.0226 82.8731C41.3685 85.8857 48.4264 87.0765 55.4094 86.3129C62.3924 85.5492 69.0261 82.8611 74.5708 78.5482C76.7816 76.8255 78.7959 74.8646 80.5774 72.701C86.3664 65.6835 89.437 56.8172 89.2279 47.7225C89.0188 38.6277 85.5441 29.9119 79.4387 23.1679C81.217 21.0013 83.2317 19.0401 85.4453 17.3207C92.9583 25.5077 97.2627 36.1321 97.5667 47.2398Z" fill="white"/>
</mask>
<g mask="url(#mask1_344_37)">
<path opacity="0.3" d="M87.2502 34.1847C86.3562 31.6427 85.2119 29.1957 83.8341 26.88C85.3994 25.0352 87.2884 23.4917 89.408 22.3252C88.1965 20.5761 86.8648 18.9134 85.4226 17.3491C83.6192 18.7581 81.9462 20.3263 80.4237 22.0349C80.0821 22.4163 79.7405 22.7978 79.416 23.1735C79.7576 23.5493 80.0878 23.9308 80.4123 24.3122C80.6514 24.6026 80.8849 24.8816 81.1183 25.1947C81.1866 25.2858 81.2606 25.3712 81.329 25.4566C81.6136 25.8324 81.8983 26.2139 82.1716 26.5953C82.4563 26.9995 82.7409 27.4038 83.0028 27.8137C87.4309 34.5708 89.5819 42.567 89.1414 50.6337C88.7009 58.7005 85.6921 66.4149 80.5547 72.6497C78.7735 74.8153 76.7591 76.7781 74.5481 78.5026C69.0028 82.8177 62.368 85.5077 55.3834 86.2726C48.3988 87.0375 41.339 85.8472 34.9913 82.8346C28.6436 79.822 23.2574 75.1053 19.4335 69.2107C15.6096 63.316 13.4981 56.475 13.3347 49.4506C13.1712 42.4261 14.9621 35.4943 18.5077 29.4282C22.0533 23.362 27.2142 18.4 33.4149 15.0953C39.6157 11.7906 46.6124 10.2733 53.625 10.7125C60.6376 11.1517 67.3904 13.5301 73.1304 17.5826C73.5574 17.0645 74.0015 16.5634 74.4513 16.0681C66.8363 9.92336 57.2559 6.73996 47.4777 7.10523C37.6995 7.4705 28.3833 11.3598 21.248 18.0555C14.1127 24.7513 9.63962 33.8017 8.65415 43.5369C7.66869 53.2722 10.2373 63.0354 15.8861 71.0252C21.5348 79.0151 29.8826 84.6924 39.3892 87.0098C48.8959 89.3272 58.9198 88.1283 67.6118 83.6342C76.3037 79.1402 83.0771 71.6543 86.6822 62.5576C90.2874 53.461 90.481 43.3674 87.2274 34.1391L87.2502 34.1847Z" fill="black"/>
</g>
<path d="M97.5667 47.2398C97.8782 57.7268 94.6182 68.0087 88.321 76.4003C82.0237 84.792 73.0628 90.7957 62.9066 93.4276C52.7504 96.0595 42.0014 95.1634 32.4211 90.8863C22.8409 86.6092 14.9976 79.2047 10.1767 69.8862C5.35579 60.5677 3.84316 49.888 5.88671 39.5973C7.93026 29.3066 13.4088 20.0152 21.4244 13.2459C29.4401 6.47653 39.5175 2.63072 50.0051 2.3387C60.4927 2.04668 70.7684 5.32577 79.1484 11.6386C76.972 13.4487 74.9653 15.4535 73.1532 17.6281C67.4138 13.5778 60.6622 11.2011 53.6513 10.7631C46.6403 10.3251 39.6454 11.843 33.4466 15.1475C27.2477 18.4519 22.0884 23.4132 18.544 29.4781C14.9996 35.5429 13.2093 42.473 13.3727 49.4958C13.5361 56.5185 15.6469 63.3579 19.4696 69.2513C23.2923 75.1447 28.6767 79.8606 35.0226 82.8731C41.3685 85.8857 48.4264 87.0765 55.4094 86.3129C62.3924 85.5492 69.0261 82.8611 74.5708 78.5482C76.7816 76.8255 78.7959 74.8646 80.5774 72.701C86.3664 65.6835 89.437 56.8172 89.2279 47.7225C89.0188 38.6277 85.5441 29.9119 79.4387 23.1679C81.217 21.0013 83.2317 19.0401 85.4453 17.3207C92.9583 25.5077 97.2627 36.1321 97.5667 47.2398Z" stroke="#263238" stroke-linecap="round" stroke-linejoin="round"/>
<path d="M91.4519 66.1136C94.6895 58.5201 95.7539 50.1764 94.5264 42.0132" stroke="white" stroke-width="3" stroke-linecap="round" stroke-linejoin="round"/>
<path d="M93.6496 37.6463C93.1555 35.7088 92.5317 33.8066 91.7821 31.9529" stroke="white" stroke-width="3" stroke-linecap="round" stroke-linejoin="round"/>
</g>
<defs>
<filter id="filter0_d_344_37" x="0.5" y="0.5" width="159" height="102.908" filterUnits="userSpaceOnUse" color-interpolation-filters="sRGB">
<feFlood flood-opacity="0" result="BackgroundImageFix"/>
<feColorMatrix in="SourceAlpha" type="matrix" values="0 0 0 0 0 0 0 0 0 0 0 0 0 0 0 0 0 0 127 0" result="hardAlpha"/>
<feOffset dy="4"/>
<feGaussianBlur stdDeviation="2"/>
<feComposite in2="hardAlpha" operator="out"/>
<feColorMatrix type="matrix" values="0 0 0 0 0 0 0 0 0 0 0 0 0 0 0 0 0 0 0.25 0"/>
<feBlend mode="normal" in2="BackgroundImageFix" result="effect1_dropShadow_344_37"/>
<feBlend mode="normal" in="SourceGraphic" in2="effect1_dropShadow_344_37" result="shape"/>
</filter>
</defs>
</svg>
