<svg width="176" height="164" viewBox="0 0 176 164" fill="none" xmlns="http://www.w3.org/2000/svg">
<g filter="url(#filter0_d_344_170)">
<path d="M140.92 135.293C140.92 135.293 124.492 108.859 128.285 102.117C132.077 95.3748 141.761 107.497 141.761 107.497C141.761 107.497 133.339 82.8422 137.972 72.0711C142.606 61.3001 150.607 72.0711 151.028 79.694C151.448 87.3168 149.342 100.316 149.342 100.316C149.342 100.316 152.713 73.433 160.715 81.4874C168.716 89.5418 150.607 116.453 150.607 116.453C150.607 116.453 162.821 110.178 162.397 118.247C161.973 126.315 147.66 133.489 147.66 133.489" fill="#92E3A9"/>
<path d="M141.058 130.362C141.058 130.362 125.858 117.359 133.265 111.533C140.673 105.707 144.569 117.808 144.569 117.808C144.569 117.808 136.383 80.5995 149.635 79.2518C162.887 77.9041 153.142 111.53 153.142 111.53C153.142 111.53 164.446 97.1859 163.666 108.859C162.887 120.532 146.128 130.38 146.128 130.38" stroke="#263238" stroke-miterlimit="10"/>
<path d="M148.524 127.996L138.254 117.791" stroke="#263238" stroke-miterlimit="10"/>
<path d="M146.386 128.781L149.168 98.951" stroke="#263238" stroke-miterlimit="10"/>
<path d="M145.958 126.62L155.159 115.435" stroke="#263238" stroke-miterlimit="10"/>
<path d="M159.268 124.54H130.854L133.697 155.268H156.425L159.268 124.54Z" fill="#263238"/>
<path d="M50.7968 88.9052C47.1025 87.2432 43.2837 85.8247 39.3694 84.6604C33.729 83.0687 27.074 84.526 26.9274 86.2487C26.7808 87.9713 27.7839 87.1825 29.0994 89.0502C30.415 90.9179 29.8209 95.2829 31.7036 99.2624C33.5863 103.242 39.2228 105.23 39.2228 105.23L50.7968 88.9052Z" fill="#92E3A9" stroke="#263238" stroke-linecap="round" stroke-linejoin="round"/>
<path opacity="0.3" d="M47.0353 92.7538C47.0353 92.7538 38.3548 87.7131 33.2931 85.9869C28.2314 84.2607 27.942 86.7828 27.942 86.7828C28.7748 87.0631 29.4894 87.5778 29.9835 88.2533C30.4777 88.9287 30.7259 89.7302 30.6928 90.543C30.6928 93.5214 32.317 99.6904 36.2637 100.964C40.2105 102.237 47.0353 92.7538 47.0353 92.7538Z" fill="black"/>
<path d="M108.974 98.3859C111.242 97.5958 112.331 95.1446 111.406 92.911C110.481 90.6775 107.891 89.5075 105.623 90.2976C103.354 91.0878 102.265 93.539 103.19 95.7725C104.116 98.006 106.705 99.1761 108.974 98.3859Z" fill="#92E3A9" stroke="#263238" stroke-linecap="round" stroke-linejoin="round"/>
<path d="M46.7768 140.631L51.6456 154.023C51.7776 154.386 52.0309 154.702 52.3695 154.925C52.7082 155.148 53.1149 155.269 53.5321 155.268H61.1208C61.509 155.269 61.8889 155.165 62.2133 154.969C62.5377 154.774 62.7923 154.495 62.9456 154.168L66.3407 146.945" fill="#92E3A9"/>
<mask id="mask0_344_170" style="mask-type:luminance" maskUnits="userSpaceOnUse" x="46" y="140" width="21" height="16">
<path d="M46.7768 140.631L51.6456 154.023C51.7776 154.386 52.0309 154.702 52.3695 154.925C52.7082 155.148 53.1149 155.269 53.5321 155.268H61.1208C61.509 155.269 61.8889 155.165 62.2133 154.969C62.5377 154.774 62.7923 154.495 62.9456 154.168L66.3407 146.945" fill="white"/>
</mask>
<g mask="url(#mask0_344_170)">
<path opacity="0.3" d="M49.2189 140.631L53.2466 154.023C53.3228 154.359 53.5174 154.663 53.8004 154.888C54.0834 155.113 54.4391 155.247 54.813 155.268H61.1054C61.4509 155.252 61.7824 155.137 62.0535 154.94C62.3246 154.743 62.5218 154.473 62.6177 154.168L65.434 146.945" fill="black"/>
</g>
<path d="M46.7768 140.631L51.6456 154.023C51.7776 154.386 52.0309 154.702 52.3695 154.925C52.7082 155.148 53.1149 155.269 53.5321 155.268H61.1208C61.509 155.269 61.8889 155.165 62.2133 154.969C62.5377 154.774 62.7923 154.495 62.9456 154.168L66.3407 146.945" stroke="#263238" stroke-linecap="round" stroke-linejoin="round"/>
<path d="M83.3969 140.631L78.5319 154.023C78.3999 154.386 78.1466 154.702 77.808 154.925C77.4694 155.148 77.0626 155.269 76.6454 155.268H69.0644C68.6762 155.269 68.2963 155.165 67.9719 154.969C67.6475 154.774 67.3929 154.495 67.2396 154.168L63.8445 146.945" fill="#263238"/>
<path d="M83.3969 140.631L78.5319 154.023C78.3999 154.386 78.1466 154.702 77.808 154.925C77.4694 155.148 77.0626 155.269 76.6454 155.268H69.0644C68.6762 155.269 68.2963 155.165 67.9719 154.969C67.6475 154.774 67.3929 154.495 67.2396 154.168L63.8445 146.945" stroke="#263238" stroke-linecap="round" stroke-linejoin="round"/>
<path d="M99.5194 140.631L94.6506 154.023C94.5186 154.386 94.2653 154.702 93.9267 154.925C93.588 155.148 93.1813 155.269 92.7641 155.268H85.1754C84.7872 155.269 84.4073 155.165 84.0829 154.969C83.7585 154.774 83.5039 154.495 83.3506 154.168L79.9555 146.945" fill="#92E3A9"/>
<mask id="mask1_344_170" style="mask-type:luminance" maskUnits="userSpaceOnUse" x="79" y="140" width="21" height="16">
<path d="M99.5194 140.631L94.6506 154.023C94.5186 154.386 94.2653 154.702 93.9267 154.925C93.588 155.148 93.1813 155.269 92.7641 155.268H85.1754C84.7872 155.269 84.4073 155.165 84.0829 154.969C83.7585 154.774 83.5039 154.495 83.3506 154.168L79.9555 146.945" fill="white"/>
</mask>
<g mask="url(#mask1_344_170)">
<path opacity="0.3" d="M96.0704 140.631L92.7409 154.023C92.5558 154.766 92.0388 155.268 91.4524 155.268H86.2634C85.7233 155.268 85.2333 154.837 85.0172 154.168L81.792 147.094" fill="black"/>
</g>
<path d="M99.5194 140.631L94.6506 154.023C94.5186 154.386 94.2653 154.702 93.9267 154.925C93.588 155.148 93.1813 155.269 92.7641 155.268H85.1754C84.7872 155.269 84.4073 155.165 84.0829 154.969C83.7585 154.774 83.5039 154.495 83.3506 154.168L79.9555 146.945" stroke="#263238" stroke-linecap="round" stroke-linejoin="round"/>
<path d="M73.5011 149.442C96.549 149.442 115.233 133.906 115.233 114.742C115.233 95.5768 96.549 80.0407 73.5011 80.0407C50.4532 80.0407 31.7692 95.5768 31.7692 114.742C31.7692 133.906 50.4532 149.442 73.5011 149.442Z" fill="#92E3A9"/>
<mask id="mask2_344_170" style="mask-type:luminance" maskUnits="userSpaceOnUse" x="31" y="80" width="85" height="70">
<path d="M73.5011 149.442C96.549 149.442 115.233 133.906 115.233 114.742C115.233 95.5768 96.549 80.0407 73.5011 80.0407C50.4532 80.0407 31.7692 95.5768 31.7692 114.742C31.7692 133.906 50.4532 149.442 73.5011 149.442Z" fill="white"/>
</mask>
<g mask="url(#mask2_344_170)">
<path opacity="0.3" d="M102.243 91.0311C104.69 95.4809 105.966 100.395 105.966 105.378C105.966 124.543 87.2819 140.079 64.2343 140.079C55.6574 140.119 47.2507 137.886 40.0253 133.648C47.3015 142.601 59.6201 148.505 73.5899 148.505C95.9663 148.505 114.099 133.433 114.099 114.837C114.076 105.53 109.546 97.1223 102.243 91.0311Z" fill="black"/>
</g>
<path d="M73.5011 149.442C96.549 149.442 115.233 133.906 115.233 114.742C115.233 95.5768 96.549 80.0407 73.5011 80.0407C50.4532 80.0407 31.7692 95.5768 31.7692 114.742C31.7692 133.906 50.4532 149.442 73.5011 149.442Z" stroke="#263238" stroke-linecap="round" stroke-linejoin="round"/>
<path d="M111.722 117.854C110.812 124.844 107.297 131.186 102.004 136.195" stroke="#92E3A9" stroke-width="2" stroke-linecap="round" stroke-linejoin="round"/>
<path d="M111.032 107.09C111.647 109.431 111.958 111.831 111.958 114.239" stroke="#92E3A9" stroke-width="2" stroke-linecap="round" stroke-linejoin="round"/>
<path d="M63.1539 82.2055C66.5925 81.4685 70.1125 81.0982 73.6438 81.1019C75.9046 81.1015 78.1625 81.2528 80.3992 81.5547" stroke="#263238" stroke-width="4" stroke-linecap="round" stroke-linejoin="round"/>
<path d="M81.6878 106.429C81.6878 106.429 85.7387 103.907 85.8853 99.2659C86.0319 94.625 79.373 87.8617 74.0219 85.0743C68.6709 82.2869 64.7627 82.821 64.62 84.809C64.4773 86.7969 62.5946 89.0537 61.8731 92.8988C61.1517 96.7438 60.8585 102.449 66.5027 104.307" fill="#92E3A9"/>
<path d="M81.6878 106.429C81.6878 106.429 85.7387 103.907 85.8853 99.2659C86.0319 94.625 79.373 87.8617 74.0219 85.0743C68.6709 82.2869 64.7627 82.821 64.62 84.809C64.4773 86.7969 62.5946 89.0537 61.8731 92.8988C61.1517 96.7438 60.8585 102.449 66.5027 104.307" stroke="#263238" stroke-linecap="round" stroke-linejoin="round"/>
<path opacity="0.3" d="M72.9725 104.94L73.802 105.053C77.3591 105.523 78.6091 103.394 78.5049 100.196C78.3622 95.6862 71.8537 86.1355 69.103 84.809C66.3522 83.4825 65.488 85.3396 65.488 85.3396C65.488 85.3396 65.8738 85.5766 64.5197 89.6975C63.8947 91.6006 61.5683 98.2366 63.8715 101.18C65.9085 103.779 69.6932 104.49 72.9725 104.94Z" fill="black"/>
<path opacity="0.3" d="M84.4964 100.37H84.4424C84.3919 100.363 84.3432 100.348 84.2991 100.325C84.2551 100.301 84.2165 100.27 84.1857 100.233C84.1548 100.196 84.1323 100.153 84.1194 100.108C84.1065 100.063 84.1035 100.016 84.1106 99.9698C84.1524 99.6978 84.1769 99.4238 84.1839 99.1491C84.2611 96.673 82.0581 93.1181 78.4355 89.839C78.3993 89.8063 78.3704 89.7673 78.3506 89.7243C78.3308 89.6814 78.3205 89.6352 78.3201 89.5886C78.3197 89.5419 78.3294 89.4957 78.3485 89.4525C78.3677 89.4093 78.3959 89.3699 78.4316 89.3367C78.4673 89.3035 78.5098 89.2771 78.5567 89.2589C78.6036 89.2408 78.6539 89.2312 78.7047 89.2309C78.7556 89.2306 78.8061 89.2394 78.8532 89.257C78.9003 89.2745 78.9432 89.3004 78.9795 89.3332C82.8066 92.7997 85.0404 96.475 84.9555 99.1668C84.9472 99.4674 84.9214 99.7673 84.8783 100.065C84.8653 100.15 84.8195 100.227 84.7493 100.283C84.6792 100.339 84.5893 100.369 84.4964 100.37Z" fill="black"/>
<path opacity="0.3" d="M82.4208 104.636C82.3478 104.636 82.2762 104.617 82.2144 104.581C82.1525 104.546 82.103 104.495 82.0715 104.434C82.0399 104.374 82.0278 104.307 82.0363 104.24C82.0449 104.174 82.0739 104.111 82.1198 104.059C82.7557 103.345 83.2636 102.542 83.6245 101.682C83.6608 101.594 83.7336 101.523 83.827 101.485C83.9203 101.446 84.0265 101.443 84.1221 101.477C84.2178 101.51 84.2951 101.577 84.3371 101.662C84.3791 101.748 84.3822 101.845 84.3459 101.933C83.9561 102.864 83.4065 103.732 82.7178 104.505C82.6819 104.545 82.6367 104.578 82.5853 104.601C82.534 104.623 82.4778 104.635 82.4208 104.636Z" fill="black"/>
<path opacity="0.3" d="M54.326 121.456C55.467 117.263 51.4899 112.742 45.443 111.359C39.396 109.976 33.569 112.253 32.428 116.446C31.287 120.639 35.2641 125.159 41.311 126.543C47.358 127.926 53.1849 125.648 54.326 121.456Z" fill="black"/>
<path d="M53.783 120.694C54.924 116.501 50.9469 111.981 44.9 110.598C38.8531 109.214 33.0261 111.492 31.8851 115.685C30.7441 119.877 34.7211 124.398 40.768 125.781C46.815 127.165 52.642 124.887 53.783 120.694Z" fill="#92E3A9" stroke="#263238" stroke-linecap="round" stroke-linejoin="round"/>
<path d="M39.4273 116.924C39.4967 117.872 39.0994 118.671 38.5438 118.693C37.9883 118.714 37.4752 117.985 37.3864 117.037C37.2977 116.089 37.7144 115.286 38.2738 115.269C38.8332 115.251 39.3579 115.973 39.4273 116.924Z" stroke="#263238" stroke-linecap="round" stroke-linejoin="round"/>
<path d="M47.0738 118.682C47.1433 119.634 46.7459 120.43 46.1904 120.451C45.6348 120.472 45.1217 119.743 45.033 118.792C44.9442 117.84 45.3609 117.044 45.9203 117.023C46.4797 117.002 46.9928 117.731 47.0738 118.682Z" stroke="#263238" stroke-linecap="round" stroke-linejoin="round"/>
<path d="M59.6934 121.14C59.6119 121.821 59.4383 122.49 59.1764 123.132C56.9619 128.618 48.945 130.992 41.0245 128.629" stroke="#263238" stroke-width="3" stroke-linecap="round" stroke-linejoin="round"/>
<path d="M58.4009 120.62H60.8585" stroke="#263238" stroke-width="3" stroke-linecap="round" stroke-linejoin="round"/>
<path d="M42.7452 105.934C42.4751 106.963 41.7846 107.702 41.202 107.568C40.6194 107.433 40.3648 106.507 40.6387 105.467C40.9127 104.427 41.5994 103.698 42.1819 103.829C42.7645 103.96 43.0191 104.901 42.7452 105.934Z" fill="#263238" stroke="#263238" stroke-linecap="round" stroke-linejoin="round"/>
<path d="M49.8602 107.356C50.1318 106.323 49.8801 105.381 49.298 105.252C48.7159 105.124 48.0239 105.857 47.7523 106.89C47.4808 107.923 47.7325 108.865 48.3145 108.994C48.8966 109.122 49.5886 108.389 49.8602 107.356Z" fill="#263238" stroke="#263238" stroke-linecap="round" stroke-linejoin="round"/>
<path d="M60.4842 144.939L64.728 154.172C64.8803 154.502 65.1354 154.784 65.4613 154.982C65.7872 155.18 66.1695 155.286 66.5606 155.286H74.2766C74.664 155.285 75.0429 155.181 75.367 154.987C75.6911 154.792 75.9463 154.515 76.1014 154.189L80.731 144.38H80.5304" fill="#92E3A9"/>
<mask id="mask3_344_170" style="mask-type:luminance" maskUnits="userSpaceOnUse" x="60" y="144" width="21" height="12">
<path d="M60.4842 144.939L64.728 154.172C64.8803 154.502 65.1354 154.784 65.4613 154.982C65.7872 155.18 66.1695 155.286 66.5606 155.286H74.2766C74.664 155.285 75.0429 155.181 75.367 154.987C75.6911 154.792 75.9463 154.515 76.1014 154.189L80.731 144.38H80.5304" fill="white"/>
</mask>
<g mask="url(#mask3_344_170)">
<path opacity="0.3" d="M69.4502 143.761C67.0042 143.761 64.157 144.055 61.8538 143.567L65.8198 154.154C65.9142 154.461 66.1112 154.734 66.383 154.934C66.6549 155.134 66.9881 155.251 67.336 155.268H73.694C74.0377 155.251 74.3671 155.136 74.6366 154.939C74.9061 154.743 75.1025 154.475 75.1986 154.172L79.0373 143.372L77.4941 143.567C72.5983 144.055 72.7256 143.761 69.4502 143.761Z" fill="black"/>
</g>
<path d="M60.4842 144.939L64.728 154.172C64.8803 154.502 65.1354 154.784 65.4613 154.982C65.7872 155.18 66.1695 155.286 66.5606 155.286H74.2766C74.664 155.285 75.0429 155.181 75.367 154.987C75.6911 154.792 75.9463 154.515 76.1014 154.189L80.731 144.38H80.5304" stroke="#263238" stroke-linecap="round" stroke-linejoin="round"/>
<path d="M137.351 1.12731L116.012 29.316C116.012 29.316 114.188 33.306 111.942 36.2667C109.697 39.2274 103.401 42.1881 103.401 42.1881C103.401 42.1881 102.841 47.7205 101.016 49.6518C99.1915 51.5832 95.2602 50.4265 95.2602 50.4265C95.2602 50.4265 93.5743 52.0996 91.7495 52.8708C89.9246 53.6419 84.3112 50.812 84.3112 50.812C84.3112 50.812 89.3614 55.8315 90.0635 57.5046C90.7657 59.1777 92.0311 60.5926 89.7857 62.1384C87.5404 63.6842 85.0095 61.4947 85.0095 61.4947C85.0095 61.4947 86.1361 64.8409 82.9069 65.4847C79.6778 66.1285 76.1593 59.6906 74.755 57.5046C73.3507 55.3186 69.2805 47.0767 68.5822 46.6911C67.8839 46.3055 66.9001 44.2468 68.3044 42.3155C69.7087 40.3841 79.6701 28.0284 80.7928 27.1476C81.9154 26.2668 103.401 21.5941 103.401 21.5941L111.545 0.999969" fill="white"/>
<mask id="mask4_344_170" style="mask-type:luminance" maskUnits="userSpaceOnUse" x="67" y="1" width="71" height="65">
<path d="M137.351 1.12731L116.012 29.316C116.012 29.316 114.188 33.306 111.942 36.2667C109.697 39.2274 103.401 42.1881 103.401 42.1881C103.401 42.1881 102.841 47.7205 101.016 49.6518C99.1915 51.5832 95.2602 50.4265 95.2602 50.4265C95.2602 50.4265 93.5743 52.0996 91.7495 52.8708C89.9246 53.6419 84.3112 50.812 84.3112 50.812C84.3112 50.812 89.3614 55.8315 90.0635 57.5046C90.7657 59.1777 92.0311 60.5926 89.7857 62.1384C87.5404 63.6842 85.0095 61.4947 85.0095 61.4947C85.0095 61.4947 86.1361 64.8409 82.9069 65.4847C79.6778 66.1285 76.1593 59.6906 74.755 57.5046C73.3507 55.3186 69.2805 47.0767 68.5822 46.6911C67.8839 46.3055 66.9001 44.2468 68.3044 42.3155C69.7087 40.3841 79.6701 28.0284 80.7928 27.1476C81.9154 26.2668 103.401 21.5941 103.401 21.5941L111.545 0.999969" fill="white"/>
</mask>
<g mask="url(#mask4_344_170)">
<path opacity="0.2" d="M113.817 29.6236C113.817 29.6236 111.502 35.9908 108.995 37.2288C106.487 38.4669 92.2124 41.8273 86.6183 41.1198C81.0242 40.4124 77.9379 38.4669 77.9379 38.4669C77.9379 38.4669 74.8515 42.181 73.5012 43.4191C72.5609 44.2197 71.4419 44.8232 70.2219 45.1877C70.2219 45.1877 76.9348 60.6492 81.7611 65.4351C82.1361 65.5413 82.5344 65.5584 82.9185 65.4847C86.1477 64.8409 85.0211 61.4946 85.0211 61.4946C85.0211 61.4946 87.5481 63.6806 89.7973 62.1384C92.0465 60.5961 90.7773 59.1777 90.0751 57.5045C89.3729 55.8314 84.3035 50.812 84.3035 50.812C84.3035 50.812 89.9169 53.6418 91.7418 52.8707C93.5666 52.0996 95.2525 50.4229 95.2525 50.4229C95.2525 50.4229 99.1838 51.5831 101.009 49.6518C102.833 47.7204 103.393 42.1881 103.393 42.1881C103.393 42.1881 109.708 39.2274 111.958 36.2667C114.207 33.306 116.028 29.3159 116.028 29.3159L124.82 17.703L113.817 29.6236Z" fill="black"/>
</g>
<path d="M137.351 1.12731L116.012 29.316C116.012 29.316 114.188 33.306 111.942 36.2667C109.697 39.2274 103.401 42.1881 103.401 42.1881C103.401 42.1881 102.841 47.7205 101.016 49.6518C99.1915 51.5832 95.2602 50.4265 95.2602 50.4265C95.2602 50.4265 93.5743 52.0996 91.7495 52.8708C89.9246 53.6419 84.3112 50.812 84.3112 50.812C84.3112 50.812 89.3614 55.8315 90.0635 57.5046C90.7657 59.1777 92.0311 60.5926 89.7857 62.1384C87.5404 63.6842 85.0095 61.4947 85.0095 61.4947C85.0095 61.4947 86.1361 64.8409 82.9069 65.4847C79.6778 66.1285 76.1593 59.6906 74.755 57.5046C73.3507 55.3186 69.2805 47.0767 68.5822 46.6911C67.8839 46.3055 66.9001 44.2468 68.3044 42.3155C69.7087 40.3841 79.6701 28.0284 80.7928 27.1476C81.9154 26.2668 103.401 21.5941 103.401 21.5941L111.545 0.999969" stroke="#263238" stroke-linecap="round" stroke-linejoin="round"/>
<path d="M64.3693 76.2947L64.9287 78.226L73.6323 76.2947L81.7766 56.7299L76.441 55.0568L64.3693 76.2947Z" fill="white" stroke="#263238" stroke-linecap="round" stroke-linejoin="round"/>
<path d="M67.0352 50.2956L79.1068 54.4166L73.2118 78.8698L59.0337 74.8798L67.0352 50.2956Z" fill="white" stroke="#263238" stroke-linecap="round" stroke-linejoin="round"/>
<path d="M59.5082 73.4189L72.0892 76.8111L77.5637 55.0568L66.5414 51.8096L59.5082 73.4189Z" fill="#92E3A9" stroke="#263238" stroke-linecap="round" stroke-linejoin="round"/>
<path d="M66.4912 57.1898C65.9437 57.0569 65.3715 57.0328 64.813 57.119L61.526 67.218C62.0017 67.6431 62.587 67.9509 63.2273 68.1129C65.8045 68.7638 68.6285 66.843 69.5313 63.8257C70.4341 60.8084 69.0645 57.8371 66.4912 57.1898Z" fill="white" stroke="#263238" stroke-linecap="round" stroke-linejoin="round"/>
<path d="M66.0244 58.8629C66.0078 58.8561 65.9943 58.8443 65.9859 58.8296C65.9775 58.8148 65.9748 58.7979 65.9781 58.7815L66.1247 58.258C66.1336 58.236 66.137 58.2123 66.1345 58.1889C66.1321 58.1655 66.1238 58.1429 66.1105 58.1228C66.0971 58.1027 66.0789 58.0857 66.0573 58.0729C66.0357 58.0602 66.0113 58.0521 65.9858 58.0493L65.3724 57.9149C65.3484 57.906 65.3224 57.9023 65.2965 57.9042C65.2707 57.9062 65.2457 57.9136 65.2236 57.926C65.2015 57.9384 65.1828 57.9554 65.1691 57.9755C65.1554 57.9957 65.1471 58.0186 65.1448 58.0423L65.0252 58.5835C65.0207 58.5997 65.0101 58.6139 64.9952 58.6236C64.9804 58.6333 64.9623 58.6379 64.9441 58.6365C64.7351 58.6169 64.5244 58.6169 64.3153 58.6365L63.1926 62.0924C64.0684 62.9272 65.4341 63.3447 65.2528 64.045C65.1486 64.4412 64.7551 64.7525 64.0645 64.611C63.9201 64.5933 63.7816 64.5473 63.6583 64.4761C63.535 64.4049 63.4299 64.3102 63.3501 64.1985C63.2703 64.0867 63.2177 63.9605 63.1958 63.8284C63.174 63.6963 63.1834 63.5615 63.2235 63.4331L63.2582 63.2916C63.2775 63.2138 63.2273 63.1501 63.1077 63.1253L62.8724 63.0723L62.205 65.1168C62.473 65.3403 62.7863 65.5133 63.127 65.6262C63.1443 65.6332 63.1584 65.6455 63.1669 65.661C63.1754 65.6765 63.1776 65.6942 63.1733 65.7111L63.0344 66.1603C63.0238 66.1823 63.0191 66.2063 63.0208 66.2303C63.0225 66.2543 63.0305 66.2776 63.0442 66.2981C63.0578 66.3186 63.0767 66.3358 63.0992 66.3481C63.1217 66.3605 63.1471 66.3677 63.1733 66.369L63.8099 66.5105C63.8323 66.5214 63.8571 66.5275 63.8824 66.5282C63.9077 66.529 63.9329 66.5244 63.956 66.5148C63.9791 66.5053 63.9995 66.491 64.0156 66.4731C64.0318 66.4551 64.0432 66.4341 64.0491 66.4115L64.1533 65.9658C64.159 65.9493 64.1703 65.9349 64.1856 65.9247C64.2009 65.9146 64.2193 65.9091 64.2381 65.9092C65.5962 66.0401 66.5182 65.4281 66.8037 64.3386C67.0275 63.4685 66.7073 62.7292 65.7157 62.0323C64.8091 61.4027 63.8523 61.0914 64.0182 60.4476C64.134 60.0019 64.5776 59.7968 65.1756 59.9276C65.3236 59.9495 65.4647 60.0004 65.5892 60.077C65.7136 60.1536 65.8185 60.2541 65.8966 60.3714C65.9747 60.4887 66.0241 60.6201 66.0415 60.7566C66.0589 60.8931 66.0439 61.0315 65.9974 61.1621L65.9704 61.2612C65.9704 61.3213 66.009 61.3744 66.1286 61.4027L67.2589 61.6503C67.283 61.6585 67.3088 61.6616 67.3343 61.6593C67.3599 61.657 67.3845 61.6495 67.4064 61.6372C67.4284 61.625 67.4469 61.6083 67.4608 61.5885C67.4747 61.5687 67.4835 61.5463 67.4866 61.5229L67.5714 61.194C67.8299 60.1576 67.2859 59.2768 66.0244 58.8629Z" fill="#263238"/>
<path d="M77.0004 37.4234C77.0004 37.4234 78.6863 39.7403 78.9679 41.8026C79.2072 43.5603 78.7588 45.3389 77.7025 46.822C76.8615 47.9787 76.0204 49.008 75.3183 50.8121C74.6161 52.6161 74.4772 55.1877 73.4934 56.4717C72.5096 57.7558 71.9502 59.0433 73.3507 60.2036C74.7511 61.3638 78.4047 61.2329 80.3722 57.8866C82.3398 54.5404 83.6014 50.9359 84.8629 49.6483C86.1245 48.3607 90.1985 45.4035 90.1985 45.4035C90.1985 45.4035 101.286 43.9886 103.393 42.1882C105.499 40.3877 107.324 35.4956 107.324 35.4956" fill="white"/>
<mask id="mask5_344_170" style="mask-type:luminance" maskUnits="userSpaceOnUse" x="72" y="35" width="36" height="26">
<path d="M77.0004 37.4234C77.0004 37.4234 78.6863 39.7403 78.9679 41.8026C79.2072 43.5603 78.7588 45.3389 77.7025 46.822C76.8615 47.9787 76.0204 49.008 75.3183 50.8121C74.6161 52.6161 74.4772 55.1877 73.4934 56.4717C72.5096 57.7558 71.9502 59.0433 73.3507 60.2036C74.7511 61.3638 78.4047 61.2329 80.3722 57.8866C82.3398 54.5404 83.6014 50.9359 84.8629 49.6483C86.1245 48.3607 90.1985 45.4035 90.1985 45.4035C90.1985 45.4035 101.286 43.9886 103.393 42.1882C105.499 40.3877 107.324 35.4956 107.324 35.4956" fill="white"/>
</mask>
<g mask="url(#mask5_344_170)">
<path opacity="0.2" d="M106.487 37.2289C106.487 37.2289 100.507 40.7661 95.8775 41.8273C91.2479 42.8885 88.3544 42.8885 86.6183 45.0109C84.8822 47.1333 83.1461 53.8541 80.8313 55.0922C78.5165 56.3302 78.1307 51.9086 74.8514 52.7929L74.7434 52.8283C74.4232 54.2078 74.1415 55.6227 73.4934 56.4752C72.5096 57.7628 71.9502 59.0468 73.3507 60.2071C74.7511 61.3673 78.4046 61.2364 80.3722 57.8901C82.3398 54.5439 83.6013 50.9394 84.8629 49.6518C86.1245 48.3642 90.1985 45.4071 90.1985 45.4071C90.1985 45.4071 101.286 43.9921 103.393 42.1917C104.666 41.1022 105.835 38.8878 106.56 37.3031L106.487 37.2289Z" fill="black"/>
</g>
<path d="M77.0004 37.4234C77.0004 37.4234 78.6863 39.7403 78.9679 41.8026C79.2072 43.5603 78.7588 45.3389 77.7025 46.822C76.8615 47.9787 76.0204 49.008 75.3183 50.8121C74.6161 52.6161 74.4772 55.1877 73.4934 56.4717C72.5096 57.7558 71.9502 59.0433 73.3507 60.2036C74.7511 61.3638 78.4047 61.2329 80.3722 57.8866C82.3398 54.5404 83.6014 50.9359 84.8629 49.6483C86.1245 48.3607 90.1985 45.4035 90.1985 45.4035C90.1985 45.4035 101.286 43.9886 103.393 42.1882C105.499 40.3877 107.324 35.4956 107.324 35.4956" stroke="#263238" stroke-linecap="round" stroke-linejoin="round"/>
<path d="M72.6485 43.8613C72.6485 43.8613 76.3021 45.6618 78.9679 43.6031" stroke="#263238" stroke-linecap="round" stroke-linejoin="round"/>
<path d="M85.0018 61.4947L81.7766 55.8315" stroke="#263238" stroke-linecap="round" stroke-linejoin="round"/>
<path d="M95.2525 50.4265C95.2525 50.4265 97.7795 48.4951 97.6368 44.2469" stroke="#263238" stroke-linecap="round" stroke-linejoin="round"/>
<path d="M18.5247 155.268H171.301" stroke="#263238" stroke-linecap="round" stroke-linejoin="round"/>
<path d="M5.02173 155.268H11.9661" stroke="#263238" stroke-linecap="round" stroke-linejoin="round"/>
</g>
<defs>
<filter id="filter0_d_344_170" x="0.521729" y="0.499832" width="175.28" height="163.286" filterUnits="userSpaceOnUse" color-interpolation-filters="sRGB">
<feFlood flood-opacity="0" result="BackgroundImageFix"/>
<feColorMatrix in="SourceAlpha" type="matrix" values="0 0 0 0 0 0 0 0 0 0 0 0 0 0 0 0 0 0 127 0" result="hardAlpha"/>
<feOffset dy="4"/>
<feGaussianBlur stdDeviation="2"/>
<feComposite in2="hardAlpha" operator="out"/>
<feColorMatrix type="matrix" values="0 0 0 0 0 0 0 0 0 0 0 0 0 0 0 0 0 0 0.25 0"/>
<feBlend mode="normal" in2="BackgroundImageFix" result="effect1_dropShadow_344_170"/>
<feBlend mode="normal" in="SourceGraphic" in2="effect1_dropShadow_344_170" result="shape"/>
</filter>
</defs>
</svg>
