<svg width="152" height="188" viewBox="0 0 152 188" fill="none" xmlns="http://www.w3.org/2000/svg">
<g filter="url(#filter0_d_344_385)">
<path d="M31.2121 120.713C32.356 120.118 39.9974 68.2886 39.9974 68.2886C39.9974 68.2886 122.503 53.0124 123.667 52.947L117.555 101.096L31.2121 120.713Z" fill="#92E3A9" stroke="#263238" stroke-width="0.955681" stroke-linecap="round" stroke-linejoin="round"/>
<path opacity="0.5" d="M117.575 100.861C117.575 101.018 117.575 101.096 117.575 101.096L31.2448 120.706C32.3887 120.111 40.0301 68.2821 40.0301 68.2821C40.0301 68.2821 122.536 53.0059 123.7 52.9405C123.713 52.9428 123.725 52.9478 123.736 52.955C123.747 52.9622 123.757 52.9716 123.764 52.9826C123.771 52.9936 123.776 53.006 123.779 53.0189C123.781 53.0319 123.781 53.0453 123.778 53.0581C122.314 64.0725 118.098 97.3769 117.575 100.861Z" fill="black" stroke="#263238" stroke-width="0.955681" stroke-linecap="round" stroke-linejoin="round"/>
<path d="M39.9974 68.2886C39.9974 68.2886 23.9498 78.1002 20.8841 89.559C17.8184 101.018 31.2121 120.713 31.2121 120.713C31.2121 120.713 33.7549 111.163 35.997 94.5007C36.8794 87.9314 39.9974 68.2886 39.9974 68.2886Z" fill="#263238" stroke="#263238" stroke-width="0.955681" stroke-linecap="round" stroke-linejoin="round"/>
<path opacity="0.5" d="M113.463 101.894C111.744 99.3967 102.482 86.9901 106.619 77.3615C114.025 60.1112 119.64 59.3399 122.17 54.9603C122.203 54.9734 113.986 98.4227 113.463 101.894Z" fill="black"/>
<path d="M31.2121 120.713L35.7551 119.68L43.6906 72.6225L119.83 58.0457L113.463 101.907L117.542 101.096L123.732 53.0647L39.9974 68.2886L31.2121 120.713Z" fill="#92E3A9" stroke="#263238" stroke-width="0.955681" stroke-linecap="round" stroke-linejoin="round"/>
<path d="M31.2121 120.713L33.8856 151.056H31.2121L32.5194 157.893C32.5194 157.893 63.1438 178.647 65.7715 178.569C71.3343 178.412 146.173 154.625 146.173 154.625L146.931 149.278L145.022 148.258V120.713L117.522 101.103L31.2121 120.713Z" fill="#92E3A9" stroke="#263238" stroke-width="0.955681" stroke-linecap="round" stroke-linejoin="round"/>
<path opacity="0.5" d="M145.042 120.713V148.258L65.4055 171.424L33.8791 151.063L31.2121 120.713L117.542 101.096L145.042 120.713Z" fill="black"/>
<path opacity="0.2" d="M31.2121 120.713L63.6798 140.31L145.042 120.713L117.542 101.096L31.2121 120.713Z" fill="black"/>
<path opacity="0.5" d="M39.9974 121.308L64.4446 135.78L137.021 118.203L116.777 103.691L39.9974 121.308Z" fill="black"/>
<path d="M63.6798 140.31L65.7977 178.569" stroke="#263238" stroke-width="0.955681" stroke-linecap="round" stroke-linejoin="round"/>
<path d="M33.8856 153.736L65.4905 174.046" stroke="#263238" stroke-width="0.955681" stroke-linecap="round" stroke-linejoin="round"/>
<path d="M145.042 150.422L65.7977 174.046" stroke="#263238" stroke-width="0.955681" stroke-linecap="round" stroke-linejoin="round"/>
<path opacity="0.4" d="M112.483 146.657C106.92 149.017 101.24 146.199 101.24 146.199V141.624C104.224 142.841 107.49 143.194 110.665 142.643C112.993 142.29 113.457 141.336 113.28 140.454C114.627 145.506 112.483 146.657 112.483 146.657Z" fill="white"/>
<path opacity="0.6" d="M110.665 142.656C107.49 143.207 104.224 142.854 101.24 141.637H101.279L111.94 138.368C112.551 138.955 113.002 139.689 113.247 140.499C113.457 141.375 112.993 142.303 110.665 142.656Z" fill="white"/>
<path d="M112.483 146.657C106.92 149.017 101.24 146.199 101.24 146.199V141.624H101.279L111.94 138.355C112.551 138.942 113.002 139.676 113.247 140.486C114.627 145.506 112.483 146.657 112.483 146.657Z" stroke="#263238" stroke-width="0.955681" stroke-linecap="round" stroke-linejoin="round"/>
<path d="M39.7882 121.308L64.2354 135.78L136.793 118.209L120.006 105.561C119.805 104.489 119.286 103.503 118.516 102.73C117.522 101.671 116.302 100.849 114.947 100.325L114.293 100.214C114.293 100.214 107.567 84.8461 93.9904 80.6037C80.4137 76.3614 33.3954 112.745 39.7948 121.314" fill="white"/>
<path d="M39.7882 121.308L64.2354 135.78L136.793 118.209L120.006 105.561C119.805 104.489 119.286 103.503 118.516 102.73C117.522 101.671 116.302 100.849 114.947 100.325L114.293 100.214C114.293 100.214 107.567 84.8461 93.9904 80.6037C80.4137 76.3614 33.3954 112.745 39.7948 121.314" stroke="#92E3A9" stroke-width="0.955681" stroke-linecap="round" stroke-linejoin="round"/>
<path d="M60.3722 92.4547C60.5618 92.9907 60.0323 93.4941 59.5878 93.847C59.1433 94.2 58.6661 94.7949 58.9668 95.2851C58.6509 95.0996 58.2876 95.0106 57.9216 95.0292C57.5557 95.0478 57.2033 95.1731 56.9078 95.3897C56.6153 95.6138 56.3967 95.9204 56.2802 96.2699C56.1637 96.6195 56.1546 96.9959 56.2541 97.3507C56.594 98.3966 57.7837 98.8803 58.8688 99.1287C61.2363 99.5964 63.6461 99.8155 66.0591 99.7823C66.4056 99.7823 66.8566 99.717 66.922 99.3771C66.9272 99.249 66.8896 99.1229 66.815 99.0187C66.7403 98.9145 66.6331 98.8381 66.5102 98.8018C66.2748 98.7038 66.0068 98.6907 65.765 98.5992C65.6099 98.5252 65.4729 98.4182 65.3637 98.2856C65.2544 98.153 65.1755 97.998 65.1325 97.8317C65.0896 97.6654 65.0835 97.4916 65.1149 97.3227C65.1462 97.1538 65.2142 96.9938 65.3139 96.8539C65.2286 96.6136 65.2403 96.3495 65.3464 96.1176C65.4526 95.8857 65.6449 95.7044 65.8826 95.6119C66.3675 95.4415 66.8898 95.4076 67.3926 95.5139C67.467 95.3706 67.4901 95.2062 67.458 95.048C67.4259 94.8898 67.3405 94.7474 67.2161 94.6445C67.3727 94.4986 67.4801 94.3076 67.5234 94.098C67.5667 93.8884 67.5439 93.6705 67.458 93.4744C66.6867 91.6965 61.8757 92.2259 60.3722 92.4547Z" fill="white"/>
<path d="M65.9873 94.6118C64.3969 94.4681 62.8221 94.186 61.2809 93.7686Z" fill="white"/>
<path d="M65.9873 94.6118C64.3969 94.4681 62.8221 94.186 61.2809 93.7686" stroke="#92E3A9" stroke-width="0.716761" stroke-linecap="round" stroke-linejoin="round"/>
<path d="M64.5426 96.6643C63.328 96.7268 62.113 96.5491 60.9671 96.1414Z" fill="white"/>
<path d="M64.5426 96.6643C63.328 96.7268 62.113 96.5491 60.9671 96.1414" stroke="#92E3A9" stroke-width="0.716761" stroke-linecap="round" stroke-linejoin="round"/>
<path d="M64.523 98.5142C62.1253 98.4975 59.7428 98.132 57.4503 97.4291Z" fill="white"/>
<path d="M64.523 98.5142C62.1253 98.4975 59.7428 98.132 57.4503 97.4291" stroke="#92E3A9" stroke-width="0.716761" stroke-linecap="round" stroke-linejoin="round"/>
<path d="M39.664 114.274C39.8536 114.81 39.3307 115.313 38.8796 115.666C38.4286 116.019 37.9645 116.614 38.2652 117.105C37.9483 116.918 37.5838 116.829 37.2167 116.848C36.8497 116.866 36.4961 116.992 36.1996 117.209C35.912 117.436 35.6995 117.745 35.5899 118.095C35.4803 118.445 35.4786 118.819 35.5851 119.17C35.9185 120.216 37.1082 120.7 38.1998 120.948C40.5785 121.414 42.9991 121.634 45.4229 121.602C45.7693 121.602 46.2269 121.536 46.2922 121.197C46.2963 121.067 46.2575 120.94 46.1819 120.835C46.1062 120.729 45.998 120.652 45.8739 120.615C45.6386 120.523 45.3706 120.51 45.1352 120.419C44.9796 120.345 44.842 120.239 44.7321 120.106C44.6222 119.974 44.5426 119.819 44.499 119.653C44.4553 119.486 44.4487 119.312 44.4796 119.143C44.5105 118.974 44.5781 118.814 44.6777 118.673C44.5944 118.432 44.6078 118.168 44.7151 117.936C44.8223 117.705 45.0151 117.524 45.2529 117.431C45.7356 117.263 46.2549 117.226 46.7563 117.327C46.8404 117.188 46.8696 117.022 46.8382 116.863C46.8067 116.703 46.717 116.561 46.5864 116.464C46.7424 116.316 46.8488 116.124 46.891 115.913C46.9331 115.702 46.9089 115.484 46.8217 115.287C45.9785 113.509 41.1479 114.039 39.664 114.274Z" fill="white"/>
<path d="M45.2725 116.425C43.6819 116.287 42.1067 116.007 40.5661 115.588" stroke="#92E3A9" stroke-width="0.716761" stroke-linecap="round" stroke-linejoin="round"/>
<path d="M43.8344 118.464C42.6223 118.529 41.4093 118.354 40.2654 117.948" stroke="#92E3A9" stroke-width="0.716761" stroke-linecap="round" stroke-linejoin="round"/>
<path d="M43.8148 120.334C41.4187 120.318 39.0378 119.95 36.7487 119.242" stroke="#92E3A9" stroke-width="0.716761" stroke-linecap="round" stroke-linejoin="round"/>
<path d="M69.3929 86.5129C69.5301 87.0685 68.9484 87.513 68.4646 87.8202C67.9809 88.1274 67.4515 88.6634 67.6998 89.1798C67.404 88.9617 67.0507 88.8349 66.6837 88.8151C66.3166 88.7954 65.9518 88.8835 65.6343 89.0687C65.3238 89.2651 65.0794 89.5501 64.9325 89.8869C64.7857 90.2236 64.7433 90.5967 64.8106 90.9578C65.0394 92.0363 66.1703 92.6443 67.2096 93.0038C69.5259 93.7143 71.909 94.1852 74.3215 94.4092C74.668 94.4484 75.1255 94.4092 75.2236 94.0954C75.2438 93.9681 75.2206 93.8376 75.1578 93.725C75.095 93.6124 74.9961 93.5241 74.8771 93.4744C74.6483 93.3568 74.3869 93.3176 74.1581 93.1999C74.0117 93.1097 73.8868 92.9886 73.7923 92.845C73.6978 92.7013 73.6359 92.5388 73.611 92.3686C73.586 92.1985 73.5987 92.025 73.6481 91.8603C73.6974 91.6956 73.7823 91.5437 73.8966 91.4154C73.8385 91.1669 73.8789 90.9055 74.0093 90.6861C74.1397 90.4668 74.35 90.3064 74.596 90.2388C75.0954 90.1212 75.6173 90.1415 76.106 90.2976C76.2034 90.1672 76.2487 90.0052 76.233 89.8432C76.2173 89.6812 76.1417 89.5309 76.0211 89.4217C76.1933 89.2928 76.3207 89.113 76.3852 88.9077C76.4498 88.7024 76.4481 88.4821 76.3806 88.2778C75.753 86.4279 70.9159 86.4475 69.3929 86.5129Z" fill="white"/>
<path d="M74.7399 89.2518C73.1778 88.9569 71.6462 88.5193 70.1642 87.9444" stroke="#92E3A9" stroke-width="0.716761" stroke-linecap="round" stroke-linejoin="round"/>
<path d="M73.0991 91.1278C71.8829 91.0681 70.6912 90.7635 69.5955 90.2323" stroke="#92E3A9" stroke-width="0.716761" stroke-linecap="round" stroke-linejoin="round"/>
<path d="M72.8769 92.9842C70.5026 92.7136 68.1812 92.0947 65.9873 91.1474" stroke="#92E3A9" stroke-width="0.716761" stroke-linecap="round" stroke-linejoin="round"/>
<path d="M108.083 88.4739C108.025 89.0099 108.613 89.3563 109.103 89.5916C109.593 89.827 110.149 90.2453 109.973 90.7748C110.224 90.5362 110.541 90.3767 110.882 90.3163C111.224 90.2559 111.576 90.2971 111.894 90.4349C112.208 90.5825 112.47 90.821 112.646 91.1195C112.822 91.418 112.904 91.7625 112.881 92.1083C112.79 93.1411 111.803 93.8405 110.868 94.2915C108.785 95.2257 106.609 95.9399 104.377 96.4225C104.063 96.5009 103.632 96.5336 103.501 96.2329C103.468 96.1158 103.475 95.9909 103.521 95.8783C103.567 95.7656 103.65 95.6718 103.756 95.6119C103.952 95.4747 104.194 95.4093 104.41 95.272C104.538 95.1718 104.642 95.0446 104.714 94.8996C104.787 94.7546 104.827 94.5953 104.832 94.433C104.836 94.2707 104.805 94.1095 104.74 93.9608C104.675 93.812 104.578 93.6795 104.456 93.5725C104.484 93.3338 104.417 93.0936 104.271 92.9031C104.124 92.7126 103.909 92.5869 103.671 92.5528C103.191 92.5047 102.706 92.5836 102.266 92.7815C102.17 92.6646 102.117 92.5179 102.117 92.3665C102.117 92.2151 102.17 92.0684 102.266 91.9514C102.092 91.849 101.953 91.6957 101.869 91.5122C101.785 91.3287 101.759 91.1238 101.795 90.9251C102.129 89.121 106.659 88.585 108.083 88.4739Z" fill="white"/>
<path d="M103.403 91.6507C104.834 91.1859 106.219 90.5907 107.541 89.8727" stroke="#92E3A9" stroke-width="0.716761" stroke-linecap="round" stroke-linejoin="round"/>
<path d="M105.148 93.213C106.278 93.0163 107.356 92.5939 108.319 91.971" stroke="#92E3A9" stroke-width="0.716761" stroke-linecap="round" stroke-linejoin="round"/>
<path d="M105.567 94.9256C107.763 94.4004 109.87 93.557 111.822 92.4221" stroke="#92E3A9" stroke-width="0.716761" stroke-linecap="round" stroke-linejoin="round"/>
<path d="M122.471 105.705C122.471 106.025 122.798 106.241 123.124 106.358C123.451 106.476 123.778 106.77 123.654 107.084C123.807 106.937 123.999 106.839 124.207 106.802C124.415 106.765 124.63 106.79 124.824 106.875C125.014 106.965 125.173 107.111 125.28 107.293C125.388 107.474 125.438 107.684 125.425 107.894C125.366 108.548 124.772 108.947 124.203 109.202C122.945 109.773 121.63 110.211 120.281 110.509C120.085 110.561 119.823 110.581 119.745 110.398C119.725 110.326 119.73 110.25 119.758 110.181C119.787 110.113 119.837 110.055 119.902 110.019C120.019 109.934 120.17 109.895 120.287 109.81C120.368 109.751 120.434 109.675 120.481 109.587C120.528 109.499 120.554 109.401 120.557 109.301C120.56 109.202 120.54 109.102 120.499 109.012C120.458 108.921 120.397 108.84 120.32 108.777C120.334 108.631 120.291 108.486 120.201 108.371C120.111 108.255 119.981 108.178 119.836 108.156C119.543 108.126 119.247 108.176 118.98 108.3C118.922 108.228 118.89 108.138 118.89 108.045C118.89 107.952 118.922 107.862 118.98 107.79C118.875 107.728 118.791 107.635 118.739 107.524C118.688 107.413 118.672 107.289 118.693 107.169C118.849 106.097 121.601 105.77 122.471 105.705Z" fill="white"/>
<path d="M119.621 107.633C120.492 107.348 121.336 106.987 122.144 106.554" stroke="#92E3A9" stroke-width="0.716761" stroke-linecap="round" stroke-linejoin="round"/>
<path d="M120.686 108.587C121.373 108.466 122.029 108.208 122.615 107.829" stroke="#92E3A9" stroke-width="0.716761" stroke-linecap="round" stroke-linejoin="round"/>
<path d="M120.941 109.627C122.276 109.305 123.558 108.792 124.746 108.104" stroke="#92E3A9" stroke-width="0.716761" stroke-linecap="round" stroke-linejoin="round"/>
<path d="M65.7715 98.2986C65.8415 98.6352 65.9858 98.9519 66.1939 99.2256C66.402 99.4993 66.6686 99.7231 66.9743 99.8805C67.5823 100.187 68.2545 100.344 68.9353 100.338C70.0373 100.424 71.1333 100.108 72.0206 99.449" stroke="#92E3A9" stroke-width="0.716761" stroke-linecap="round" stroke-linejoin="round"/>
<path d="M74.8249 100.24C75.3149 100.772 75.9773 101.114 76.6951 101.205C77.4128 101.296 78.1396 101.13 78.7469 100.737" stroke="#92E3A9" stroke-width="0.716761" stroke-linecap="round" stroke-linejoin="round"/>
<path d="M71.6219 95.8799C71.3173 96.0133 71.0385 96.1992 70.7983 96.429C70.6801 96.5467 70.59 96.6895 70.5345 96.8468C70.4791 97.0041 70.4597 97.1719 70.478 97.3376C70.576 97.9913 71.3473 98.2593 71.9945 98.3639C73.7325 98.6113 75.4995 98.5693 77.2238 98.2397C77.4965 98.2069 77.7605 98.1226 78.0017 97.9913C78.1221 97.9273 78.2243 97.8338 78.2987 97.7194C78.373 97.6051 78.417 97.4737 78.4266 97.3376C78.4266 97.2696 78.413 97.2022 78.3865 97.1394C78.3601 97.0767 78.3214 97.0199 78.2726 96.9724C78.2239 96.9249 78.1661 96.8876 78.1028 96.8628C78.0394 96.8379 77.9717 96.826 77.9036 96.8278" stroke="#92E3A9" stroke-width="0.716761" stroke-linecap="round" stroke-linejoin="round"/>
<path d="M79.4267 100.148C80.7808 100.987 82.3464 101.42 83.9388 101.398C85.5312 101.376 87.0841 100.9 88.4146 100.024C88.4559 100.003 88.4924 99.9736 88.5217 99.9376C88.5509 99.9016 88.5724 99.8598 88.5846 99.8151" stroke="#92E3A9" stroke-width="0.716761" stroke-linecap="round" stroke-linejoin="round"/>
<path d="M95.337 98.5012C98.249 99.176 101.309 98.7229 103.9 97.233" stroke="#92E3A9" stroke-width="0.716761" stroke-linecap="round" stroke-linejoin="round"/>
<path d="M108.358 95.2982C109.619 95.1774 110.814 94.6809 111.79 93.8732" stroke="#92E3A9" stroke-width="0.716761" stroke-linecap="round" stroke-linejoin="round"/>
<path d="M81.6753 83.0746C81.6766 83.2989 81.6112 83.5184 81.4874 83.7054C81.3637 83.8923 81.1871 84.0383 80.9802 84.1247C80.7733 84.2111 80.5454 84.234 80.3254 84.1906C80.1055 84.1472 79.9034 84.0393 79.7448 83.8808C79.5863 83.7223 79.4784 83.5202 79.435 83.3002C79.3916 83.0802 79.4145 82.8523 79.5009 82.6454C79.5873 82.4385 79.7333 82.262 79.9203 82.1382C80.1072 82.0144 80.3268 81.949 80.551 81.9503C80.8492 81.9503 81.1351 82.0688 81.346 82.2796C81.5568 82.4905 81.6753 82.7765 81.6753 83.0746Z" fill="white" stroke="#92E3A9" stroke-width="0.716761" stroke-linecap="round" stroke-linejoin="round"/>
<path d="M82.8126 84.199C82.8139 84.4229 82.7487 84.6422 82.6252 84.829C82.5018 85.0158 82.3256 85.1618 82.1191 85.2484C81.9126 85.335 81.685 85.3583 81.4652 85.3154C81.2454 85.2725 81.0433 85.1653 80.8845 85.0074C80.7257 84.8496 80.6173 84.6481 80.5732 84.4285C80.529 84.209 80.551 83.9813 80.6364 83.7743C80.7218 83.5672 80.8668 83.3902 81.0529 83.2657C81.239 83.1411 81.4579 83.0746 81.6818 83.0746C81.9806 83.0746 82.2672 83.1929 82.4791 83.4036C82.691 83.6142 82.8109 83.9002 82.8126 84.199Z" fill="white" stroke="#92E3A9" stroke-width="0.716761" stroke-linecap="round" stroke-linejoin="round"/>
<path d="M84.2377 84.9637C84.239 85.1876 84.1737 85.4069 84.0503 85.5937C83.9268 85.7806 83.7506 85.9265 83.5441 86.0131C83.3376 86.0997 83.11 86.1231 82.8902 86.0802C82.6704 86.0373 82.4683 85.9301 82.3095 85.7722C82.1507 85.6143 82.0424 85.4128 81.9982 85.1933C81.954 84.9737 81.976 84.746 82.0614 84.539C82.1468 84.332 82.2918 84.155 82.4779 84.0305C82.664 83.9059 82.8829 83.8394 83.1068 83.8394C83.255 83.8385 83.4019 83.867 83.5391 83.9231C83.6762 83.9792 83.801 84.0619 83.906 84.1664C84.0111 84.2709 84.0945 84.3951 84.1515 84.5319C84.2084 84.6688 84.2377 84.8155 84.2377 84.9637Z" fill="white" stroke="#92E3A9" stroke-width="0.716761" stroke-linecap="round" stroke-linejoin="round"/>
<path d="M85.362 85.3298C85.362 85.5537 85.2955 85.7726 85.1709 85.9587C85.0464 86.1448 84.8694 86.2897 84.6624 86.3751C84.4553 86.4605 84.2276 86.4825 84.0081 86.4384C83.7886 86.3942 83.5871 86.2858 83.4292 86.127C83.2713 85.9682 83.1641 85.7661 83.1212 85.5463C83.0783 85.3265 83.1017 85.099 83.1882 84.8924C83.2748 84.6859 83.4208 84.5098 83.6076 84.3863C83.7945 84.2628 84.0137 84.1976 84.2377 84.1989C84.3859 84.1989 84.5326 84.2282 84.6694 84.2851C84.8063 84.342 84.9305 84.4254 85.035 84.5305C85.1395 84.6356 85.2222 84.7603 85.2783 84.8975C85.3344 85.0347 85.3628 85.1816 85.362 85.3298Z" fill="white" stroke="#92E3A9" stroke-width="0.716761" stroke-linecap="round" stroke-linejoin="round"/>
<path d="M86.9046 85.6762C86.9046 85.8985 86.8387 86.1159 86.7151 86.3008C86.5916 86.4857 86.416 86.6298 86.2106 86.7149C86.0051 86.8 85.7791 86.8222 85.561 86.7789C85.3429 86.7355 85.1425 86.6284 84.9853 86.4712C84.8281 86.3139 84.721 86.1136 84.6776 85.8955C84.6342 85.6774 84.6565 85.4514 84.7416 85.2459C84.8267 85.0405 84.9708 84.8649 85.1557 84.7413C85.3406 84.6178 85.5579 84.5518 85.7803 84.5518C86.078 84.5536 86.3629 84.6726 86.5734 84.8831C86.7839 85.0935 86.9029 85.3785 86.9046 85.6762Z" fill="white" stroke="#92E3A9" stroke-width="0.716761" stroke-linecap="round" stroke-linejoin="round"/>
<path d="M88.5846 85.6762C88.5859 85.9001 88.5206 86.1194 88.3972 86.3062C88.2737 86.493 88.0976 86.639 87.891 86.7256C87.6845 86.8122 87.4569 86.8355 87.2372 86.7926C87.0174 86.7497 86.8153 86.6425 86.6564 86.4846C86.4976 86.3268 86.3893 86.1253 86.3451 85.9057C86.301 85.6862 86.323 85.4585 86.4084 85.2515C86.4938 85.0444 86.6387 84.8674 86.8248 84.7429C87.0109 84.6183 87.2298 84.5519 87.4537 84.5518C87.752 84.5535 88.0377 84.6723 88.2492 84.8826C88.4607 85.0929 88.5812 85.3779 88.5846 85.6762Z" fill="white" stroke="#92E3A9" stroke-width="0.716761" stroke-linecap="round" stroke-linejoin="round"/>
<path d="M89.0814 86.8005C89.7023 86.8005 90.2057 86.2971 90.2057 85.6762C90.2057 85.0552 89.7023 84.5518 89.0814 84.5518C88.4604 84.5518 87.9571 85.0552 87.9571 85.6762C87.9571 86.2971 88.4604 86.8005 89.0814 86.8005Z" fill="white" stroke="#92E3A9" stroke-width="0.716761" stroke-linecap="round" stroke-linejoin="round"/>
<path d="M90.624 86.8005C91.245 86.8005 91.7483 86.2971 91.7483 85.6762C91.7483 85.0552 91.245 84.5518 90.624 84.5518C90.0031 84.5518 89.4997 85.0552 89.4997 85.6762C89.4997 86.2971 90.0031 86.8005 90.624 86.8005Z" fill="white" stroke="#92E3A9" stroke-width="0.716761" stroke-linecap="round" stroke-linejoin="round"/>
<path d="M100.174 83.4276C100.173 83.6497 100.106 83.8664 99.9814 84.0504C99.8571 84.2345 99.6811 84.3775 99.4755 84.4616C99.27 84.5457 99.0441 84.5671 98.8265 84.5229C98.6088 84.4788 98.4091 84.3712 98.2525 84.2137C98.0959 84.0562 97.9895 83.8559 97.9466 83.638C97.9038 83.4201 97.9264 83.1944 98.0117 82.9893C98.097 82.7842 98.2411 82.609 98.4258 82.4858C98.6106 82.3625 98.8277 82.2967 99.0498 82.2967C99.198 82.2967 99.3447 82.326 99.4816 82.3829C99.6184 82.4398 99.7426 82.5232 99.8471 82.6283C99.9516 82.7334 100.034 82.8582 100.09 82.9953C100.147 83.1325 100.175 83.2794 100.174 83.4276Z" fill="white" stroke="#92E3A9" stroke-width="0.716761" stroke-linecap="round" stroke-linejoin="round"/>
<path d="M99.0498 84.0224C99.0511 84.2466 98.9857 84.4661 98.8619 84.6531C98.7382 84.8401 98.5616 84.986 98.3547 85.0724C98.1478 85.1588 97.9199 85.1818 97.6999 85.1384C97.48 85.0949 97.2779 84.9871 97.1193 84.8286C96.9608 84.67 96.853 84.4679 96.8095 84.2479C96.7661 84.028 96.789 83.8001 96.8754 83.5932C96.9618 83.3863 97.1078 83.2097 97.2948 83.0859C97.4817 82.9622 97.7013 82.8968 97.9255 82.8981C98.2237 82.8981 98.5096 83.0165 98.7205 83.2274C98.9313 83.4382 99.0498 83.7242 99.0498 84.0224Z" fill="white" stroke="#92E3A9" stroke-width="0.716761" stroke-linecap="round" stroke-linejoin="round"/>
<path d="M96.6116 85.8853C97.2325 85.8853 97.7359 85.382 97.7359 84.761C97.7359 84.1401 97.2325 83.6367 96.6116 83.6367C95.9906 83.6367 95.4873 84.1401 95.4873 84.761C95.4873 85.382 95.9906 85.8853 96.6116 85.8853Z" fill="white" stroke="#92E3A9" stroke-width="0.716761" stroke-linecap="round" stroke-linejoin="round"/>
<path d="M95.1605 86.4541C95.7814 86.4541 96.2848 85.9507 96.2848 85.3298C96.2848 84.7088 95.7814 84.2054 95.1605 84.2054C94.5395 84.2054 94.0361 84.7088 94.0361 85.3298C94.0361 85.9507 94.5395 86.4541 95.1605 86.4541Z" fill="white" stroke="#92E3A9" stroke-width="0.716761" stroke-linecap="round" stroke-linejoin="round"/>
<path d="M93.8139 86.8005C94.4349 86.8005 94.9382 86.2971 94.9382 85.6762C94.9382 85.0552 94.4349 84.5518 93.8139 84.5518C93.193 84.5518 92.6896 85.0552 92.6896 85.6762C92.6896 86.2971 93.193 86.8005 93.8139 86.8005Z" fill="white" stroke="#92E3A9" stroke-width="0.716761" stroke-linecap="round" stroke-linejoin="round"/>
<path d="M92.1863 86.8005C92.8072 86.8005 93.3106 86.2971 93.3106 85.6762C93.3106 85.0552 92.8072 84.5518 92.1863 84.5518C91.5653 84.5518 91.062 85.0552 91.062 85.6762C91.062 86.2971 91.5653 86.8005 92.1863 86.8005Z" fill="white" stroke="#92E3A9" stroke-width="0.716761" stroke-linecap="round" stroke-linejoin="round"/>
<path d="M92.1863 86.8005C92.8072 86.8005 93.3106 86.2971 93.3106 85.6762C93.3106 85.0552 92.8072 84.5518 92.1863 84.5518C91.5653 84.5518 91.062 85.0552 91.062 85.6762C91.062 86.2971 91.5653 86.8005 92.1863 86.8005Z" fill="white" stroke="#92E3A9" stroke-width="0.716761" stroke-linecap="round" stroke-linejoin="round"/>
<path d="M80.8582 90.0296L80.5836 89.4021" stroke="#92E3A9" stroke-width="0.716761" stroke-linecap="round" stroke-linejoin="round"/>
<path d="M78.7468 89.7747C78.7468 89.8662 78.6226 90.3891 78.5311 90.3891" stroke="#92E3A9" stroke-width="0.716761" stroke-linecap="round" stroke-linejoin="round"/>
<path d="M78.6357 89.1406L77.8448 89.6701" stroke="#92E3A9" stroke-width="0.716761" stroke-linecap="round" stroke-linejoin="round"/>
<path d="M82.5512 88.0098L81.2438 87.2254C81.0804 87.1209 79.4201 87.9968 79.4201 87.9968C79.4201 87.9968 77.5572 89.6767 77.8382 89.6702L78.3089 90.8075C78.3089 90.8075 80.551 90.4219 80.9236 90.3892C81.2961 90.3565 82.7015 88.7158 82.7015 88.7158" stroke="#92E3A9" stroke-width="0.716761" stroke-linecap="round" stroke-linejoin="round"/>
<path d="M81.6753 88.3301C81.3057 88.6153 80.9522 88.9209 80.6164 89.2452L79.3744 89.5786" stroke="#92E3A9" stroke-width="0.716761" stroke-linecap="round" stroke-linejoin="round"/>
<path d="M88.6172 91.3566L88.4081 90.8532" stroke="#92E3A9" stroke-width="0.716761" stroke-linecap="round" stroke-linejoin="round"/>
<path d="M86.9765 91.1539C86.9765 91.2258 86.8785 91.6376 86.8066 91.6442" stroke="#92E3A9" stroke-width="0.716761" stroke-linecap="round" stroke-linejoin="round"/>
<path d="M86.8915 90.6506L86.2771 91.0689" stroke="#92E3A9" stroke-width="0.716761" stroke-linecap="round" stroke-linejoin="round"/>
<path d="M89.9311 89.7486L88.9179 89.0949C88.4236 89.2404 87.9494 89.4468 87.506 89.7094C87.506 89.7094 86.0614 91.0494 86.2771 91.0167L86.6432 91.9253C86.6432 91.9253 88.3819 91.6181 88.663 91.5919C88.9441 91.5658 90.0488 90.2846 90.0488 90.2846" stroke="#92E3A9" stroke-width="0.716761" stroke-linecap="round" stroke-linejoin="round"/>
<path d="M89.2252 90.0035C88.9393 90.2297 88.6665 90.472 88.4081 90.7291L87.4406 90.9971" stroke="#92E3A9" stroke-width="0.716761" stroke-linecap="round" stroke-linejoin="round"/>
<path d="M91.6372 95.5989L92.0882 96.0041" stroke="#92E3A9" stroke-width="0.716761" stroke-linecap="round" stroke-linejoin="round"/>
<path d="M91.2581 97.3965C91.1862 97.3965 90.7155 97.3181 90.6894 97.3965" stroke="#92E3A9" stroke-width="0.716761" stroke-linecap="round" stroke-linejoin="round"/>
<path d="M91.7614 97.6645L91.0947 98.1613" stroke="#92E3A9" stroke-width="0.716761" stroke-linecap="round" stroke-linejoin="round"/>
<path d="M93.7943 94.8014C93.7943 94.8014 94.0493 95.9257 94.0885 96.1087C94.1277 96.2917 92.938 97.3703 92.938 97.3703C92.938 97.3703 91.0162 98.4096 91.0947 98.1809L90.2776 97.4684C90.2776 97.4684 91.2254 95.7558 91.3561 95.4681C91.4869 95.1805 93.2518 94.5007 93.2518 94.5007" stroke="#92E3A9" stroke-width="0.716761" stroke-linecap="round" stroke-linejoin="round"/>
<path d="M93.2779 95.4485C92.9369 95.6695 92.5833 95.8703 92.2189 96.0499L91.5653 96.9716" stroke="#92E3A9" stroke-width="0.716761" stroke-linecap="round" stroke-linejoin="round"/>
<path d="M97.3502 92.6705L98.1412 91.8991" stroke="#92E3A9" stroke-width="0.716761" stroke-linecap="round" stroke-linejoin="round"/>
<path d="M100.632 93.579C100.573 93.7098 100.442 94.5595 100.579 94.6184" stroke="#92E3A9" stroke-width="0.716761" stroke-linecap="round" stroke-linejoin="round"/>
<path d="M101.187 92.7031L102.044 93.9712" stroke="#92E3A9" stroke-width="0.716761" stroke-linecap="round" stroke-linejoin="round"/>
<path d="M96.056 88.6439C96.056 88.6439 98.1543 88.3301 98.4615 88.2713C98.7687 88.2124 100.704 90.5199 100.704 90.5199C100.704 90.5199 102.449 94.1478 102.011 93.9713L100.632 95.357C100.632 95.357 97.5398 93.4287 97.0169 93.1542C96.4939 92.8796 95.3958 89.5852 95.3958 89.5852" stroke="#92E3A9" stroke-width="0.716761" stroke-linecap="round" stroke-linejoin="round"/>
<path d="M97.213 89.6635C97.59 90.313 97.9304 90.9829 98.2327 91.6703L99.8799 92.9253" stroke="#92E3A9" stroke-width="0.716761" stroke-linecap="round" stroke-linejoin="round"/>
<path d="M88.4473 80.8979C88.4473 80.8979 90.1011 82.8197 90.5259 82.8589C90.9508 82.8981 93.5786 83.3492 93.5786 83.3492L94.1342 82.0418C94.461 82.0418 92.2778 80.0808 92.2778 80.0808C92.2778 80.0808 90.3168 79.0611 90.1468 79.1853C89.9769 79.3095 88.6238 80.1004 88.6238 80.1004L88.2054 80.473L88.4473 80.8979Z" fill="white"/>
<path d="M90.6044 82.4405L90.9182 81.7018" stroke="#92E3A9" stroke-width="0.716761" stroke-linecap="round" stroke-linejoin="round"/>
<path d="M93.0753 82.1399C93.0753 82.2444 93.2191 82.8589 93.3302 82.8589" stroke="#92E3A9" stroke-width="0.716761" stroke-linecap="round" stroke-linejoin="round"/>
<path d="M93.206 81.4012L94.1342 82.0222" stroke="#92E3A9" stroke-width="0.716761" stroke-linecap="round" stroke-linejoin="round"/>
<path d="M88.4473 80.8979C88.4473 80.8979 90.1011 82.8197 90.5259 82.8589C90.9508 82.8981 93.5786 83.3492 93.5786 83.3492L94.1342 82.0418C94.461 82.0418 92.2778 80.0808 92.2778 80.0808C92.2778 80.0808 90.3168 79.0611 90.1468 79.1853C89.9769 79.3095 88.6238 80.1004 88.6238 80.1004L88.2054 80.473L88.4473 80.8979Z" stroke="#92E3A9" stroke-width="0.716761" stroke-linecap="round" stroke-linejoin="round"/>
<path d="M89.6827 80.4468C90.1139 80.7812 90.5263 81.1391 90.9182 81.5188L92.3824 81.911" stroke="#92E3A9" stroke-width="0.716761" stroke-linecap="round" stroke-linejoin="round"/>
<path d="M54.9141 103.685C54.9141 103.685 52.6393 105.881 52.1033 105.881C51.5673 105.881 48.2598 106.143 48.2598 106.143L47.7238 104.43C47.3119 104.397 50.2469 102.201 50.2469 102.201C50.2469 102.201 52.7701 101.149 52.9989 101.325C53.2276 101.502 54.7834 102.632 54.7834 102.632L55.2605 103.142L54.9141 103.685Z" fill="white"/>
<path d="M52.0576 105.352L51.7438 104.397" stroke="#92E3A9" stroke-width="0.716761" stroke-linecap="round" stroke-linejoin="round"/>
<path d="M48.9919 104.698C48.9919 104.829 48.7304 105.567 48.5931 105.561" stroke="#92E3A9" stroke-width="0.716761" stroke-linecap="round" stroke-linejoin="round"/>
<path d="M48.9461 103.763L47.7237 104.43" stroke="#92E3A9" stroke-width="0.716761" stroke-linecap="round" stroke-linejoin="round"/>
<path d="M52.9989 101.325C53.2211 101.501 54.7834 102.632 54.7834 102.632L55.2606 103.142L54.9141 103.678C54.9141 103.678 52.6393 105.875 52.1033 105.875C51.5673 105.875 48.2598 106.136 48.2598 106.136L48.1552 105.809" stroke="#92E3A9" stroke-width="0.716761" stroke-linecap="round" stroke-linejoin="round"/>
<path d="M53.4303 102.979C52.8523 103.343 52.2957 103.74 51.7634 104.168L49.907 104.489" stroke="#92E3A9" stroke-width="0.716761" stroke-linecap="round" stroke-linejoin="round"/>
<path d="M127.707 114.784C127.707 114.784 129.975 116.98 130.517 116.98C131.06 116.98 134.354 117.242 134.354 117.242L134.897 115.529C135.302 115.497 132.374 113.3 132.374 113.3C132.374 113.3 129.844 112.248 129.622 112.424C129.4 112.601 127.831 113.732 127.831 113.732L127.354 114.242L127.707 114.784Z" fill="white"/>
<path d="M130.557 116.451L130.87 115.497" stroke="#92E3A9" stroke-width="0.716761" stroke-linecap="round" stroke-linejoin="round"/>
<path d="M133.596 115.797C133.596 115.928 133.858 116.673 133.995 116.66" stroke="#92E3A9" stroke-width="0.716761" stroke-linecap="round" stroke-linejoin="round"/>
<path d="M133.675 114.863L134.897 115.529" stroke="#92E3A9" stroke-width="0.716761" stroke-linecap="round" stroke-linejoin="round"/>
<path d="M129.622 112.424C129.4 112.601 127.831 113.732 127.831 113.732L127.354 114.242L127.707 114.778C127.707 114.778 129.975 116.974 130.517 116.974C131.06 116.974 134.354 117.235 134.354 117.235L134.459 116.915" stroke="#92E3A9" stroke-width="0.716761" stroke-linecap="round" stroke-linejoin="round"/>
<path d="M129.19 114.078C129.766 114.446 130.32 114.845 130.851 115.274L132.707 115.588" stroke="#92E3A9" stroke-width="0.716761" stroke-linecap="round" stroke-linejoin="round"/>
<path d="M81.9825 96.7232C82.6034 96.7232 83.1068 96.2198 83.1068 95.5989C83.1068 94.9779 82.6034 94.4745 81.9825 94.4745C81.3616 94.4745 80.8582 94.9779 80.8582 95.5989C80.8582 96.2198 81.3616 96.7232 81.9825 96.7232Z" fill="white" stroke="#92E3A9" stroke-width="0.716761" stroke-linecap="round" stroke-linejoin="round"/>
<path d="M82.5773 98.0958C83.1983 98.0958 83.7017 97.5925 83.7017 96.9715C83.7017 96.3506 83.1983 95.8472 82.5773 95.8472C81.9564 95.8472 81.453 96.3506 81.453 96.9715C81.453 97.5925 81.9564 98.0958 82.5773 98.0958Z" fill="white" stroke="#92E3A9" stroke-width="0.716761" stroke-linecap="round" stroke-linejoin="round"/>
<path d="M83.5056 98.4815C84.1265 98.4815 84.6299 97.9782 84.6299 97.3572C84.6299 96.7363 84.1265 96.2329 83.5056 96.2329C82.8846 96.2329 82.3813 96.7363 82.3813 97.3572C82.3813 97.9782 82.8846 98.4815 83.5056 98.4815Z" fill="white" stroke="#92E3A9" stroke-width="0.716761" stroke-linecap="round" stroke-linejoin="round"/>
<path d="M86.1006 98.1613C86.1006 98.3852 86.0341 98.6041 85.9096 98.7902C85.785 98.9763 85.608 99.1212 85.401 99.2066C85.194 99.292 84.9663 99.314 84.7467 99.2699C84.5272 99.2257 84.3257 99.1174 84.1678 98.9585C84.0099 98.7997 83.9028 98.5976 83.8599 98.3778C83.817 98.1581 83.8403 97.9305 83.9269 97.724C84.0135 97.5174 84.1595 97.3413 84.3463 97.2178C84.5331 97.0943 84.7524 97.0291 84.9763 97.0304C85.1245 97.0304 85.2713 97.0597 85.4081 97.1166C85.5449 97.1735 85.6692 97.2569 85.7736 97.362C85.8781 97.4671 85.9608 97.5918 86.0169 97.729C86.073 97.8662 86.1015 98.0131 86.1006 98.1613Z" fill="white" stroke="#92E3A9" stroke-width="0.716761" stroke-linecap="round" stroke-linejoin="round"/>
<path d="M93.3629 103.103C93.9838 103.103 94.4872 102.6 94.4872 101.979C94.4872 101.358 93.9838 100.854 93.3629 100.854C92.742 100.854 92.2386 101.358 92.2386 101.979C92.2386 102.6 92.742 103.103 93.3629 103.103Z" stroke="#92E3A9" stroke-width="0.716761" stroke-linecap="round" stroke-linejoin="round"/>
<path d="M107.619 99.6059C108.24 99.6059 108.744 99.1025 108.744 98.4816C108.744 97.8606 108.24 97.3573 107.619 97.3573C106.998 97.3573 106.495 97.8606 106.495 98.4816C106.495 99.1025 106.998 99.6059 107.619 99.6059Z" stroke="#92E3A9" stroke-width="0.716761" stroke-linecap="round" stroke-linejoin="round"/>
<path d="M68.7261 115.699C69.5926 115.699 70.2949 114.997 70.2949 114.13C70.2949 113.264 69.5926 112.562 68.7261 112.562C67.8597 112.562 67.1573 113.264 67.1573 114.13C67.1573 114.997 67.8597 115.699 68.7261 115.699Z" stroke="#92E3A9" stroke-width="0.716761" stroke-linecap="round" stroke-linejoin="round"/>
<path d="M72.7265 96.6121C73.3475 96.6121 73.8509 96.1087 73.8509 95.4878C73.8509 94.8668 73.3475 94.3635 72.7265 94.3635C72.1056 94.3635 71.6022 94.8668 71.6022 95.4878C71.6022 96.1087 72.1056 96.6121 72.7265 96.6121Z" stroke="#92E3A9" stroke-width="0.716761" stroke-linecap="round" stroke-linejoin="round"/>
<path d="M119.588 109.254C120.622 109.555 121.522 110.201 122.137 111.084C122.327 111.413 122.557 111.716 122.824 111.986C123.332 112.294 123.868 112.552 124.425 112.758C125 113.15 125.405 113.746 125.56 114.424C125.715 115.103 125.609 115.815 125.262 116.418C124.892 117.012 124.378 117.503 123.768 117.846C123.158 118.189 122.471 118.372 121.771 118.379" stroke="#92E3A9" stroke-width="0.716761" stroke-linecap="round" stroke-linejoin="round"/>
<path d="M98.8864 117.281C99.2063 117.588 99.5885 117.822 100.007 117.969C100.426 118.115 100.871 118.169 101.312 118.128C101.753 118.087 102.181 117.952 102.565 117.731C102.95 117.511 103.282 117.21 103.54 116.85C104.669 117.481 105.922 117.858 107.211 117.955C108.5 118.052 109.795 117.867 111.005 117.412C111.406 117.259 111.753 116.991 112.002 116.642C112.252 116.294 112.394 115.879 112.411 115.451C113.345 115.991 114.433 116.201 115.501 116.045C116.569 115.89 117.553 115.379 118.294 114.595C118.911 114.54 119.481 114.244 119.883 113.772C120.284 113.3 120.483 112.689 120.438 112.071" stroke="#92E3A9" stroke-width="0.716761" stroke-linecap="round" stroke-linejoin="round"/>
<path d="M66.9677 106.417C66.6605 107.417 67.4122 108.483 68.3601 108.908C69.348 109.25 70.4038 109.351 71.4388 109.202C71.6564 109.609 72.0133 109.924 72.4442 110.09C72.8751 110.255 73.3512 110.26 73.7855 110.104" stroke="#92E3A9" stroke-width="0.716761" stroke-linecap="round" stroke-linejoin="round"/>
<path d="M48.9919 108.633C47.9852 108.633 47.2727 109.823 47.5538 110.784C47.7331 111.253 48.0421 111.662 48.4448 111.963C48.8475 112.264 49.3274 112.444 49.8286 112.483C50.8337 112.534 51.8369 112.349 52.757 111.941C53.67 111.529 54.6259 111.22 55.607 111.019C55.8685 112.084 57.0712 112.705 58.1694 112.686C59.2682 112.581 60.3293 112.23 61.2743 111.66C61.7278 112.338 62.4186 112.822 63.2109 113.016C64.0031 113.211 64.8396 113.103 65.5558 112.712" stroke="#92E3A9" stroke-width="0.716761" stroke-linecap="round" stroke-linejoin="round"/>
<path d="M46.6256 114.706C46.2968 114.916 46.0192 115.197 45.8134 115.529C45.6075 115.861 45.4785 116.234 45.4359 116.622C45.3932 117.011 45.4381 117.403 45.567 117.772C45.696 118.14 45.9058 118.475 46.1811 118.752C47.2139 119.772 48.9134 119.739 50.2992 119.294C51.6437 118.861 52.8697 118.123 53.8813 117.137C54.6079 116.492 55.1076 115.631 55.3063 114.679C55.3918 114.205 55.3262 113.716 55.1186 113.281C54.911 112.845 54.5719 112.486 54.1493 112.254" stroke="#92E3A9" stroke-width="0.716761" stroke-linecap="round" stroke-linejoin="round"/>
<path d="M53.6525 117.869C55.4698 118.049 57.3019 117.733 58.9538 116.954C59.7709 116.588 60.5134 116.074 61.1435 115.438C61.4695 115.159 61.7029 114.788 61.8126 114.373C61.9224 113.959 61.9033 113.521 61.758 113.117" stroke="#92E3A9" stroke-width="0.716761" stroke-linecap="round" stroke-linejoin="round"/>
<path d="M52.8158 119C52.7408 119.104 52.7005 119.229 52.7005 119.357C52.7005 119.484 52.7408 119.609 52.8158 119.713C53.0303 120.063 53.3444 120.34 53.7179 120.51C54.282 120.808 54.9103 120.963 55.5481 120.963C56.186 120.963 56.8143 120.808 57.3784 120.51" stroke="#92E3A9" stroke-width="0.716761" stroke-linecap="round" stroke-linejoin="round"/>
<path d="M47.227 120.053C47.1035 120.158 47.0025 120.287 46.9301 120.432C46.8577 120.577 46.8153 120.735 46.8055 120.896C46.7958 121.058 46.8188 121.22 46.8733 121.373C46.9277 121.526 47.0125 121.666 47.1224 121.785C47.6514 122.351 48.3322 122.753 49.0834 122.942C51.5151 123.38 53.3976 122.831 56.045 121.465" stroke="#92E3A9" stroke-width="0.716761" stroke-linecap="round" stroke-linejoin="round"/>
<path d="M57.3262 117.621L57.5092 117.778C57.3738 117.969 57.3011 118.197 57.3011 118.432C57.3011 118.666 57.3738 118.894 57.5092 119.085C57.8088 119.457 58.2221 119.722 58.6858 119.837C59.8161 120.1 60.9879 120.131 62.1306 119.928L61.7253 119.968" stroke="#92E3A9" stroke-width="0.716761" stroke-linecap="round" stroke-linejoin="round"/>
<path d="M56.3522 123.569C56.3195 124.033 56.8097 124.347 57.2477 124.478C58.0204 124.708 58.8417 124.719 59.6205 124.511" stroke="#92E3A9" stroke-width="0.716761" stroke-linecap="round" stroke-linejoin="round"/>
<path d="M56.9993 122.157C57.3065 123.112 58.2674 123.314 59.1303 123.465C60.1439 123.6 61.175 123.511 62.1502 123.203" stroke="#92E3A9" stroke-width="0.716761" stroke-linecap="round" stroke-linejoin="round"/>
<path d="M63.5752 123.053C64.438 123.511 65.85 123.707 68.1051 123.406C69.2954 123.263 70.3972 122.706 71.2166 121.831C71.5047 121.53 71.7241 121.17 71.8595 120.776C71.995 120.382 72.0432 119.964 72.001 119.549C71.9459 119.136 71.7512 118.754 71.4493 118.466C71.1474 118.178 70.7562 118.003 70.3407 117.967" stroke="#92E3A9" stroke-width="0.716761" stroke-linecap="round" stroke-linejoin="round"/>
<path d="M62.4182 121.713C62.5083 122.017 62.6671 122.297 62.8823 122.53" stroke="#92E3A9" stroke-width="0.716761" stroke-linecap="round" stroke-linejoin="round"/>
<path d="M65.2813 118.124C64.28 118.451 63.3796 119.029 62.6666 119.804C62.3991 120.226 62.2838 120.726 62.3398 121.223" stroke="#92E3A9" stroke-width="0.716761" stroke-linecap="round" stroke-linejoin="round"/>
<path d="M71.4062 117.752C71.8967 117.936 72.2969 118.303 72.5235 118.776C72.75 119.248 72.7853 119.79 72.622 120.288" stroke="#92E3A9" stroke-width="0.716761" stroke-linecap="round" stroke-linejoin="round"/>
<path d="M72.3147 120.51C73.7704 120.572 75.1849 121.012 76.4198 121.785C76.7115 121.933 76.971 122.137 77.183 122.386C77.3951 122.636 77.5556 122.924 77.6552 123.236C77.7039 123.625 77.6346 124.02 77.4563 124.37C77.278 124.72 76.9989 125.008 76.6551 125.197C75.9584 125.553 75.1888 125.743 74.4065 125.753C73.2896 125.877 72.16 125.824 71.0597 125.596C69.9496 125.361 68.9623 124.732 68.2816 123.824" stroke="#92E3A9" stroke-width="0.716761" stroke-linecap="round" stroke-linejoin="round"/>
<path d="M69.7524 123.896C72.7266 125.622 75.6354 124.785 76.3479 124.295" stroke="#92E3A9" stroke-width="0.716761" stroke-linecap="round" stroke-linejoin="round"/>
<path d="M67.3273 124.079C67.0505 124.187 66.8045 124.362 66.611 124.587C66.4176 124.813 66.2826 125.082 66.218 125.372C66.1534 125.662 66.1612 125.964 66.2407 126.25C66.3201 126.537 66.4688 126.799 66.6736 127.014C67.0834 127.391 67.5908 127.644 68.1378 127.746C69.4065 128.06 70.7324 128.06 72.001 127.746" stroke="#92E3A9" stroke-width="0.716761" stroke-linecap="round" stroke-linejoin="round"/>
<path d="M71.8702 126.87C72.2349 127.383 72.7554 127.763 73.3541 127.955C73.7754 128.126 74.2302 128.197 74.6834 128.164C75.1367 128.131 75.5764 127.995 75.9687 127.766C76.3452 127.524 76.6276 127.161 76.7691 126.736C76.9105 126.312 76.9026 125.852 76.7466 125.432" stroke="#92E3A9" stroke-width="0.716761" stroke-linecap="round" stroke-linejoin="round"/>
<path d="M73.0926 126.962C73.4348 127.254 73.859 127.434 74.3071 127.476C74.7553 127.518 75.2055 127.421 75.5962 127.197" stroke="#92E3A9" stroke-width="0.716761" stroke-linecap="round" stroke-linejoin="round"/>
<path d="M67.007 125.426C66.7455 126.321 67.7326 126.988 69.1053 127.223" stroke="#92E3A9" stroke-width="0.716761" stroke-linecap="round" stroke-linejoin="round"/>
<path d="M58.6727 118.602C59.1433 119.314 61.1566 119.118 62.6666 118.909" stroke="#92E3A9" stroke-width="0.716761" stroke-linecap="round" stroke-linejoin="round"/>
<path d="M57.1823 121.458C57.3058 121.039 57.5659 120.673 57.9211 120.418C58.2764 120.163 58.7066 120.035 59.1433 120.053H58.9734" stroke="#92E3A9" stroke-width="0.716761" stroke-linecap="round" stroke-linejoin="round"/>
<path d="M57.8817 121.556C57.8672 121.697 57.8948 121.84 57.9611 121.965C58.0274 122.091 58.1294 122.194 58.2543 122.262C58.5077 122.391 58.7872 122.46 59.0714 122.465C60.0211 122.549 60.9772 122.524 61.9214 122.393" stroke="#92E3A9" stroke-width="0.716761" stroke-linecap="round" stroke-linejoin="round"/>
<path d="M46.5014 117.928C47.8219 118.265 49.2146 118.184 50.4865 117.694C51.7584 117.204 52.8466 116.331 53.6002 115.196" stroke="#92E3A9" stroke-width="0.716761" stroke-linecap="round" stroke-linejoin="round"/>
<path d="M47.8741 121.098C48.0833 121.576 49.0049 121.811 49.5213 121.896C50.6826 122.188 51.9077 122.086 53.0054 121.608" stroke="#92E3A9" stroke-width="0.716761" stroke-linecap="round" stroke-linejoin="round"/>
<path d="M53.7114 119.314C54.084 119.968 55.4632 120.301 56.3783 120" stroke="#92E3A9" stroke-width="0.716761" stroke-linecap="round" stroke-linejoin="round"/>
<path d="M55.1233 116.575C57.2935 116.752 60.3526 115.032 60.7056 113.804" stroke="#92E3A9" stroke-width="0.716761" stroke-linecap="round" stroke-linejoin="round"/>
<path d="M75.5112 120.713C75.0891 120.455 74.7421 120.09 74.5048 119.656C74.2675 119.222 74.1482 118.733 74.1588 118.238C74.1694 117.743 74.3095 117.26 74.5651 116.836C74.8208 116.413 75.183 116.063 75.6158 115.823C76.9073 115.193 78.3516 114.944 79.7796 115.104C80.4664 115.143 81.1372 115.327 81.7479 115.643C82.3585 115.96 82.8952 116.402 83.3225 116.941C83.7365 117.492 83.969 118.158 83.9877 118.846C84.0065 119.535 83.8105 120.212 83.4271 120.785" stroke="#92E3A9" stroke-width="0.716761" stroke-linecap="round" stroke-linejoin="round"/>
<path d="M74.8379 117.647C74.8379 120.013 77.2238 120.576 78.8449 120.654C80.466 120.732 82.3159 120.543 83.3094 118.543" stroke="#92E3A9" stroke-width="0.716761" stroke-linecap="round" stroke-linejoin="round"/>
<path d="M77.263 121.425C78.9194 122.033 80.7379 122.033 82.3943 121.425" stroke="#92E3A9" stroke-width="0.716761" stroke-linecap="round" stroke-linejoin="round"/>
<path d="M82.3289 121.968C82.4968 122.027 82.6502 122.122 82.7793 122.244C82.9083 122.367 83.01 122.515 83.0779 122.68C83.1457 122.845 83.1781 123.022 83.1729 123.2C83.1678 123.378 83.1252 123.553 83.048 123.713" stroke="#92E3A9" stroke-width="0.716761" stroke-linecap="round" stroke-linejoin="round"/>
<path d="M77.7075 124.772C78.7272 125.256 79.4201 125.256 81.0608 125.066" stroke="#92E3A9" stroke-width="0.716761" stroke-linecap="round" stroke-linejoin="round"/>
<path d="M78.407 124.118C79.0045 124.369 79.6577 124.458 80.3005 124.375C80.9433 124.292 81.5528 124.042 82.0675 123.648" stroke="#92E3A9" stroke-width="0.716761" stroke-linecap="round" stroke-linejoin="round"/>
<path d="M84.4403 123.144C85.2763 123.607 86.2526 123.749 87.1857 123.543" stroke="#92E3A9" stroke-width="0.716761" stroke-linecap="round" stroke-linejoin="round"/>
<path d="M83.2768 121.275C83.3437 121.113 83.4614 120.977 83.6123 120.887C83.7632 120.797 83.939 120.759 84.1135 120.778" stroke="#92E3A9" stroke-width="0.716761" stroke-linecap="round" stroke-linejoin="round"/>
<path d="M84.1396 119.883C84.4074 120.555 84.8778 121.128 85.4857 121.522C86.0935 121.915 86.8087 122.11 87.5321 122.079" stroke="#92E3A9" stroke-width="0.716761" stroke-linecap="round" stroke-linejoin="round"/>
<path d="M88.48 122.157C89.6365 122.533 90.8747 122.578 92.0555 122.288C92.6418 122.136 93.1807 121.84 93.6236 121.426C94.0664 121.013 94.3992 120.496 94.5918 119.922" stroke="#92E3A9" stroke-width="0.716761" stroke-linecap="round" stroke-linejoin="round"/>
<path d="M84.7148 119.026C85.6142 119.779 86.7359 120.215 87.9074 120.268C89.0788 120.321 90.2353 119.988 91.1992 119.32C91.8548 118.871 92.3477 118.223 92.6046 117.471C92.7279 117.095 92.753 116.694 92.6774 116.306C92.6019 115.919 92.4283 115.556 92.1732 115.255C91.8332 114.956 91.4359 114.729 91.0055 114.588C90.5751 114.448 90.1205 114.397 89.6696 114.438C88.6468 114.437 87.6287 114.576 86.6431 114.849C85.9298 115.01 85.27 115.352 84.7279 115.843C84.4611 116.094 84.2724 116.417 84.1843 116.773C84.0962 117.129 84.1124 117.503 84.2311 117.85" stroke="#92E3A9" stroke-width="0.716761" stroke-linecap="round" stroke-linejoin="round"/>
<path d="M62.83 120.419C62.9542 121.314 63.8694 121.876 64.7453 122.125C65.8384 122.421 66.9886 122.434 68.0884 122.164C69.1881 121.895 70.2015 121.35 71.0336 120.582" stroke="#92E3A9" stroke-width="0.716761" stroke-linecap="round" stroke-linejoin="round"/>
<path d="M88.6891 121.569C90.369 122.027 93.0426 121.876 94.1603 119.608" stroke="#92E3A9" stroke-width="0.716761" stroke-linecap="round" stroke-linejoin="round"/>
<path d="M84.9763 118.098C86.026 118.805 87.2912 119.12 88.5498 118.987C89.8085 118.855 90.9802 118.283 91.8594 117.373" stroke="#92E3A9" stroke-width="0.716761" stroke-linecap="round" stroke-linejoin="round"/>
<path d="M93.1668 117.582C93.3679 117.573 93.5687 117.604 93.7577 117.674C93.9467 117.743 94.12 117.849 94.2677 117.986C94.4155 118.123 94.5346 118.287 94.6183 118.47C94.7019 118.653 94.7485 118.851 94.7552 119.053C95.1228 119.051 95.4796 119.177 95.7657 119.408C96.0518 119.638 96.2498 119.961 96.3264 120.32C96.4031 120.68 96.3537 121.054 96.1866 121.382C96.0196 121.709 95.7449 121.969 95.4088 122.118H95.5984" stroke="#92E3A9" stroke-width="0.716761" stroke-linecap="round" stroke-linejoin="round"/>
<path d="M120.033 105.665C120.067 106.005 120.026 106.348 119.913 106.67C119.8 106.992 119.618 107.285 119.379 107.528C118.47 108.424 116.98 108.398 115.764 108.012C114.586 107.631 113.512 106.982 112.626 106.116C111.991 105.551 111.554 104.798 111.378 103.966C111.301 103.549 111.358 103.119 111.54 102.736C111.722 102.354 112.02 102.038 112.391 101.835" stroke="#92E3A9" stroke-width="0.716761" stroke-linecap="round" stroke-linejoin="round"/>
<path d="M112.816 106.757C111.222 106.92 109.615 106.642 108.168 105.953C107.451 105.643 106.799 105.199 106.247 104.646C105.961 104.401 105.756 104.076 105.66 103.713C105.563 103.35 105.578 102.967 105.704 102.613" stroke="#92E3A9" stroke-width="0.716761" stroke-linecap="round" stroke-linejoin="round"/>
<path d="M113.548 107.777C113.619 107.871 113.658 107.986 113.658 108.104C113.658 108.222 113.619 108.336 113.548 108.43C113.362 108.734 113.088 108.976 112.764 109.123C112.269 109.383 111.718 109.518 111.159 109.518C110.6 109.518 110.049 109.383 109.554 109.123" stroke="#92E3A9" stroke-width="0.716761" stroke-linecap="round" stroke-linejoin="round"/>
<path d="M118.444 108.672C118.554 108.763 118.643 108.875 118.708 109.002C118.772 109.129 118.81 109.267 118.82 109.409C118.829 109.551 118.809 109.694 118.761 109.828C118.714 109.962 118.639 110.085 118.542 110.189C118.078 110.687 117.478 111.039 116.816 111.202C114.686 111.588 113.025 111.11 110.711 109.895" stroke="#92E3A9" stroke-width="0.716761" stroke-linecap="round" stroke-linejoin="round"/>
<path d="M109.593 106.541L109.43 106.679C109.554 106.846 109.62 107.049 109.62 107.257C109.62 107.465 109.554 107.668 109.43 107.836C109.168 108.159 108.808 108.389 108.404 108.489C107.41 108.718 106.381 108.745 105.377 108.568L105.737 108.607" stroke="#92E3A9" stroke-width="0.716761" stroke-linecap="round" stroke-linejoin="round"/>
<path d="M111.509 111.405C111.509 111.81 111.103 112.058 110.718 112.202C110.041 112.395 109.323 112.395 108.646 112.202" stroke="#92E3A9" stroke-width="0.716761" stroke-linecap="round" stroke-linejoin="round"/>
<path d="M109.881 110.496C109.613 111.333 108.77 111.509 108.005 111.62C107.116 111.738 106.213 111.66 105.358 111.392" stroke="#92E3A9" stroke-width="0.716761" stroke-linecap="round" stroke-linejoin="round"/>
<path d="M104.116 111.307C103.357 111.705 102.116 111.895 100.141 111.614C99.1047 111.482 98.1459 110.995 97.4287 110.235C97.1821 109.967 96.996 109.649 96.8832 109.302C96.7704 108.956 96.7335 108.59 96.775 108.228C96.8243 107.865 96.9955 107.531 97.2605 107.279C97.5255 107.027 97.8684 106.873 98.2327 106.842" stroke="#92E3A9" stroke-width="0.716761" stroke-linecap="round" stroke-linejoin="round"/>
<path d="M102.593 106.979C103.472 107.266 104.264 107.772 104.894 108.45C105.127 108.822 105.228 109.262 105.181 109.698" stroke="#92E3A9" stroke-width="0.716761" stroke-linecap="round" stroke-linejoin="round"/>
<path d="M97.2522 106.652C96.8203 106.813 96.4678 107.136 96.2691 107.552C96.0703 107.967 96.0408 108.444 96.1867 108.881" stroke="#92E3A9" stroke-width="0.716761" stroke-linecap="round" stroke-linejoin="round"/>
<path d="M96.4548 109.084C95.1778 109.139 93.9369 109.524 92.853 110.202C92.5972 110.332 92.3697 110.512 92.1835 110.731C91.9973 110.95 91.8561 111.203 91.768 111.476C91.7249 111.817 91.7862 112.162 91.9438 112.467C92.1014 112.771 92.3478 113.021 92.6504 113.183C93.2572 113.496 93.9286 113.664 94.6114 113.673C95.5908 113.784 96.5817 113.738 97.5464 113.536C98.5179 113.327 99.3813 112.774 99.978 111.98" stroke="#92E3A9" stroke-width="0.716761" stroke-linecap="round" stroke-linejoin="round"/>
<path d="M98.6707 112.045C96.056 113.555 93.5132 112.823 92.8922 112.392" stroke="#92E3A9" stroke-width="0.716761" stroke-linecap="round" stroke-linejoin="round"/>
<path d="M100.828 112.202C101.067 112.302 101.278 112.457 101.445 112.655C101.612 112.853 101.73 113.087 101.789 113.339C101.843 113.594 101.834 113.858 101.763 114.108C101.693 114.359 101.562 114.588 101.383 114.778C101.017 115.113 100.564 115.339 100.076 115.431C98.9641 115.706 97.8021 115.706 96.6901 115.431" stroke="#92E3A9" stroke-width="0.716761" stroke-linecap="round" stroke-linejoin="round"/>
<path d="M96.86 114.653C96.5398 115.104 96.0805 115.437 95.5527 115.601C95.1867 115.746 94.7926 115.807 94.3999 115.779C94.0071 115.751 93.6258 115.634 93.2845 115.438C92.9508 115.229 92.7001 114.911 92.5749 114.538C92.4497 114.165 92.4579 113.76 92.5981 113.392" stroke="#92E3A9" stroke-width="0.716761" stroke-linecap="round" stroke-linejoin="round"/>
<path d="M108.554 107.437C107.765 107.753 106.906 107.859 106.064 107.744" stroke="#92E3A9" stroke-width="0.716761" stroke-linecap="round" stroke-linejoin="round"/>
<path d="M109.718 109.908C109.608 109.541 109.38 109.22 109.069 108.997C108.758 108.773 108.381 108.659 107.999 108.672H108.149" stroke="#92E3A9" stroke-width="0.716761" stroke-linecap="round" stroke-linejoin="round"/>
<path d="M108.718 110.006C108.728 110.104 108.708 110.203 108.662 110.291C108.615 110.378 108.544 110.45 108.456 110.496C108.28 110.586 108.085 110.636 107.887 110.64C107.234 110.695 106.576 110.678 105.926 110.587" stroke="#92E3A9" stroke-width="0.716761" stroke-linecap="round" stroke-linejoin="round"/>
<path d="M119.078 106.809C117.921 107.105 116.7 107.034 115.585 106.605C114.47 106.177 113.516 105.412 112.855 104.417" stroke="#92E3A9" stroke-width="0.716761" stroke-linecap="round" stroke-linejoin="round"/>
<path d="M117.882 109.594C117.692 110.006 116.882 110.248 116.437 110.287C115.418 110.542 114.343 110.454 113.378 110.038" stroke="#92E3A9" stroke-width="0.716761" stroke-linecap="round" stroke-linejoin="round"/>
<path d="M112.764 108.025C112.43 108.613 111.228 108.895 110.424 108.627" stroke="#92E3A9" stroke-width="0.716761" stroke-linecap="round" stroke-linejoin="round"/>
<path d="M111.522 105.62C109.62 105.777 106.946 104.273 106.626 103.195" stroke="#92E3A9" stroke-width="0.716761" stroke-linecap="round" stroke-linejoin="round"/>
<path d="M93.6505 109.254C94.0201 109.026 94.3238 108.706 94.5315 108.325C94.7391 107.943 94.8434 107.515 94.8342 107.081C94.825 106.647 94.7024 106.222 94.4787 105.85C94.255 105.478 93.938 105.171 93.559 104.959C92.4244 104.411 91.1572 104.195 89.905 104.338C89.303 104.371 88.7148 104.531 88.1794 104.808C87.6441 105.086 87.1739 105.474 86.8001 105.946C86.4379 106.43 86.2346 107.014 86.2182 107.618C86.2018 108.222 86.3731 108.817 86.7085 109.319" stroke="#92E3A9" stroke-width="0.716761" stroke-linecap="round" stroke-linejoin="round"/>
<path d="M94.2388 106.567C94.2388 108.64 92.1471 109.136 90.7286 109.182C89.3101 109.228 87.6825 109.084 86.8066 107.326" stroke="#92E3A9" stroke-width="0.716761" stroke-linecap="round" stroke-linejoin="round"/>
<path d="M92.134 109.875C90.6821 110.407 89.0886 110.407 87.6367 109.875" stroke="#92E3A9" stroke-width="0.716761" stroke-linecap="round" stroke-linejoin="round"/>
<path d="M87.6498 110.352C87.5 110.401 87.3624 110.481 87.2461 110.587C87.1298 110.694 87.0376 110.824 86.9757 110.969C86.9138 111.113 86.8836 111.27 86.8871 111.427C86.8907 111.585 86.9278 111.74 86.9962 111.882" stroke="#92E3A9" stroke-width="0.716761" stroke-linecap="round" stroke-linejoin="round"/>
<path d="M91.7287 112.816C90.8332 113.241 90.2187 113.241 88.7806 113.071" stroke="#92E3A9" stroke-width="0.716761" stroke-linecap="round" stroke-linejoin="round"/>
<path d="M90.6305 112.215C90.0899 112.392 89.5125 112.425 88.9553 112.31C88.3981 112.196 87.8805 111.937 87.4537 111.561" stroke="#92E3A9" stroke-width="0.716761" stroke-linecap="round" stroke-linejoin="round"/>
<path d="M86.3686 110.646C85.5153 111.105 84.5512 111.318 83.584 111.261" stroke="#92E3A9" stroke-width="0.716761" stroke-linecap="round" stroke-linejoin="round"/>
<path d="M86.081 108.528C85.8449 109.117 85.4321 109.618 84.8994 109.962C84.3668 110.306 83.7404 110.477 83.1068 110.45" stroke="#92E3A9" stroke-width="0.716761" stroke-linecap="round" stroke-linejoin="round"/>
<path d="M82.4989 109.829C81.5855 110.296 80.5608 110.502 79.5378 110.424C79.0295 110.375 78.5412 110.201 78.1168 109.917C77.6924 109.633 77.3451 109.248 77.1062 108.796" stroke="#92E3A9" stroke-width="0.716761" stroke-linecap="round" stroke-linejoin="round"/>
<path d="M59.1826 99.4424C59.2176 99.7703 59.3495 100.08 59.5614 100.333C59.7732 100.585 60.0555 100.769 60.3723 100.861C61.0098 101.04 61.6776 101.084 62.3333 100.992C61.9152 101.213 61.5941 101.581 61.4322 102.026C61.2704 102.47 61.2793 102.959 61.4573 103.397C61.6566 103.825 61.951 104.202 62.318 104.499C62.6851 104.795 63.1151 105.004 63.5752 105.11C64.498 105.311 65.4475 105.36 66.386 105.254" stroke="#92E3A9" stroke-width="0.716761" stroke-linecap="round" stroke-linejoin="round"/>
<path d="M85.5973 107.777C84.8105 108.438 83.828 108.822 82.8014 108.869C81.7748 108.916 80.7611 108.624 79.9169 108.038C79.3409 107.645 78.9075 107.077 78.6815 106.417C78.5693 106.085 78.5452 105.73 78.6117 105.386C78.6782 105.043 78.8329 104.722 79.0606 104.456C79.3577 104.192 79.7061 103.992 80.0839 103.868C80.4618 103.744 80.8611 103.7 81.2569 103.737C82.1408 103.738 83.0204 103.859 83.8716 104.097C84.4999 104.238 85.0809 104.54 85.5581 104.973C85.7912 105.192 85.956 105.474 86.0325 105.785C86.109 106.096 86.0941 106.422 85.9895 106.724" stroke="#92E3A9" stroke-width="0.716761" stroke-linecap="round" stroke-linejoin="round"/>
<path d="M104.142 109.176C104.057 109.829 103.397 110.228 102.769 110.404C101.982 110.619 101.153 110.629 100.361 110.435C99.5681 110.24 98.8381 109.847 98.2393 109.293" stroke="#92E3A9" stroke-width="0.716761" stroke-linecap="round" stroke-linejoin="round"/>
<path d="M85.3489 106.96C84.4282 107.581 83.317 107.857 82.2126 107.737C81.1081 107.617 80.0817 107.11 79.3155 106.306" stroke="#92E3A9" stroke-width="0.716761" stroke-linecap="round" stroke-linejoin="round"/>
<path d="M78.1716 106.528C77.9929 106.517 77.8137 106.542 77.6452 106.602C77.4766 106.663 77.3223 106.757 77.1917 106.88C77.0612 107.002 76.9572 107.15 76.8863 107.315C76.8153 107.479 76.7789 107.656 76.7793 107.836C76.457 107.836 76.1449 107.949 75.8958 108.153C75.6467 108.357 75.4758 108.642 75.412 108.957C75.3482 109.273 75.3954 109.602 75.5457 109.887C75.696 110.172 75.9401 110.396 76.2367 110.522H76.0668" stroke="#92E3A9" stroke-width="0.716761" stroke-linecap="round" stroke-linejoin="round"/>
<path d="M45.8739 84.5519C47.7368 83.689 49.5344 84.2446 50.4495 86.0945C51.7177 88.7092 51.7177 88.7092 52.6132 92.592C52.7047 85.6762 55.0187 82.7216 59.346 80.5645C53.463 82.2967 52.3779 75.5443 52.3779 75.5443C52.3779 75.5443 51.2862 79.852 50.2338 80.9894C48.9575 82.3783 47.4893 83.5779 45.8739 84.5519Z" fill="white"/>
<path d="M99.076 77.0543C99.3304 76.9112 99.612 76.8231 99.9025 76.7957C100.193 76.7683 100.486 76.8023 100.763 76.8953C101.04 76.9884 101.294 77.1384 101.509 77.3359C101.724 77.5333 101.895 77.7736 102.011 78.0413C102.828 79.7082 102.828 79.7082 103.403 82.2183C103.462 77.7799 104.946 75.8777 107.724 74.4919C103.926 75.6097 103.246 71.2759 103.246 71.2759C103.246 71.2759 102.547 74.0344 101.874 74.7665C101.055 75.6583 100.113 76.4287 99.076 77.0543Z" fill="white"/>
<path d="M35.3041 129.616C35.5319 129.49 35.7836 129.413 36.0431 129.39C36.3025 129.367 36.5638 129.399 36.8102 129.483C37.0566 129.567 37.2825 129.703 37.4735 129.88C37.6644 130.057 37.8161 130.272 37.9187 130.511C38.5558 131.679 38.9849 132.949 39.1869 134.263C39.2391 130.269 40.5726 128.563 43.0762 127.315C39.6575 128.315 39.0496 124.413 39.0496 124.413C39.0496 124.413 38.3959 126.903 37.8142 127.563C37.0769 128.361 36.2321 129.052 35.3041 129.616Z" fill="white"/>
<path d="M133.315 123.877C133.525 123.759 133.757 123.687 133.997 123.664C134.236 123.642 134.478 123.67 134.706 123.747C134.934 123.824 135.143 123.948 135.32 124.111C135.497 124.274 135.638 124.473 135.734 124.694C136.309 125.771 136.698 126.938 136.884 128.145C136.936 124.478 138.191 122.916 140.46 121.765C137.322 122.68 136.76 119.098 136.76 119.098C136.76 119.098 136.185 121.386 135.623 121.987C134.947 122.724 134.17 123.36 133.315 123.877Z" fill="white"/>
<path d="M82.9826 146.284C83.3504 146.076 83.7578 145.948 84.1784 145.909C84.5989 145.869 85.0231 145.918 85.4233 146.053C85.8236 146.188 86.1909 146.406 86.5013 146.693C86.8117 146.979 87.0583 147.328 87.2249 147.716C88.4081 150.128 88.4081 150.128 89.2382 153.762C89.3232 147.33 91.4738 144.611 95.5004 142.578C90.003 144.193 89.0225 137.911 89.0225 137.911C89.0225 137.911 88.0093 141.918 87.0288 142.977C85.8446 144.266 84.4821 145.38 82.9826 146.284Z" fill="white"/>
<path d="M74.9883 69.426C76.9493 68.5305 78.7926 69.1057 79.7339 71.0275C81.0412 73.7206 81.0412 73.7206 81.9825 77.7799C82.0805 70.5895 84.4795 67.5238 88.9767 65.2817C82.8388 67.0859 81.7341 60.0524 81.7341 60.0524C81.7341 60.0524 80.6033 64.53 79.5116 65.7132C78.1875 67.159 76.6645 68.4091 74.9883 69.426Z" fill="white"/>
<path d="M136.832 43.6715L127.131 51.4436" stroke="#263238" stroke-linecap="round" stroke-linejoin="round"/>
<path d="M140.826 40.4685L138.185 42.5864" stroke="#263238" stroke-linecap="round" stroke-linejoin="round"/>
<path d="M125.608 37.4159L117.941 45.7306" stroke="#263238" stroke-linecap="round" stroke-linejoin="round"/>
<path d="M119.647 22.9044L108.757 40.024" stroke="#263238" stroke-linecap="round" stroke-linejoin="round"/>
<path d="M102.717 26.2839L99.5662 34.3175" stroke="#263238" stroke-linecap="round" stroke-linejoin="round"/>
<path d="M104.331 22.1462L103.279 24.8328" stroke="#263238" stroke-linecap="round" stroke-linejoin="round"/>
<path d="M92.4412 17.6359L90.3821 28.611" stroke="#263238" stroke-linecap="round" stroke-linejoin="round"/>
<path d="M92.8791 15.335L92.4412 17.6359" stroke="#263238" stroke-linecap="round" stroke-linejoin="round"/>
<path d="M81.3615 6.59544L81.1916 22.9045" stroke="#263238" stroke-linecap="round" stroke-linejoin="round"/>
<path d="M81.4204 1L81.3877 4.05264" stroke="#263238" stroke-linecap="round" stroke-linejoin="round"/>
<path d="M17.0079 67.4781L23.2308 69.5633" stroke="#263238" stroke-linecap="round" stroke-linejoin="round"/>
<path d="M13.9945 66.4714L15.5306 66.9878" stroke="#263238" stroke-linecap="round" stroke-linejoin="round"/>
<path d="M5 63.458L10.9549 65.4583" stroke="#263238" stroke-linecap="round" stroke-linejoin="round"/>
<path d="M23.2374 57.2613L29.4603 60.9806" stroke="#263238" stroke-linecap="round" stroke-linejoin="round"/>
<path d="M17.0079 53.5419L21.2763 56.0912" stroke="#263238" stroke-linecap="round" stroke-linejoin="round"/>
<path d="M28.0549 41.5732L38.6181 50.5742" stroke="#263238" stroke-linecap="round" stroke-linejoin="round"/>
<path d="M22.4137 36.7688L25.6625 39.5338" stroke="#263238" stroke-linecap="round" stroke-linejoin="round"/>
<path d="M40.8864 32.3369L48.6912 42.1615" stroke="#263238" stroke-linecap="round" stroke-linejoin="round"/>
<path d="M58.9799 33.0363L59.9866 35.0561" stroke="#263238" stroke-linecap="round" stroke-linejoin="round"/>
<path d="M51.3255 17.6359L57.3 29.6569" stroke="#263238" stroke-linecap="round" stroke-linejoin="round"/>
<path d="M66.3468 13.9557L69.4975 26.1662" stroke="#263238" stroke-linecap="round" stroke-linejoin="round"/>
</g>
<defs>
<filter id="filter0_d_344_385" x="0.499863" y="0.5" width="150.909" height="186.547" filterUnits="userSpaceOnUse" color-interpolation-filters="sRGB">
<feFlood flood-opacity="0" result="BackgroundImageFix"/>
<feColorMatrix in="SourceAlpha" type="matrix" values="0 0 0 0 0 0 0 0 0 0 0 0 0 0 0 0 0 0 127 0" result="hardAlpha"/>
<feOffset dy="4"/>
<feGaussianBlur stdDeviation="2"/>
<feComposite in2="hardAlpha" operator="out"/>
<feColorMatrix type="matrix" values="0 0 0 0 0 0 0 0 0 0 0 0 0 0 0 0 0 0 0.25 0"/>
<feBlend mode="normal" in2="BackgroundImageFix" result="effect1_dropShadow_344_385"/>
<feBlend mode="normal" in="SourceGraphic" in2="effect1_dropShadow_344_385" result="shape"/>
</filter>
</defs>
</svg>
