<svg width="175" height="186" viewBox="0 0 175 186" fill="none" xmlns="http://www.w3.org/2000/svg">
<g filter="url(#filter0_d_344_594)">
<path opacity="0.1" d="M125.287 86.7068C125.181 83.6267 124.98 80.342 124.649 76.9428C124.203 70.1526 123.352 63.8124 121.81 59.8242C113.318 58.0857 69.2026 61.3254 69.1699 61.3254L68.8958 60.0982L68.7853 59.6115L68.589 58.7566L68.5358 58.5602C68.2495 57.4067 67.9263 56.2655 67.55 55.1324C67.55 55.1324 34.1063 52.1464 23.0129 55.0424C23.0129 55.1406 23.0129 55.2347 23.0129 55.3328L23.0456 58.0694C23.0784 63.3665 22.9557 68.3365 23.2297 73.7931V73.8341C23.1766 73.8293 23.1233 73.8293 23.0702 73.8341C22.6397 73.8909 22.2334 74.0659 21.8962 74.3395C21.559 74.6132 21.3042 74.9748 21.1599 75.3843C21.0499 75.702 21.0094 76.0396 21.0413 76.3742L21.1886 78.0963C21.1886 78.125 21.1886 78.1495 21.1886 78.1781C21.5976 82.5222 22.0067 86.8254 22.0067 86.8254C22.0067 86.8254 22.2194 86.8459 22.5671 86.8622L24.4037 86.9931C20.4932 87.3531 16.2227 92.5153 16.4109 96.9534C16.5991 101.392 12.3204 109.748 13.388 114.542C14.2061 118.289 18.4152 124.315 20.4646 128.892L20.305 129.8L11.1546 148.174C11.7682 147.274 17.2903 171.286 42.9376 166.201L61.1852 136.472C63.2205 134.937 65.0831 133.185 66.7401 131.248C67.4395 130.553 68.0211 129.749 68.4622 128.867C69.1137 127.826 69.6111 126.697 69.9389 125.513C70.0207 125.202 70.1066 124.895 70.1966 124.58C71.6855 120.789 73.6735 115.614 75.1297 112.031C94.3549 111.458 114.541 110.284 124.678 107.9H124.698C125.68 101.232 125.7 93.7506 125.287 86.7068ZM26.5553 103.506C26.3966 102.399 26.301 101.283 26.2689 100.164C26.4939 101.343 26.7393 102.516 26.997 103.695C26.8498 103.629 26.7025 103.564 26.5553 103.506Z" fill="black"/>
<path d="M9.0643 147C9.0643 147 17.278 171.286 42.9375 166.201C42.9375 166.201 48.6315 139.47 53.401 135.522C56.477 132.986 63.2713 128.438 64.7234 125.145C66.1755 121.852 72.0085 106.214 73.1375 104.333C74.2665 102.451 60.8988 80.8001 60.8988 80.8001L32.74 95.3295L17.0735 123.145C17.0735 123.145 14.067 141.143 9.0643 147Z" fill="white"/>
<path d="M16.7994 125.313C16.7994 125.313 14.7909 140.329 8.1521 148.174" stroke="#263238" stroke-linecap="round" stroke-linejoin="round"/>
<path d="M42.9376 166.201C42.9376 166.201 48.5988 140.337 53.401 135.522C53.401 135.522 64.249 129.215 66.2042 121.791C67.5582 116.649 70.0206 110.722 71.1987 108.03" stroke="#263238" stroke-linecap="round" stroke-linejoin="round"/>
<path d="M45.2201 108.861C44.811 108.599 51.7853 114.178 52.0553 121.803" stroke="#263238" stroke-linecap="round" stroke-linejoin="round"/>
<path d="M120.963 104.185C98.3512 109.503 25.5244 108.804 25.5244 108.804C24.9108 107.511 24.1704 104.255 23.4546 100.483C22.0229 92.912 20.6854 83.2626 20.6854 83.2626L18.2761 83.0949C18.2761 83.0949 17.867 78.7917 17.458 74.4476C17.0489 70.1035 19.5032 70.1076 19.5032 70.1076L19.3273 55.071L19.2823 51.316C30.3757 48.4199 63.8194 51.406 63.8194 51.406L64.8625 55.0301L65.4433 57.5989L118.08 56.1141C122.906 68.5941 120.963 104.185 120.963 104.185Z" fill="#92E3A9"/>
<path d="M112.218 67.7084L77.6948 69.4346C76.2738 69.5056 75.1795 70.7152 75.2505 72.1361L75.6013 79.1513C75.6723 80.5723 76.8819 81.6666 78.3028 81.5956L112.826 79.8694C114.247 79.7983 115.342 78.5888 115.271 77.1678L114.92 70.1527C114.849 68.7317 113.639 67.6374 112.218 67.7084Z" fill="#263238"/>
<path d="M115.081 84.4529L115.192 85.6187L75.4405 87.1567L75.4078 86.1096L115.081 84.4529Z" fill="#263238"/>
<path d="M115.278 88.5066L115.314 89.5538L75.5673 91.0222L75.5305 89.9792L115.278 88.5066Z" fill="#263238"/>
<path opacity="0.3" d="M118.071 56.1142C118.071 56.1142 123.937 83.9294 120.963 104.185C120.963 104.185 83.871 108.538 71.1701 107.834L70.6506 101.064L71.7141 100.901C71.7141 100.901 66.5928 62.2621 65.4311 57.599C65.4311 57.599 109.604 54.3716 118.071 56.1142Z" fill="black"/>
<path opacity="0.8" d="M69.4276 100.966L69.8653 106.083C69.8653 106.083 32.4783 107.72 29.1896 106.529C25.9009 105.339 29.3655 103.441 38.0618 102.758C46.7582 102.075 69.4276 100.966 69.4276 100.966Z" fill="white"/>
<path d="M47.1057 79.2621C48.9921 79.2621 50.5213 77.8776 50.5213 76.1697C50.5213 74.4618 48.9921 73.0773 47.1057 73.0773C45.2194 73.0773 43.6902 74.4618 43.6902 76.1697C43.6902 77.8776 45.2194 79.2621 47.1057 79.2621Z" fill="#263238"/>
<path d="M20.6854 83.2585C21.4559 91.9114 23.0754 100.468 25.5203 108.804C41.3791 108.669 57.2338 108.493 73.0885 107.985C88.9432 107.478 105.236 106.407 120.947 104.185C120.947 104.185 123.761 79.3317 118.055 56.1141C111.748 54.8011 65.5906 57.5908 65.5906 57.5908" stroke="#263238" stroke-linecap="round" stroke-linejoin="round"/>
<path d="M69.4275 100.966L69.8651 106.083L34.278 106.901C32.8095 107.028 30.523 107.221 29.1731 106.529C28.5595 106.214 28.1178 105.445 28.4082 104.815C28.67 104.251 29.3572 104.05 29.9707 103.928C34.323 103.032 38.7653 102.656 43.1952 102.328C52.6797 101.625 62.1791 101.149 71.6936 100.901C71.4932 100.901 69.1739 81.7614 68.9162 79.9943C67.9099 73.0814 66.9527 66.1399 65.7092 59.2638C65.2605 56.6016 64.6193 53.9755 63.7908 51.406C49.1305 50.3588 33.8199 49.3894 19.2496 51.316C19.3846 57.8076 19.1432 63.5874 19.4746 70.1076" stroke="#263238" stroke-linecap="round" stroke-linejoin="round"/>
<path d="M24.9764 106.877C24.8888 106.612 24.8366 106.337 24.821 106.059" stroke="#263238" stroke-linecap="round" stroke-linejoin="round"/>
<path d="M25.058 104.509C25.6021 103.146 27.2342 101.608 31.6723 101.118C39.7674 100.218 57.4137 98.5978 67.7667 98.2051" stroke="#263238" stroke-linecap="round" stroke-linejoin="round" stroke-dasharray="3.91 3.91"/>
<path d="M68.5685 98.1765L69.3866 98.1479L69.2761 97.3298" stroke="#263238" stroke-linecap="round" stroke-linejoin="round"/>
<path d="M69.0471 95.7631C67.1859 82.375 65.1243 69.085 62.7641 55.7705" stroke="#263238" stroke-linecap="round" stroke-linejoin="round" stroke-dasharray="3.88 3.88"/>
<path d="M62.6332 54.9893L62.486 54.1712L61.6679 54.1139" stroke="#263238" stroke-linecap="round" stroke-linejoin="round"/>
<path d="M60.0152 54.0076C53.2128 53.5535 33.8689 52.4205 20.9635 53.304" stroke="#263238" stroke-linecap="round" stroke-linejoin="round" stroke-dasharray="4.07 4.07"/>
<path d="M20.129 53.3654L19.3109 53.4308" stroke="#263238" stroke-linecap="round" stroke-linejoin="round"/>
<path d="M18.2761 83.0949L17.2985 72.6642C17.2688 72.3509 17.3027 72.0349 17.398 71.735C17.4933 71.4351 17.6481 71.1575 17.8532 70.9188C18.0582 70.6801 18.3093 70.4853 18.5915 70.3459C18.8736 70.2065 19.1809 70.1255 19.4951 70.1076C25.5081 69.7599 41.0601 68.9418 47.0281 69.4204C49.8914 69.6495 53.0043 70.5699 54.3909 73.3105C55.5444 75.5684 55.7162 78.9553 53.7815 80.8124C50.8363 83.6348 45.2487 83.418 41.4528 83.553C34.3844 83.823 18.2802 83.1562 18.2761 83.0949Z" stroke="#263238" stroke-linecap="round" stroke-linejoin="round"/>
<path d="M55.254 76.7178C55.254 76.4274 56.7429 82.7104 51.3026 84.7842C45.8623 86.8581 20.6854 86.2036 20.6854 86.2036V83.2585C20.6854 83.2585 38.4953 83.6348 41.4609 83.553C44.4265 83.4712 54.9349 84.457 55.254 76.7178Z" fill="#263238"/>
<path d="M50.0223 111.814C50.0223 111.814 54.4728 114.42 56.1376 119.316" stroke="#263238" stroke-linecap="round" stroke-linejoin="round"/>
<path d="M17.4212 71.6742C17.4212 71.6742 39.248 70.6475 44.8028 70.8316C50.3577 71.0157 53.0779 72.2387 53.6301 75.7197C54.1823 79.2007 50.8158 81.3687 48.1325 81.7777C45.4491 82.1868 18.272 82.3054 18.272 82.3054" stroke="#263238" stroke-linecap="round" stroke-linejoin="round" stroke-dasharray="4 4"/>
<path d="M32.421 113.843C32.421 113.843 29.0423 102.107 22.8247 99.7964C22.8247 99.7964 21.5976 91.7872 24.2482 91.3455C26.8989 90.9037 34.3844 85.9706 32.4292 79.8144C30.4739 73.6582 24.6041 82.9027 20.6936 83.2586C16.7831 83.6145 12.5127 88.7807 12.6885 93.223C12.8644 97.6652 8.59807 106.022 9.66569 110.812C10.7333 115.602 17.3149 124.147 17.8466 128.593" fill="white"/>
<path d="M32.421 113.843C32.421 113.843 29.0423 102.107 22.8247 99.7964C22.8247 99.7964 21.5976 91.7872 24.2482 91.3455C26.8989 90.9037 34.3844 85.9706 32.4292 79.8144C30.4739 73.6582 24.6041 82.9027 20.6936 83.2586C16.7831 83.6145 12.5127 88.7807 12.6885 93.223C12.8644 97.6652 8.59807 106.022 9.66569 110.812C10.7333 115.602 17.3149 124.147 17.8466 128.593" stroke="#263238" stroke-linecap="round" stroke-linejoin="round"/>
<path d="M24.2359 81.4546C24.2359 81.4546 28.9195 82.3055 31.4637 79.3317C34.008 76.3579 31.0792 76.1697 31.0792 76.1697L24.2359 81.4546Z" fill="white" stroke="#263238" stroke-linecap="round" stroke-linejoin="round"/>
<path d="M15.8709 88.0812C16.7259 88.14 17.5527 88.4114 18.2761 88.8707" stroke="#263238" stroke-linecap="round" stroke-linejoin="round"/>
<path d="M15.7278 89.7828C16.5794 89.8636 17.3907 90.1841 18.0675 90.7073" stroke="#263238" stroke-linecap="round" stroke-linejoin="round"/>
<path d="M28.3714 105.503C28.3714 105.503 48.4148 104.468 53.6915 104.77" stroke="#263238" stroke-linecap="round" stroke-linejoin="round"/>
<path d="M48.8116 103.24C48.8116 103.24 53.8552 102.831 56.9926 103.24" stroke="#263238" stroke-linecap="round" stroke-linejoin="round"/>
<path d="M61.5902 104.713H69.7507" stroke="#263238" stroke-linecap="round" stroke-linejoin="round"/>
<path d="M66.5273 59.8896C66.5273 59.8896 102.372 56.6868 116.775 58.5152C116.775 58.5152 120.661 65.6613 119.814 102.283C103.626 104.358 87.3394 105.569 71.0228 105.912" stroke="#263238" stroke-linecap="round" stroke-linejoin="round" stroke-dasharray="4 4"/>
<g opacity="0.1">
<path d="M163.562 110.571C162.543 106.239 161.05 104.611 159.553 103.359C159.553 103.359 159.52 100.905 157.602 99.506C157.089 99.0546 156.542 98.6443 155.966 98.2788C154.166 96.929 152.182 95.4155 152.182 95.4155C151.249 92.7158 149.985 89.4475 148.619 86.2324L148.689 86.9646C147.29 83.549 145.919 80.1498 145.535 79.0209V78.9963C145.944 80.0844 146.353 81.1356 146.803 82.1051L141.682 64.0047C141.559 63.2766 141.432 62.5608 141.305 61.8695C141.06 59.8243 140.393 55.971 138.786 55.697C138.726 55.6929 138.666 55.6929 138.606 55.697C138.606 55.697 136.712 54.8789 136.712 58.2372C134.458 58.9898 133.587 60.6914 133.37 62.6917C133.253 63.3261 133.239 63.9754 133.329 64.6142C133.37 65.3546 133.456 66.1113 133.57 66.864L126.314 57.325L125.614 56.4169L116.664 44.6363L104.634 28.7653C104.187 28.1761 103.627 27.6809 102.988 27.308C102.349 26.9351 101.643 26.6917 100.91 26.5918C100.177 26.4919 99.431 26.5374 98.7155 26.7258C98 26.9141 97.3285 27.2416 96.7396 27.6895L81.8053 39.0324L75.9763 43.4583C71.5055 45.7858 72.6712 50.3834 73.9107 52.0155L99.9547 86.2978C99.8191 86.2807 99.6823 86.2739 99.5457 86.2774C99.5457 86.2774 98.8012 84.5226 96.9605 84.8007C96.5685 84.8188 96.1892 84.9448 95.8642 85.1648C95.5673 85.3209 95.3153 85.5505 95.132 85.8315C94.9281 86.0778 94.7447 86.3405 94.5839 86.6169C93.6472 88.2203 94.5144 92.1431 95.8683 96.9331C95.9542 97.2439 96.0401 97.5425 96.1219 97.8207V97.8657L96.4696 99.0642C97.7949 103.662 100.274 112.69 100.732 117.115C100.765 117.525 100.785 117.962 100.793 118.371C100.822 123.468 98.5599 132.001 99.5334 135.527C99.6602 135.989 99.7911 136.431 99.922 136.868C100.646 139.224 101.292 141.454 102.429 143.667C103.812 146.366 105.46 148.956 107.003 151.57C109.833 156.372 112.762 161.117 115.789 165.804C117.184 167.956 118.816 169.919 120.395 171.94C121.119 172.869 122.698 174.264 122.972 175.454C122.972 175.454 136.974 176.611 144.811 171.633L144.075 160.491L149.331 130.283C150.832 128.004 155.467 123.554 156.391 122.147C156.87 121.447 157.336 120.752 157.79 120.073C161.246 116.845 162.977 114.346 163.737 111.438C163.754 111.446 163.701 111.115 163.562 110.571ZM115.089 117.169L115.02 117.038C116.45 117.685 117.965 118.126 119.519 118.347C117.887 118.159 116.043 117.897 115.089 117.169ZM120.996 118.523L121.749 118.576C121.497 118.575 121.246 118.557 120.996 118.523ZM114.942 116.862L114.001 114.997C112.692 111.242 109.735 102.39 109.723 102.353C109.144 99.8022 108.37 97.2997 107.408 94.8674C108.103 95.1127 108.849 95.1813 109.578 95.0671C110.307 94.9529 110.996 94.6593 111.584 94.2129L118.742 88.7766C119.483 89.2225 120.239 89.6234 120.98 89.9752L127.684 95.2151L122.366 117.07L114.942 116.862ZM142.078 66.5245C142.635 69.1342 143.514 72.8892 144.68 76.5257C143.548 73.2658 142.676 69.9217 142.07 66.5245H142.078Z" fill="black"/>
<path d="M111.69 171.543L111.731 171.74C111.731 171.74 111.719 171.666 111.69 171.543Z" fill="black"/>
</g>
<path d="M136.54 67.3262C136.949 67.0562 142.946 63.792 145.948 73.5805C148.95 83.369 152.472 100.025 152.472 100.025L145.338 101.412C145.338 101.412 138.728 97.8943 132.805 89.0834C132.805 89.0834 124.502 86.9318 120.886 81.8188C117.613 77.172 127.709 60.1106 127.709 60.1106L136.54 67.3262Z" fill="white"/>
<path d="M133.975 79.5076C135.742 82.1583 139.088 87.7336 143.604 89.4925" stroke="#263238" stroke-linecap="round" stroke-linejoin="round"/>
<path d="M128.977 82.3586C129.795 82.69 131.84 83.868 132.805 83.913C132.805 83.913 136.973 92.1635 143.849 94.8428" stroke="#263238" stroke-linecap="round" stroke-linejoin="round"/>
<path d="M125.152 85.3979C127.709 87.5372 130.756 88.9975 132.805 89.0793C132.805 89.0793 136.973 97.3298 143.85 100.009" stroke="#263238" stroke-linecap="round" stroke-linejoin="round"/>
<path d="M103.637 25.6119L81.0179 42.793C79.0534 44.2852 78.6705 47.0874 80.1627 49.0519L111.578 90.4101C113.07 92.3746 115.872 92.7574 117.837 91.2652L140.456 74.0841C142.42 72.5919 142.803 69.7897 141.311 67.8253L109.896 26.4671C108.403 24.5026 105.601 24.1197 103.637 25.6119Z" fill="#263238"/>
<path d="M139.812 73.1878L119.057 88.9566C118.468 89.4053 117.797 89.7334 117.081 89.922C116.365 90.1106 115.619 90.1561 114.886 90.0558C114.152 89.9554 113.446 89.7113 112.807 89.3374C112.168 88.9634 111.609 88.4671 111.163 87.8767L81.1589 48.3791C80.6701 47.7411 80.3267 47.004 80.1527 46.2193C79.9108 45.1656 79.9787 44.0645 80.3481 43.0485C80.7175 42.0325 81.3727 41.1449 82.2347 40.4926L88.0678 36.0667L102.998 24.7198C103.587 24.2721 104.259 23.9449 104.975 23.7569C105.69 23.5688 106.436 23.5237 107.169 23.624C107.902 23.7242 108.608 23.968 109.247 24.3413C109.886 24.7146 110.445 25.2102 110.893 25.7996L122.931 41.6461L131.881 53.4267L140.88 65.2891C141.329 65.8777 141.657 66.549 141.847 67.2646C142.036 67.9802 142.083 68.7262 141.983 69.4598C141.884 70.1933 141.641 70.9002 141.269 71.5399C140.896 72.1796 140.401 72.7396 139.812 73.1878Z" fill="#92E3A9"/>
<path opacity="0.1" d="M122.915 41.6461L88.0555 36.0626L102.998 24.7198C103.587 24.2721 104.259 23.9449 104.974 23.7569C105.69 23.5688 106.436 23.5237 107.169 23.624C107.902 23.7242 108.608 23.968 109.247 24.3413C109.886 24.7146 110.445 25.2102 110.893 25.7996L122.915 41.6461Z" fill="black"/>
<path opacity="0.1" d="M139.812 73.1878L119.057 88.9566C118.468 89.4053 117.797 89.7334 117.081 89.922C116.365 90.1106 115.619 90.1561 114.886 90.0558C114.152 89.9554 113.446 89.7113 112.807 89.3374C112.168 88.9634 111.609 88.4671 111.163 87.8767L81.1589 48.3791C80.6701 47.7411 80.3266 47.004 80.1526 46.2193L132.568 54.3716L140.88 65.3136C141.779 66.5007 142.171 67.9955 141.971 69.4711C141.771 70.9467 140.995 72.283 139.812 73.1878Z" fill="black"/>
<path d="M105.944 28.7301L102.279 31.5136C101.545 32.0711 101.402 33.1181 101.96 33.8521L106.396 39.6925C106.954 40.4264 108.001 40.5695 108.735 40.012L112.399 37.2285C113.133 36.6709 113.276 35.624 112.719 34.89L108.282 29.0496C107.725 28.3156 106.678 28.1726 105.944 28.7301Z" fill="white" stroke="#263238" stroke-linecap="round" stroke-linejoin="round"/>
<path d="M104.188 30.0578L110.516 38.656" stroke="#263238" stroke-linecap="round" stroke-linejoin="round"/>
<path d="M104.188 36.7867L110.516 31.9886" stroke="#263238" stroke-linecap="round" stroke-linejoin="round"/>
<path d="M116.443 86.3837L115.364 87.1773L102.188 69.8337L103.26 69.0237L116.443 86.3837Z" fill="#263238"/>
<path d="M118.272 85.0298L117.192 85.8315L104 68.4593L105.064 67.6494L118.272 85.0298Z" fill="#263238"/>
<path d="M120.096 83.684L119.02 84.4775L105.808 67.0889L106.876 66.2749L120.096 83.684Z" fill="#263238"/>
<path d="M121.925 82.33L120.845 83.1236L107.808 65.964L108.872 65.15L121.925 82.33Z" fill="#263238"/>
<path d="M123.896 80.8739L122.816 81.6715L109.76 64.4833L110.827 63.6693L123.896 80.8739Z" fill="#263238"/>
<path d="M123.896 60.6505L122.816 61.4441L109.76 44.2559L110.827 43.446L123.896 60.6505Z" fill="#263238"/>
<path d="M95.4603 30.4908L93.7893 31.76L130.581 80.1964L132.252 78.9271L95.4603 30.4908Z" fill="#263238"/>
<path d="M139.812 73.1878L119.057 88.9566C118.468 89.4053 117.797 89.7334 117.081 89.922C116.365 90.1106 115.619 90.1561 114.886 90.0558C114.152 89.9554 113.446 89.7113 112.807 89.3374C112.168 88.9634 111.609 88.4671 111.163 87.8767L81.1589 48.3791C80.6701 47.7411 80.3267 47.004 80.1527 46.2193C79.9108 45.1656 79.9787 44.0645 80.3481 43.0485C80.7175 42.0325 81.3727 41.1449 82.2347 40.4926L88.0678 36.0667L102.998 24.7198C103.587 24.2721 104.259 23.9449 104.975 23.7569C105.69 23.5688 106.436 23.5237 107.169 23.624C107.902 23.7242 108.608 23.968 109.247 24.3413C109.886 24.7146 110.445 25.2102 110.893 25.7996L122.931 41.6461L131.881 53.4267L140.88 65.2891C141.329 65.8777 141.657 66.549 141.847 67.2646C142.036 67.9802 142.083 68.7262 141.983 69.4598C141.884 70.1933 141.641 70.9002 141.269 71.5399C140.896 72.1796 140.401 72.7396 139.812 73.1878Z" stroke="#263238" stroke-linecap="round" stroke-linejoin="round"/>
<path d="M122.988 175.45C122.988 175.45 147.146 184.04 154.456 165.33C154.456 165.33 143.023 151.422 149.265 140.059C153.192 132.901 164.052 117.099 164.052 117.099C164.052 117.099 168.589 112.792 170 108.464C170 108.464 169.223 103.641 165.803 100.377C165.803 100.377 165.766 97.9229 163.848 96.524C161.929 95.125 158.412 92.4335 158.412 92.4335C158.412 92.4335 152.628 78.5586 151.769 76.0512C150.91 73.5437 149.184 68.8028 148.32 63.567C147.457 58.3312 146.66 52.6945 144.827 52.7109C144.827 52.7109 142.937 51.8928 142.937 55.2511C142.937 55.2511 138.97 57.2963 139.555 61.6241C140.139 65.9518 140.679 68.1893 140.524 70.6231C140.369 73.0569 141.15 81.5079 143.105 84.1585C143.105 84.1585 143.76 96.0209 144.741 99.1092C144.774 99.2032 144.803 99.2891 144.831 99.3669C145.862 101.981 135.562 112.047 129.987 114.772C129.987 114.772 129.402 115.86 127.238 115.561C125.074 115.262 121.413 115.123 120.783 113.516C120.153 111.908 115.961 99.3669 115.961 99.3669C115.961 99.3669 112.57 83.2913 105.796 83.2954C105.796 83.2954 104.769 80.8411 102.114 82.1828C99.4597 83.5245 101.198 90.8382 102.372 94.8387C103.546 98.8392 106.52 109.356 107.003 114.195C107.485 119.034 104.745 128.728 105.775 132.541C106.806 136.353 107.952 138.926 111.24 145.168C114.529 151.41 121.814 170.022 122.988 175.45Z" fill="white"/>
<path d="M122.988 175.45C122.988 175.45 117.818 155.987 110.218 143.401C102.618 130.814 107.088 126.364 107.088 115.888C107.088 105.413 98.5516 87.5781 100.855 83.6472C103.157 79.7162 106.299 82.8618 107.612 86.531C108.925 90.2001 107.088 92.2985 103.407 92.5603" stroke="#263238" stroke-linecap="round" stroke-linejoin="round"/>
<path d="M105.796 83.3118C105.796 83.3118 110.21 83.0418 112.922 90.0979C115.633 97.154 119.978 115.05 124.502 120.494" stroke="#263238" stroke-linecap="round" stroke-linejoin="round"/>
<path d="M120.931 113.884C120.955 113.941 127.25 117.451 137.018 114.375" stroke="#263238" stroke-linecap="round" stroke-linejoin="round"/>
<path d="M106.634 104.022C107.125 103.421 107.765 102.96 108.49 102.685C109.216 102.411 110 102.331 110.766 102.455" stroke="#263238" stroke-linecap="round" stroke-linejoin="round"/>
<path d="M107.473 106.243C107.897 105.736 108.455 105.358 109.084 105.154C109.713 104.949 110.386 104.925 111.028 105.085" stroke="#263238" stroke-linecap="round" stroke-linejoin="round"/>
<path d="M142.937 55.2388C136.515 57.3781 141.301 67.0767 140.524 70.6149C139.747 74.1532 141.751 80.927 143.293 84.6003C143.293 88.9075 144.827 99.3587 144.827 99.3587C143.878 102.684 135.959 112.485 128.265 115.553" stroke="#263238" stroke-linecap="round" stroke-linejoin="round"/>
<path d="M147.65 60.1229C147.65 60.1229 147.171 52.6987 144.827 52.6987C142.483 52.6987 142.626 57.7013 143.6 61.4155C144.574 65.1296 148.361 64.5979 147.65 60.1229Z" stroke="#263238" stroke-linecap="round" stroke-linejoin="round"/>
<path d="M147.65 60.1229C147.65 60.1229 149.646 71.793 153.029 79.1231" stroke="#263238" stroke-linecap="round" stroke-linejoin="round"/>
<path d="M157.017 106.456C158.653 103.805 159.377 101.298 159.982 98.107C159.831 96.1067 157.528 89.5783 154.853 83.2545" stroke="#263238" stroke-linecap="round" stroke-linejoin="round"/>
<path d="M158.628 93.0512C161.283 95.0474 165.901 96.5813 165.37 100.025C164.783 103.471 163.577 106.782 161.811 109.798" stroke="#263238" stroke-linecap="round" stroke-linejoin="round"/>
<path d="M155.045 166.201C155.045 166.201 145.797 153.361 147.65 144.493C149.012 137.969 157.769 126.56 164.052 117.111C167.513 113.884 169.243 111.385 170 108.476C168.891 103.016 167.092 101.424 165.361 100.025" stroke="#263238" stroke-linecap="round" stroke-linejoin="round"/>
<path d="M157.512 95.17C156.482 94.8804 155.403 94.8054 154.343 94.9496C153.282 95.0939 152.263 95.4543 151.347 96.0086" stroke="#263238" stroke-linecap="round" stroke-linejoin="round"/>
<path d="M156.992 97.3666C155.736 97.1764 154.452 97.4019 153.335 98.0088" stroke="#263238" stroke-linecap="round" stroke-linejoin="round"/>
</g>
<defs>
<filter id="filter0_d_344_594" x="3.6521" y="23.072" width="170.848" height="162.346" filterUnits="userSpaceOnUse" color-interpolation-filters="sRGB">
<feFlood flood-opacity="0" result="BackgroundImageFix"/>
<feColorMatrix in="SourceAlpha" type="matrix" values="0 0 0 0 0 0 0 0 0 0 0 0 0 0 0 0 0 0 127 0" result="hardAlpha"/>
<feOffset dy="4"/>
<feGaussianBlur stdDeviation="2"/>
<feComposite in2="hardAlpha" operator="out"/>
<feColorMatrix type="matrix" values="0 0 0 0 0 0 0 0 0 0 0 0 0 0 0 0 0 0 0.25 0"/>
<feBlend mode="normal" in2="BackgroundImageFix" result="effect1_dropShadow_344_594"/>
<feBlend mode="normal" in="SourceGraphic" in2="effect1_dropShadow_344_594" result="shape"/>
</filter>
</defs>
</svg>
